<?xml version="1.0" standalone="no"?><!-- Generator: Gravit.io --><svg xmlns="http://www.w3.org/2000/svg" xmlns:xlink="http://www.w3.org/1999/xlink" style="isolation:isolate" viewBox="0 0 224 280" width="224" height="280"><defs><clipPath id="_clipPath_WlCKPcRmObmbtNBhb7ew7Hv5d6sQUNs2"><rect width="224" height="280"/></clipPath></defs><g clip-path="url(#_clipPath_WlCKPcRmObmbtNBhb7ew7Hv5d6sQUNs2)"><clipPath id="_clipPath_LsODD5A2GisBQWJeJ2NZNAKHeuJZ2PaE"><rect x="0" y="0" width="224" height="280" transform="matrix(1,0,0,1,0,0)" fill="rgb(255,255,255)"/></clipPath><g clip-path="url(#_clipPath_LsODD5A2GisBQWJeJ2NZNAKHeuJZ2PaE)"><g><clipPath id="_clipPath_uCiAEIfjRF9QbP1b9Us7M3nUt92QiBvQ"><rect x="0" y="0" width="224" height="280" transform="matrix(1,0,0,1,0,0)" fill="rgb(255,255,255)"/></clipPath><g clip-path="url(#_clipPath_uCiAEIfjRF9QbP1b9Us7M3nUt92QiBvQ)"><g><g><g><path d=" M 102 259 L 122 259 L 122 271 L 102 271 L 102 259 L 102 259 Z " fill="rgb(219,218,218)"/><path d=" M 102 272 L 105 272 L 105 275 L 102 275 L 102 272 L 102 272 Z " fill="rgb(219,218,218)"/><path d=" M 106 272 L 109 272 L 109 275 L 106 275 L 106 272 L 106 272 Z " fill="rgb(219,218,218)"/><path d=" M 110 272 L 113 272 L 113 275 L 110 275 L 110 272 L 110 272 Z " fill="rgb(219,218,218)"/></g><g><path d=" M 138 259 L 158 259 L 158 275 L 138 275 L 138 259 L 138 259 Z " fill="rgb(219,218,218)"/><path d=" M 134 267 L 137 267 L 137 270 L 134 270 L 134 267 L 134 267 Z " fill="rgb(219,218,218)"/><path d=" M 134 263 L 137 263 L 137 266 L 134 266 L 134 263 L 134 263 Z " fill="rgb(219,218,218)"/><path d=" M 134 259 L 137 259 L 137 262 L 134 262 L 134 259 L 134 259 Z " fill="rgb(219,218,218)"/></g><g><clipPath id="_clipPath_V8mX6EGK4rY0yrs7n1RcPpPYLc2Axyoy"><path d=" M 0 1 L 224 1 L 224 281 L 0 281 L 0 1 L 0 1 Z " fill="rgb(255,255,255)"/></clipPath><g clip-path="url(#_clipPath_V8mX6EGK4rY0yrs7n1RcPpPYLc2Axyoy)"><g><g><g><path d=" M 8.492 6 L 24.332 6 C 25.127 6 25.772 6.645 25.772 7.44 L 25.772 22.56 C 25.772 22.942 25.62 23.308 25.35 23.578 C 25.08 23.848 24.714 24 24.332 24 L 8.492 24 C 7.698 24 7.052 23.355 7.052 22.56 L 7.052 7.44 C 7.052 6.645 7.698 6 8.492 6 Z " fill="rgb(219,218,218)"/><path d=" M 8.492 6 L 24.332 6 C 25.128 6 25.772 6.645 25.772 7.44 L 25.772 8.16 L 7.052 8.16 L 7.052 7.44 C 7.052 6.645 7.697 6 8.492 6 Z  M 7.052 21.84 L 25.772 21.84 L 25.772 22.56 C 25.772 22.942 25.62 23.308 25.35 23.578 C 25.08 23.848 24.714 24 24.332 24 L 8.492 24 C 8.11 24 7.744 23.848 7.474 23.578 C 7.204 23.308 7.052 22.942 7.052 22.56 L 7.052 21.84 L 7.052 21.84 L 7.052 21.84 Z  M 7.052 18.96 L 25.772 18.96 L 25.772 21.12 L 7.052 21.12 L 7.052 18.96 L 7.052 18.96 Z " fill="rgb(188,186,186)"/><path d=" M 40.492 6 L 56.332 6 C 57.127 6 57.772 6.645 57.772 7.44 L 57.772 16.8 C 57.772 17.595 57.127 18.24 56.332 18.24 L 40.492 18.24 C 39.698 18.24 39.052 17.595 39.052 16.8 L 39.052 7.44 C 39.052 6.645 39.698 6 40.492 6 Z " fill="rgb(219,218,218)"/><path d=" M 40.132 18.96 L 56.692 18.96 C 57.288 18.96 57.772 19.444 57.772 20.04 C 57.772 20.636 57.288 21.12 56.692 21.12 L 40.132 21.12 C 39.536 21.12 39.052 20.636 39.052 20.04 C 39.052 19.444 39.536 18.96 40.132 18.96 Z  M 40.132 21.84 L 56.692 21.84 C 57.288 21.84 57.772 22.324 57.772 22.92 C 57.772 23.516 57.288 24 56.692 24 L 40.132 24 C 39.536 24 39.052 23.516 39.052 22.92 C 39.052 22.324 39.536 21.84 40.132 21.84 Z  M 40.492 6 L 56.332 6 C 57.128 6 57.772 6.645 57.772 7.44 L 57.772 8.16 L 39.052 8.16 L 39.052 7.44 C 39.052 6.645 39.697 6 40.492 6 Z " fill="rgb(188,186,186)"/><path d=" M 70.346 8.853 L 89.758 8.853 C 90.472 8.853 91.052 9.433 91.052 10.147 L 91.052 19.853 C 91.052 20.567 90.472 21.147 89.758 21.147 L 70.346 21.147 C 69.632 21.147 69.052 20.567 69.052 19.853 L 69.052 10.147 C 69.052 9.433 69.632 8.853 70.346 8.853 Z " fill="rgb(219,218,218)"/><path d=" M 72.288 11.441 L 80.053 11.441 L 80.053 12.735 L 72.288 12.735 L 72.288 11.441 L 72.288 11.441 Z  M 72.288 13.382 L 89.112 13.382 L 89.112 14.029 L 72.288 14.029 L 72.288 13.382 L 72.288 13.382 Z  M 72.288 14.676 L 89.111 14.676 L 89.111 15.324 L 72.288 15.324 L 72.288 14.676 L 72.288 14.676 L 72.288 14.676 Z  M 73.258 17.265 L 77.788 17.265 C 78.312 17.282 78.728 17.711 78.728 18.236 C 78.728 18.76 78.312 19.189 77.788 19.206 L 73.258 19.206 C 72.722 19.206 72.288 18.771 72.288 18.235 C 72.288 17.7 72.722 17.265 73.258 17.265 L 73.258 17.265 L 73.258 17.265 Z " fill="rgb(188,186,186)"/><path d=" M 102.346 10.147 L 121.758 10.147 C 122.472 10.147 123.052 10.727 123.052 11.441 L 123.052 18.559 C 123.052 19.273 122.472 19.853 121.758 19.853 L 102.346 19.853 C 101.632 19.853 101.052 19.273 101.052 18.559 L 101.052 11.441 C 101.052 10.727 101.632 10.147 102.346 10.147 Z " fill="rgb(219,218,218)"/><path d=" M 109.788 15.971 L 114.317 15.971 C 114.841 15.988 115.257 16.417 115.257 16.942 C 115.257 17.466 114.841 17.895 114.317 17.912 L 109.788 17.912 C 109.252 17.912 108.818 17.477 108.818 16.941 C 108.818 16.406 109.252 15.971 109.788 15.971 Z  M 104.288 12.735 L 119.817 12.735 L 119.817 13.382 L 104.288 13.382 L 104.288 12.735 L 104.288 12.735 Z  M 105.582 14.029 L 118.523 14.029 L 118.523 14.676 L 105.582 14.676 L 105.582 14.029 L 105.582 14.029 Z " fill="rgb(188,186,186)"/><path d=" M 134.346 10.044 L 153.758 10.044 C 154.472 10.044 155.052 10.624 155.052 11.338 L 155.052 18.456 C 155.052 19.17 154.472 19.75 153.758 19.75 L 134.346 19.75 C 133.632 19.75 133.052 19.17 133.052 18.456 L 133.052 11.338 C 133.052 10.624 133.632 10.044 134.346 10.044 Z " fill="rgb(219,218,218)"/><path d=" M 136.611 13.279 L 141.141 13.279 C 141.677 13.279 142.112 13.714 142.112 14.25 C 142.112 14.786 141.677 15.221 141.141 15.221 L 136.611 15.221 C 136.075 15.221 135.64 14.786 135.64 14.25 C 135.64 13.714 136.075 13.279 136.611 13.279 Z  M 144.052 15.221 L 153.111 15.221 L 153.111 15.868 L 144.052 15.868 L 144.052 15.221 L 144.052 15.221 Z  M 144.052 16.515 L 153.111 16.515 L 153.111 17.162 L 144.052 17.162 L 144.052 16.515 L 144.052 16.515 Z  M 144.052 12.632 L 151.817 12.632 L 151.817 13.926 L 144.052 13.926 L 144.052 12.632 L 144.052 12.632 Z " fill="rgb(188,186,186)"/><path d=" M 187.052 11.338 L 165.052 11.338 L 165.052 19.75 C 165.055 20.464 165.632 21.041 166.346 21.044 L 185.758 21.044 C 186.472 21.042 187.05 20.464 187.052 19.75 L 187.052 11.338 L 187.052 11.338 L 187.052 11.338 Z " fill-rule="evenodd" fill="rgb(219,218,218)"/><path d=" M 166.023 8.75 L 169.582 8.75 L 169.582 10.691 L 165.052 10.691 L 165.052 9.721 C 165.052 9.185 165.487 8.75 166.023 8.75 Z  M 181.229 8.75 L 186.082 8.75 C 186.339 8.75 186.586 8.852 186.768 9.034 C 186.95 9.217 187.052 9.464 187.052 9.721 L 187.052 10.691 L 181.229 10.691 L 181.229 8.75 L 181.229 8.75 L 181.229 8.75 Z " fill="rgb(219,218,218)"/><path d=" M 170.229 8.75 L 174.758 8.75 L 174.758 10.691 L 170.229 10.691 L 170.229 8.75 L 170.229 8.75 Z " fill="rgb(188,186,186)"/><path d=" M 175.405 8.75 L 180.581 8.75 L 180.581 10.691 L 175.405 10.691 L 175.405 8.75 L 175.405 8.75 Z " fill="rgb(219,218,218)"/><g><path d=" M 133.052 65.212 L 140.177 65.212 L 140.177 71.624 L 133.052 71.624 L 133.052 65.212 L 133.052 65.212 Z  M 140.889 65.212 L 149.439 65.212 L 149.439 66.637 L 140.889 66.637 L 140.889 65.212 L 140.889 65.212 Z  M 140.889 67.349 L 155.138 67.349 L 155.138 68.061 L 140.889 68.061 L 140.889 67.349 L 140.889 67.349 Z  M 140.889 68.774 L 155.138 68.774 L 155.138 69.486 L 140.889 69.486 L 140.889 68.774 L 140.889 68.774 Z  M 140.889 70.199 L 155.138 70.199 L 155.138 70.911 L 140.889 70.911 L 140.889 70.199 L 140.889 70.199 Z  M 140.889 71.624 L 155.138 71.624 L 155.138 72.336 L 140.889 72.336 L 140.889 71.624 L 140.889 71.624 Z  M 140.889 73.049 L 155.138 73.049 L 155.138 73.761 L 140.889 73.761 L 140.889 73.049 L 140.889 73.049 Z  M 140.889 74.474 L 155.138 74.474 L 155.138 75.186 L 140.889 75.186 L 140.889 74.474 L 140.889 74.474 Z  M 140.889 75.899 L 155.138 75.899 L 155.138 76.611 L 140.889 76.611 L 140.889 75.899 L 140.889 75.899 Z " fill="rgb(219,218,218)"/></g><g><path d=" M 106.876 74.471 L 111.405 74.471 L 111.405 79 L 106.876 79 L 106.876 74.471 L 106.876 74.471 Z  M 101.052 62.824 L 105.581 62.824 L 105.581 67.353 L 101.052 67.353 L 101.052 62.824 L 101.052 62.824 Z  M 106.876 62.824 L 111.405 62.824 L 111.405 67.353 L 106.876 67.353 L 106.876 62.824 L 106.876 62.824 Z  M 112.699 62.824 L 117.228 62.824 L 117.228 67.353 L 112.699 67.353 L 112.699 62.824 L 112.699 62.824 Z  M 118.523 62.824 L 123.052 62.824 L 123.052 67.353 L 118.523 67.353 L 118.523 62.824 L 118.523 62.824 Z  M 101.052 68.647 L 105.581 68.647 L 105.581 73.176 L 101.052 73.176 L 101.052 68.647 L 101.052 68.647 Z  M 106.876 68.647 L 111.405 68.647 L 111.405 73.176 L 106.876 73.176 L 106.876 68.647 L 106.876 68.647 Z  M 112.699 68.647 L 117.228 68.647 L 117.228 73.176 L 112.699 73.176 L 112.699 68.647 L 112.699 68.647 Z  M 118.523 68.647 L 123.052 68.647 L 123.052 73.176 L 118.523 73.176 L 118.523 68.647 L 118.523 68.647 Z  M 101.052 74.471 L 105.581 74.471 L 105.581 79 L 101.052 79 L 101.052 74.471 L 101.052 74.471 Z  M 112.699 74.471 L 117.228 74.471 L 117.228 79 L 112.699 79 L 112.699 74.471 L 112.699 74.471 Z  M 118.523 74.471 L 123.052 74.471 L 123.052 79 L 118.523 79 L 118.523 74.471 L 118.523 74.471 Z " fill="rgb(219,218,218)"/></g><g><path d=" M 69.052 64.412 L 75.523 64.412 L 75.523 70.236 L 69.052 70.236 L 69.052 64.412 L 69.052 64.412 Z  M 76.817 64.412 L 83.288 64.412 L 83.288 70.236 L 76.817 70.236 L 76.817 64.412 L 76.817 64.412 Z  M 84.582 64.412 L 91.053 64.412 L 91.053 70.236 L 84.582 70.236 L 84.582 64.412 L 84.582 64.412 Z  M 69.052 72.176 L 75.523 72.176 L 75.523 78 L 69.052 78 L 69.052 72.176 L 69.052 72.176 Z  M 76.817 72.176 L 83.288 72.176 L 83.288 78 L 76.817 78 L 76.817 72.176 L 76.817 72.176 Z  M 84.582 72.176 L 91.053 72.176 L 91.053 78 L 84.582 78 L 84.582 72.176 L 84.582 72.176 Z " fill="rgb(219,218,218)"/></g><g><path d=" M 37.052 64.09 L 40.108 64.09 L 40.108 66.534 L 37.052 66.534 L 37.052 64.09 L 37.052 64.09 Z  M 40.719 64.09 L 45.608 64.09 L 45.608 65.312 L 40.719 65.312 L 40.719 64.09 L 40.719 64.09 Z  M 40.719 65.923 L 47.441 65.923 L 47.441 66.534 L 40.719 66.534 L 40.719 65.923 L 40.719 65.923 Z  M 40.719 67.145 L 47.441 67.145 L 47.441 67.756 L 40.719 67.756 L 40.719 67.145 L 40.719 67.145 Z  M 40.719 68.368 L 47.441 68.368 L 47.441 68.979 L 40.719 68.979 L 40.719 68.368 L 40.719 68.368 Z  M 40.719 69.59 L 47.441 69.59 L 47.441 70.201 L 40.719 70.201 L 40.719 69.59 L 40.719 69.59 Z  M 48.663 64.09 L 51.719 64.09 L 51.719 66.534 L 48.663 66.534 L 48.663 64.09 L 48.663 64.09 Z  M 52.33 64.09 L 57.219 64.09 L 57.219 65.312 L 52.33 65.312 L 52.33 64.09 L 52.33 64.09 Z  M 52.33 65.923 L 59.052 65.923 L 59.052 66.534 L 52.33 66.534 L 52.33 65.923 L 52.33 65.923 Z  M 52.33 67.145 L 59.052 67.145 L 59.052 67.756 L 52.33 67.756 L 52.33 67.145 L 52.33 67.145 Z  M 52.33 68.368 L 59.052 68.368 L 59.052 68.979 L 52.33 68.979 L 52.33 68.368 L 52.33 68.368 Z  M 52.33 69.59 L 59.052 69.59 L 59.052 70.201 L 52.33 70.201 L 52.33 69.59 L 52.33 69.59 Z  M 37.052 72.034 L 40.108 72.034 L 40.108 74.478 L 37.052 74.478 L 37.052 72.034 L 37.052 72.034 Z  M 40.719 72.034 L 45.608 72.034 L 45.608 73.256 L 40.719 73.256 L 40.719 72.034 L 40.719 72.034 Z  M 40.719 73.868 L 47.441 73.868 L 47.441 74.479 L 40.719 74.479 L 40.719 73.868 L 40.719 73.868 Z  M 40.719 75.09 L 47.441 75.09 L 47.441 75.701 L 40.719 75.701 L 40.719 75.09 L 40.719 75.09 Z  M 40.719 76.312 L 47.441 76.312 L 47.441 76.923 L 40.719 76.923 L 40.719 76.312 L 40.719 76.312 Z  M 40.719 77.534 L 47.441 77.534 L 47.441 78.145 L 40.719 78.145 L 40.719 77.534 L 40.719 77.534 Z  M 48.663 72.034 L 51.719 72.034 L 51.719 74.478 L 48.663 74.478 L 48.663 72.034 L 48.663 72.034 Z  M 52.33 72.034 L 57.219 72.034 L 57.219 73.256 L 52.33 73.256 L 52.33 72.034 L 52.33 72.034 Z  M 52.33 73.868 L 59.052 73.868 L 59.052 74.479 L 52.33 74.479 L 52.33 73.868 L 52.33 73.868 Z  M 52.33 75.09 L 59.052 75.09 L 59.052 75.701 L 52.33 75.701 L 52.33 75.09 L 52.33 75.09 Z  M 52.33 76.312 L 59.052 76.312 L 59.052 76.923 L 52.33 76.923 L 52.33 76.312 L 52.33 76.312 Z  M 52.33 77.534 L 59.052 77.534 L 59.052 78.145 L 52.33 78.145 L 52.33 77.534 L 52.33 77.534 Z " fill="rgb(219,218,218)"/></g><g><path d=" M 5.052 64 L 15.405 64 L 15.405 70.471 L 5.052 70.471 L 5.052 64 L 5.052 64 Z  M 16.699 64 L 27.052 64 L 27.052 70.471 L 16.699 70.471 L 16.699 64 L 16.699 64 Z  M 5.052 71.765 L 15.405 71.765 L 15.405 78.236 L 5.052 78.236 L 5.052 71.765 L 5.052 71.765 Z  M 16.699 71.765 L 27.052 71.765 L 27.052 78.236 L 16.699 78.236 L 16.699 71.765 L 16.699 71.765 Z " fill="rgb(219,218,218)"/></g><g><path d=" M 173.238 68.891 L 179.378 68.891 L 179.378 69.914 L 173.238 69.914 L 173.238 68.891 L 173.238 68.891 Z  M 169.657 70.937 L 182.959 70.937 L 182.959 71.449 L 169.657 71.449 L 169.657 70.937 L 169.657 70.937 Z  M 169.657 71.96 L 182.959 71.96 L 182.959 72.472 L 169.657 72.472 L 169.657 71.96 L 169.657 71.96 Z  M 169.657 72.984 L 182.959 72.984 L 182.959 73.496 L 169.657 73.496 L 169.657 72.984 L 169.657 72.984 Z  M 170.68 74.007 L 181.936 74.007 L 181.936 74.519 L 170.68 74.519 L 170.68 74.007 L 170.68 74.007 Z  M 174.262 76.053 L 177.332 76.053 L 177.332 76.565 L 174.262 76.565 L 174.262 76.053 L 174.262 76.053 Z  M 173.75 77.077 L 177.843 77.077 L 177.843 77.589 L 173.75 77.589 L 173.75 77.077 L 173.75 77.077 Z " fill="rgb(219,218,218)"/><path d=" M 185.006 72.472 L 186.391 71.193 L 185.006 69.914 L 185.671 69.914 L 187.052 71.193 L 185.667 72.472 L 185.006 72.472 L 185.006 72.472 L 185.006 72.472 Z  M 167.099 72.472 L 165.714 71.193 L 167.099 69.914 L 166.434 69.914 L 165.052 71.193 L 166.437 72.472 L 167.099 72.472 L 167.099 72.472 L 167.099 72.472 Z " fill-rule="evenodd" fill="rgb(219,218,218)"/><circle vector-effect="non-scaling-stroke" cx="176.052" cy="66.077" r="1.7909999999999968" fill="rgb(219,218,218)"/></g><g><path d=" M 173.331 37 L 179.471 37 L 179.471 38.023 L 173.331 38.023 L 173.331 37 L 173.331 37 Z  M 169.75 39.047 L 183.052 39.047 L 183.052 39.559 L 169.75 39.559 L 169.75 39.047 L 169.75 39.047 Z  M 169.75 40.07 L 183.052 40.07 L 183.052 40.582 L 169.75 40.582 L 169.75 40.07 L 169.75 40.07 Z  M 169.75 41.093 L 183.052 41.093 L 183.052 41.605 L 169.75 41.605 L 169.75 41.093 L 169.75 41.093 Z  M 170.773 42.116 L 182.029 42.116 L 182.029 42.628 L 170.773 42.628 L 170.773 42.116 L 170.773 42.116 Z  M 174.866 48 L 177.936 48 L 177.936 48.512 L 174.866 48.512 L 174.866 48 L 174.866 48 Z  M 174.355 49.023 L 178.448 49.023 L 178.448 49.535 L 174.355 49.535 L 174.355 49.023 L 174.355 49.023 Z " fill="rgb(219,218,218)"/><path d=" M 184.919 44.505 L 186.304 43.226 L 184.919 41.947 L 185.585 41.947 L 186.966 43.226 L 185.58 44.505 L 184.919 44.505 L 184.919 44.505 L 184.919 44.505 Z  M 167.012 44.505 L 165.627 43.226 L 167.012 41.947 L 166.347 41.947 L 164.966 43.226 L 166.351 44.505 L 167.012 44.505 L 167.012 44.505 L 167.012 44.505 Z " fill-rule="evenodd" fill="rgb(219,218,218)"/><circle vector-effect="non-scaling-stroke" cx="176.401" cy="45.791" r="1.7909999999999968" fill="rgb(219,218,218)"/></g><g><path d=" M 19.956 93.645 L 27.053 93.645 L 27.053 100.032 L 19.956 100.032 L 19.956 93.645 L 19.956 93.645 Z  M 10.73 93.645 L 19.246 93.645 L 19.246 95.064 L 10.73 95.064 L 10.73 93.645 L 10.73 93.645 Z  M 5.052 95.774 L 19.246 95.774 L 19.246 96.484 L 5.052 96.484 L 5.052 95.774 L 5.052 95.774 Z  M 5.052 97.194 L 19.246 97.194 L 19.246 97.904 L 5.052 97.904 L 5.052 97.194 L 5.052 97.194 Z  M 5.052 98.613 L 19.246 98.613 L 19.246 99.323 L 5.052 99.323 L 5.052 98.613 L 5.052 98.613 Z  M 5.052 100.032 L 19.246 100.032 L 19.246 100.742 L 5.052 100.742 L 5.052 100.032 L 5.052 100.032 Z  M 5.052 101.452 L 19.246 101.452 L 19.246 102.162 L 5.052 102.162 L 5.052 101.452 L 5.052 101.452 Z  M 5.052 102.871 L 19.246 102.871 L 19.246 103.581 L 5.052 103.581 L 5.052 102.871 L 5.052 102.871 Z  M 5.052 104.29 L 19.246 104.29 L 19.246 105 L 5.052 105 L 5.052 104.29 L 5.052 104.29 Z " fill="rgb(219,218,218)"/></g><g><path d=" M 44.639 90.978 L 52.225 90.978 L 52.225 97.806 L 44.639 97.806 L 44.639 90.978 L 44.639 90.978 Z  M 42.363 99.323 L 54.501 99.323 L 54.501 100.84 L 42.363 100.84 L 42.363 99.323 L 42.363 99.323 Z  M 37.052 102.357 L 59.052 102.357 L 59.052 103.116 L 37.052 103.116 L 37.052 102.357 L 37.052 102.357 Z  M 37.052 103.874 L 59.052 103.874 L 59.052 104.633 L 37.052 104.633 L 37.052 103.874 L 37.052 103.874 Z  M 37.052 105.392 L 59.052 105.392 L 59.052 106.151 L 37.052 106.151 L 37.052 105.392 L 37.052 105.392 Z  M 37.052 106.909 L 59.052 106.909 L 59.052 107.668 L 37.052 107.668 L 37.052 106.909 L 37.052 106.909 Z " fill="rgb(219,218,218)"/></g><g><path d=" M 71.955 90 L 88.15 90 L 88.15 97.361 L 71.955 97.361 L 71.955 90 L 71.955 90 Z  M 74.899 99.57 L 84.469 99.57 L 84.469 101.042 L 74.899 101.042 L 74.899 99.57 L 74.899 99.57 Z  M 72.691 102.514 L 86.678 102.514 L 86.678 103.25 L 72.691 103.25 L 72.691 102.514 L 72.691 102.514 Z  M 72.691 103.987 L 86.678 103.987 L 86.678 104.723 L 72.691 104.723 L 72.691 103.987 L 72.691 103.987 Z  M 72.691 105.459 L 86.678 105.459 L 86.678 106.195 L 72.691 106.195 L 72.691 105.459 L 72.691 105.459 Z  M 72.691 106.931 L 86.678 106.931 L 86.678 107.667 L 72.691 107.667 L 72.691 106.931 L 72.691 106.931 Z " fill="rgb(219,218,218)"/></g><g><path d=" M 101.052 93.114 L 110.111 93.114 L 110.111 102.82 L 101.052 102.82 L 101.052 93.114 L 101.052 93.114 Z  M 111.405 93.114 L 121.111 93.114 L 121.111 94.408 L 111.405 94.408 L 111.405 93.114 L 111.405 93.114 Z  M 111.405 95.703 L 123.052 95.703 L 123.052 96.35 L 111.405 96.35 L 111.405 95.703 L 111.405 95.703 Z  M 111.405 96.997 L 123.052 96.997 L 123.052 97.644 L 111.405 97.644 L 111.405 96.997 L 111.405 96.997 Z  M 111.405 98.291 L 123.052 98.291 L 123.052 98.938 L 111.405 98.938 L 111.405 98.291 L 111.405 98.291 Z  M 111.405 99.585 L 123.052 99.585 L 123.052 100.232 L 111.405 100.232 L 111.405 99.585 L 111.405 99.585 Z  M 111.405 100.879 L 123.052 100.879 L 123.052 101.526 L 111.405 101.526 L 111.405 100.879 L 111.405 100.879 Z  M 111.405 102.173 L 123.052 102.173 L 123.052 102.82 L 111.405 102.82 L 111.405 102.173 L 111.405 102.173 Z  M 111.405 103.467 L 123.052 103.467 L 123.052 104.114 L 111.405 104.114 L 111.405 103.467 L 111.405 103.467 Z  M 111.405 104.761 L 123.052 104.761 L 123.052 105.408 L 111.405 105.408 L 111.405 104.761 L 111.405 104.761 Z " fill="rgb(219,218,218)"/></g><path d=" M 133.096 93.114 L 155.096 93.114 L 155.096 105.408 L 133.096 105.408 L 133.096 93.114 L 133.096 93.114 Z " fill="rgb(219,218,218)"/><path d=" M 133.096 100.879 L 155.096 100.879 L 155.096 105.408 L 133.096 105.408 L 133.096 100.879 L 133.096 100.879 Z " fill="rgb(188,186,186)"/><path d=" M 139.566 102.173 L 149.272 102.173 L 149.272 102.82 L 139.566 102.82 L 139.566 102.173 L 139.566 102.173 Z  M 140.213 103.467 L 148.625 103.467 L 148.625 104.114 L 140.213 104.114 L 140.213 103.467 L 140.213 103.467 Z  M 165.139 93.114 L 174.162 93.114 L 174.162 102.782 L 165.139 102.782 L 165.139 93.114 L 165.139 93.114 Z " fill="rgb(219,218,218)"/><path d=" M 171.584 97.948 L 167.717 95.693 L 167.717 100.204 L 171.584 97.948 L 171.584 97.948 L 171.584 97.948 Z " fill-rule="evenodd" fill="rgb(162,162,162)"/><path d=" M 175.451 93.114 L 185.119 93.114 L 185.119 94.403 L 175.451 94.403 L 175.451 93.114 L 175.451 93.114 Z  M 175.451 95.693 L 187.052 95.693 L 187.052 96.338 L 175.451 96.338 L 175.451 95.693 L 175.451 95.693 Z  M 175.451 96.982 L 187.052 96.982 L 187.052 97.627 L 175.451 97.627 L 175.451 96.982 L 175.451 96.982 Z  M 175.451 98.271 L 187.052 98.271 L 187.052 98.916 L 175.451 98.916 L 175.451 98.271 L 175.451 98.271 Z  M 175.451 99.56 L 187.052 99.56 L 187.052 100.205 L 175.451 100.205 L 175.451 99.56 L 175.451 99.56 Z  M 175.451 100.849 L 187.052 100.849 L 187.052 101.494 L 175.451 101.494 L 175.451 100.849 L 175.451 100.849 Z  M 175.451 102.138 L 187.052 102.138 L 187.052 102.783 L 175.451 102.783 L 175.451 102.138 L 175.451 102.138 Z  M 175.451 103.427 L 187.052 103.427 L 187.052 104.072 L 175.451 104.072 L 175.451 103.427 L 175.451 103.427 Z  M 175.451 104.716 L 187.052 104.716 L 187.052 105.361 L 175.451 105.361 L 175.451 104.716 L 175.451 104.716 Z " fill="rgb(219,218,218)"/><g><path d=" M 5.052 121.297 L 14.78 121.297 L 14.78 122.594 L 5.052 122.594 L 5.052 121.297 L 5.052 121.297 Z  M 5.052 123.891 L 16.726 123.891 L 16.726 124.54 L 5.052 124.54 L 5.052 123.891 L 5.052 123.891 Z  M 5.052 125.188 L 16.726 125.188 L 16.726 125.837 L 5.052 125.837 L 5.052 125.188 L 5.052 125.188 Z  M 5.052 126.486 L 16.726 126.486 L 16.726 127.135 L 5.052 127.135 L 5.052 126.486 L 5.052 126.486 Z  M 5.052 127.783 L 16.726 127.783 L 16.726 128.432 L 5.052 128.432 L 5.052 127.783 L 5.052 127.783 Z  M 5.052 129.08 L 16.726 129.08 L 16.726 129.729 L 5.052 129.729 L 5.052 129.08 L 5.052 129.08 Z  M 5.052 130.377 L 16.726 130.377 L 16.726 131.026 L 5.052 131.026 L 5.052 130.377 L 5.052 130.377 Z  M 5.052 131.674 L 16.726 131.674 L 16.726 132.323 L 5.052 132.323 L 5.052 131.674 L 5.052 131.674 Z  M 5.052 132.971 L 16.726 132.971 L 16.726 133.62 L 5.052 133.62 L 5.052 132.971 L 5.052 132.971 Z  M 18.024 121.297 L 27.104 121.297 L 27.104 131.025 L 18.024 131.025 L 18.024 121.297 L 18.024 121.297 Z " fill="rgb(219,218,218)"/></g><g><path d=" M 38.052 119.057 L 58.052 119.057 L 58.052 129.057 L 38.052 129.057 L 38.052 119.057 L 38.052 119.057 Z  M 38.052 130.596 L 47.283 130.596 L 47.283 132.134 L 38.052 132.134 L 38.052 130.596 L 38.052 130.596 Z  M 38.052 132.903 L 58.052 132.903 L 58.052 133.672 L 38.052 133.672 L 38.052 132.903 L 38.052 132.903 Z  M 38.052 134.442 L 58.052 134.442 L 58.052 135.211 L 38.052 135.211 L 38.052 134.442 L 38.052 134.442 Z " fill="rgb(219,218,218)"/></g><g><path d=" M 70.052 118.288 L 79.283 118.288 L 79.283 119.826 L 70.052 119.826 L 70.052 118.288 L 70.052 118.288 Z  M 70.052 120.596 L 90.052 120.596 L 90.052 121.365 L 70.052 121.365 L 70.052 120.596 L 70.052 120.596 Z  M 70.052 122.134 L 90.052 122.134 L 90.052 122.903 L 70.052 122.903 L 70.052 122.134 L 70.052 122.134 Z  M 70.052 123.673 L 90.052 123.673 L 90.052 124.442 L 70.052 124.442 L 70.052 123.673 L 70.052 123.673 Z  M 70.052 125.211 L 90.052 125.211 L 90.052 125.98 L 70.052 125.98 L 70.052 125.211 L 70.052 125.211 Z  M 70.052 128.288 L 79.283 128.288 L 79.283 129.826 L 70.052 129.826 L 70.052 128.288 L 70.052 128.288 Z  M 70.052 130.596 L 90.052 130.596 L 90.052 131.365 L 70.052 131.365 L 70.052 130.596 L 70.052 130.596 Z  M 70.052 132.134 L 90.052 132.134 L 90.052 132.903 L 70.052 132.903 L 70.052 132.134 L 70.052 132.134 Z  M 70.052 133.673 L 90.052 133.673 L 90.052 134.442 L 70.052 134.442 L 70.052 133.673 L 70.052 133.673 Z  M 70.052 135.211 L 90.052 135.211 L 90.052 135.98 L 70.052 135.98 L 70.052 135.211 L 70.052 135.211 Z " fill="rgb(219,218,218)"/></g><g><path d=" M 102 118.638 L 106.444 118.638 L 106.444 122.342 L 102 122.342 L 102 118.638 L 102 118.638 Z  M 107.185 118.638 L 116.074 118.638 L 116.074 120.119 L 107.185 120.119 L 107.185 118.638 L 107.185 118.638 Z  M 107.185 120.861 L 122 120.861 L 122 121.602 L 107.185 121.602 L 107.185 120.861 L 107.185 120.861 Z  M 107.185 122.342 L 122 122.342 L 122 123.083 L 107.185 123.083 L 107.185 122.342 L 107.185 122.342 Z  M 107.185 123.824 L 122 123.824 L 122 124.565 L 107.185 124.565 L 107.185 123.824 L 107.185 123.824 Z  M 107.185 125.305 L 122 125.305 L 122 126.046 L 107.185 126.046 L 107.185 125.305 L 107.185 125.305 Z  M 102 128.268 L 106.444 128.268 L 106.444 131.972 L 102 131.972 L 102 128.268 L 102 128.268 Z  M 107.185 128.268 L 116.074 128.268 L 116.074 129.749 L 107.185 129.749 L 107.185 128.268 L 107.185 128.268 Z  M 107.185 130.49 L 122 130.49 L 122 131.231 L 107.185 131.231 L 107.185 130.49 L 107.185 130.49 Z  M 107.185 131.972 L 122 131.972 L 122 132.713 L 107.185 132.713 L 107.185 131.972 L 107.185 131.972 Z  M 107.185 133.453 L 122 133.453 L 122 134.194 L 107.185 134.194 L 107.185 133.453 L 107.185 133.453 Z  M 107.185 134.935 L 122 134.935 L 122 135.676 L 107.185 135.676 L 107.185 134.935 L 107.185 134.935 Z " fill="rgb(219,218,218)"/></g><g><path d=" M 133.135 125 L 139.805 125 L 139.805 128.812 L 133.135 128.812 L 133.135 125 L 133.135 125 Z  M 140.759 125 L 147.429 125 L 147.429 128.812 L 140.759 128.812 L 140.759 125 L 140.759 125 Z  M 148.382 125 L 155.052 125 L 155.052 128.812 L 148.382 128.812 L 148.382 125 L 148.382 125 Z " fill="rgb(219,218,218)"/></g><path d=" M 165.052 120.461 L 186.966 120.461 L 186.966 133.351 L 165.052 133.351 L 165.052 120.461 L 165.052 120.461 Z " fill="rgb(219,218,218)"/><path d=" M 178.587 125.295 L 174.72 123.039 L 174.72 127.55 L 178.587 125.295 L 178.587 125.295 L 178.587 125.295 Z " fill-rule="evenodd" fill="rgb(162,162,162)"/><path d=" M 165.052 128.839 L 186.966 128.839 L 186.966 133.351 L 165.052 133.351 L 165.052 128.839 L 165.052 128.839 Z " fill="rgb(188,186,186)"/><path d=" M 171.498 130.128 L 181.166 130.128 L 181.166 130.773 L 171.498 130.773 L 171.498 130.128 L 171.498 130.128 Z  M 172.142 131.417 L 180.521 131.417 L 180.521 132.062 L 172.142 132.062 L 172.142 131.417 L 172.142 131.417 Z " fill="rgb(219,218,218)"/><g><path d=" M 5.052 153.406 L 10.24 153.406 L 10.24 156 L 5.052 156 L 5.052 153.406 L 5.052 153.406 Z  M 10.889 153.406 L 15.429 153.406 L 15.429 156 L 10.889 156 L 10.889 153.406 L 10.889 153.406 Z  M 16.078 153.406 L 20.618 153.406 L 20.618 156 L 16.078 156 L 16.078 153.406 L 16.078 153.406 Z  M 21.266 153.406 L 27.103 153.406 L 27.103 156 L 21.266 156 L 21.266 153.406 L 21.266 153.406 Z " fill="rgb(219,218,218)"/></g><g><path d=" M 42.32 146.192 L 54.504 146.192 L 54.504 149.941 L 42.32 149.941 L 42.32 146.192 L 42.32 146.192 Z  M 42.32 150.879 L 54.504 150.879 L 54.504 154.628 L 42.32 154.628 L 42.32 150.879 L 42.32 150.879 Z  M 42.32 155.565 L 54.504 155.565 L 54.504 159.314 L 42.32 159.314 L 42.32 155.565 L 42.32 155.565 Z  M 42.32 160.251 L 54.504 160.251 L 54.504 164 L 42.32 164 L 42.32 160.251 L 42.32 160.251 Z " fill="rgb(219,218,218)"/></g><g><path d=" M 69.052 151 L 79.976 151 L 79.976 157.9 L 69.052 157.9 L 69.052 151 L 69.052 151 Z  M 82.276 152.15 L 90.9 152.15 L 90.9 152.725 L 82.276 152.725 L 82.276 152.15 L 82.276 152.15 Z  M 82.276 153.3 L 90.9 153.3 L 90.9 153.875 L 82.276 153.875 L 82.276 153.3 L 82.276 153.3 Z  M 82.276 154.45 L 90.9 154.45 L 90.9 155.025 L 82.276 155.025 L 82.276 154.45 L 82.276 154.45 Z  M 82.851 155.6 L 90.325 155.6 L 90.325 156.175 L 82.851 156.175 L 82.851 155.6 L 82.851 155.6 Z " fill="rgb(219,218,218)"/></g><path d=" M 101 148.934 L 123.052 148.934 L 123.052 161.257 L 101 161.257 L 101 148.934 L 101 148.934 Z " fill="rgb(219,218,218)"/><path d=" M 101 154.772 L 113.323 154.772 L 113.323 158.015 L 101 158.015 L 101 154.772 L 101 154.772 Z " fill="rgb(188,186,186)"/><g><path d=" M 133.135 147.934 L 154.647 147.934 L 154.647 157.863 L 133.135 157.863 L 133.135 147.934 L 133.135 147.934 Z  M 138.1 159.518 L 150.511 159.518 L 150.511 160.345 L 138.1 160.345 L 138.1 159.518 L 138.1 159.518 Z  M 138.927 161.173 L 149.683 161.173 L 149.683 162 L 138.927 162 L 138.927 161.173 L 138.927 161.173 Z " fill="rgb(219,218,218)"/></g><path d=" M 165.052 149.012 L 174.72 149.012 L 174.72 150.301 L 165.052 150.301 L 165.052 149.012 L 165.052 149.012 Z  M 165.052 151.59 L 176.653 151.59 L 176.653 152.235 L 165.052 152.235 L 165.052 151.59 L 165.052 151.59 Z  M 165.052 152.879 L 176.653 152.879 L 176.653 153.524 L 165.052 153.524 L 165.052 152.879 L 165.052 152.879 Z  M 165.052 154.168 L 176.653 154.168 L 176.653 154.813 L 165.052 154.813 L 165.052 154.168 L 165.052 154.168 Z  M 165.052 155.457 L 176.653 155.457 L 176.653 156.102 L 165.052 156.102 L 165.052 155.457 L 165.052 155.457 Z  M 165.052 156.746 L 176.653 156.746 L 176.653 157.391 L 165.052 157.391 L 165.052 156.746 L 165.052 156.746 Z  M 165.052 158.035 L 176.653 158.035 L 176.653 158.68 L 165.052 158.68 L 165.052 158.035 L 165.052 158.035 Z  M 165.052 159.324 L 176.653 159.324 L 176.653 159.969 L 165.052 159.969 L 165.052 159.324 L 165.052 159.324 Z  M 165.052 160.613 L 176.653 160.613 L 176.653 161.258 L 165.052 161.258 L 165.052 160.613 L 165.052 160.613 Z  M 177.943 149.012 L 186.966 149.012 L 186.966 158.68 L 177.943 158.68 L 177.943 149.012 L 177.943 149.012 Z " fill="rgb(219,218,218)"/><path d=" M 183.743 153.846 L 180.521 151.59 L 180.521 156.102 L 183.743 153.846 L 183.743 153.846 L 183.743 153.846 Z " fill-rule="evenodd" fill="rgb(162,162,162)"/><g><path d=" M 5.052 175.615 L 27.052 175.615 L 27.052 190 L 5.052 190 L 5.052 175.615 L 5.052 175.615 Z " fill="rgb(219,218,218)"/><path d=" M 5.052 185.769 L 27.052 185.769 L 27.052 190 L 5.052 190 L 5.052 185.769 L 5.052 185.769 Z " fill="rgb(188,186,186)"/><path d=" M 10.129 187.462 L 22.821 187.462 L 22.821 188.308 L 10.129 188.308 L 10.129 187.462 L 10.129 187.462 Z " fill="rgb(219,218,218)"/></g><g><path d=" M 37.052 182 L 59.052 182 L 59.052 184.308 L 37.052 184.308 L 37.052 182 L 37.052 182 Z " fill="rgb(219,218,218)"/></g><g><path d=" M 165.052 174 L 187.052 174 L 187.052 185 L 165.052 185 L 165.052 174 L 165.052 174 Z " fill="rgb(219,218,218)"/><path d=" M 178.591 179.5 L 173.514 176.538 L 173.514 182.462 L 178.591 179.5 L 178.591 179.5 L 178.591 179.5 Z " fill-rule="evenodd" fill="rgb(162,162,162)"/><path d=" M 165.052 186.692 L 175.206 186.692 L 175.206 188.384 L 165.052 188.384 L 165.052 186.692 L 165.052 186.692 Z  M 165.052 189.231 L 187.052 189.231 L 187.052 190.077 L 165.052 190.077 L 165.052 189.231 L 165.052 189.231 Z  M 165.052 190.923 L 187.052 190.923 L 187.052 191.769 L 165.052 191.769 L 165.052 190.923 L 165.052 190.923 Z " fill="rgb(219,218,218)"/></g><g><path d=" M 138.908 177.019 L 155.053 177.019 L 155.053 189.289 L 138.908 189.289 L 138.908 177.019 L 138.908 177.019 Z " fill="rgb(219,218,218)"/><path d=" M 139.553 177.665 L 154.406 177.665 L 154.406 188.643 L 139.553 188.643 L 139.553 177.665 L 139.553 177.665 Z " fill="rgb(255,255,255)"/><path d=" M 133.096 178.956 L 138.908 178.956 L 138.908 180.893 L 133.096 180.893 L 133.096 178.956 L 133.096 178.956 Z " fill="rgb(188,186,186)"/><path d=" M 133.096 181.539 L 138.908 181.539 L 138.908 183.476 L 133.096 183.476 L 133.096 181.539 L 133.096 181.539 Z  M 133.096 184.123 L 138.908 184.123 L 138.908 186.06 L 133.096 186.06 L 133.096 184.123 L 133.096 184.123 Z " fill="rgb(219,218,218)"/></g><g><path d=" M 75.523 179.088 L 91.052 179.088 L 91.052 189.441 L 69.052 189.441 L 69.052 177.147 L 75.523 177.147 L 75.523 179.088 L 75.523 179.088 L 75.523 179.088 Z " fill-rule="evenodd" fill="rgb(219,218,218)"/><path d=" M 82.641 177.147 L 87.17 177.147 L 87.17 179.088 L 82.641 179.088 L 82.641 177.147 L 82.641 177.147 Z  M 76.817 177.147 L 81.346 177.147 L 81.346 179.088 L 76.817 179.088 L 76.817 177.147 L 76.817 177.147 Z " fill="rgb(219,218,218)"/><path d=" M 74.876 179.735 L 90.405 179.735 L 90.405 188.794 L 69.699 188.794 L 69.699 177.794 L 74.876 177.794 L 74.876 179.735 L 74.876 179.735 L 74.876 179.735 Z " fill-rule="evenodd" fill="rgb(255,255,255)"/></g><g><path d=" M 123 179.088 L 123 179.735 L 106.824 179.735 L 106.824 177.794 L 101.647 177.794 L 101.647 179.735 L 101 179.735 L 101 177.147 L 107.471 177.147 L 107.471 179.088 L 123 179.088 L 123 179.088 L 123 179.088 Z " fill-rule="evenodd" fill="rgb(219,218,218)"/><path d=" M 108.765 177.147 L 113.294 177.147 L 113.294 179.088 L 108.765 179.088 L 108.765 177.147 L 108.765 177.147 Z  M 114.588 177.147 L 119.117 177.147 L 119.117 179.088 L 114.588 179.088 L 114.588 177.147 L 114.588 177.147 Z " fill="rgb(219,218,218)"/></g><path d=" M 198.811 17.386 L 197.052 17.386 L 197.052 12.512 L 198.731 12.512 Q 199.3 12.512 199.599 12.582 Q 200.018 12.678 200.314 12.931 Q 200.7 13.257 200.891 13.764 Q 201.082 14.271 201.082 14.922 Q 201.082 15.478 200.952 15.906 Q 200.823 16.335 200.62 16.616 Q 200.417 16.897 200.176 17.059 Q 199.935 17.22 199.594 17.303 Q 199.253 17.386 198.811 17.386 L 198.811 17.386 L 198.811 17.386 Z  M 197.697 13.087 L 197.697 16.811 L 198.738 16.811 Q 199.22 16.811 199.494 16.721 Q 199.769 16.631 199.932 16.468 Q 200.161 16.239 200.289 15.852 Q 200.417 15.464 200.417 14.912 Q 200.417 14.148 200.166 13.737 Q 199.915 13.326 199.556 13.187 Q 199.297 13.087 198.721 13.087 L 197.697 13.087 L 197.697 13.087 L 197.697 13.087 Z  M 204.311 16.249 L 204.929 16.325 Q 204.783 16.867 204.387 17.167 Q 203.991 17.466 203.376 17.466 Q 202.602 17.466 202.148 16.989 Q 201.694 16.512 201.694 15.65 Q 201.694 14.759 202.153 14.267 Q 202.612 13.775 203.343 13.775 Q 204.051 13.775 204.5 14.257 Q 204.949 14.739 204.949 15.614 L 204.946 15.773 L 202.312 15.773 Q 202.346 16.355 202.642 16.665 Q 202.937 16.974 203.38 16.974 Q 203.709 16.974 203.942 16.801 Q 204.174 16.628 204.311 16.249 L 204.311 16.249 L 204.311 16.249 Z  M 202.346 15.281 L 204.317 15.281 Q 204.277 14.836 204.091 14.613 Q 203.805 14.267 203.35 14.267 Q 202.937 14.267 202.656 14.543 Q 202.376 14.819 202.346 15.281 Z  M 206.419 17.386 L 205.823 17.386 L 205.823 14.32 L 205.295 14.32 L 205.295 13.855 L 205.823 13.855 L 205.823 13.479 Q 205.823 13.124 205.887 12.951 Q 205.973 12.718 206.191 12.573 Q 206.409 12.429 206.801 12.429 Q 207.054 12.429 207.36 12.488 L 207.27 13.01 Q 207.084 12.977 206.917 12.977 Q 206.645 12.977 206.532 13.094 Q 206.419 13.21 206.419 13.529 L 206.419 13.855 L 207.107 13.855 L 207.107 14.32 L 206.419 14.32 L 206.419 17.386 L 206.419 17.386 L 206.419 17.386 Z  M 209.876 16.95 Q 209.544 17.233 209.236 17.349 Q 208.929 17.466 208.576 17.466 Q 207.995 17.466 207.682 17.182 Q 207.369 16.897 207.369 16.455 Q 207.369 16.196 207.488 15.981 Q 207.606 15.767 207.797 15.637 Q 207.988 15.507 208.227 15.441 Q 208.404 15.394 208.759 15.351 Q 209.484 15.265 209.827 15.145 L 209.83 14.989 Q 209.83 14.623 209.66 14.473 Q 209.431 14.271 208.979 14.271 Q 208.556 14.271 208.355 14.419 Q 208.154 14.567 208.058 14.942 L 207.473 14.862 Q 207.552 14.487 207.735 14.256 Q 207.918 14.025 208.264 13.9 Q 208.61 13.775 209.065 13.775 Q 209.517 13.775 209.8 13.882 Q 210.083 13.988 210.216 14.149 Q 210.349 14.311 210.402 14.557 Q 210.432 14.709 210.432 15.108 L 210.432 15.906 Q 210.432 16.741 210.47 16.962 Q 210.508 17.183 210.621 17.386 L 209.996 17.386 Q 209.903 17.2 209.876 16.95 L 209.876 16.95 L 209.876 16.95 Z  M 209.827 15.833 L 209.827 15.614 Q 209.501 15.747 208.849 15.84 Q 208.48 15.893 208.327 15.96 Q 208.174 16.026 208.091 16.154 Q 208.008 16.282 208.008 16.438 Q 208.008 16.678 208.189 16.837 Q 208.37 16.997 208.719 16.997 Q 209.065 16.997 209.335 16.846 Q 209.604 16.694 209.73 16.432 Q 209.827 16.229 209.827 15.833 L 209.827 15.833 L 209.827 15.833 Z  M 214.209 17.386 L 213.673 17.386 L 213.673 16.867 Q 213.261 17.466 212.553 17.466 Q 212.24 17.466 211.969 17.346 Q 211.698 17.226 211.567 17.045 Q 211.436 16.864 211.383 16.601 Q 211.346 16.425 211.346 16.043 L 211.346 13.855 L 211.945 13.855 L 211.945 15.813 Q 211.945 16.282 211.981 16.445 Q 212.038 16.681 212.221 16.816 Q 212.403 16.95 212.673 16.95 Q 212.942 16.95 213.178 16.812 Q 213.414 16.674 213.512 16.437 Q 213.61 16.199 213.61 15.747 L 213.61 13.855 L 214.209 13.855 L 214.209 17.386 L 214.209 17.386 L 214.209 17.386 Z  M 215.732 17.386 L 215.133 17.386 L 215.133 12.512 L 215.732 12.512 L 215.732 17.386 L 215.732 17.386 L 215.732 17.386 Z  M 217.966 16.851 L 218.052 17.379 Q 217.8 17.433 217.6 17.433 Q 217.274 17.433 217.095 17.329 Q 216.915 17.226 216.842 17.059 Q 216.769 16.891 216.769 16.352 L 216.769 14.32 L 216.33 14.32 L 216.33 13.855 L 216.769 13.855 L 216.769 12.981 L 217.364 12.621 L 217.364 13.855 L 217.966 13.855 L 217.966 14.32 L 217.364 14.32 L 217.364 16.385 Q 217.364 16.641 217.396 16.714 Q 217.427 16.788 217.499 16.831 Q 217.57 16.874 217.703 16.874 Q 217.803 16.874 217.966 16.851 L 217.966 16.851 L 217.966 16.851 Z " fill="rgb(190,187,187)"/><g><path d=" M 6.346 38 L 25.758 38 C 26.473 38 27.052 38.579 27.052 39.294 L 27.052 46.412 C 27.052 47.127 26.473 47.706 25.758 47.706 L 6.346 47.706 C 5.631 47.706 5.052 47.127 5.052 46.412 L 5.052 39.294 C 5.052 38.579 5.631 38 6.346 38 Z " fill-rule="evenodd" fill="rgb(219,218,218)"/><path d=" M 6.994 39.941 L 14.111 39.941 L 14.111 41.235 L 6.994 41.235 L 6.994 39.941 L 6.994 39.941 L 6.994 39.941 Z  M 6.994 42.529 L 15.405 42.529 L 15.405 43.176 L 6.994 43.176 L 6.994 42.529 L 6.994 42.529 L 6.994 42.529 Z  M 6.994 43.824 L 15.405 43.824 L 15.405 44.471 L 6.994 44.471 L 6.994 43.824 L 6.994 43.824 L 6.994 43.824 Z  M 17.994 41.235 L 25.111 41.235 L 25.111 43.176 L 17.994 43.176 L 17.994 41.235 L 17.994 41.235 L 17.994 41.235 Z " fill-rule="evenodd" fill="rgb(191,188,188)"/></g><g><path d=" M 37.052 42 L 42.876 42 L 42.876 43.941 L 37.052 43.941 L 37.052 42 L 37.052 42 L 37.052 42 Z  M 45.464 42 L 51.288 42 L 51.288 43.941 L 45.464 43.941 L 45.464 42 L 45.464 42 L 45.464 42 Z  M 53.229 42 L 59.052 42 L 59.052 43.941 L 53.229 43.941 L 53.229 42 L 53.229 42 L 53.229 42 Z " fill-rule="evenodd" fill="rgb(220,219,219)"/></g><g><path d=" M 69.052 41.86 L 71.039 41.86 L 71.039 43.846 L 69.052 43.846 L 69.052 41.86 L 69.052 41.86 L 69.052 41.86 Z  M 73.025 41.86 L 75.011 41.86 L 75.011 43.846 L 73.025 43.846 L 73.025 41.86 L 73.025 41.86 L 73.025 41.86 Z  M 76.997 41.86 L 78.983 41.86 L 78.983 43.846 L 76.997 43.846 L 76.997 41.86 L 76.997 41.86 L 76.997 41.86 Z  M 80.97 41.86 L 82.956 41.86 L 82.956 43.846 L 80.97 43.846 L 80.97 41.86 L 80.97 41.86 L 80.97 41.86 Z  M 84.942 41.86 L 86.928 41.86 L 86.928 43.846 L 84.942 43.846 L 84.942 41.86 L 84.942 41.86 L 84.942 41.86 Z  M 88.915 41.86 L 90.901 41.86 L 90.901 43.846 L 88.915 43.846 L 88.915 41.86 L 88.915 41.86 L 88.915 41.86 Z " fill-rule="evenodd" fill="rgb(220,219,219)"/></g><g><path d=" M 101 41.733 L 123.052 41.733 L 123.052 42.382 L 101 42.382 L 101 41.733 L 101 41.733 L 101 41.733 Z  M 101 43.03 L 123.052 43.03 L 123.052 43.679 L 101 43.679 L 101 43.03 L 101 43.03 L 101 43.03 Z " fill-rule="evenodd" fill="rgb(220,219,219)"/></g><path d=" M 133.135 37.491 L 155.052 37.491 L 155.052 48.45 L 133.135 48.45 L 133.135 37.491 L 133.135 37.491 L 133.135 37.491 Z " fill-rule="evenodd" fill="rgb(220,219,219)"/><g><path d=" M 198.721 34.348 L 217.321 34.348 C 217.984 34.348 218.521 34.885 218.521 35.548 L 218.521 48.148 C 218.521 48.811 217.984 49.348 217.321 49.348 L 198.721 49.348 C 198.058 49.348 197.521 48.811 197.521 48.148 L 197.521 35.548 C 197.521 34.885 198.058 34.348 198.721 34.348 Z " fill-rule="evenodd" fill="rgb(237,237,237)"/><path d=" M 199.921 36.748 L 216.721 36.748 L 216.721 37.348 L 199.921 37.348 L 199.921 36.748 L 199.921 36.748 L 199.921 36.748 Z  M 199.921 37.948 L 214.921 37.948 L 214.921 38.548 L 199.921 38.548 L 199.921 37.948 L 199.921 37.948 L 199.921 37.948 Z  M 199.921 39.148 L 214.921 39.148 L 214.921 39.748 L 199.921 39.748 L 199.921 39.148 L 199.921 39.148 L 199.921 39.148 Z  M 199.921 43.948 L 211.921 43.948 L 211.921 44.548 L 199.921 44.548 L 199.921 43.948 L 199.921 43.948 L 199.921 43.948 Z  M 199.921 45.148 L 213.121 45.148 L 213.121 45.748 L 199.921 45.748 L 199.921 45.148 L 199.921 45.148 L 199.921 45.148 Z  M 202.321 46.948 C 203.178 46.948 203.971 47.405 204.399 48.148 C 204.828 48.891 204.828 49.805 204.399 50.548 C 203.971 51.291 203.178 51.748 202.321 51.748 C 200.996 51.748 199.921 50.673 199.921 49.348 C 199.921 48.023 200.996 46.948 202.321 46.948 L 202.321 46.948 L 202.321 46.948 Z " fill-rule="evenodd" fill="rgb(192,189,189)"/></g><g><path d=" M 197.052 66 L 218.52 66 L 218.52 76.161 L 197.052 76.161 L 197.052 66 L 197.052 66 Z " fill="rgb(235,235,235)"/><path d=" M 199.269 68.126 L 216.469 68.126 L 216.469 74.109 L 199.269 74.109 L 199.269 68.126 L 199.269 68.126 L 199.269 68.126 Z " fill-rule="evenodd" fill="rgb(220,219,219)"/><path d=" M 197.218 68.126 L 199.269 68.126 L 199.269 74.109 L 197.218 74.109 L 197.218 68.126 L 197.218 68.126 L 197.218 68.126 Z  M 216.469 66.075 L 216.469 68.126 L 199.269 68.126 L 199.269 66.075 L 216.469 66.075 L 216.469 66.075 L 216.469 66.075 Z  M 216.469 74.109 L 216.469 76.161 L 199.269 76.161 L 199.269 74.109 L 216.469 74.109 L 216.469 74.109 L 216.469 74.109 Z  M 216.469 68.052 L 218.521 68.052 L 218.521 74.109 L 216.469 74.109 L 216.469 68.052 L 216.469 68.052 L 216.469 68.052 Z " fill-rule="evenodd" fill="rgb(194,193,193)"/></g><g><path d=" M 197.052 180.308 L 214.244 180.308 L 214.244 191.769 L 197.052 191.769 L 197.052 180.308 L 197.052 180.308 L 197.052 180.308 Z " fill-rule="evenodd" fill="rgb(233,231,231)"/><path d=" M 214.244 183.747 L 214.244 191.769 L 213.671 191.769 L 213.671 180.308 L 197.052 180.308 L 197.052 179.735 L 214.244 179.735 L 214.244 183.747 L 214.244 183.747 L 214.244 183.747 Z " fill-rule="evenodd" fill="rgb(188,187,187)"/></g><path d=" M 204.535 156.713 L 205.847 156.506 Q 205.958 157.295 206.463 157.716 Q 206.968 158.136 207.875 158.136 Q 208.789 158.136 209.232 157.764 Q 209.674 157.391 209.674 156.89 Q 209.674 156.44 209.283 156.182 Q 209.011 156.005 207.927 155.732 Q 206.467 155.364 205.903 155.094 Q 205.339 154.825 205.047 154.35 Q 204.756 153.874 204.756 153.299 Q 204.756 152.775 204.996 152.329 Q 205.235 151.883 205.648 151.588 Q 205.958 151.36 206.493 151.201 Q 207.027 151.043 207.639 151.043 Q 208.561 151.043 209.258 151.308 Q 209.954 151.574 210.286 152.027 Q 210.618 152.48 210.743 153.24 L 209.446 153.417 Q 209.357 152.812 208.933 152.473 Q 208.509 152.134 207.735 152.134 Q 206.821 152.134 206.43 152.436 Q 206.039 152.739 206.039 153.144 Q 206.039 153.402 206.201 153.609 Q 206.363 153.822 206.71 153.963 Q 206.909 154.036 207.882 154.302 Q 209.291 154.678 209.847 154.917 Q 210.404 155.157 210.721 155.614 Q 211.038 156.071 211.038 156.75 Q 211.038 157.413 210.651 158 Q 210.264 158.586 209.534 158.906 Q 208.804 159.227 207.882 159.227 Q 206.356 159.227 205.556 158.593 Q 204.756 157.959 204.535 156.713 L 204.535 156.713 L 204.535 156.713 Z  M 202.824 131.516 L 201.359 131.516 L 204.925 126.711 L 201.78 122.296 L 203.233 122.296 L 204.906 124.66 Q 205.428 125.396 205.648 125.793 Q 205.957 125.289 206.378 124.742 L 208.233 122.296 L 209.561 122.296 L 206.321 126.642 L 209.812 131.516 L 208.303 131.516 L 205.982 128.227 Q 205.787 127.944 205.579 127.61 Q 205.271 128.113 205.139 128.302 L 202.824 131.516 L 202.824 131.516 L 202.824 131.516 Z  M 216.599 131.516 L 210.837 131.516 L 210.837 122.296 L 212.057 122.296 L 212.057 130.428 L 216.599 130.428 L 216.599 131.516 L 216.599 131.516 L 216.599 131.516 Z  M 211.859 104.669 L 204.567 104.669 L 204.567 92.998 L 206.111 92.998 L 206.111 103.292 L 211.859 103.292 L 211.859 104.669 L 211.859 104.669 L 211.859 104.669 Z " fill="rgb(190,187,187)"/><g><clipPath id="_clipPath_QP0VUA2F5MV0C9ZHj77OrgpxqHbUWLoU"><path d=" M -448 -559 L 448 -559 L 448 561 L -448 561 L -448 -559 L -448 -559 L -448 -559 Z  M 198.052 235.426 L 206.803 235.426 L 206.803 238 L 198.052 238 L 198.052 235.426 L 198.052 235.426 L 198.052 235.426 Z " fill-rule="evenodd" fill="rgb(255,255,255)"/></clipPath><g clip-path="url(#_clipPath_QP0VUA2F5MV0C9ZHj77OrgpxqHbUWLoU)"><g><g><g><clipPath id="_clipPath_2HwsOLNTpOoERZXGNgXklrTavBfsh2QA"><path d=" M -448 -559 L 448 -559 L 448 561 L -448 561 L -448 -559 L -448 -559 Z  M 198.052 235.426 L 206.803 235.426 L 206.803 238 L 198.052 238 L 198.052 235.426 L 198.052 235.426 L 198.052 235.426 Z " fill-rule="evenodd" fill="rgb(255,255,255)"/></clipPath><g clip-path="url(#_clipPath_2HwsOLNTpOoERZXGNgXklrTavBfsh2QA)"><g><g><clipPath id="_clipPath_h8h5z3whVDHsWPxdYbQXzUeDEeEYxClL"><path d=" M -448 -559 L 448 -559 L 448 561 L -448 561 L -448 -559 L -448 -559 Z  M 198.052 235.426 L 206.803 235.426 L 206.803 238 L 198.052 238 L 198.052 235.426 L 198.052 235.426 L 198.052 235.426 L 198.052 235.426 Z " fill-rule="evenodd" fill="rgb(255,255,255)"/></clipPath><g clip-path="url(#_clipPath_h8h5z3whVDHsWPxdYbQXzUeDEeEYxClL)"><g><clipPath id="_clipPath_figgqbXRDmZaS66RQKZcRwUq0FBD1ySM"><path d=" M -448 -560 L 448 -560 L 448 560 L -448 560 L -448 -560 Z  M 198.052 235.426 L 206.803 235.426 L 206.803 238 L 198.052 238 L 198.052 235.426 L 198.052 235.426 L 198.052 235.426 Z " fill-rule="evenodd" fill="rgb(255,255,255)"/></clipPath><g clip-path="url(#_clipPath_figgqbXRDmZaS66RQKZcRwUq0FBD1ySM)"><mask id="_mask_eh1Vc36mlAkGBZpBPTMgte6HB8qIT1Ul" x="-200%" y="-200%" width="400%" height="400%"><rect x="-200%" y="-200%" width="400%" height="400%" style="fill:white;"/><path d=" M 198.052 235.426 L 206.803 235.426 L 206.803 238 L 198.052 238 L 198.052 235.426 L 198.052 235.426 L 198.052 235.426 Z " fill-rule="evenodd" fill="black" stroke="none"/></mask><path d=" M 198.052 235.426 L 206.803 235.426 L 206.803 238 L 198.052 238 L 198.052 235.426 L 198.052 235.426 L 198.052 235.426 Z " fill-rule="evenodd" fill="rgb(255,255,255)" mask="url(#_mask_eh1Vc36mlAkGBZpBPTMgte6HB8qIT1Ul)" vector-effect="non-scaling-stroke" stroke-width="2" stroke="rgb(220,219,219)" stroke-opacity="100000000" stroke-linejoin="miter" stroke-linecap="butt" stroke-miterlimit="4"/></g></g></g></g></g></g></g></g></g></g><clipPath id="_clipPath_U0T4LdxzHGPYD3VyDCLvokNvntLO3Szn"><path d=" M -448 -559 L 448 -559 L 448 561 L -448 561 L -448 -559 L -448 -559 L -448 -559 Z  M 209.301 235.426 L 218.052 235.426 L 218.052 238 L 209.301 238 L 209.301 235.426 L 209.301 235.426 L 209.301 235.426 Z " fill-rule="evenodd" fill="rgb(255,255,255)"/></clipPath><g clip-path="url(#_clipPath_U0T4LdxzHGPYD3VyDCLvokNvntLO3Szn)"><g><g><g><clipPath id="_clipPath_CDfDmAIC4LQOOTJogWiTaaBKOcYBcbZH"><path d=" M -448 -559 L 448 -559 L 448 561 L -448 561 L -448 -559 L -448 -559 Z  M 209.301 235.426 L 218.052 235.426 L 218.052 238 L 209.301 238 L 209.301 235.426 L 209.301 235.426 L 209.301 235.426 Z " fill-rule="evenodd" fill="rgb(255,255,255)"/></clipPath><g clip-path="url(#_clipPath_CDfDmAIC4LQOOTJogWiTaaBKOcYBcbZH)"><g><g><clipPath id="_clipPath_g7q5Q4yVYNdSDslvTH7EFPtaY1oVBtod"><path d=" M -448 -559 L 448 -559 L 448 561 L -448 561 L -448 -559 L -448 -559 Z  M 209.301 235.426 L 218.052 235.426 L 218.052 238 L 209.301 238 L 209.301 235.426 L 209.301 235.426 L 209.301 235.426 L 209.301 235.426 Z " fill-rule="evenodd" fill="rgb(255,255,255)"/></clipPath><g clip-path="url(#_clipPath_g7q5Q4yVYNdSDslvTH7EFPtaY1oVBtod)"><g><clipPath id="_clipPath_fva1ebeQxlBzqWXAf1Wh8AhlGE8vgMLM"><path d=" M -448 -560 L 448 -560 L 448 560 L -448 560 L -448 -560 Z  M 209.301 235.426 L 218.052 235.426 L 218.052 238 L 209.301 238 L 209.301 235.426 L 209.301 235.426 L 209.301 235.426 Z " fill-rule="evenodd" fill="rgb(255,255,255)"/></clipPath><g clip-path="url(#_clipPath_fva1ebeQxlBzqWXAf1Wh8AhlGE8vgMLM)"><mask id="_mask_e0UYi4hQRItYEB6IJ0USrbGVVEJThiFF" x="-200%" y="-200%" width="400%" height="400%"><rect x="-200%" y="-200%" width="400%" height="400%" style="fill:white;"/><path d=" M 209.301 235.426 L 218.052 235.426 L 218.052 238 L 209.301 238 L 209.301 235.426 L 209.301 235.426 L 209.301 235.426 Z " fill-rule="evenodd" fill="black" stroke="none"/></mask><path d=" M 209.301 235.426 L 218.052 235.426 L 218.052 238 L 209.301 238 L 209.301 235.426 L 209.301 235.426 L 209.301 235.426 Z " fill-rule="evenodd" fill="rgb(255,255,255)" mask="url(#_mask_e0UYi4hQRItYEB6IJ0USrbGVVEJThiFF)" vector-effect="non-scaling-stroke" stroke-width="2" stroke="rgb(220,219,219)" stroke-opacity="100000000" stroke-linejoin="miter" stroke-linecap="butt" stroke-miterlimit="4"/></g></g></g></g></g></g></g></g></g></g><path d=" M 197.126 240 L 219.052 240 L 219.052 243.045 L 197.126 243.045 L 197.126 240 L 197.126 240 L 197.126 240 Z " fill-rule="evenodd" fill="rgb(200,198,198)"/></g><g><path d=" M 5.052 265.864 L 11.967 265.864 L 11.967 268.854 L 5.052 268.854 L 5.052 265.864 L 5.052 265.864 L 5.052 265.864 Z  M 12.595 265.864 L 19.51 265.864 L 19.51 268.854 L 12.595 268.854 L 12.595 265.864 L 12.595 265.864 L 12.595 265.864 Z " fill-rule="evenodd" fill="rgb(220,219,219)"/><path d=" M 20.138 265.864 L 27.052 265.864 L 27.052 268.854 L 20.138 268.854 L 20.138 265.864 L 20.138 265.864 L 20.138 265.864 Z " fill-rule="evenodd" fill="rgb(188,187,187)"/><path d=" M 5.681 266.462 L 11.338 266.462 L 11.338 268.256 L 5.681 268.256 L 5.681 266.462 L 5.681 266.462 L 5.681 266.462 Z  M 13.224 266.462 L 18.881 266.462 L 18.881 268.256 L 13.224 268.256 L 13.224 266.462 L 13.224 266.462 L 13.224 266.462 Z " fill-rule="evenodd" fill="rgb(255,255,255)"/></g><g><clipPath id="_clipPath_mRNSWRRNFwTjHpTyq0CmueGyYcN7fYZR"><path d=" M 38.052 263 L 58.052 263 L 58.052 266 L 38.052 266 L 38.052 263 L 38.052 263 L 38.052 263 Z " fill-rule="evenodd" fill="rgb(255,255,255)"/></clipPath><g clip-path="url(#_clipPath_mRNSWRRNFwTjHpTyq0CmueGyYcN7fYZR)"><g><g><g><clipPath id="_clipPath_jE2l4aESsqUBFHgVKUlZnB9eJZl7ohEU"><path d=" M 38.052 263 L 58.052 263 L 58.052 266 L 38.052 266 L 38.052 263 L 38.052 263 L 38.052 263 Z " fill-rule="evenodd" fill="rgb(255,255,255)"/></clipPath><g clip-path="url(#_clipPath_jE2l4aESsqUBFHgVKUlZnB9eJZl7ohEU)"><g><g><clipPath id="_clipPath_9H8tYma7XNAUcU22RQYy1HQpByWVTKfu"><path d=" M 38.052 263 L 58.052 263 L 58.052 266 L 38.052 266 L 38.052 263 L 38.052 263 L 38.052 263 Z " fill-rule="evenodd" fill="rgb(255,255,255)"/></clipPath><g clip-path="url(#_clipPath_9H8tYma7XNAUcU22RQYy1HQpByWVTKfu)"><g><clipPath id="_clipPath_UFodDLe10WX5Xy7MrhccnEX8Z5cdTYSw"><path d=" M 38.052 263 L 58.052 263 L 58.052 266 L 38.052 266 L 38.052 263 L 38.052 263 L 38.052 263 Z " fill-rule="evenodd" fill="rgb(255,255,255)"/></clipPath><g clip-path="url(#_clipPath_UFodDLe10WX5Xy7MrhccnEX8Z5cdTYSw)"><mask id="_mask_2SlMoZfF7wh2hhuZN1cr8HVswxNt1OPT"><path d=" M 38.052 263 L 58.052 263 L 58.052 266 L 38.052 266 L 38.052 263 L 38.052 263 L 38.052 263 Z " fill-rule="evenodd" fill="white" stroke="none"/></mask><path d=" M 38.052 263 L 58.052 263 L 58.052 266 L 38.052 266 L 38.052 263 L 38.052 263 L 38.052 263 Z " fill-rule="evenodd" fill="rgb(255,255,255)" mask="url(#_mask_2SlMoZfF7wh2hhuZN1cr8HVswxNt1OPT)" vector-effect="non-scaling-stroke" stroke-width="2" stroke="rgb(220,219,219)" stroke-opacity="1000000" stroke-linejoin="miter" stroke-linecap="butt" stroke-miterlimit="4"/></g></g></g></g></g></g></g></g></g></g><clipPath id="_clipPath_CxQdK95oU7Z1FJ8Yolgzot1TjOdXUzas"><path d=" M 38.052 267.126 L 58.052 267.126 L 58.052 270.126 L 38.052 270.126 L 38.052 267.126 L 38.052 267.126 L 38.052 267.126 Z " fill-rule="evenodd" fill="rgb(255,255,255)"/></clipPath><g clip-path="url(#_clipPath_CxQdK95oU7Z1FJ8Yolgzot1TjOdXUzas)"><g><g><g><clipPath id="_clipPath_zkKT1M1aenBOl5roIxfjrWPHITJvJKQl"><path d=" M 38.052 267.126 L 58.052 267.126 L 58.052 270.126 L 38.052 270.126 L 38.052 267.126 L 38.052 267.126 L 38.052 267.126 Z " fill-rule="evenodd" fill="rgb(255,255,255)"/></clipPath><g clip-path="url(#_clipPath_zkKT1M1aenBOl5roIxfjrWPHITJvJKQl)"><g><g><clipPath id="_clipPath_Z0TwbDoq46Fa01qXdkZIKOEoFLzs6Ype"><path d=" M 38.052 267.126 L 58.052 267.126 L 58.052 270.126 L 38.052 270.126 L 38.052 267.126 L 38.052 267.126 L 38.052 267.126 Z " fill-rule="evenodd" fill="rgb(255,255,255)"/></clipPath><g clip-path="url(#_clipPath_Z0TwbDoq46Fa01qXdkZIKOEoFLzs6Ype)"><g><clipPath id="_clipPath_AisJFSBiYDoNutm39kzq5tI7zlfA0Kif"><path d=" M 38.052 267.126 L 58.052 267.126 L 58.052 270.126 L 38.052 270.126 L 38.052 267.126 L 38.052 267.126 L 38.052 267.126 Z " fill-rule="evenodd" fill="rgb(255,255,255)"/></clipPath><g clip-path="url(#_clipPath_AisJFSBiYDoNutm39kzq5tI7zlfA0Kif)"><mask id="_mask_unm9eb2i3cQkAotHDqw2ikoRyzP2aUkb"><path d=" M 38.052 267.126 L 58.052 267.126 L 58.052 270.126 L 38.052 270.126 L 38.052 267.126 L 38.052 267.126 L 38.052 267.126 Z " fill-rule="evenodd" fill="white" stroke="none"/></mask><path d=" M 38.052 267.126 L 58.052 267.126 L 58.052 270.126 L 38.052 270.126 L 38.052 267.126 L 38.052 267.126 L 38.052 267.126 Z " fill-rule="evenodd" fill="rgb(255,255,255)" mask="url(#_mask_unm9eb2i3cQkAotHDqw2ikoRyzP2aUkb)" vector-effect="non-scaling-stroke" stroke-width="2" stroke="rgb(220,219,219)" stroke-opacity="1000000" stroke-linejoin="miter" stroke-linecap="butt" stroke-miterlimit="4"/></g></g></g></g></g></g></g></g></g></g><path d=" M 38.052 271.505 L 58.052 271.505 L 58.052 274.495 L 38.052 274.495 L 38.052 271.505 L 38.052 271.505 L 38.052 271.505 Z " fill-rule="evenodd" fill="rgb(188,187,187)"/></g><g><clipPath id="_clipPath_T921VSO8DVzadwdCEUK6vq3o4aIiiXQE"><path d=" M 197.052 205 L 203.711 205 C 209.555 205 214.299 209.744 214.299 215.588 L 214.299 220 L 197.052 220 L 197.052 205 L 197.052 205 L 197.052 205 Z " fill="rgb(255,255,255)"/></clipPath><g clip-path="url(#_clipPath_T921VSO8DVzadwdCEUK6vq3o4aIiiXQE)"><g><g><g><clipPath id="_clipPath_U4HwBgSkHFdccT1rbb5XARIPk7qSDGPh"><path d=" M 197.052 205 L 203.711 205 C 209.555 205 214.299 209.744 214.299 215.588 L 214.299 220 L 197.052 220 L 197.052 205 L 197.052 205 L 197.052 205 Z " fill="rgb(255,255,255)"/></clipPath><g clip-path="url(#_clipPath_U4HwBgSkHFdccT1rbb5XARIPk7qSDGPh)"><g><g><clipPath id="_clipPath_9YfQDs5zEcuNbCUa9ON7FyMjQKY5Fe0a"><path d=" M 197.052 205 L 203.711 205 C 209.555 205 214.299 209.744 214.299 215.588 L 214.299 220 L 197.052 220 L 197.052 205 L 197.052 205 L 197.052 205 Z " fill="rgb(255,255,255)"/></clipPath><g clip-path="url(#_clipPath_9YfQDs5zEcuNbCUa9ON7FyMjQKY5Fe0a)"><g><clipPath id="_clipPath_Gki3z4ro3M7svxrzf0fkPEeHcTUb19M6"><path d=" M 197.052 205 L 203.711 205 C 209.555 205 214.299 209.744 214.299 215.588 L 214.299 220 L 197.052 220 L 197.052 205 L 197.052 205 L 197.052 205 Z " fill="rgb(255,255,255)"/></clipPath><g clip-path="url(#_clipPath_Gki3z4ro3M7svxrzf0fkPEeHcTUb19M6)"><mask id="_mask_35eZv7nOvU1f4n7sRAxdfJ6ppY1Ka1Qn"><path d=" M 197.052 205 L 203.711 205 C 209.555 205 214.299 209.744 214.299 215.588 L 214.299 220 L 197.052 220 L 197.052 205 L 197.052 205 L 197.052 205 Z " fill="white" stroke="none"/></mask><path d=" M 197.052 205 L 203.711 205 C 209.555 205 214.299 209.744 214.299 215.588 L 214.299 220 L 197.052 220 L 197.052 205 L 197.052 205 L 197.052 205 Z " fill="rgb(235,235,235)" mask="url(#_mask_35eZv7nOvU1f4n7sRAxdfJ6ppY1Ka1Qn)" vector-effect="non-scaling-stroke" stroke-width="2" stroke="rgb(188,187,187)" stroke-opacity="1000000" stroke-linejoin="miter" stroke-linecap="square" stroke-miterlimit="3"/></g></g></g></g></g></g></g></g></g></g><path d=" M 198.712 219 L 213.178 219 L 213.178 220 L 198.712 220 L 198.712 219 L 198.712 219 Z " fill="rgb(235,235,235)"/><path d=" M 197.052 206 L 202.345 206 L 202.345 220 L 197.052 220 L 197.052 206 L 197.052 206 Z " fill="rgb(235,235,235)"/></g><g><clipPath id="_clipPath_7mTKog3AD7jQD1hviaLdFrzT8lVW5jT2"><path d=" M 5.052 234 L 18.052 234 C 20.812 234 23.052 236.24 23.052 239 L 23.052 248 L 5.052 248 L 5.052 234 L 5.052 234 L 5.052 234 Z " fill="rgb(255,255,255)"/></clipPath><g clip-path="url(#_clipPath_7mTKog3AD7jQD1hviaLdFrzT8lVW5jT2)"><g><g><g><clipPath id="_clipPath_pU5Tjw6cPRBlsrdk30tLTtfSTd0VBzFp"><path d=" M 5.052 234 L 18.052 234 C 20.812 234 23.052 236.24 23.052 239 L 23.052 248 L 5.052 248 L 5.052 234 L 5.052 234 L 5.052 234 Z " fill="rgb(255,255,255)"/></clipPath><g clip-path="url(#_clipPath_pU5Tjw6cPRBlsrdk30tLTtfSTd0VBzFp)"><g><g><clipPath id="_clipPath_FnCPsNygrZWeRuydxykcwGHlop5Su3qB"><path d=" M 5.052 234 L 18.052 234 C 20.812 234 23.052 236.24 23.052 239 L 23.052 248 L 5.052 248 L 5.052 234 L 5.052 234 L 5.052 234 Z " fill="rgb(255,255,255)"/></clipPath><g clip-path="url(#_clipPath_FnCPsNygrZWeRuydxykcwGHlop5Su3qB)"><g><clipPath id="_clipPath_k9sH5KK1zpgRdjGDmk1cbfjIjWFlzSaI"><path d=" M 5.052 234 L 18.052 234 C 20.812 234 23.052 236.24 23.052 239 L 23.052 248 L 5.052 248 L 5.052 234 L 5.052 234 L 5.052 234 Z " fill="rgb(255,255,255)"/></clipPath><g clip-path="url(#_clipPath_k9sH5KK1zpgRdjGDmk1cbfjIjWFlzSaI)"><mask id="_mask_h7SlAkGtxK6LTN9ZQ9W9DzA0EU3bAYwy"><path d=" M 5.052 234 L 18.052 234 C 20.812 234 23.052 236.24 23.052 239 L 23.052 248 L 5.052 248 L 5.052 234 L 5.052 234 L 5.052 234 Z " fill="white" stroke="none"/></mask><path d=" M 5.052 234 L 18.052 234 C 20.812 234 23.052 236.24 23.052 239 L 23.052 248 L 5.052 248 L 5.052 234 L 5.052 234 L 5.052 234 Z " fill="rgb(235,235,235)" mask="url(#_mask_h7SlAkGtxK6LTN9ZQ9W9DzA0EU3bAYwy)" vector-effect="non-scaling-stroke" stroke-width="2" stroke="rgb(188,187,187)" stroke-opacity="1000000" stroke-linejoin="miter" stroke-linecap="square" stroke-miterlimit="3"/></g></g></g></g></g></g></g></g></g></g></g><path d=" M 9.052 244 L 9.052 235 L 5.052 235 L 5.052 248 L 22.052 248 L 22.052 244 L 9.052 244 L 9.052 244 L 9.052 244 Z " fill="rgb(235,235,235)"/><circle vector-effect="non-scaling-stroke" cx="48.052" cy="239.236" r="5.366" fill="rgb(233,231,231)"/><clipPath id="_clipPath_J0s8wkGX7XpDSfOSRRA7c3GnkL8Dawyb"><circle vector-effect="non-scaling-stroke" cx="79.977" cy="239.236" r="5.366" fill="rgb(255,255,255)"/></clipPath><g clip-path="url(#_clipPath_J0s8wkGX7XpDSfOSRRA7c3GnkL8Dawyb)"><g><g><g><clipPath id="_clipPath_wygGl94dcFDvmSQQYYuQr28VFBhBilDK"><circle vector-effect="non-scaling-stroke" cx="79.977" cy="239.236" r="5.366" fill="rgb(255,255,255)"/></clipPath><g clip-path="url(#_clipPath_wygGl94dcFDvmSQQYYuQr28VFBhBilDK)"><g><g><clipPath id="_clipPath_faVrVzZtG4sZkAZ0xQ8RJEYzCuoWBmwk"><circle vector-effect="non-scaling-stroke" cx="79.977" cy="239.236" r="5.366" fill="rgb(255,255,255)"/></clipPath><g clip-path="url(#_clipPath_faVrVzZtG4sZkAZ0xQ8RJEYzCuoWBmwk)"><g><clipPath id="_clipPath_bg57xAYRzxuSpc5jeBgzXAZyjXJ5975f"><circle vector-effect="non-scaling-stroke" cx="79.977" cy="239.236" r="5.366" fill="rgb(255,255,255)"/></clipPath><g clip-path="url(#_clipPath_bg57xAYRzxuSpc5jeBgzXAZyjXJ5975f)"><mask id="_mask_9fZJ3z32Dc22Jnojn268leJCMGJc9O4g"><circle vector-effect="non-scaling-stroke" cx="79.977" cy="239.236" r="5.366" fill="white" stroke="none"/></mask><circle vector-effect="non-scaling-stroke" cx="79.977" cy="239.236" r="5.366" fill="rgb(255,255,255)" mask="url(#_mask_9fZJ3z32Dc22Jnojn268leJCMGJc9O4g)" stroke-width="2" stroke="rgb(191,190,190)" stroke-opacity="1000000" stroke-linejoin="miter" stroke-linecap="square" stroke-miterlimit="3"/></g></g></g></g></g></g></g></g></g></g><clipPath id="_clipPath_IJG3hduE6GnO61szjFCVXTTjCkng9irN"><circle vector-effect="non-scaling-stroke" cx="111.686" cy="239.236" r="5.366" fill="rgb(255,255,255)"/></clipPath><g clip-path="url(#_clipPath_IJG3hduE6GnO61szjFCVXTTjCkng9irN)"><g><g><g><clipPath id="_clipPath_sbtsIRHScTD7WoRIg1qoVjOiyvEAgmXW"><circle vector-effect="non-scaling-stroke" cx="111.686" cy="239.236" r="5.366" fill="rgb(255,255,255)"/></clipPath><g clip-path="url(#_clipPath_sbtsIRHScTD7WoRIg1qoVjOiyvEAgmXW)"><g><g><clipPath id="_clipPath_kH1VdCBIM7KdHVAtbPgVuru60SzlKiA6"><circle vector-effect="non-scaling-stroke" cx="111.686" cy="239.236" r="5.366" fill="rgb(255,255,255)"/></clipPath><g clip-path="url(#_clipPath_kH1VdCBIM7KdHVAtbPgVuru60SzlKiA6)"><g><clipPath id="_clipPath_vAG4W74UtziNnvSfWyYTsvEFYCA0W9Kv"><circle vector-effect="non-scaling-stroke" cx="111.686" cy="239.236" r="5.366" fill="rgb(255,255,255)"/></clipPath><g clip-path="url(#_clipPath_vAG4W74UtziNnvSfWyYTsvEFYCA0W9Kv)"><mask id="_mask_Velrxa03ZI4xa6Cb2A4WFtMpxuUvbQ4n"><circle vector-effect="non-scaling-stroke" cx="111.686" cy="239.236" r="5.366" fill="white" stroke="none"/></mask><circle vector-effect="non-scaling-stroke" cx="111.686" cy="239.236" r="5.366" fill="rgb(255,255,255)" mask="url(#_mask_Velrxa03ZI4xa6Cb2A4WFtMpxuUvbQ4n)" stroke-width="2" stroke="rgb(191,190,190)" stroke-opacity="1000000" stroke-linejoin="miter" stroke-linecap="square" stroke-miterlimit="3"/></g></g></g></g></g></g></g></g></g></g><g><path d=" M 110.686 234.199 L 112.686 234.199 L 112.686 236.199 L 110.686 236.199 L 110.686 234.199 L 110.686 234.199 Z  M 108.686 236.199 L 110.686 236.199 L 110.686 238.199 L 108.686 238.199 L 108.686 236.199 L 108.686 236.199 Z  M 108.686 240.199 L 110.686 240.199 L 110.686 242.199 L 108.686 242.199 L 108.686 240.199 L 108.686 240.199 Z  M 112.686 236.199 L 114.686 236.199 L 114.686 238.199 L 112.686 238.199 L 112.686 236.199 L 112.686 236.199 Z  M 112.686 240.199 L 114.686 240.199 L 114.686 242.199 L 112.686 242.199 L 112.686 240.199 L 112.686 240.199 Z  M 114.686 238.199 L 116.686 238.199 L 116.686 240.199 L 114.686 240.199 L 114.686 238.199 L 114.686 238.199 Z  M 106.686 238.199 L 108.686 238.199 L 108.686 240.199 L 106.686 240.199 L 106.686 238.199 L 106.686 238.199 Z  M 110.686 238.199 L 112.686 238.199 L 112.686 240.199 L 110.686 240.199 L 110.686 238.199 L 110.686 238.199 Z  M 110.686 242.199 L 112.686 242.199 L 112.686 244.199 L 110.686 244.199 L 110.686 242.199 L 110.686 242.199 Z " fill="rgb(191,190,190)"/></g><g><g><path d=" M 143.619 230 L 144.752 230 L 144.752 232.931 L 143.619 232.931 L 143.619 230 L 143.619 230 L 143.619 230 Z  M 143.619 233.517 L 144.752 233.517 L 144.752 235.862 L 143.619 235.862 L 143.619 233.517 L 143.619 233.517 L 143.619 233.517 Z  M 143.619 236.448 L 144.752 236.448 L 144.752 238.793 L 143.619 238.793 L 143.619 236.448 L 143.619 236.448 L 143.619 236.448 Z  M 143.619 239.379 L 144.752 239.379 L 144.752 247 L 143.619 247 L 143.619 239.379 L 143.619 239.379 L 143.619 239.379 Z " fill-rule="evenodd" fill="rgb(188,187,187)"/></g><path d=" M 140.791 242.403 L 144.068 246.106 L 143.588 247 L 140.035 243.059 L 140.791 242.403 L 140.791 242.403 L 140.791 242.403 Z  M 144.792 247 L 148.069 243.297 L 147.59 242.403 L 144.037 246.345 L 144.792 247 L 144.792 247 L 144.792 247 Z " fill="rgb(188,187,187)"/></g><g><g><path d=" M 167.466 238.934 L 167.466 237.801 L 170.397 237.801 L 170.397 238.934 L 167.466 238.934 L 167.466 238.934 L 167.466 238.934 Z  M 170.983 238.934 L 170.983 237.801 L 173.328 237.801 L 173.328 238.934 L 170.983 238.934 L 170.983 238.934 L 170.983 238.934 Z  M 173.914 238.934 L 173.914 237.801 L 176.259 237.801 L 176.259 238.934 L 173.914 238.934 L 173.914 238.934 L 173.914 238.934 Z  M 176.845 238.934 L 176.845 237.801 L 184.466 237.801 L 184.466 238.934 L 176.845 238.934 L 176.845 238.934 L 176.845 238.934 Z " fill-rule="evenodd" fill="rgb(188,187,187)"/></g><path d=" M 179.869 241.762 L 183.572 238.484 L 184.466 238.964 L 180.525 242.517 L 179.869 241.762 L 179.869 241.762 L 179.869 241.762 Z  M 184.466 237.76 L 180.763 234.483 L 179.869 234.963 L 183.811 238.516 L 184.466 237.76 L 184.466 237.76 L 184.466 237.76 Z " fill="rgb(188,187,187)"/></g><g><path d=" M 177.062 223.4 L 175.929 223.4 L 175.929 198.4 L 177.062 198.4 L 177.062 223.4 L 177.062 223.4 L 177.062 223.4 Z " fill-rule="evenodd" fill="rgb(188,187,187)"/><path d=" M 179.89 202.997 L 176.613 199.294 L 177.092 198.4 L 180.645 202.341 L 179.89 202.997 L 179.89 202.997 L 179.89 202.997 Z  M 175.889 198.4 L 172.611 202.103 L 173.091 202.997 L 176.644 199.055 L 175.889 198.4 L 175.889 198.4 L 175.889 198.4 Z  M 179.906 218.9 L 176.628 222.603 L 177.108 223.497 L 180.661 219.555 L 179.906 218.9 L 179.906 218.9 L 179.906 218.9 Z  M 175.904 223.497 L 172.627 219.794 L 173.107 218.9 L 176.659 222.841 L 175.904 223.497 L 175.904 223.497 L 175.904 223.497 Z " fill="rgb(188,187,187)"/></g><g><path d=" M 97 212.146 L 97 210.946 L 127 210.946 L 127 212.146 L 97 212.146 L 97 212.146 L 97 212.146 Z " fill-rule="evenodd" fill="rgb(188,187,187)"/><path d=" M 121.2 216.086 L 125.789 211.2 L 126.898 211.915 L 122.012 217.212 L 121.2 216.086 L 121.2 216.086 L 121.2 216.086 Z " fill="rgb(188,187,187)"/><path d=" M 126.898 210.886 L 122.309 206 L 121.2 206.715 L 126.086 212.012 L 126.898 210.886 L 126.898 210.886 L 126.898 210.886 Z  M 102.698 216.109 L 98.109 211.223 L 97 211.938 L 101.886 217.235 L 102.698 216.109 L 102.698 216.109 L 102.698 216.109 Z " fill="rgb(188,187,187)"/><path d=" M 97 210.9 L 101.589 206.023 L 102.698 206.737 L 97.812 212.023 L 97 210.9 L 97 210.9 L 97 210.9 Z " fill="rgb(188,187,187)"/></g><g><path d=" M 129.1 197.9 L 134.77 197.9 L 134.77 223.9 L 129.1 223.9 L 129.1 197.9 L 129.1 197.9 L 129.1 197.9 Z " fill-rule="evenodd" fill="rgb(243,243,243)"/><path d=" M 134.061 197.9 L 134.77 197.9 L 134.77 200.129 L 134.061 200.129 L 134.061 197.9 L 134.061 197.9 L 134.061 197.9 Z  M 134.061 200.871 L 134.77 200.871 L 134.77 203.1 L 134.061 203.1 L 134.061 200.871 L 134.061 200.871 L 134.061 200.871 Z  M 134.061 203.843 L 134.77 203.843 L 134.77 206.071 L 134.061 206.071 L 134.061 203.843 L 134.061 203.843 L 134.061 203.843 Z  M 134.061 206.814 L 134.77 206.814 L 134.77 209.043 L 134.061 209.043 L 134.061 206.814 L 134.061 206.814 L 134.061 206.814 Z  M 134.061 209.786 L 134.77 209.786 L 134.77 212.014 L 134.061 212.014 L 134.061 209.786 L 134.061 209.786 L 134.061 209.786 Z  M 134.061 212.757 L 134.77 212.757 L 134.77 214.986 L 134.061 214.986 L 134.061 212.757 L 134.061 212.757 L 134.061 212.757 Z  M 134.061 215.729 L 134.77 215.729 L 134.77 217.957 L 134.061 217.957 L 134.061 215.729 L 134.061 215.729 L 134.061 215.729 Z  M 134.061 218.7 L 134.77 218.7 L 134.77 220.929 L 134.061 220.929 L 134.061 218.7 L 134.061 218.7 L 134.061 218.7 Z  M 134.061 221.671 L 134.77 221.671 L 134.77 223.9 L 134.061 223.9 L 134.061 221.671 L 134.061 221.671 L 134.061 221.671 Z " fill-rule="evenodd" fill="rgb(179,179,179)"/><path d=" M 153.43 197.9 L 159.1 197.9 L 159.1 223.9 L 153.43 223.9 L 153.43 197.9 L 153.43 197.9 L 153.43 197.9 Z " fill-rule="evenodd" fill="rgb(243,243,243)"/><g><path d=" M 153.43 197.9 L 154.139 197.9 L 154.139 200.129 L 153.43 200.129 L 153.43 197.9 L 153.43 197.9 L 153.43 197.9 Z  M 153.43 200.871 L 154.139 200.871 L 154.139 203.1 L 153.43 203.1 L 153.43 200.871 L 153.43 200.871 L 153.43 200.871 Z  M 153.43 203.843 L 154.139 203.843 L 154.139 206.071 L 153.43 206.071 L 153.43 203.843 L 153.43 203.843 L 153.43 203.843 Z  M 153.43 206.814 L 154.139 206.814 L 154.139 209.043 L 153.43 209.043 L 153.43 206.814 L 153.43 206.814 L 153.43 206.814 Z  M 153.43 209.786 L 154.139 209.786 L 154.139 212.014 L 153.43 212.014 L 153.43 209.786 L 153.43 209.786 L 153.43 209.786 Z  M 153.43 212.757 L 154.139 212.757 L 154.139 214.986 L 153.43 214.986 L 153.43 212.757 L 153.43 212.757 L 153.43 212.757 Z  M 153.43 215.729 L 154.139 215.729 L 154.139 217.957 L 153.43 217.957 L 153.43 215.729 L 153.43 215.729 L 153.43 215.729 Z  M 153.43 218.7 L 154.139 218.7 L 154.139 220.929 L 153.43 220.929 L 153.43 218.7 L 153.43 218.7 L 153.43 218.7 Z  M 153.43 221.671 L 154.139 221.671 L 154.139 223.9 L 153.43 223.9 L 153.43 221.671 L 153.43 221.671 L 153.43 221.671 Z " fill-rule="evenodd" fill="rgb(179,179,179)"/></g></g><g><path d=" M 68.298 204 L 93.298 204 L 93.298 218 L 68.298 218 L 68.298 204 Z " fill="rgb(219,218,218)"/><path d=" M 76.121 208.606 L 83.832 208.606 L 83.832 209.248 L 76.121 209.248 L 76.121 208.606 L 76.121 208.606 L 76.121 208.606 Z  M 74.193 210.533 L 86.403 210.533 L 86.403 211.176 L 74.193 211.176 L 74.193 210.533 L 74.193 210.533 L 74.193 210.533 Z  M 74.193 211.819 L 86.403 211.819 L 86.403 212.461 L 74.193 212.461 L 74.193 211.819 L 74.193 211.819 L 74.193 211.819 Z  M 74.193 213.104 L 86.403 213.104 L 86.403 213.746 L 74.193 213.746 L 74.193 213.104 L 74.193 213.104 L 74.193 213.104 Z " fill-rule="evenodd" fill="rgb(255,255,255)"/></g><g><path d=" M 5.052 208.401 L 9.303 208.401 L 9.303 211.943 L 5.052 211.943 L 5.052 208.401 L 5.052 208.401 L 5.052 208.401 Z  M 10.011 208.401 L 16.387 208.401 L 16.387 209.818 L 10.011 209.818 L 10.011 208.401 L 10.011 208.401 L 10.011 208.401 Z  M 10.011 210.526 L 24.179 210.526 L 24.179 211.235 L 10.011 211.235 L 10.011 210.526 L 10.011 210.526 L 10.011 210.526 Z  M 10.011 211.943 L 24.179 211.943 L 24.179 212.651 L 10.011 212.651 L 10.011 211.943 L 10.011 211.943 L 10.011 211.943 Z  M 10.011 213.36 L 24.179 213.36 L 24.179 214.068 L 10.011 214.068 L 10.011 213.36 L 10.011 213.36 L 10.011 213.36 Z  M 10.011 214.777 L 24.179 214.777 L 24.179 215.485 L 10.011 215.485 L 10.011 214.777 L 10.011 214.777 L 10.011 214.777 Z  M 24.887 208.401 L 27.012 208.401 L 27.012 209.818 L 24.887 209.818 L 24.887 208.401 L 24.887 208.401 L 24.887 208.401 Z " fill-rule="evenodd" fill="rgb(220,219,219)"/></g><path d=" M 43.6 204.008 L 53.294 204.008 C 54.399 204.008 55.294 204.903 55.294 206.008 L 55.294 215.702 C 55.294 216.807 54.399 217.702 53.294 217.702 L 43.6 217.702 C 42.495 217.702 41.6 216.807 41.6 215.702 L 41.6 206.008 C 41.6 204.903 42.495 204.008 43.6 204.008 Z  M 43.602 205.01 L 53.292 205.01 C 53.558 205.007 53.814 205.112 54.002 205.3 C 54.19 205.488 54.295 205.744 54.292 206.01 L 54.292 215.7 C 54.295 215.966 54.19 216.222 54.002 216.41 C 53.814 216.598 53.558 216.703 53.292 216.7 L 43.602 216.7 C 43.336 216.703 43.08 216.598 42.892 216.41 C 42.704 216.222 42.599 215.966 42.602 215.7 L 42.602 206.01 C 42.599 205.744 42.704 205.488 42.892 205.3 C 43.08 205.112 43.336 205.007 43.602 205.01 L 43.602 205.01 L 43.602 205.01 Z " fill-rule="evenodd" fill="rgb(220,219,219)"/><path d=" M 41.565 206.966 L 42.892 205.01 L 54.002 204.625 L 55.259 206.966 L 55.259 215.66 C 55.259 216.765 54.364 217.66 53.259 217.66 L 43.565 217.66 C 42.46 217.66 41.565 216.765 41.565 215.66 L 41.565 206.966 L 41.565 206.966 L 41.565 206.966 Z  M 42.562 211.971 L 54.262 211.971 L 54.262 215.661 C 54.257 216.211 53.812 216.656 53.262 216.661 L 43.562 216.661 C 43.012 216.656 42.567 216.211 42.562 215.661 L 42.562 211.971 L 42.562 211.971 L 42.562 211.971 Z " fill-rule="evenodd" fill="rgb(220,219,219)"/><path d=" M 44.16 212.981 L 52.689 212.981 L 52.689 214.134 L 44.16 214.134 L 44.16 212.981 L 44.16 212.981 Z  M 45.443 214.946 L 51.45 214.946 L 51.45 215.701 L 45.443 215.701 L 45.443 214.946 L 45.443 214.946 Z " fill="rgb(220,219,219)"/></g></g></g></g><path d=" M 74.789 266 L 86.211 266 C 87.199 266.001 87.999 266.801 88 267.789 L 88 268.211 C 87.999 269.199 87.199 269.999 86.211 270 L 74.789 270 C 73.801 269.999 73.001 269.199 73 268.211 L 73 267.789 C 73.001 266.801 73.801 266.001 74.789 266 L 74.789 266 L 74.789 266 Z " fill="rgb(188,187,187)"/></g><path d=" M 0 1 L 224 1 L 224 281 L 0 281 L 0 1 L 0 1 Z " fill="none"/></g></g></g></g></g><g style="isolation:isolate"/></g></svg>