<svg xmlns="http://www.w3.org/2000/svg" height="1500" width="108" viewBox="0 0 107.349 1499.996" preserveAspectRatio="none"><path d="M89.34 1434.663c-3.19-10.434-4.92-21.544-4.92-33.076 0-19.645 5.013-38.067 13.76-54l-.497-2.2c-27.6-31.84-44.596-75.21-44.596-123.028 0-50.467 18.92-95.995 49.266-128.227-7.632-6.188-12.513-15.634-12.513-26.224 0-12.75 7.073-23.847 17.51-29.587a67.51 67.51 0 0 1-4.171-23.42c0-7.585 1.256-14.862 3.54-21.637-19.32-19.79-31.3-47.288-31.3-77.696 0-26.957 9.416-51.623 25.012-70.663l-.063-2.502c-42.77-29.49-71.28-82.292-71.28-142.55 0-62.367 30.542-116.74 75.82-145.552l-.785-4.396c-9.907-11.563-15.942-26.782-15.942-43.478 0-7.596 1.26-14.883 3.55-21.666-21.08-19.96-34.31-48.708-34.31-80.667 0-32.664 13.82-61.97 35.716-81.97-3.297-3.812-5.296-8.78-5.296-14.215 0-5.494 2.045-10.506 5.405-14.332l-.208-3.082c-11.544-14.67-18.45-33.16-18.45-53.277a86.61 86.61 0 0 1 1.406-15.441C42.747 198.22 20.92 158.555 20.92 113.59c0-33.36 12.018-63.8 31.793-86.92A71.77 71.77 0 0 1 47.59 0H0v1499.996h47.6c0-28.956 17.1-53.903 41.75-65.333z" fill="#d3d3d3"/></svg>