<svg xmlns="http://www.w3.org/2000/svg" preserveAspectRatio="none" viewBox="0 0 1500 150"><path fill="#d3d3d3" d="M65.333 89.34c10.434-3.19 21.544-4.92 33.076-4.92 19.645 0 38.067 5.013 54 13.76l2.2-.497c31.84-27.6 75.21-44.596 123.028-44.596 50.467 0 95.995 18.92 128.227 49.266 6.188-7.632 15.634-12.513 26.224-12.513 12.75 0 23.847 7.073 29.587 17.51a67.51 67.51 0 0 1 23.42-4.171c7.585 0 14.862 1.256 21.637 3.54C526.5 87.4 554 75.42 584.408 75.42c26.957 0 51.623 9.416 70.663 25.012l2.502-.063c29.49-42.77 82.292-71.28 142.55-71.28 62.367 0 116.74 30.542 145.552 75.82l4.396-.785c11.563-9.907 26.782-15.942 43.478-15.942 7.596 0 14.883 1.26 21.666 3.55 19.96-21.08 48.708-34.31 80.667-34.31 32.664 0 61.97 13.82 81.97 35.716 3.812-3.297 8.78-5.296 14.215-5.296 5.494 0 10.506 2.045 14.332 5.405l3.082-.208c14.67-11.544 33.16-18.45 53.277-18.45a86.61 86.61 0 0 1 15.441 1.406c23.576-33.248 63.242-55.075 108.208-55.075 33.36 0 63.8 12.018 86.92 31.793a71.77 71.77 0 0 1 26.669-5.123V0H0v47.6c28.956 0 53.903 17.1 65.333 41.75z"/></svg>