<svg xmlns="http://www.w3.org/2000/svg" height="1500" width="108" viewBox="0 0 107.35 1499.996" preserveAspectRatio="none"><g transform="rotate(270 749.998 749.998)"><path d="M375.5 98.5a75.14 75.14 0 0 1 14.224-9.555C369.93 74.4 346.546 63.657 320.95 57.886c24.435 9.32 43.735 23.572 54.55 40.613zm199.35-28.406c-30.267 0-57.426 9.84-75.98 25.435a75.02 75.02 0 0 0-20.766-2.936 75.45 75.45 0 0 0-11.874.945c-12.008-8.168-26.507-12.945-42.124-12.945a74.64 74.64 0 0 0-34.382 8.352 172 172 0 0 1 16.119 13.409c6.188-7.633 15.635-12.514 26.225-12.514 12.75 0 23.847 7.073 29.587 17.5 7.273-2.686 15.165-4.172 23.42-4.172a67.62 67.62 0 0 1 21.637 3.54c19.788-19.32 47.287-31.3 77.695-31.3 26.957 0 51.623 9.416 70.663 25.012l1.093-.027c-18.45-18.393-48.003-30.3-81.314-30.3zm375.22 34.028c11.562-9.907 26.782-15.942 43.478-15.942 7.596 0 14.883 1.26 21.666 3.55 19.96-21.08 48.708-34.3 80.667-34.3 32.664 0 61.972 13.82 81.97 35.716.502-.435 1.026-.843 1.567-1.23-16.862-24.05-50.8-40.48-89.903-40.48-31.004 0-58.747 10.326-77.318 26.585a137.44 137.44 0 0 0-12.682-.585c-23.416 0-44.973 5.9-62.123 15.777 2.95 3.78 5.723 7.68 8.282 11.703l4.396-.786zM1271.105 65.5c-26.868.852-50.767 10.82-66.88 26.1a22.06 22.06 0 0 1 2.175 1.656l3.082-.208c14.67-11.544 33.16-18.45 53.276-18.45 5.274 0 10.43.5 15.44 1.406 20.37-28.73 52.76-48.917 90.196-53.878l-2.547-.024c-41.354 0-77.188 17.643-94.742 43.398zM98.4 84.42c19.645 0 38.067 5.014 54 13.76l2.2-.496c31.84-27.6 75.2-44.597 123.028-44.597 14.952 0 29.466 1.673 43.333 4.8-19.632-7.488-42.57-11.794-67.085-11.794-42.08 0-79.53 12.677-103.55 32.386-14.882-4.424-31.357-6.887-48.693-6.887-15.368 0-30.06 1.935-43.565 5.456a71.93 71.93 0 0 1 7.274 12.291c10.435-3.2 21.545-4.92 33.077-4.92z" opacity=".5" fill="#d3d3d3"/><path d="M0 0v47.6c23.843 0 44.96 11.602 58.06 29.458 13.505-3.52 28.197-5.456 43.565-5.456 17.336 0 33.812 2.463 48.693 6.887 24.018-19.71 61.468-32.386 103.55-32.386 24.514 0 47.453 4.306 67.085 11.794 25.596 5.77 48.98 16.524 68.774 31.058a74.65 74.65 0 0 1 34.382-8.352c15.617 0 30.116 4.777 42.124 12.945a75.45 75.45 0 0 1 11.874-.945c7.208 0 14.17 1.038 20.766 2.936 18.553-15.594 45.712-25.435 75.98-25.435 33.312 0 62.863 11.918 81.314 30.31l1.41-.035c29.49-42.77 82.292-71.28 142.55-71.28 56.825 0 107.005 25.362 137.27 64.116 17.15-9.887 38.707-15.777 62.123-15.777 4.295 0 8.527.2 12.682.585 18.57-16.26 46.314-26.585 77.318-26.585 39.113 0 73.04 16.43 89.903 40.48a21.63 21.63 0 0 1 12.648-4.065 21.59 21.59 0 0 1 12.157 3.749c16.114-15.278 40.013-25.247 66.88-26.1 17.554-25.755 53.388-43.398 94.743-43.398l2.547.024c5.9-.78 11.9-1.197 18.012-1.197 33.36 0 63.8 12.018 86.92 31.793a71.77 71.77 0 0 1 26.669-5.123V0z" fill="#d3d3d3"/></g></svg>