<svg xmlns="http://www.w3.org/2000/svg" height="1500.003" width="131.445" preserveAspectRatio="none"><path d="M20.23 939.928l-.653-.262-.947.638 1.6-.376zm29.286 17.082c-4.793 3.656-10.339 7.538-16.742 11.583 8.582-3.934 16.785-7.965 23.646-11.812-.718-.43-1.467-.862-2.239-1.298-1.529.486-3.085.997-4.665 1.527zm-4.514-6.297c-6.027 1.854-12.575 4.124-19.259 6.601l1.259 1.279-7.57 3.155c7.034-1.839 14.075-3.48 20.602-4.896a353.42 353.42 0 0 0 7.675-4.806c-.883-.442-1.785-.887-2.707-1.333zm-13.326-13.319a586.504 586.504 0 0 1-10.725-3.292l1.562 1.889c1.448.82 2.879 1.641 4.284 2.454 1.66-.365 3.286-.713 4.879-1.051zm11.485 12.435a310.056 310.056 0 0 0-8.677-3.949l-5.647 1.135c-.951.358-1.903.721-2.856 1.085l12.605 2.625c1.592-.318 3.115-.616 4.575-.896zm2.638-90.218c-1.718-.311-3.451-.61-5.197-.9l-2.773.925c1.164.35 2.308.687 3.438 1.019 1.512-.34 3.024-.687 4.532-1.044zm-.597 81.571a374.323 374.323 0 0 0-7.056 2.425l4.429.647-4.478.9a641.297 641.297 0 0 1 6.985 4.308 630.981 630.981 0 0 1 8.99-1.637 222.174 222.174 0 0 0 4.798-3.372c-4.418-.94-9.015-2.05-13.668-3.271zm-4.191-1.124a464.167 464.167 0 0 1-4.62-1.292 424.711 424.711 0 0 0-5.656 1.979c.629.37 1.25.738 1.863 1.103a609.63 609.63 0 0 1 8.413-1.79zm-2.146-47.932c3.218-.67 6.264-1.279 9.062-1.821a747.32 747.32 0 0 0-14.521.177c1.854.567 3.674 1.114 5.459 1.644zm.696-16.685a99.659 99.659 0 0 1-4.732-.253l-4.301 1.007 2.207.636c2.378-.498 4.66-.961 6.826-1.39zm13.416 14.867a271.12 271.12 0 0 0-9.758 3.099c1.359.395 2.688.776 3.979 1.145l.399.073c2.702-1.461 5.231-2.9 7.541-4.305-.706-.005-1.427-.009-2.161-.012zm-30.332 5.437l-.184-.018-.342.144.526-.126zm21.761 2.313a721.31 721.31 0 0 1-5.75 3.849l8.604 2.93-17.945 3.13a536.423 536.423 0 0 1-3.666 2.309l-1 1.725 1.187 1.064c3.61.93 7.118 1.736 10.461 2.383 12.647-5.852 23.988-10.127 34.058-13.229-7.701-1.621-16.617-2.996-25.949-4.161zm-2.735-.333c-2.69-.321-5.405-.626-8.131-.914a530.878 530.878 0 0 0-6.836 2.55l8.44 1.593a369.574 369.574 0 0 0 6.527-3.229zm-22.892 26.429a339.585 339.585 0 0 1 3.574-1.869l-2.732.46zm37.758 82.402c-5.373-1.172-11.035-2.224-16.803-3.169l-.92.324c-1.224.81-2.481 1.637-3.774 2.479l7.323 2.556-14.088 3.377-.321.33 8.687 1.949c7.194-3.264 13.826-5.838 19.896-7.846zm-24.312 66.695c5.981-1.593 11.887-3.012 17.465-4.136-5.53.178-12.196 1.279-19.4 2.964zm-3.217-35.426a627.194 627.194 0 0 0-6.877-.844l-1.48.449 20.256 3.583-13.521 3.268a419.848 419.848 0 0 0 10.521 3.705c6.486-1.616 12.787-2.978 18.562-3.913-8.39-1.36-17.891-3.616-27.461-6.248zm4.253 11.353a614.456 614.456 0 0 1-7.737-1.666l-.127.67 6.891 1.252c.323-.087.65-.172.973-.256zm8.255 1.663l-.859-.168-.594.174.289.053c.393-.022.783-.042 1.164-.059zm13.023-58.253l-.912-.168c-1.525.344-4.336.829-8.527.997a264.495 264.495 0 0 1-3.354 4.002l3.395.421c3.393-1.784 6.554-3.543 9.398-5.252zm5.125 50.227l1.962.521.328-.039a255.01 255.01 0 0 0-2.29-.482zm-23.341-49.523c-.88-.055-1.789-.122-2.733-.205a495.96 495.96 0 0 0-4.253.815c1.668.541 3.328 1.07 4.974 1.589.671-.729 1.341-1.463 2.012-2.199zM46.4 950.288c.709.446 1.389.874 2.039 1.287a278.53 278.53 0 0 0 4.873-3.229 183.667 183.667 0 0 0-6.912 1.942zm10.068 6.466a142.557 142.557 0 0 0 6.56-3.894 212.602 212.602 0 0 0-8.613 2.548c.856.558 1.547 1.011 2.053 1.346zm7.87-4.679a538.92 538.92 0 0 1 4.037-.698 105.885 105.885 0 0 0 2.566-4.751c-2.453-.346-5.02-.778-7.668-1.284-2.844 2.716-6.187 5.667-10.103 8.811a640.015 640.015 0 0 1 11.042-2.056c.377-.246.748-.491 1.107-.733.001-.001-.346.254-.981.711zm-34.252 35.549a505.458 505.458 0 0 1-5.186-1.188l-2.631.769 1.045.283 3.447.687c1.119-.192 2.225-.375 3.325-.551zm25.536-8.082a208.655 208.655 0 0 1-3.992 5.532c8.417-.639 15.986-.771 22.697-.583-5.556-1.85-11.912-3.492-18.705-4.949zm-6.293-1.276c-2.58-.493-5.203-.964-7.853-1.409l-3.39 3.229-3.7 3.582-2.248.656c2 .736 3.986 1.455 5.949 2.147 1.627-.211 3.232-.406 4.809-.581 2.189-2.524 4.34-5.07 6.433-7.624zm3.212 13.952c-1.734-.322-3.614-.68-5.604-1.068-.225.281-.461.568-.689.852 2.255.202 4.361.279 6.293.216zm4.555-35.029a649.898 649.898 0 0 1-19.367 12.95 212.126 212.126 0 0 1 15.062 3.817c5.993-7.6 11.348-15.196 15.493-22.42-1.564.358-3.203.769-4.904 1.227a531.927 531.927 0 0 1-6.269 4.415l.365.242-.38-.231zm-7.491-252.351a243.412 243.412 0 0 1-6.994-.514c1.607.512 3.182.995 4.719 1.45.766-.319 1.524-.63 2.275-.936zm-11.694.085c-.579-.116-1.165-.234-1.759-.355-1.315.402-2.639.816-3.971 1.238l.879.219c1.756-.405 3.379-.773 4.851-1.102zM58.72 683.26l-.31.224.531-.076-.221-.148zm20.671 58.125c-8.215-2.129-17.421-5.085-27.646-9.146l-.677.22a548.62 548.62 0 0 1 3.02 2.11c9.421 2.596 15.674 4.137 15.674 4.137-3.393-.073-7.222-.449-11.351-1.062.569.411.877.636.877.636a79.329 79.329 0 0 0-.979-.649c-4.516-.673-9.391-1.63-14.451-2.78a715.332 715.332 0 0 0-10.021 3.455l13.079 1.739-13.77 3.583 4.03 2.559c13.12-2.649 22.526-4.13 22.526-4.13-5.766 1.128-12.783 3.134-20.385 5.651l3.281 3.088.428 1.334c4.353.718 8.351 1.113 11.828 1.091 9.248-3.678 17.688-7.64 24.537-11.836zm-40.284-36.222c-1.334.417-2.709.867-4.113 1.343l5.156 1.282-13.887 2.91c1.557.817 3.125 1.636 4.707 2.451a321.759 321.759 0 0 1 14.76-6.704 632.071 632.071 0 0 1-6.623-1.282zm2.681-26.755c3.19 2.215 6.11 4.364 8.792 6.438 2.664-.524 5.249-.979 7.727-1.348.131-.085.258-.17.385-.255-3.086-2.047-6.731-4.193-10.775-6.388-1.972.467-4.021.988-6.129 1.553zm6.722 43.423c4.249-.805 7.784-1.43 10.307-1.863-3.77.377-7.573.835-11.381 1.356.357.17.714.337 1.074.507zm-1.86 8.988a261.752 261.752 0 0 0-4.461-2.329l-.322.803-2.379 1.104c1.422.422 2.816.829 4.179 1.226 1.003-.276 1.996-.544 2.983-.804zm.909-39.729c1.987.586 3.912 1.123 5.754 1.599a268.374 268.374 0 0 0-4.105-2.73c-.535.367-1.081.743-1.649 1.131zm-14.432 3.372c-.982-.296-1.968-.596-2.956-.903l-.513.159zm20.352 5.311c-.721.173-1.451.351-2.191.536 2.604.326 5.201.62 7.781.876.234-.086.466-.166.699-.25a130.544 130.544 0 0 1-6.289-1.162zm-1.997-.429a205.483 205.483 0 0 1-6.801-1.634l-.971 1.564c1.395.207 2.789.401 4.184.591 1.256-.186 2.454-.359 3.588-.521zM44.23 853.5a231.958 231.958 0 0 0 5.024-2.69c-3.331.438-6.665.93-9.983 1.458 1.7.443 3.357.856 4.959 1.232zm13.334-154.645c1.615.504 3.058.948 4.312 1.331.416-.146.832-.292 1.245-.434a176.477 176.477 0 0 0-2.083-1.579c-1.12.202-2.278.429-3.474.682zm-.778-.247c1.653-.221 3.041-.398 4.119-.534a212.267 212.267 0 0 0-6.831-4.863c-2.071-.36-4.643-.822-7.604-1.376-1.095.746-2.24 1.523-3.438 2.33a803.27 803.27 0 0 0 13.754 4.443zm-25.893 118.84a629.885 629.885 0 0 1-5.973-1.021l-1.4 2.438 3.435.833a468.482 468.482 0 0 0 3.938-2.25z" fill="none"/><path d="M48.979 733.143c1.287.363 2.531.711 3.731 1.044-.819-.476-1.664-.956-2.526-1.438-.401.13-.798.26-1.205.394zm4.333 70.386c-3.217.831-6.68 1.841-10.311 2.989 1.371.399 2.712.785 4.018 1.157a284.027 284.027 0 0 0 6.293-4.146zm3.473-5.92a797.18 797.18 0 0 0-12.611 4.064l-.188 2.868-1.422.585a635.772 635.772 0 0 1 11.509-2.119 211.943 211.943 0 0 0 6.833-4.864 547.137 547.137 0 0 1-4.121-.534zm-16.611 21.312a251.505 251.505 0 0 1-4.388 2.921l2.504.607-3.873 2.184c.772.156 1.534.313 2.286.473a300.821 300.821 0 0 0 10.207-5.203 715.396 715.396 0 0 1-6.736-.982zm16.015 38.073c9.082-2.446 17.819-5.248 25.701-8.441-9.671-.109-20.191.687-30.812 2.024a755.754 755.754 0 0 1-4.895 3.367c2.668.592 5.18 1.076 7.484 1.43 0 0-1.963-.227-5.332-.669 2.789.749 5.406 1.515 7.854 2.289zm-14.4-39.183c2.105.563 4.156 1.084 6.127 1.55 4.152-2.254 7.887-4.455 11.025-6.552-2.67-.384-5.465-.868-8.36-1.438a210.327 210.327 0 0 1-8.792 6.44zm1.758-7.943a316.408 316.408 0 0 1-6.213-1.492 429.24 429.24 0 0 0-11.703 4.161l-.01.494c2.85.907 5.661 1.775 8.412 2.59a402.197 402.197 0 0 0 9.514-5.753zm11.59-49.28c-1.517-.01-3.101-.016-4.746-.017a228.532 228.532 0 0 1-11.922 4.908c1.922.423 3.775.856 5.567 1.298 4.055-2.107 7.804-4.185 11.101-6.189zm-2.514-6.488c-2.312.25-5.346.422-9.133.338l-11.565 2.63c4.017.035 8.007.127 11.897.287a318.443 318.443 0 0 0 8.801-3.255zm-14.998-20.74c-.969-.242-1.939-.488-2.914-.74l-.552.256-14.198 3.584 5.527.735a415.516 415.516 0 0 1 12.137-3.835zm27.926 61.191c.037-.028.073-.059.109-.088-4.723.346-9.536.84-14.372 1.446.739.184 1.469.363 2.19.535 4.357-.908 8.429-1.566 12.073-1.893zm-14.067 2.323a573.14 573.14 0 0 1-3.588-.521 395.393 395.393 0 0 0-15.141 2.366l6.458 1.263c4.23-1.187 8.351-2.241 12.271-3.108zm4.102-36.284a596.007 596.007 0 0 1-6.227 4.353 268.644 268.644 0 0 1 11.25-4.302 826.85 826.85 0 0 0-5.023-.051zm5.161 443.421c.646.172 1.265.336 1.851.49.754-.577 1.497-1.153 2.221-1.727-1.053.316-2.428.732-4.072 1.237zm-16.958 180.876a440.96 440.96 0 0 0-13.881-2.183l-.568.35zm5.539 1.011a338.42 338.42 0 0 0-2.539-.476l-2.572 3.445-11.898 3.156c1.94.715 3.867 1.41 5.771 2.082a274.22 274.22 0 0 1 4.808-.581 355.67 355.67 0 0 0 6.43-7.626zm7.14-21.511a143.485 143.485 0 0 0 6.56-3.893c-2.729.74-5.613 1.596-8.613 2.548a445.74 445.74 0 0 1 2.053 1.345zm-.846 22.79a207.026 207.026 0 0 1-3.992 5.532c8.417-.638 15.986-.771 22.697-.583-5.556-1.852-11.912-3.494-18.705-4.949zm-3.079 12.675a682.245 682.245 0 0 1-5.605-1.069c-.225.282-.461.569-.69.852 2.256.203 4.363.28 6.295.217zm-6.143-41.93c.709.446 1.389.874 2.039 1.287a284.327 284.327 0 0 0 4.873-3.228 182.763 182.763 0 0 0-6.912 1.941zm17.938 1.787c1.598-.282 2.957-.515 4.037-.698a105.885 105.885 0 0 0 2.566-4.751c-2.453-.346-5.02-.778-7.668-1.284-2.844 2.716-6.186 5.667-10.103 8.81a650.417 650.417 0 0 1 11.042-2.055c.377-.246.748-.491 1.107-.734.001 0-.346.255-.981.712zm-7.242 5.114a650.94 650.94 0 0 1-18.324 12.278l7.34 1.003-4.387.573a205.69 205.69 0 0 1 11.066 2.915c5.993-7.601 11.348-15.197 15.493-22.421-1.564.358-3.203.769-4.904 1.227a559.852 559.852 0 0 1-6.269 4.414l.365.242-.38-.231zm-13.934-7.36a322.231 322.231 0 0 0-9.874-4.471 544.407 544.407 0 0 0-4.888 1.822l2.969 1.764-10.333 3.59 3.536 1.155a632.098 632.098 0 0 1 18.59-3.86zm2.039-8.646a380.688 380.688 0 0 0-8.694 3.008 670.641 670.641 0 0 1 8.577 5.271c3.548-.672 6.602-1.22 8.989-1.637a222.174 222.174 0 0 0 4.798-3.372c-4.419-.939-9.016-2.05-13.67-3.27zm9.339 51.404l-.911-.167c-1.525.343-4.336.829-8.527.996a266.73 266.73 0 0 1-3.604 4.292l1.514.456c.346.084.684.169 1.025.253 3.815-1.981 7.354-3.936 10.503-5.83zm-13.529-52.528c-1.54-.422-3.081-.853-4.62-1.293-1.289.439-2.592.892-3.904 1.356l.757 1.585c2.68-.587 5.281-1.138 7.767-1.648zm3.993 10.653c-4.609 1.418-9.525 3.08-14.57 4.891l1.582.517-12.307 3.469-.396.152 1.031 1.769c6.729-1.743 13.445-3.303 19.69-4.657a353.413 353.413 0 0 0 7.675-4.805c-.882-.444-1.785-.889-2.705-1.336zm4.512 6.299c-4.791 3.655-10.336 7.537-16.742 11.582 8.584-3.934 16.785-7.965 23.646-11.812a106.16 106.16 0 0 0-2.239-1.298c-1.529.486-3.085.996-4.665 1.528zm-27.357 10.186l.087-.048-.112.045zm14.163 26.095c-.879-.055-1.789-.122-2.732-.205a506.98 506.98 0 0 0-3.457.66l.68.633c1.172.377 2.338.747 3.498 1.112.671-.73 1.341-1.464 2.011-2.2zm-4.647-55.898c-.812-.241-1.62-.482-2.428-.725l1.43.936.998-.211zm34.664 145.352c-2.142.846-4.47 1.702-6.991 2.554 6.614.649 13.109 1.045 19.303 1.1a214.534 214.534 0 0 1-12.312-3.654zm-46.057 2.733l-.202 2.082c1.135-.14 2.271-.284 3.414-.432l-.415-1.182c-.927-.151-1.856-.306-2.797-.468zm30.241 6.89h2.295a198.499 198.499 0 0 1-3.87-1.09c.548.378 1.066.736 1.575 1.09zm-17.475 0h15.923a241.016 241.016 0 0 0-4.714-2.526l-.295-.095c-3.31.814-6.837 1.599-10.599 2.342zm27.364-11.66a279.507 279.507 0 0 1-17.424-6.918 718.345 718.345 0 0 0-13.096 3.942 412.944 412.944 0 0 0 13.19 5.536c.96.144 1.92.283 2.88.419 4.993-.903 9.849-1.894 14.45-2.979zm-48.912 7.852l-.884-3.16-.596 3.322c.491-.052.985-.107 1.48-.162zm44.965-44.489c-5.887-.954-12.324-2.351-18.947-4.009l-5.363 2.201-1.379 3.244c2.414.865 4.798 1.693 7.131 2.478 6.486-1.615 12.786-2.977 18.558-3.914zm-23.201 5.105a643.12 643.12 0 0 1-4.353-.923l-.853 1.189-1.965.839c.508.144 1.016.285 1.521.426a396.691 396.691 0 0 1 5.65-1.531zm23.273-42.621c-5.373-1.172-11.035-2.224-16.803-3.169l-.918.323a658.2 658.2 0 0 1-4.822 3.16l8.831 3.081-5.976 3.591.131.708c7.063-3.192 13.582-5.718 19.557-7.694zm-18.262 65.139c-.659-.299-1.314-.595-1.979-.903-.383.075-.767.151-1.155.229l-2.965 2.244c2.045-.546 4.081-1.07 6.099-1.57zm2.381-21.021l-.889.261a99.518 99.518 0 0 1 1.75-.093l-.861-.168zm19.005-7.859l1.964.522c.109-.014.219-.026.328-.039-.76-.164-1.521-.325-2.292-.483zm-11.597-237.836c-4.408 1.287-9.149 2.831-14.061 4.544l4.293 3.132-12.551 3.588-6.979 3.586 4.328 2.031c9.402-5.22 18.937-10.851 27.528-16.532-.795-.107-1.649-.224-2.558-.349zm7.075-59.477c-1.518-.01-3.102-.016-4.746-.016a229.326 229.326 0 0 1-11.924 4.909c1.922.422 3.776.856 5.568 1.297 4.055-2.108 7.804-4.185 11.102-6.19zm-18.744-6.565l6.865 1.993 1.049 1.167a317.73 317.73 0 0 0 8.312-3.082c-3.607.391-8.971.591-16.226-.078zm1.231-20.663c-2.76-.69-5.55-1.424-8.349-2.192l-11.187 3.328 1.136.291a398.439 398.439 0 0 0 16.805-.947 357.82 357.82 0 0 1 1.595-.48zm10.511-10.199c-4.865 1.501-10.066 3.272-15.402 5.201a735.195 735.195 0 0 0 10.933 3.261c4.642-1.281 9.142-2.396 13.37-3.272-2.649-1.68-5.643-3.418-8.901-5.19zm4.355 88.577c-4.645-.866-9.561-1.966-14.586-3.218-1.748.588-3.523 1.2-5.319 1.834l7.47 3.037.161 1.396c4.241-1.174 8.365-2.207 12.274-3.049zm7.919-35.94c-6.601-1.556-13.728-2.919-21.021-4.108-.375.249-.75.498-1.133.75l7.838 1.502-4.421 3.585-.384 3.585-12.283 3.01c2.497.602 4.934 1.137 7.288 1.593 8.646-4 16.68-7.261 24.116-9.917zm-24.949-4.731c-3.03-.465-6.077-.902-9.114-1.312l-.218.072 1.272.529 6.818 1.308c.416-.198.831-.397 1.242-.597zm19.018-50.339c1.651-.296 3.098-.549 4.313-.758-1.698.171-3.403.358-5.112.559.269.069.533.134.799.199zm-5.532-21.997a593.675 593.675 0 0 1 6.639 4.637c4.896-.034 9.044-.107 12.104-.175-5.55-.986-11.798-2.424-18.743-4.462zm-30.317 240.589a386.556 386.556 0 0 1 5.958-3.101l-6.833 2.709z" fill="none"/><path d="M96.309 1112.347c-10.527-1.431-22.937-1.203-35.832.008-1.552.348-3.176.749-4.863 1.198a99.87 99.87 0 0 0 4.091.897s-1.677-.265-4.587-.766c-1.856.5-3.791 1.057-5.783 1.661a592.019 592.019 0 0 1 7.867 5.519c4.904-1.01 9.441-1.698 13.4-1.946 0 0-7.639 2.221-18.716 5.822 17.057-2.249 33.031-6.082 44.423-12.393zm-74.97-17.28c1.011-.45 2.017-.903 3.021-1.357-1.537.251-3.114.493-4.719.728l-.279.346zm32.302 18.361l-1.181-.208a338.55 338.55 0 0 0-5.229.681c.278.19.552.377.822.564 2.027-.385 3.902-.732 5.588-1.037zm3.591 91.674a824.147 824.147 0 0 0-15.873 5.144c2.125.572 4.189 1.099 6.179 1.573 2.514-.467 4.718-.86 6.535-1.177a210.213 210.213 0 0 0 7.009-4.993 136.876 136.876 0 0 1-3.85-.547zm-10.821-90.323c-.376-.201-.757-.402-1.14-.603a422.293 422.293 0 0 0-17.67 2.936l-2.596 1.374 1.452.464a629.882 629.882 0 0 1 19.954-4.171zm6.564 183.163a273 273 0 0 0-9.756 3.098c1.358.394 2.684.776 3.977 1.144l.402.074a173.37 173.37 0 0 0 7.541-4.305l-2.164-.011zm2.611.014a609.39 609.39 0 0 1-6.552 4.577c1.278.247 2.521.496 3.725.746a241.06 241.06 0 0 0 13.229-5.184c-2.83-.057-6.365-.111-10.402-.139zm-16.721 1.804c3.218-.67 6.264-1.279 9.062-1.821-4.523.012-9.423.063-14.521.177 1.854.567 3.674 1.115 5.459 1.644zm46.11-11.324c-10.606-.347-22.375.492-34.26 2.003 2.817.206 5.393.211 7.649-.033 0 0-5.335 1.84-16.894 1.333-.886.136-1.77.275-2.652.417 7.729-.162 11.398.934 11.398.934-4.012-.266-8.982.279-14.533 1.392 8.047.144 15.885.535 22.904 1.286.232-.155.471-.311.699-.464 0 0-.23.169-.646.47l.641.071c3.754-.657 5.953-1.003 5.953-1.003-1.569.307-3.236.682-4.979 1.112 2.805.33 5.458.724 7.93 1.184 6.1-2.7 11.776-5.602 16.79-8.702zm-40.568 17.257l-1.308.883c.771-.25 1.541-.502 2.31-.756-.334-.043-.667-.086-1.002-.127zm12.135 1.68c-5.394 2.499-11.401 4.979-18.073 7.36l8.057 2.398-9.481 3.583 2.546.867c11.329-5.088 21.577-8.901 30.764-11.73-4.276-.899-8.925-1.723-13.813-2.478zm-14.872-2.014a586.775 586.775 0 0 0-8.131-.914 603.308 603.308 0 0 0-14.596 5.56l7.173 1.635a434.96 434.96 0 0 0 6.495-1.843 372.854 372.854 0 0 0 9.059-4.438zm3.676-93.131a629.26 629.26 0 0 1-5.029-.739l-.129 1.623-.344.181c1.937-.383 3.78-.739 5.502-1.065zm4.006.013c.599.137 1.188.268 1.771.393.737-.49 1.467-.98 2.19-1.47-1.284.331-2.606.692-3.961 1.077zm-5.092-122.397l-.297-.096a234.425 234.425 0 0 1-8.355 1.89 574.586 574.586 0 0 1-6.229 4.016c5.469.156 10.773.236 15.701.268 1.07-.223 1.656-.341 1.656-.341-.451.107-.911.222-1.379.342 3.48.021 6.767.016 9.781-.003-3.238-1.97-6.909-4.008-10.878-6.076zm.217-398.384a516.41 516.41 0 0 1-4.504-.874c-1.308.387-2.642.786-3.994 1.193 1.613.554 3.191 1.09 4.734 1.608 1.28-.644 2.536-1.287 3.764-1.927zm-.247 569.674a229.515 229.515 0 0 0 5.023-2.69c-3.33.438-6.664.929-9.98 1.458 1.698.443 3.355.856 4.957 1.232zm-20.83 10.009a618.287 618.287 0 0 0 3.549-1.614l-6.286.978zm27.985-29.658a324.654 324.654 0 0 0-5.677-1.072l-.36 1.396-23.832 3.562-.106.065 5.269 3.549-3.373 1.318c1.789.482 3.56.937 5.301 1.361 8.084-3.987 15.672-7.347 22.778-10.179zm6.177-444.121c1.197.252 2.356.479 3.478.681 1.302-.971 2.563-1.94 3.776-2.904a726.942 726.942 0 0 0-7.254 2.223zM54.48 229.05c1.651-.297 3.098-.549 4.313-.758-1.698.17-3.403.357-5.112.559l.799.199zm41.827-.928c-10.527-1.431-22.936-1.204-35.832.01-1.55.348-3.174.749-4.861 1.198 1.421.338 2.789.641 4.091.896 0 0-1.677-.264-4.587-.766-1.857.5-3.792 1.057-5.783 1.661a760.31 760.31 0 0 1 3.206 2.226c.731-.089 1.129-.135 1.129-.135-.351.054-.713.114-1.073.174a517.97 517.97 0 0 1 4.604 3.254c4.905-1.01 9.442-1.699 13.401-1.947 0 0-7.64 2.222-18.718 5.823 17.057-2.249 33.032-6.082 44.423-12.392z" fill="none"/><path d="M51.791 233.521c-2.205.386-4.57.873-7.062 1.449l-8.14 2.885c2.427.73 4.791 1.428 7.065 2.088h.025c4.635-1.281 9.131-2.395 13.356-3.271a136.953 136.953 0 0 0-5.244-3.151zm-3.652-2.039a291.336 291.336 0 0 0-7.373 2.39l3.07.616c3.453-.479 6.145-.825 7.834-1.035a198.634 198.634 0 0 0-3.531-1.971zm.808-24.43a592.94 592.94 0 0 1 6.641 4.639 782.29 782.29 0 0 0 12.111-.176c-5.554-.986-11.804-2.424-18.752-4.463zm4.692 22.149l-1.18-.208c-1.741.212-3.484.44-5.229.681.278.191.552.377.822.564 2.028-.385 3.902-.732 5.587-1.037zm-7.228 1.35c-.376-.201-.757-.4-1.14-.602a404.95 404.95 0 0 0-13.349 2.146l3.419.688a646.07 646.07 0 0 1 11.07-2.232zm-10.591-4.733a644.605 644.605 0 0 1-4.584-.953l-2.446 1.855c2.398-.339 4.739-.639 7.03-.902zm13.869-40.93c-7.145.23-16.186 2.003-25.83 4.577l3.873.784c7.5-2.088 14.986-3.957 21.957-5.361zm-22.332 17.497c-.609-.09-1.226-.184-1.842-.278l-1.473.428 1.016.161c.766-.102 1.533-.205 2.299-.311zm14.159-35.771c-.285-.056-.57-.11-.858-.168l-.886.261c.593-.036 1.178-.067 1.744-.093zm-20.224 44.249c1.024-.457 2.046-.917 3.065-1.378-1.559.254-3.156.498-4.784.736zm38.37-52.276l1.966.523c.11-.015.22-.026.329-.039-.76-.164-1.523-.325-2.295-.484zm-4.521 53.105c-2.904-1.767-6.16-3.589-9.664-5.438l-10.037 1.265a629.544 629.544 0 0 1-6.062 3.905c5.466.158 10.772.238 15.699.268 1.071-.224 1.659-.341 1.659-.341-.452.109-.914.224-1.381.344 3.482.021 6.769.017 9.786 0zm-10.885-6.076l-.293-.096-.438.108 1.084.172-.353-.184zm-9.711 52.035c2.473-.375 4.936-.769 7.376-1.183l-7.06 1.072-.316.111zm15.784 42.011c-2.767-.5-6.037-1.11-9.677-1.825-1.274.375-2.571.76-3.887 1.156l1.602.286-2.756.527c.91.28 1.814.556 2.713.826 4.19-.44 8.192-.758 12.005-.97zm-17.684-3.161a133.697 133.697 0 0 1-10.418-1.434l-.797.129c2.274.773 4.549 1.532 6.812 2.27l.505.091c1.3-.36 2.601-.712 3.898-1.056zm28.104-4.295c1.642.505 3.015.921 4.067 1.236-.723-.574-1.465-1.15-2.219-1.728-.585.155-1.204.319-1.848.492zm-8.384 7.352c7.21-.34 13.72-.306 19.52-.034a104.44 104.44 0 0 0-6.335-5.491c-2.393-.215-4.972-.572-7.696-1.05-2.84.768-6.082 1.66-9.619 2.663 2.477.146 4.756.127 6.776-.092 0 0-3.622 1.247-11.356 1.405l-.1.028c3.078.967 6.03 1.832 8.81 2.571zm.13-7.629c-5.304-1.14-11.005-2.637-16.854-4.354-1.035.301-2.078.61-3.133.927l.066.03 7.824 3.581-7.51 1.221c2.397.522 4.727.973 6.959 1.337 4.351-1.054 8.601-1.986 12.648-2.742zm-22.888 9.769l-1.041-.188c-.653.205-1.308.411-1.965.62 1.012-.15 2.013-.295 3.006-.432zm25.532-32.788a716.661 716.661 0 0 0-4.748-.018 222.52 222.52 0 0 1-7.027 2.984c.982.696 1.941 1.384 2.873 2.065 3.216-1.709 6.21-3.395 8.902-5.031zm-2.514-6.49c-2.893.313-6.911.505-12.128.225a247.535 247.535 0 0 1-8.368 1.76c.536.336 1.062.671 1.586 1.005 3.411.044 6.794.131 10.104.269a318.789 318.789 0 0 0 8.806-3.259zm-17.163 16.97l-.918-.141c.233.082.47.164.703.244l.215-.103zm9.882 4.598a664.84 664.84 0 0 1-9.236-1.813c-.666.434-1.338.873-2.02 1.315 1.496.519 2.969 1.023 4.41 1.515 2.465-.379 4.759-.718 6.846-1.017zm2.597-2.483a369.914 369.914 0 0 0-8.551-1.494l-.888.588a264.453 264.453 0 0 0 9.56 3.007c.908-.126 1.765-.243 2.562-.351a260.144 260.144 0 0 0-2.683-1.75zm-16.893 4.689c-.262-.081-.522-.16-.784-.242l-.793.506c.529-.09 1.056-.178 1.577-.264zM74.044 47.535c-6.146.188-12.54.684-19.013 1.401-3.409.834-7.129 1.893-11.055 3.118l.09.025-.387.142c2.213.643 4.346 1.25 6.366 1.818 9.431-1.802 15.692-2.787 15.692-2.787-3.944.772-8.479 1.957-13.381 3.434a793.592 793.592 0 0 0 10.24 2.772c4.427-3.382 8.321-6.716 11.448-9.923zM41.361 285.971a825.313 825.313 0 0 0 15.871 5.145c1.313-.206 2.598-.39 3.849-.548a210.513 210.513 0 0 0-7.007-4.991 670.023 670.023 0 0 1-6.538-1.177c-1.988.473-4.052.999-6.175 1.571zM71.715 60.832c2.273-4.714 3.917-9.206 4.737-13.353-.382 0-.765.014-1.147.022-1.894 2.688-4.84 6.388-9.24 10.861 2.355.606 3.696.938 3.696.938a69.628 69.628 0 0 1-4.388-.24l-.038.037c2.333.644 4.474 1.224 6.38 1.735zm-30.627-9.579a661.173 661.173 0 0 1 9.531-1.793c-3.534.443-7.08.943-10.609 1.493zm4.113 5.702a374.42 374.42 0 0 0-8.695 3.009 656.949 656.949 0 0 1 8.577 5.271 616.225 616.225 0 0 1 8.991-1.638 224.682 224.682 0 0 0 4.798-3.371c-4.42-.94-9.017-2.05-13.671-3.271zm-2.04 8.647a324.895 324.895 0 0 0-9.874-4.471c-2.018.74-4.049 1.501-6.086 2.275l9.943 3.006.195.337a656.7 656.7 0 0 1 5.822-1.147zM29.35 33.324l2.523.848-2.072 3.581-.98 1.239c11.408-1.616 21.607-2.336 30.562-2.476a315.475 315.475 0 0 0-6.952-3.17c-3.624.664-11.147 1.449-23.081-.022zm11.661 22.507a412.214 412.214 0 0 1-4.071-1.137l-2.642.969-2.323 1.588c.207.123.418.247.623.37 2.91-.639 5.727-1.237 8.413-1.79zM52.045 6.357a272.416 272.416 0 0 0-8.509 2.716l.056.032-.32.057c-.019.01-.035.012-.054.018 1.359.396 2.687.778 3.979 1.146l.398.073a172.841 172.841 0 0 0 6.926-3.935c-.814-.031-1.642-.066-2.476-.107zm-4.275-.249l-.422-.029c-2.814.01-5.771.035-8.828.08l2.301 1.336c2.439-.501 4.77-.964 6.949-1.387zm-18.76 147.49a642.267 642.267 0 0 0-4.604-.573l-3.26 2.952 11.61 3.582 9.66 3.112c4.892-1.139 9.627-2.107 14.052-2.824-8.388-1.36-17.89-3.615-27.458-6.249zM83.652 21.485c-6.885-2.33-16.252-4.283-26.737-5.913a226.51 226.51 0 0 1-10.124.737L38 18.115c-1.1.725-2.227 1.464-3.38 2.214a508.612 508.612 0 0 1 7.149 4.027c14.354-.507 28.835-1.4 41.883-2.871zM51.463 32.919a447.771 447.771 0 0 0-8.874-3.771c-4.213.234-8.633.422-13.251.559 8.361 1.999 16.042 3.245 22.125 3.212zm-12.76-19.768a591.073 591.073 0 0 0-5.165-.567l-1.21.443c2.162.052 4.291.093 6.375.124zm6.298 53.334a276.238 276.238 0 0 0-6.584 2.119l.81 1.391-9.97 1.804a534.146 534.146 0 0 0-8.614 3.206l1.553 1.804a518.84 518.84 0 0 1 17.839-4.183 354.778 354.778 0 0 0 7.674-4.805c-.883-.443-1.786-.888-2.708-1.336zm9.54 41.877l-.912-.168c-1.525.344-4.336.828-8.527.996a271.178 271.178 0 0 1-3.604 4.293c.509.152 1.013.306 1.518.455l1.021.252c3.815-1.981 7.354-3.935 10.504-5.828zm-18.218.703c-.88-.056-1.791-.122-2.735-.204-1.427.266-2.846.538-4.253.813a651.79 651.79 0 0 0 4.976 1.59c.671-.73 1.341-1.462 2.012-2.199zm16.22-1.074a682.245 682.245 0 0 1-5.605-1.069c-.225.282-.461.569-.69.853 2.256.203 4.363.279 6.295.216zm3.079-12.676a207.653 207.653 0 0 1-3.992 5.532c8.417-.638 15.985-.771 22.696-.583-5.555-1.85-11.912-3.491-18.704-4.949zm.916 27.015c-5.373-1.173-11.035-2.225-16.802-3.169l-.918.322a523.34 523.34 0 0 1-3.588 2.357l6.902 1.905-1.769 3.582 1.284.646c5.291-2.246 10.255-4.112 14.891-5.643zm-31.994 12.22c-.746-.119-1.511-.249-2.286-.386l-.312.04c-.442.43-.891.861-1.34 1.293a493.65 493.65 0 0 1 3.938-.947zm31.923-62.023a142.48 142.48 0 0 0 6.559-3.895 214.17 214.17 0 0 0-8.611 2.548 368.85 368.85 0 0 1 2.052 1.347zm-6.951.256c-4.793 3.655-10.339 7.537-16.744 11.583 8.584-3.934 16.785-7.964 23.646-11.812a115.54 115.54 0 0 0-2.238-1.298c-1.53.486-3.084.997-4.664 1.527zM46.4 66.061c.709.445 1.389.874 2.039 1.287a284.325 284.325 0 0 0 4.873-3.229 183.667 183.667 0 0 0-6.912 1.942zm10.695 6.902a650.552 650.552 0 0 1-19.366 12.949 213.217 213.217 0 0 1 15.062 3.817c5.993-7.601 11.348-15.196 15.493-22.421-1.565.359-3.204.771-4.905 1.228a574.434 574.434 0 0 1-6.268 4.415l.365.241-.381-.229zm-7.766 21.076a317.19 317.19 0 0 0-4.746-.872l-2.131 1.916-14.837 3.324a500.331 500.331 0 0 0 10.474 3.838c1.627-.211 3.233-.406 4.808-.581a358.214 358.214 0 0 0 6.432-7.625zm15.008-26.191c1.599-.282 2.958-.515 4.038-.698a105.365 105.365 0 0 0 2.566-4.752c-2.453-.345-5.02-.776-7.668-1.282-2.844 2.716-6.187 5.667-10.104 8.811a638.803 638.803 0 0 1 11.042-2.055c.377-.247.749-.492 1.108-.735.001-.001-.346.254-.982.711zM30.084 103.4a536.118 536.118 0 0 1-9.359-2.186l-1.834.814c.885.254 1.764.504 2.642.745l6.116 1.022c.818-.135 1.63-.269 2.435-.395zm26.952 271.918c-4.228-.876-8.728-1.991-13.367-3.272-1.8.522-3.653 1.067-5.55 1.632l2.458.825-1.806 2.938a308.005 308.005 0 0 0 9.365 3.067c3.257-1.771 6.253-3.51 8.9-5.19zM40.034 539.366a528.265 528.265 0 0 1-16.12-3.749l-.426.146-1.387 1.776a512.404 512.404 0 0 0 9.028 3.325l12.663 1.842c.359-.12.716-.234 1.073-.351-1.59-1-3.203-1.998-4.831-2.989zm24.18 4.755c-.891-.159-1.86-.332-2.89-.52a340.173 340.173 0 0 0-4.451 1.523 148.152 148.152 0 0 1 6.398 5.75c2.649-.506 5.215-.938 7.668-1.284a106.398 106.398 0 0 0-2.565-4.751 539.81 539.81 0 0 1-4.036-.698c.635.458.982.713.982.713-.359-.244-.73-.489-1.106-.733zm2.417-2.239a290.78 290.78 0 0 0-3.761 1.208l.51.364c1.7.457 3.339.869 4.903 1.227a123.534 123.534 0 0 0-1.652-2.799zm-3.604 1.476l-.33-.211-.198.065.528.146zm-31.35 15.465a635.956 635.956 0 0 1-4.878-1.051 558.758 558.758 0 0 1-4.586 2.625l.172.447 1.588.32a575.704 575.704 0 0 1 7.704-2.341zm22.398-10.427a797.592 797.592 0 0 1-4.173-.743 377.32 377.32 0 0 0-4.938 1.878l1.617.566-3.127 3.584-1.539.246c1.104.379 2.203.75 3.287 1.109 4.653-1.221 9.25-2.332 13.669-3.271a219.92 219.92 0 0 0-4.796-3.369zm-.763-.525a251.3 251.3 0 0 0-1.424-.957c-.305.11-.606.222-.91.334.792.217 1.571.426 2.334.623zm-12.3 8.288a601.274 601.274 0 0 1-5.646-1.188l-4.172.666c1.754.626 3.488 1.231 5.199 1.815 1.539-.439 3.08-.871 4.619-1.293zm1.884-45.832a281.557 281.557 0 0 1-4.807-.581l-.025.009 5.082.861c-.084-.095-.167-.193-.25-.289zm9.648-6.329c-1.933-.062-4.04.016-6.296.218.229.284.464.571.689.852a747.96 747.96 0 0 1 5.607-1.07zm-3.215 13.954a360.32 360.32 0 0 0-6.089-7.229l-17.297 3.535 12.338 3.585 1.914 1.731c3.086-.509 6.141-1.05 9.134-1.622zm14.28 19.167c-3.223-4.881-6.885-9.87-10.819-14.859a212.133 212.133 0 0 1-15.063 3.818 650.144 650.144 0 0 1 19.069 12.741 206.976 206.976 0 0 1 6.813-1.7zM51.63 511.144a208.655 208.655 0 0 1 3.992 5.532c6.793-1.456 13.149-3.098 18.705-4.95-6.711.188-14.28.055-22.697-.582zm4.161 27.942c-6.732-3.742-14.698-7.647-23.021-11.463 6.406 4.046 11.953 7.928 16.746 11.584.903.304 1.799.601 2.688.891 1.212-.353 2.411-.692 3.587-1.012zm-19.469-36.161c-.67-.736-1.34-1.47-2.012-2.199-1.484.467-2.98.945-4.483 1.431l3.228.874.536.1c.943-.083 1.852-.149 2.731-.206zm-.862 135.402c-.437-.211-.878-.422-1.317-.635a746.304 746.304 0 0 0-5.105 1.576c2.144-.299 4.286-.614 6.422-.941zm15.926 24.041c-7.106-2.834-14.694-6.194-22.78-10.182a238.493 238.493 0 0 0-8.869 2.351l12.945 3.069-8.318 2.627a490.23 490.23 0 0 1 3.281 2.052l12.351 2.139a353.28 353.28 0 0 0 11.39-2.056zm-2.133-16.961a236.434 236.434 0 0 0-5.021-2.689c-1.604.376-3.26.789-4.957 1.23 3.317.53 6.65 1.021 9.978 1.459zm.097-361.431c1.357.388 2.682.748 3.963 1.079-.722-.492-1.453-.981-2.19-1.472-.583.126-1.175.257-1.773.393zM30.893 678.768a533.706 533.706 0 0 0-7.125-4.036l-3.199.793 4.351 3.584 1.466.425c1.534-.267 3.037-.521 4.507-.766zm12.655 7.581a420.476 420.476 0 0 0-9.514-5.752c-.647.191-1.298.387-1.95.582l5.241 1.516-6.519 2.871c2.205.789 4.387 1.552 6.526 2.275a288.955 288.955 0 0 1 6.216-1.492zm13.438-68.019c-7.277-.192-15.34-.771-24.162-1.888-.062.017-.125.03-.188.045 1.062.375 2.117.743 3.163 1.103l2.884.596-.651.161c2.655.891 5.243 1.723 7.739 2.481 6.279.312 9.238 1.332 9.238 1.332-1.598-.173-3.357-.22-5.246-.16 3.588 1.013 6.935 1.841 9.938 2.429 0 0-5.046-.794-12.896-2.259-4.084.332-8.664 1.079-13.543 2.129l3.795 1.056-12.861 2.595a550.295 550.295 0 0 1 8.937 5.659c2.546-.425 4.982-.813 7.283-1.168 11.031-2.652 21.385-4.49 29.343-4.66 0 0-13.08 3.224-29.939 8.207l.754.119-2.773.547 1.588 1.052c18.063-2.944 35.131-6.948 45.608-12.334-7.718-1.103-17.043-3.236-28.011-7.042zm-9.056-12.419a780.021 780.021 0 0 1-3.604-.708c.473.233.944.469 1.417.7.737.004 1.467.006 2.187.008zm7.209-.013a172.927 172.927 0 0 0-7.541-4.305l-.408.074c-1.291.369-2.615.749-3.972 1.144a271.09 271.09 0 0 0 9.757 3.099l2.164-.012zm-14.892 5.813a70.845 70.845 0 0 1-1.429-.017c.726.115 1.449.232 2.177.345-.249-.109-.498-.217-.748-.328z" fill="none"/><path d="M39.561 620.776a674.89 674.89 0 0 1-6.233-1.268l-9.156 2.262 1.259.351c5.514-.847 10.214-1.233 14.13-1.345zm2.109-22.283c-4.798-2.438-9.959-4.902-15.263-7.329l-2.54 1.929 9.324 3.585-3.146 1.15c.584.313 1.17.627 1.757.939.58.214 1.159.428 1.737.639a588.55 588.55 0 0 0 8.131-.913zm-15.988 35.249a594.692 594.692 0 0 0-6.986-3.13l-.678 1.912zm21.228 42.573a296.191 296.191 0 0 0-10.206-5.203c-.894.189-1.802.376-2.724.561l1.029.27-2.176.539a253.568 253.568 0 0 1 7.34 4.816c2.45-.37 4.707-.697 6.737-.983zM33.807 342.926a484.217 484.217 0 0 0-7.535-2.372c-.78.133-1.562.266-2.361.395l2.82 1.312 2.17.542c1.652.048 3.288.089 4.906.123zm21.334.156c-3.298-2.004-7.048-4.083-11.103-6.19-1.792.442-3.646.875-5.567 1.297a231.069 231.069 0 0 1 11.924 4.91c1.643-.001 3.228-.01 4.746-.017zm-5.789-15.067c1.877.429 3.683.806 5.396 1.121 1.925-.406 3.813-.827 5.665-1.264a245.146 245.146 0 0 1-4.38-1.605 149.816 149.816 0 0 0-6.681 1.748zm-13.319 41.816c-3.812-.3-7.623-.534-11.399-.718l5.271 1.809 2.326.781c1.808-.483 3.607-.947 5.395-1.394l-1.593-.478zm16.584-20.264a326.01 326.01 0 0 0-8.797-3.254c-.971.04-1.95.076-2.934.107l-.906 2.951c5.467-.32 9.653-.127 12.637.196zm-17.155-16.966c-.071-.035-.144-.068-.214-.104l-.699.243.913-.139zm12.879 356.797c-.438-.285-.879-.57-1.323-.855-1.305.372-2.645.758-4.017 1.157 1.026.325 2.038.636 3.037.938.782-.416 1.548-.829 2.303-1.24zm1.993-377.069a241.27 241.27 0 0 1-6.702-.467c.851.412 1.703.821 2.556 1.23a760.86 760.86 0 0 1 4.146-.763zm-5.32 9.501a313.205 313.205 0 0 1-8.716-3.876c-1.327.257-2.679.537-4.054.843a471.13 471.13 0 0 0-6.85 2.484 413.195 413.195 0 0 0 10.244 3.134 280.635 280.635 0 0 1 9.376-2.585zm3.048 6.556a265.05 265.05 0 0 0-9.559 3.007c.299.197.592.393.887.587a340.904 340.904 0 0 0 14.949-2.757c-1.6-.204-3.723-.483-6.277-.837zm9.213-22.391a628.738 628.738 0 0 1-9.383-1.32c-2.363.32-4.728.663-7.084 1.029l5.481.738-1.774.398c1.127.163 2.254.322 3.381.475 3.674-.542 6.859-.984 9.379-1.32zm-8.273 17.503c-2.396.776-4.956 1.62-7.643 2.521 2.125.572 4.189 1.099 6.179 1.573a614.988 614.988 0 0 1 8.146-1.455 284.166 284.166 0 0 1-6.682-2.639zm-3.656 4.504a667.27 667.27 0 0 1-6.851-1.017l-1.925.656.681.29-1.39 1.725.244.159a682.738 682.738 0 0 1 9.241-1.813zm9.791 72.296c-3.013-.02-6.298-.023-9.777 0 .466.119.926.235 1.377.342 0 0-.586-.117-1.653-.34-4.798.029-9.958.106-15.274.256l13.49 2.626-4.238 2.146c1.685.375 3.318.756 4.9 1.146l.295-.096c3.972-2.069 7.643-4.107 10.88-6.077zm6.487 52.583c-.629.166-1.282.339-1.97.524.772-.16 1.537-.321 2.299-.486l-.329-.038zm-5.159-.737c-5.754-.933-12.031-2.289-18.494-3.896l-.808.232c-1.396.473-2.808.962-4.233 1.464l3.393 3.396-2.764 3.583.187.197c7.942-2.081 15.718-3.841 22.719-4.976zm-6.777-25.041a262.471 262.471 0 0 1-10.771-2.421l-3.117.648c5.089 1.005 9.798 1.64 13.888 1.773zm-22.327-17.498c-.604-.083-1.207-.166-1.81-.246l-4.056.987.165.156c1.933-.323 3.833-.623 5.701-.897zm-.584 83.109a95.118 95.118 0 0 1-.514-.118l-.205.155 1.104.365c-.128-.134-.258-.267-.385-.402zm29.762-3.053c-5.371-1.776-11.178-3.99-17.43-6.739l-10.672 1.341a320.038 320.038 0 0 1 3.783 3.94 622.113 622.113 0 0 1 6.596 4.306l.918.322c5.768-.945 11.431-1.997 16.805-3.17zm-8.488-107.908l-.822.562c1.744.241 3.488.47 5.229.682.409-.072.802-.143 1.18-.208-1.686-.306-3.56-.651-5.587-1.036zm6.428 1.188c-.267.065-.529.131-.799.199 1.709.202 3.412.389 5.109.559-1.216-.209-2.66-.462-4.31-.758zm-8.07-1.502a643.823 643.823 0 0 1-11.968-2.421l-3.188.757a409.61 409.61 0 0 0 14.019 2.267l1.137-.603zm9.2 1.226c1.688.447 3.311.849 4.861 1.197 12.898 1.212 25.307 1.44 35.836.01-11.392-6.312-27.363-10.145-44.422-12.394 11.077 3.601 18.715 5.822 18.715 5.822-3.959-.248-8.496-.935-13.4-1.947a569.788 569.788 0 0 1-7.867 5.521c1.991.602 3.926 1.16 5.782 1.66 2.911-.501 4.589-.767 4.589-.767-1.303.257-2.672.558-4.094.899zM54.541 503.63c-3.15-1.893-6.689-3.848-10.503-5.83-.341.085-.677.17-1.024.253l-1.516.456a265.897 265.897 0 0 1 3.604 4.292c4.191.168 7.004.653 8.527.997l.912-.168zM29.303 396.763c-.97-.23-1.974-.472-2.998-.72-.387.243-.775.483-1.164.727 1.386-.01 2.774-.011 4.162-.01zm26.283 3.539a617.29 617.29 0 0 1-6.639 4.637c6.943-2.037 13.191-3.477 18.744-4.462-3.059-.07-7.209-.142-12.105-.175z" fill="none"/><path d="M0 .003v1500h33.048l.313-.279a236.037 236.037 0 0 0 10.6-2.342l.295.095c1.629.848 3.193 1.69 4.713 2.526h1.555c-.51-.354-1.027-.713-1.575-1.09 1.317.387 2.601.745 3.869 1.09h16.721a209.89 209.89 0 0 1-10.053-3.072c10.172.151 18.737-.443 25.659-1.311 31.219 7.046 46.297 1.657 46.297 1.657-9.312 1.552-21.198-.073-34.311-3.693 6.297-1.388 9.505-2.677 9.505-2.677-3.376 1.003-7.085 1.738-11.052 2.245-6.47-1.849-13.22-4.166-20.098-6.82 8.875-4.419 12.375-7.83 12.375-7.83-3.973 2.46-9.293 4.652-15.502 6.604a387.613 387.613 0 0 1-16.881-7.208c8.64-2.363 14.281-3.754 14.281-3.754-5.038.107-11.038.884-17.559 2.112a23.504 23.504 0 0 0-.479-.082 529.376 529.376 0 0 1-8.09-3.844c41.396 3.471 63.002-5.226 63.002-5.226-18.156 5.39-45.912 3.098-71.895-1.34l7.205-1.175c13.082.861 19.099-1.21 19.099-1.21-5.556.6-13.017-.28-21.371-2.057 3.343-.646 6.513-1.129 9.447-1.412 6.511 1.191 10.582 1.832 10.582 1.832-2.576-.504-5.407-1.187-8.425-2.009 2.599-.166 4.979-.152 7.084.076 0 0-3.745-1.289-11.748-1.411a241.906 241.906 0 0 1-3.06-.941 809.918 809.918 0 0 1 18.069-5.015c2.911.354 5.643.572 8.136.625 0 0-1.963-.484-5.332-1.362l.474-.123c11.992 2.74 22.369 6.098 28.994 10.2 0 0-13.523-13.189-54.9-21.299l7.389-1.356-3.951-2.718c23.648-3.574 47.83-4.964 64.203-.103 0 0-24.969-10.055-72.66-4.231a403.98 403.98 0 0 1 7.995-4.148c8.894.007 13.04-1.421 13.04-1.421-2.833.306-6.168.222-9.857-.164 5-2.46 9.996-4.769 14.916-6.854 1.994-.503 3.894-.937 5.668-1.285 0 0-1.582.25-4.336.723a215.545 215.545 0 0 1 5.513-2.21c8.55 2.33 15.858 5.041 20.948 8.192 0 0-4.588-4.473-16.584-9.81.386-.138.771-.274 1.156-.408 1.159.082 2.283.138 3.359.161 0 0-.787-.194-2.214-.558 12.942-4.401 24.731-6.563 33.725-4.899 0 0-14.003-5.562-43.047 2.449-1.407-.379-2.92-.792-4.521-1.233a177.246 177.246 0 0 0-9.734-3.002c5.809-1.814 11.167-3.262 15.734-4.156 0 0-7.608 1.198-18.678 3.365-.358-.094-.72-.189-1.084-.282a641.378 641.378 0 0 0 8.995-6.237 484.68 484.68 0 0 0 10.263 1.773c-2.883-.565-6.082-1.349-9.51-2.307 2.272-1.612 3.562-2.554 3.562-2.554a102.947 102.947 0 0 1-3.855 2.47 219.19 219.19 0 0 1-5.673-1.685c10.908-1.611 21.892-2.736 32.144-2.988 2.22.977 4.221 2.003 5.961 3.08 0 0-1.244-1.21-4.116-3.119 10.873-.155 20.849.722 28.924 3.119 0 0-11.315-4.557-33.261-5.759-4.698-2.638-11.572-5.875-21.154-9.039 7.678-11.628 12.184-21.318 14.818-28.751 2.955.363 5.726.586 8.252.64 0 0-2.926-.722-7.78-2.005 3.447-10.238 3.243-15.82 3.243-15.82-.641 4.686-2.434 9.86-5.073 15.334a778.029 778.029 0 0 1-6.38-1.732c.014-.012.025-.025.039-.038 1.529.127 2.995.21 4.387.24 0 0-1.34-.331-3.695-.938 9.55-9.707 12.239-15.773 12.239-15.773-3.437 4.66-8.952 9.709-15.706 14.869a769.902 769.902 0 0 1-10.238-2.772c4.901-1.476 9.435-2.661 13.377-3.432 0 0-6.258.985-15.688 2.787a811.94 811.94 0 0 1-6.491-1.854c5.967-1.875 11.471-3.37 16.146-4.285 0 0-7.776 1.224-19.049 3.437a713.617 713.617 0 0 1-10.112-3.058l3.179-1.492-4.347-1.959c27.461-5.035 57.851-8.054 77.262-2.291 0 0-21.604-8.697-63.001-5.226a511.978 511.978 0 0 1 8.09-3.844c2.217-.361 3.286-.73 3.286-.73-.645.07-1.323.113-2.017.144 9.693-4.468 19.474-8.581 28.915-11.963 2.216.69 4.215 1.415 5.952 2.176 0 0-1.459-1.005-4.872-2.556 18.638-6.583 35.886-10.265 48.452-8.171 0 0-18.732-6.694-57.67 4.6-3.465-1.164-7.654-2.407-12.656-3.649 11.957-5.938 20.54-11.843 26.43-16.635 7.046.368 13.523 1.293 19.091 2.946 0 0-5.963-2.398-17.608-4.173 6.634-5.61 9.334-9.411 9.334-9.411-3.02 3.214-6.825 6.258-11.206 9.138-10.705-1.488-25.753-2.378-44.968-.653l-2.162-1.533.026-.025a268.721 268.721 0 0 1 5.722-1.812c6.279-.312 9.237-1.332 9.237-1.332-1.598.173-3.356.219-5.245.161 3.588-1.013 6.935-1.842 9.938-2.429 0 0-5.046.794-12.895 2.259a75.565 75.565 0 0 1-3.106-.32l.095-.09-17.91-3.587 10.223-3.588-6.594-1.532c1.228-.78 2.435-1.555 3.618-2.32 2.55.423 4.989.813 7.293 1.169 11.026 2.65 21.378 4.488 29.334 4.657 0 0-13.467-3.319-30.68-8.427l4.657-.724-.262-.085c18.264 3.174 35.049 7.478 44.385 13.258 0 0-10.096-9.845-39.526-17.754 3.37.442 5.333.669 5.333.669-2.305-.353-4.816-.839-7.484-1.43a659.998 659.998 0 0 0 4.894-3.367c20.776-2.619 41.18-3.172 55.56 1.097 0 0-16.617-6.686-48.621-5.993.828-.595 1.272-.92 1.272-.92-.452.305-.919.613-1.397.923-4.455.099-9.207.341-14.255.764 6.942-3.373 13.998-6.62 21.013-9.602 9.524 2.461 17.682 5.368 23.216 8.794 0 0-5.112-4.979-18.642-10.699 23.76-9.727 46.604-16.04 62.221-13.437 0 0-23.521-8.415-72.654 9.517-5.339-1.783-11.532-3.545-18.678-5.169 11.33-7.537 19.178-13.271 19.178-13.271-5.801 3.916-13.744 8.212-22.584 12.525-1.487-.315-3.01-.624-4.574-.926 10.378-6.514 18.528-12.609 24.895-18.032.42.051.648.077.648.077-.203-.032-.415-.068-.621-.101a142.285 142.285 0 0 0 8.323-7.655c1.528.127 2.995.21 4.388.24 0 0-1.341-.331-3.695-.938 9.549-9.707 12.238-15.773 12.238-15.773-2.921 3.96-7.348 8.202-12.754 12.553-2.393.215-4.973.572-7.697 1.05a802.433 802.433 0 0 1-14.297-4.005c5.967-1.874 11.471-3.37 16.146-4.285 0 0-7.775 1.224-19.048 3.437a704.848 704.848 0 0 1-10.628-3.218l7.814-3.567-3.377-.627c4.443-.762 8.938-1.46 13.43-2.069 9.4 1.393 15.623 2.11 15.623 2.11-3.627-.555-7.764-1.436-12.23-2.553 20.703-2.596 41.018-3.131 55.35 1.124 0 0-21.605-8.697-63.002-5.227a529.376 529.376 0 0 1 8.09-3.844c2.217-.361 3.287-.73 3.287-.73-.646.069-1.324.113-2.018.144 6.46-2.978 12.955-5.795 19.365-8.345 6.209 1.953 11.529 4.145 15.503 6.604 0 0-3.5-3.412-12.376-7.83 21.471-8.278 41.717-13.315 55.955-10.943 0 0-21.108-7.552-65.103 6.896-5.512-2.177-12.239-4.416-20.364-6.497a629.245 629.245 0 0 0 9.611-6.672c10.668.075 17.814.332 17.814.332-4.2-1.101-9.227-1.919-14.762-2.513l.646-.47c-.227.153-.467.309-.7.464-.951-.102-1.92-.196-2.899-.285 29.791-14.35 36.869-27.458 36.869-27.458-6.744 8.257-20.898 15.879-37.701 22.562-6.103.038-13.817-1.214-22.217-3.225 10.145-3.579 19.644-6.488 27.064-7.94 0 0-5.314.837-13.516 2.375l-3.052-2.765-.745-.243c6.373-.985 12.164-2.204 17.418-3.58 3.598.494 6.945.797 9.951.861 0 0-2.519-.621-6.753-1.734 17.733-5.064 28.882-11.851 35.282-16.881 2.955.473 5.75 1.083 8.346 1.854 0 0-2.626-1.057-7.797-2.287 4.711-3.786 6.651-6.473 6.651-6.473-2.326 2.25-5.12 4.274-8.279 6.101-10.103-2.234-28.233-4.736-53.978-2.535l.418-.175-4.873-.91a603.414 603.414 0 0 0-10.475-6.78 264.46 264.46 0 0 1 3.292-1.197l6.021-.887c7.366-.17 14.517-.556 20.971-1.246.233.154.472.311.699.463 0 0-.229-.168-.647-.469 4.383-.47 8.442-1.082 12.028-1.863 21.063 3.287 31.272-.022 31.272-.022-10.926 1.652-26.133-1.489-42.453-6.915 31.043.462 47.147-6.023 47.147-6.023-12.464 3.7-29.454 3.777-47.288 2.027 20.987-7.094 28.516-14.43 28.516-14.43-8.551 5.294-23.353 9.35-39.813 12.433 6.888-4.728 11.238-7.906 11.238-7.906-3.849 2.599-8.646 5.364-14.017 8.191-.729-.104-1.459-.21-2.188-.319a381.95 381.95 0 0 1-5.296-2.157l1.964-.677-9.623-2.774c21.259-6.62 39.632-11.148 39.632-11.148-5.038.107-11.038.885-17.559 2.112-3.466-.611-10.216-1.281-20.632-.188l9.853-2.338-19.079-3.583-.588-.585c55.635 9.316 84.88-2.457 84.88-2.457-19.882 5.902-51.274 2.591-79.247-2.661l4.141-1.015c20.343 3.109 29.517-.05 29.517-.05-5.556.6-13.017-.281-21.371-2.058 3.341-.646 6.511-1.129 9.446-1.412 6.511 1.191 10.583 1.832 10.583 1.832-2.576-.504-5.408-1.187-8.427-2.009 2.601-.166 4.98-.151 7.086.076 0 0-3.745-1.289-11.75-1.411-1.002-.3-2.024-.616-3.058-.939a816.09 816.09 0 0 1 18.07-5.016c2.911.354 5.642.572 8.135.625 0 0-1.963-.483-5.331-1.361l.473-.123c11.992 2.739 22.369 6.098 28.994 10.199 0 0-14.064-13.712-57.381-21.771l5.852-2.116.291-1.519c23.576-3.549 47.658-4.914 63.979-.068 0 0-24.969-10.055-72.66-4.231a398.723 398.723 0 0 1 7.996-4.147c8.893.007 13.039-1.421 13.039-1.421-2.833.306-6.167.222-9.857-.164 5-2.46 9.998-4.77 14.918-6.854a107.4 107.4 0 0 1 5.666-1.285s-1.582.25-4.334.723a216.855 216.855 0 0 1 5.511-2.209c8.55 2.33 15.858 5.041 20.948 8.191 0 0-4.588-4.473-16.584-9.81.386-.138.771-.274 1.156-.408 1.159.082 2.283.138 3.359.161 0 0-.787-.194-2.214-.558 12.942-4.401 24.731-6.563 33.725-4.899 0 0-14.004-5.562-43.047 2.448-1.407-.379-2.92-.792-4.521-1.233A177.883 177.883 0 0 0 50 999.977c5.809-1.813 11.167-3.262 15.734-4.156 0 0-7.608 1.197-18.678 3.364l-1.084-.282a635.314 635.314 0 0 0 8.995-6.235c6.324 1.151 10.263 1.772 10.263 1.772-2.883-.564-6.082-1.349-9.51-2.307 2.272-1.612 3.562-2.554 3.562-2.554a102.947 102.947 0 0 1-3.855 2.47 215.313 215.313 0 0 1-5.673-1.685c10.908-1.61 21.892-2.735 32.144-2.987 2.22.977 4.221 2.003 5.961 3.08 0 0-1.244-1.21-4.116-3.119 10.873-.155 20.849.722 28.924 3.119 0 0-11.315-4.558-33.262-5.759-4.697-2.639-11.571-5.875-21.153-9.039 7.678-11.629 12.184-21.318 14.818-28.751 2.955.362 5.726.586 8.252.64 0 0-2.926-.722-7.78-2.005 3.447-10.238 3.243-15.82 3.243-15.82-.641 4.687-2.434 9.86-5.073 15.334a817.353 817.353 0 0 1-6.38-1.731l.039-.039a71.15 71.15 0 0 0 4.387.239s-1.34-.331-3.695-.938c9.549-9.707 12.239-15.773 12.239-15.773-3.437 4.66-8.952 9.709-15.706 14.869a768.064 768.064 0 0 1-10.238-2.771c4.901-1.477 9.435-2.661 13.377-3.433 0 0-6.258.985-15.688 2.787a811.94 811.94 0 0 1-6.491-1.854c5.967-1.875 11.471-3.37 16.146-4.285 0 0-7.776 1.224-19.047 3.437a682.574 682.574 0 0 1-15.367-4.715 614.508 614.508 0 0 1 3.056-1.603c27.729-5.148 58.636-8.317 78.291-2.482 0 0-21.604-8.697-63.001-5.226a520.578 520.578 0 0 1 8.09-3.845c2.217-.36 3.286-.729 3.286-.729-.645.07-1.323.113-2.017.144 9.695-4.468 19.474-8.581 28.914-11.963 2.217.691 4.216 1.416 5.953 2.178 0 0-1.459-1.006-4.873-2.557 18.639-6.583 35.887-10.265 48.453-8.171 0 0-18.732-6.693-57.67 4.6-5.955-2-14.051-4.233-24.736-6.295a603.675 603.675 0 0 0 6.552-4.577c10.668.074 17.813.331 17.813.331-3.789-.992-8.246-1.757-13.146-2.333a105.52 105.52 0 0 1 4.979-1.111s-2.2.346-5.955 1.003l-.641-.071c.418-.301.647-.469.647-.469l-.699.463c-5.801-.621-12.163-.995-18.739-1.188l.062-.011-1.921-.523c4.625-.815 8.781-1.185 12.228-.955 0 0-3.669-1.097-11.397-.935.882-.142 1.766-.28 2.65-.417 11.559.507 16.895-1.334 16.895-1.334-2.256.243-4.832.239-7.649.033 20.901-2.657 41.458-3.242 55.922 1.052 0 0-22.837-9.197-66.545-4.905l-2.841-.819c2.93-.992 5.781-1.911 8.523-2.744 6.278-.312 9.236-1.332 9.236-1.332-1.598.173-3.357.219-5.246.161 3.588-1.013 6.936-1.842 9.938-2.429 0 0-5.045.795-12.896 2.259a81.158 81.158 0 0 1-4.779-.542l3.808-.892-12.144-1.973a243.506 243.506 0 0 0 17.182-4.57c7.035 1.375 13.509 2.252 18.887 2.366 0 0-5.695-1.403-14.41-3.789 1.902-.63 3.739-1.271 5.522-1.92 11.139 2.651 20.735 5.86 26.989 9.731 0 0-5.811-5.662-21.447-11.848 9.62-3.854 17.307-7.906 23.387-11.743 6.174.438 11.866 1.332 16.834 2.807 0 0-5.167-2.08-15.285-3.8 14.305-9.358 19.026-17.174 19.026-17.174-5.485 6.291-14.235 11.69-24.817 16.314-7.322-.938-16.521-1.573-27.545-1.334.828-.595 1.272-.92 1.272-.92-.452.305-.919.612-1.396.922-4.275.096-8.824.323-13.643.715l-3.641-2.441-6.994-3.584-10.149-3.585 20.963-3.586-4.35-1.395c19.562 3.224 37.87 7.696 47.784 13.833 0 0-11.952-11.653-47.752-19.789a638.857 638.857 0 0 0 8.453-5.719c5.646.779 9.107 1.178 9.107 1.178-2.576-.394-5.41-.954-8.432-1.643a526.478 526.478 0 0 0 9.727-6.854c3.916.564 7.557.912 10.794.981 0 0-6.687-1.649-16.655-4.408 7.235-5.8 12.513-10.947 16.312-15.171 14.07-.8 27.128-.179 37.219 2.817 0 0-11.787-4.743-34.623-5.826 4.781-5.798 6.293-9.208 6.293-9.208-2.145 2.908-5.098 5.968-8.656 9.11-7.812-.272-16.834-.111-27.039.786 6.332-2.015 12.17-3.62 17.094-4.584 0 0-6.189.975-15.529 2.757l.684-1.463c6.908-.252 10.153-1.37 10.153-1.37-2.729.295-5.926.227-9.456-.123l.219-.467-3.334-3.584 3.317-3.585-5.671-1.013a540.903 540.903 0 0 1 10.078-4.856c15.607 3.031 29.514 6.964 37.697 12.029 0 0-8.073-7.869-30.814-15.188 27.954-12.557 56.122-21.715 74.395-18.67 0 0-21.611-7.725-66.666 7.421a140.04 140.04 0 0 0-6.137-.789l.648-.47c-.227.152-.467.309-.7.464-.952-.103-1.92-.196-2.899-.285 12.133-5.844 20.502-11.48 26.153-16.111 33.462 8.207 49.601 2.436 49.601 2.436-11.705 1.949-27.475-1.114-44.643-6.862 4.318-4.249 5.758-6.919 5.758-6.919-1.813 2.22-4.168 4.394-6.959 6.517-7.238-2.467-14.709-5.398-22.221-8.625a494.282 494.282 0 0 1 7.225-2.181c-2.887.18-6.08.596-9.498 1.199a447.374 447.374 0 0 1-11.021-4.997c3.721-1.114 7.219-2.051 10.407-2.768 17.415-1.635 33.948-1.483 46.146 2.138 0 0-21.605-8.697-63.002-5.227 8.53-4.145 17.233-8.095 25.816-11.601l.196-.008c3.559 3.143 6.513 6.203 8.658 9.11 0 0-1.512-3.409-6.293-9.209 22.834-1.083 34.623-5.825 34.623-5.825-8.342 2.478-18.715 3.325-30.008 3.097 21.044-8.019 40.828-12.84 54.812-10.509 0 0-21.121-7.559-65.145 6.909-3.371-3.445-7.609-7.356-12.914-11.628l.704-.494c9.421-2.597 15.674-4.138 15.674-4.138-3.237.068-6.878.418-10.794.981-.066-.049-.137-.1-.223-.161.352-.255.543-.396.543-.396-.184.125-.379.251-.567.376a546.286 546.286 0 0 0-9.479-6.674c3.022-.69 5.856-1.249 8.432-1.644 0 0-3.461.399-9.106 1.178a672.684 672.684 0 0 0-8.453-5.72c7.144-1.623 13.337-3.386 18.676-5.169 49.133 17.932 72.654 9.517 72.654 9.517-15.616 2.603-38.461-3.71-62.217-13.436 13.53-5.72 18.642-10.698 18.642-10.698-5.535 3.426-13.693 6.332-23.218 8.793-7.014-2.982-14.071-6.23-21.012-9.603a232.6 232.6 0 0 0 14.256.764c.478.311.945.617 1.397.923 0 0-.444-.324-1.272-.92 32.004.694 48.621-5.991 48.621-5.991-14.38 4.269-34.785 3.715-55.561 1.097a639.856 639.856 0 0 0-4.893-3.366c2.668-.592 5.18-1.077 7.484-1.43 0 0-1.963.227-5.332.669 21.946-5.897 33.143-12.87 37.414-16.035 18.569 2.526 27.59-.922 27.59-.922-10.287 1.833-24.16-1.062-39.259-6.479 21.478-1.261 32.556-5.717 32.556-5.717-10.93 3.244-25.34 3.701-40.746 2.586a295.558 295.558 0 0 1-14.302-6.25c2.404-.17 4.744-.373 6.998-.613.234.153.472.311.7.464 0 0-.23-.169-.648-.47.217-.023.428-.049.643-.071 3.754.657 5.954 1.003 5.954 1.003-1.57-.307-3.237-.682-4.979-1.112 4.901-.576 9.358-1.34 13.146-2.333 0 0-7.147.258-17.815.331a614.173 614.173 0 0 0-6.551-4.576c28.887-5.571 38.827-12.424 38.827-12.424-9.18 4.021-25.555 7.031-43.456 9.264a636.892 636.892 0 0 0-13.835-9.104l13.576-3.127-.887-3.583-8.502-1.265c7.898-1.619 14.946-2.398 20.252-1.825 0 0-9.658-3.327-31.131.206l-4.701-.699 13.865-3.583-10.57-3.15c55.166 9.095 84.162-2.573 84.162-2.573-19.795 5.877-51 2.619-78.877-2.593l12.363-2.433-7.195-1.454c2.644-.81 5.229-1.586 7.729-2.321 11.272 2.213 19.046 3.438 19.046 3.438-4.675-.915-10.178-2.41-16.146-4.284a746.257 746.257 0 0 1 6.49-1.854c9.43 1.802 15.69 2.786 15.69 2.786-3.943-.771-8.476-1.956-13.378-3.433a777.13 777.13 0 0 1 10.236-2.771c6.756 5.159 12.271 10.209 15.709 14.869 0 0-2.691-6.065-12.24-15.773 2.355-.608 3.695-.938 3.695-.938a71.18 71.18 0 0 0-4.388.239l-.039-.038a816.78 816.78 0 0 1 6.381-1.731c2.64 5.474 4.431 10.647 5.073 15.334 0 0 .204-5.582-3.243-15.82 4.853-1.283 7.78-2.005 7.78-2.005-2.526.054-5.297.277-8.252.641a106.06 106.06 0 0 0-3.393-8.36c17.35-5.192 33.373-7.933 44.812-5.744 0 0-15.069-5.637-47.052 1.068-2.395-4.742-5.411-9.996-9.187-15.715 9.581-3.164 16.455-6.401 21.153-9.038 21.947-1.202 33.262-5.76 33.262-5.76-8.074 2.396-18.051 3.274-28.925 3.119 2.873-1.909 4.117-3.119 4.117-3.119-1.74 1.077-3.741 2.102-5.96 3.08-10.252-.252-21.236-1.377-32.143-2.987 1.946-.605 3.842-1.17 5.672-1.685a101.62 101.62 0 0 1 3.854 2.47s-1.291-.942-3.562-2.553c3.426-.958 6.625-1.743 9.508-2.308 0 0-3.939.62-10.262 1.773a633.892 633.892 0 0 0-8.996-6.237c.365-.093.726-.187 1.086-.281 11.069 2.167 18.676 3.364 18.676 3.364-4.567-.893-9.926-2.342-15.734-4.156 3.531-.98 6.766-1.988 9.732-3 1.601-.441 3.115-.854 4.523-1.234 29.042 8.011 43.045 2.448 43.045 2.448-8.994 1.664-20.781-.498-33.724-4.897a309.01 309.01 0 0 1 2.213-.558 67.17 67.17 0 0 0-3.356.159c-.386-.134-.771-.269-1.16-.407 11.998-5.338 16.586-9.81 16.586-9.81-5.09 3.15-12.399 5.861-20.948 8.191a214.82 214.82 0 0 1-5.513-2.21c2.753.474 4.336.723 4.336.723a108.13 108.13 0 0 1-5.666-1.284c-4.922-2.085-9.918-4.394-14.92-6.854 3.69-.388 7.025-.471 9.858-.164 0 0-4.146-1.429-13.04-1.421-.275-.14-.551-.275-.826-.415l2.866-.673-5.959-.914a427.955 427.955 0 0 1-4.077-2.146c47.691 5.826 72.661-4.229 72.661-4.229-19.212 5.702-49.176 2.802-76.413-2.14l-.826-.337c48.91-7.799 64.5-23 64.5-23-6.625 4.101-17.002 7.46-28.994 10.198a57.311 57.311 0 0 1-.475-.123 459.254 459.254 0 0 1 5.333-1.362c-2.493.053-5.225.272-8.137.626a822.438 822.438 0 0 1-17.647-4.893l1.178-.34-.189-.223c.555-.171 1.105-.338 1.651-.502 8.002-.122 11.748-1.411 11.748-1.411-2.105.228-4.485.242-7.083.076 3.017-.821 5.847-1.505 8.423-2.009 0 0-4.071.641-10.581 1.831a92.32 92.32 0 0 1-6.653-.902l-.379-.442-.827-.395c7.709-1.552 14.582-2.291 19.782-1.729 0 0-7.769-2.676-24.858-.681l-1.643-.779-1.031-.712c26.334-4.575 54.682-7.029 73.123-1.554 0 0-25.123-10.114-73.096-4.177l1.059-.723-12.884-3.583 5.132-1.068c13.129 1.875 21.389 1.097 25.354.397 6.522 1.228 12.522 2.006 17.56 2.112 0 0-12.316-3.037-28.445-7.769l.731-.84-4.34-3.583-3.343-.964a394.77 394.77 0 0 1 8.722-3.604c.729-.109 1.458-.215 2.187-.319 5.371 2.827 10.166 5.593 14.016 8.191 0 0-4.35-3.177-11.238-7.906 16.46 3.084 31.262 7.141 39.812 12.435 0 0-7.528-7.336-28.516-14.432 17.834-1.749 34.825-1.674 47.289 2.026 0 0-16.104-6.484-47.146-6.022 16.319-5.426 31.526-8.566 42.45-6.915 0 0-10.209-3.309-31.272-.021-3.586-.781-7.646-1.393-12.028-1.863.418-.302.647-.47.647-.47l-.7.464c-7.525-.804-15.998-1.195-24.654-1.312a267.555 267.555 0 0 1-5.627-2.018c.447-.285.897-.568 1.34-.851l8.211-1.509.588-3.586 4.322-1.962c25.991 2.273 44.282-.246 54.443-2.493 3.16 1.828 5.953 3.852 8.28 6.103 0 0-1.94-2.687-6.652-6.474 5.172-1.23 7.798-2.287 7.798-2.287-2.596.771-5.392 1.381-8.346 1.854-6.4-5.029-17.549-11.816-35.282-16.881 4.234-1.112 6.753-1.732 6.753-1.732-3.006.062-6.354.366-9.951.859-8.248-2.161-17.828-3.936-28.897-5.02l2.888-.636 6.789-2.009c11.309 2.221 19.115 3.45 19.115 3.45-4.695-.919-10.225-2.422-16.219-4.308l2.421-.717-10.104-1.814c-1.046-.359-2.1-.728-3.162-1.102 8.399-2.012 16.112-3.264 22.215-3.226 16.804 6.683 30.959 14.305 37.703 22.562 0 0-7.078-13.106-36.867-27.457.979-.089 1.947-.183 2.899-.284.233.153.472.31.698.463l-.646-.47c5.536-.594 10.562-1.411 14.762-2.513 0 0-7.146.257-17.813.331a622.152 622.152 0 0 0-9.61-6.673c8.123-2.08 14.851-4.319 20.363-6.496 43.994 14.449 65.102 6.896 65.102 6.896-14.238 2.373-34.484-2.664-55.954-10.942 8.875-4.418 12.375-7.829 12.375-7.829-3.974 2.459-9.294 4.652-15.503 6.604a350.887 350.887 0 0 1-6.676-2.736c1.416.112 2.78.189 4.076.216 0 0-3.412-.842-8.986-2.324-.006 0-.014-.01-.021-.01 4.075-1.252 6.495-1.956 6.495-1.956-2.622.165-5.501.524-8.568 1.041a461.55 461.55 0 0 1-5.688-2.575c.696.031 1.374.075 2.019.145 0 0-1.07-.369-3.289-.73a549.553 549.553 0 0 1-4.119-1.935c1.637-.483 3.229-.93 4.768-1.337 35.693 1.676 54.268-5.798 54.268-5.798-14.332 4.254-34.647 3.719-55.35 1.123a169.498 169.498 0 0 1 7.076-1.619c3.261.427 5.154.646 5.154.646-1.408-.216-2.896-.48-4.449-.79 1.553-.308 3.041-.572 4.449-.788 0 0-1.893.219-5.154.646a168.05 168.05 0 0 1-7.078-1.62c7.962-.998 15.865-1.691 23.393-1.925 1.377 1.455 2.6 2.884 3.627 4.278 0 0-.685-1.543-2.58-4.308 11.644-.295 22.348.534 30.912 3.077 0 0-11.175-4.497-32.84-5.734-1.843-2.412-4.361-5.384-7.732-8.81 2.355-.607 3.697-.938 3.697-.938a70.377 70.377 0 0 0-4.389.24 139.375 139.375 0 0 0-6.926-6.45c12.17 2.757 22.713 6.146 29.414 10.294 0 0-9.762-9.52-38.072-17.356-.816-.625-1.66-1.259-2.521-1.896a619.54 619.54 0 0 0 8.32-5.791c10.667.073 17.812.331 17.812.331-4.199-1.101-9.225-1.919-14.76-2.513l.646-.469c-.226.152-.465.309-.698.463-.953-.102-1.922-.196-2.902-.285 29.791-14.351 36.871-27.459 36.871-27.459-6.744 8.257-20.897 15.878-37.699 22.562-2.373.015-4.986-.164-7.791-.509 30.406-7.964 40.795-18.091 40.795-18.091-9.398 5.818-26.344 10.141-44.747 13.321l-2.197-.759c6.985-2.271 13.429-4.079 18.786-5.129 0 0-9.152 1.44-21.991 4.022l-4.937-1.703-2.156-1.48c11.195-1.081 20.867-2.87 29.189-5.051 3.598.494 6.945.798 9.951.861 0 0-2.519-.621-6.753-1.734 17.733-5.063 28.882-11.85 35.282-16.881 2.954.474 5.75 1.083 8.346 1.854 0 0-2.626-1.059-7.798-2.287 4.712-3.786 6.652-6.475 6.652-6.475-2.327 2.25-5.12 4.274-8.28 6.103-8.682-1.921-23.298-4.037-43.58-3.197 9.68-2.672 16.131-4.262 16.131-4.262-8.011.17-18.449 2.032-29.562 4.713l-.2-.065a625.834 625.834 0 0 0-9.128-5.957l5.809-1.977-3.5-1.409.756-.263c8.656-.117 17.129-.507 24.655-1.312.233.154.472.311.698.463l-.646-.469c4.385-.47 8.445-1.082 12.031-1.863 21.061 3.287 31.27-.022 31.27-.022-10.926 1.653-26.131-1.488-42.452-6.915 31.043.463 47.147-6.023 47.147-6.023-12.465 3.7-29.455 3.777-47.289 2.027 20.987-7.094 28.516-14.43 28.516-14.43-8.551 5.295-23.354 9.35-39.814 12.434 6.889-4.729 11.239-7.907 11.239-7.907-3.851 2.599-8.646 5.365-14.017 8.192-.729-.104-1.457-.21-2.187-.319a374.243 374.243 0 0 1-3.221-1.302l6.819-2.371-11.271-3.559c18.93-5.727 34.347-9.525 34.347-9.525-5.037.107-11.037.884-17.559 2.111-4.668-.823-15.29-1.756-32.812 1.663l1.164-1.435-2.986-3.582 13.214-1.978c49.769 6.684 75.854-3.821 75.854-3.821-18.739 5.564-47.704 2.943-74.392-1.773l3.539-1.318c17.371 2.086 25.262-.634 25.262-.634-5.555.599-13.016-.281-21.369-2.057 3.34-.646 6.51-1.129 9.444-1.412 6.511 1.191 10.583 1.832 10.583 1.832-2.576-.504-5.408-1.188-8.426-2.01 2.6-.166 4.979-.151 7.086.076 0 0-3.746-1.289-11.752-1.411-1.002-.3-2.024-.616-3.057-.939a825.337 825.337 0 0 1 18.072-5.017c2.91.354 5.641.572 8.133.625 0 0-1.962-.482-5.33-1.36l.475-.123c11.99 2.738 22.367 6.097 28.992 10.198 0 0-12.896-12.572-52.021-20.717l2.056-.391-3.168-3.582-1.363-.213c24.596-3.915 50.16-5.643 67.234-.573 0 0-24.969-10.057-72.66-4.232a398.723 398.723 0 0 1 7.996-4.147c8.893.01 13.039-1.421 13.039-1.421-2.833.306-6.167.223-9.857-.163 4.998-2.459 9.994-4.768 14.912-6.853 1.994-.504 3.896-.938 5.672-1.286 0 0-1.584.25-4.34.724 1.854-.772 3.692-1.51 5.517-2.211 8.55 2.33 15.858 5.041 20.948 8.191 0 0-4.588-4.473-16.586-9.81.387-.138.772-.273 1.158-.408 1.159.082 2.283.139 3.359.161 0 0-.787-.195-2.215-.559 12.943-4.4 24.732-6.562 33.726-4.898 0 0-14.004-5.563-43.048 2.448-1.408-.38-2.921-.792-4.521-1.233a178.059 178.059 0 0 0-9.732-3.001c5.809-1.813 11.167-3.261 15.734-4.155 0 0-7.607 1.197-18.678 3.364l-1.084-.281a633.892 633.892 0 0 0 8.996-6.237c6.323 1.153 10.262 1.773 10.262 1.773-2.883-.565-6.082-1.349-9.508-2.307a351.342 351.342 0 0 0 3.562-2.554 101.602 101.602 0 0 1-3.854 2.471 224.753 224.753 0 0 1-5.675-1.687c10.908-1.609 21.892-2.735 32.144-2.987 2.221.978 4.222 2.003 5.961 3.081 0 0-1.243-1.211-4.116-3.119 10.874-.154 20.85.723 28.925 3.119 0 0-11.316-4.558-33.262-5.76-4.697-2.637-11.571-5.875-21.153-9.039 7.677-11.628 12.183-21.317 14.818-28.751 2.954.363 5.726.586 8.252.641 0 0-2.927-.723-7.78-2.005 2.254-6.694 2.947-11.393 3.156-13.846 11.005-.178 21.105.689 29.265 3.111 0 0-9.876-3.977-29.065-5.479 1.012-1.63 1.404-2.515 1.404-2.515a41.469 41.469 0 0 1-1.984 2.472c-8.416-.632-18.59-.781-30.475.072l.942-.216-8.769-1.585c9.434-1.535 19.035-2.758 28.271-3.41 2.927 1.512 5.604 3 7.943 4.442 0 0-2.588-1.732-6.938-4.512 14.874-.986 28.742-.461 39.337 2.686 0 0-15.241-6.138-44.651-6.045a662.202 662.202 0 0 0-12.733-7.768c56.618-3.975 74.159-16.187 74.159-16.187-8.491 4.129-22.422 6.935-38.68 8.821-3.287-1.622-9.361-4.192-19.147-6.878 2.83-.452 5.455-.982 7.819-1.603 0 0-5.015.18-12.906.283a234.323 234.323 0 0 0-11.46-2.493 609.549 609.549 0 0 0 6.008-4.191c6.289.221 12.017.157 17.178-.093.765.023 1.181.038 1.181.038-.104-.027-.215-.053-.321-.08C95.214 5.165 106.633.568 106.633.568 95.441 3.891 80.597 4.292 64.771 3.073c.152-.032.312-.066.461-.096l-.547.089C58.978 2.623 53.146 1.972 47.31 1.17c1.014-.02 1.985 0 2.904.056 0 0-2.91-.868-9.006-.944l-1.17-.184c.215-.035.432-.064.646-.098H0zm20.08 1495.191l.202-2.082c.94.162 1.87.318 2.797.468l.415 1.182c-1.14.148-2.279.292-3.414.432zm-9.465-2.159l.884 3.16-1.479.162zm48.733-.1a148.66 148.66 0 0 0 6.991-2.554c4.324 1.42 8.429 2.63 12.312 3.653-6.194-.054-12.689-.45-19.303-1.099zm-16.362-11.509a279.768 279.768 0 0 0 17.425 6.918c-4.601 1.085-9.456 2.076-14.448 2.979-.96-.136-1.92-.275-2.88-.419a415.262 415.262 0 0 1-13.19-5.536 712.778 712.778 0 0 1 13.093-3.942zm-6.69-3.001c.666.308 1.321.604 1.979.903-2.019.5-4.055 1.025-6.1 1.57l2.965-2.244c.387-.078.773-.154 1.156-.229zm25.329-27.455c-.627-.166-1.277-.338-1.964-.522.771.159 1.532.32 2.292.484l-.328.038zm-21.857 7.599l.889-.261.861.168a89.04 89.04 0 0 0-1.75.093zm-10.859-2.681c1.481.319 2.932.627 4.352.923-1.876.494-3.76 1.005-5.646 1.531-.506-.141-1.012-.282-1.521-.426l1.965-.839zm8.611-8.189c6.621 1.657 13.059 3.055 18.946 4.009-5.772.936-12.073 2.298-18.56 3.913a395.454 395.454 0 0 1-7.131-2.478l1.379-3.244zm2.214-36.679c5.768.945 11.43 1.997 16.803 3.169-5.975 1.976-12.494 4.503-19.557 7.694l-.131-.708 5.976-3.591-8.831-3.081a680.361 680.361 0 0 0 4.822-3.16l.918-.323zm-6.143-10.299c.943.083 1.854.15 2.732.205-.669.737-1.341 1.47-2.013 2.2-1.16-.365-2.326-.736-3.498-1.112l-.68-.633c1.145-.223 2.3-.443 3.459-.66zm20.038-.667l.911.167c-3.149 1.894-6.69 3.849-10.503 5.83-.342-.085-.678-.17-1.025-.253l-1.514-.456a261.625 261.625 0 0 0 3.604-4.292c4.191-.167 7.002-.652 8.527-.996zm-6.69-1.27c1.99.388 3.869.746 5.604 1.069-1.933.062-4.04-.015-6.297-.218.231-.283.467-.57.693-.851zm21.434-39.773c-1.08.182-2.439.416-4.037.698.635-.458.984-.712.984-.712-.36.243-.731.488-1.108.734a660.55 660.55 0 0 0-11.042 2.055c3.917-3.143 7.258-6.094 10.102-8.81 2.649.506 5.215.939 7.668 1.284a105.922 105.922 0 0 1-2.567 4.751zm-19.934.198c-.65-.413-1.33-.842-2.039-1.287a181.202 181.202 0 0 1 6.912-1.941 269.465 269.465 0 0 1-4.873 3.228zm14.588 1.285c-2 1.268-4.2 2.569-6.559 3.893-.507-.334-1.197-.787-2.055-1.345a213.587 213.587 0 0 1 8.614-2.548zm-11.397 32.214a207.026 207.026 0 0 0 3.992-5.532c6.793 1.457 13.149 3.099 18.705 4.95-6.711-.188-14.28-.056-22.697.582zm-4.838-7.284c.851.156 1.696.315 2.539.476a349.727 349.727 0 0 1-6.435 7.625c-1.574.175-3.18.371-4.807.581a476.133 476.133 0 0 1-5.771-2.082l11.899-3.156zm-16.884-2.72c4.66.661 9.318 1.386 13.881 2.183l-14.449-1.833c.189-.116.381-.233.568-.35zm8.862-5.602a652.17 652.17 0 0 0 18.323-12.278l.382.23-.365-.242a559.852 559.852 0 0 0 6.269-4.414c1.701-.457 3.34-.869 4.904-1.227-4.146 7.224-9.5 14.82-15.493 22.421-3.393-1-7.079-1.978-11.066-2.915l4.387-.573zm-5.995-.876c6.404-4.045 11.949-7.927 16.742-11.582 1.578-.53 3.135-1.041 4.662-1.527.772.436 1.521.869 2.239 1.298-6.859 3.847-15.063 7.878-23.643 11.811zm-10.529-1.443l-.087.048-.025-.003.112-.045zm8.188-11.545c5.045-1.811 9.961-3.474 14.57-4.891.92.446 1.823.892 2.705 1.335a355.855 355.855 0 0 1-7.675 4.805 508.77 508.77 0 0 0-19.69 4.657l-1.031-1.769.396-.152 12.307-3.469zm2.854-10.246a323.557 323.557 0 0 1 9.874 4.471 632.098 632.098 0 0 0-18.59 3.86l-3.536-1.155 10.333-3.59-2.969-1.764a544.407 544.407 0 0 1 4.888-1.822zm3.219-1.168c2.955-1.06 5.865-2.07 8.694-3.008a301.233 301.233 0 0 0 13.67 3.271 222.174 222.174 0 0 1-4.798 3.372 645.73 645.73 0 0 0-8.989 1.637 670.018 670.018 0 0 0-8.577-5.272zm-.116-5.425c1.539.44 3.082.871 4.621 1.293a620.793 620.793 0 0 0-7.769 1.649l-.757-1.585c1.314-.464 2.616-.917 3.905-1.357zm-7.144-2.096c.808.243 1.616.485 2.428.725l-.998.211zm-4.658-15.536a395.577 395.577 0 0 0-5.958 3.101l-.875-.392zm18.511-22.191l1.308-.883 1.002.127c-.769.254-1.539.506-2.31.756zm-4.629 8.159c6.672-2.381 12.678-4.861 18.072-7.36 4.887.754 9.537 1.578 13.811 2.477-9.187 2.829-19.435 6.641-30.764 11.73l-2.546-.867 9.481-3.583zm-4.932-10.291c2.727.288 5.441.593 8.131.914a372.854 372.854 0 0 1-9.059 4.438c-2.17.635-4.338 1.249-6.495 1.843l-7.173-1.635c4.864-1.92 9.778-3.8 14.596-5.56zm15.497-1.912a599.445 599.445 0 0 0 6.552-4.577c4.036.029 7.571.082 10.401.139a241.201 241.201 0 0 1-13.229 5.184 278.2 278.2 0 0 0-3.724-.746zm-5.818-1.492a271.747 271.747 0 0 1 9.757-3.098l2.162.011a170.166 170.166 0 0 1-7.541 4.305l-.402-.074a741.104 741.104 0 0 1-3.976-1.144zm4.71-3.1a665.386 665.386 0 0 0-9.062 1.821 744.078 744.078 0 0 1-5.459-1.645c5.098-.114 9.997-.165 14.521-.176zm37.045-9.505c-5.013 3.101-10.688 6.002-16.787 8.703a119.856 119.856 0 0 0-7.931-1.184c1.743-.429 3.41-.805 4.979-1.112 0 0-2.2.346-5.954 1.003l-.642-.071c.418-.302.647-.47.647-.47-.228.153-.466.309-.699.464-7.019-.751-14.858-1.141-22.903-1.286 5.551-1.113 10.521-1.658 14.532-1.392 0 0-3.67-1.096-11.399-.934.883-.142 1.767-.281 2.652-.417 11.559.507 16.895-1.333 16.895-1.333-2.256.243-4.832.239-7.649.033 11.884-1.511 23.653-2.35 34.259-2.004zm-58.024-18.906c-1.178.54-2.36 1.078-3.549 1.614l-2.737-.636zm22.305-11.086a229.515 229.515 0 0 1-5.023 2.69c-1.604-.376-3.26-.789-4.957-1.231 3.317-.529 6.651-1.02 9.98-1.459zm-3.543-18.032c1.914.345 3.809.701 5.678 1.072-7.106 2.834-14.695 6.193-22.781 10.18a220.836 220.836 0 0 1-5.301-1.361l3.373-1.318-5.269-3.549.106-.065 23.832-3.562zm16.887-35.91c-.584-.154-1.205-.318-1.85-.49 1.643-.505 3.018-.921 4.07-1.237-.722.574-1.464 1.15-2.22 1.727zm-11.476 8.134c-.583-.126-1.172-.257-1.771-.393 1.355-.386 2.678-.747 3.961-1.078-.722.49-1.453.98-2.19 1.471zm-17.119 4.52c4.912-1.713 9.653-3.257 14.062-4.544.908.126 1.763.243 2.56.35-8.591 5.681-18.126 11.312-27.528 16.532l-4.328-2.031 6.979-3.586 12.551-3.588zm6.313-5.665c1.783.269 3.465.515 5.029.739a708.48 708.48 0 0 0-5.502 1.064l.344-.181zm1.043-1.245a824.147 824.147 0 0 1 15.873-5.144c1.313.205 2.598.388 3.85.547a210.213 210.213 0 0 1-7.009 4.993c-1.817.317-4.021.711-6.535 1.177a220.576 220.576 0 0 1-6.179-1.573zm-3.453-9.176c5.025 1.252 9.941 2.351 14.586 3.218-3.909.841-8.033 1.875-12.274 3.048l-.161-1.396-7.47-3.037a378.8 378.8 0 0 1 5.319-1.833zm1.485-36.832c7.293 1.189 14.42 2.552 21.021 4.108-7.437 2.656-15.47 5.917-24.115 9.917a165.462 165.462 0 0 1-7.288-1.593l12.283-3.01.384-3.585 4.421-3.585-7.838-1.502 1.132-.75zm-13.045-1.932c3.037.409 6.084.846 9.114 1.312-.41.199-.825.396-1.239.596l-6.82-1.308-1.271-.529c.072-.024.141-.048.216-.071zm24.047-9.186c1.644 0 3.229.006 4.746.016-3.298 2.005-7.047 4.083-11.102 6.19a230.53 230.53 0 0 0-5.568-1.297 229.326 229.326 0 0 0 11.924-4.909zm-13.998-6.548c7.256.669 12.619.469 16.227.078a310.664 310.664 0 0 1-8.312 3.082l-1.049-1.167zm-7.118-22.854c2.8.768 5.59 1.503 8.35 2.192-.531.158-1.062.318-1.595.479-5.642.444-11.281.748-16.804.947l-1.137-.291zm3.457-2.806c5.336-1.929 10.537-3.7 15.404-5.201 3.254 1.771 6.25 3.509 8.898 5.189-4.229.876-8.729 1.99-13.37 3.272a726.494 726.494 0 0 1-10.932-3.26zm12.537-6.735c.383.202.763.402 1.139.603a626.473 626.473 0 0 0-19.952 4.171l-1.452-.464 2.596-1.374a421.972 421.972 0 0 1 17.669-2.936zm7.187-.957l1.181.208c-1.685.305-3.56.652-5.587 1.037l-.821-.564c1.744-.24 3.488-.468 5.227-.681zm6.336-.7c-1.215.209-2.662.462-4.313.758-.267-.066-.529-.131-.799-.2 1.709-.201 3.414-.388 5.112-.558zm37.515-.172c-11.392 6.312-27.365 10.143-44.423 12.393 11.077-3.601 18.716-5.822 18.716-5.822-3.959.248-8.496.935-13.4 1.946a592.019 592.019 0 0 0-7.867-5.519 196.3 196.3 0 0 1 5.783-1.661c2.91.502 4.587.766 4.587.766a99.87 99.87 0 0 1-4.091-.897c1.688-.448 3.312-.849 4.863-1.198 12.895-1.211 25.303-1.439 35.832-.008zm-40.722-16.431a593.675 593.675 0 0 0-6.639-4.637c6.942 2.038 13.19 3.476 18.743 4.462-3.059.069-7.209.141-12.104.175zm-31.226-2.204c-1.004.454-2.01.907-3.021 1.357l-1.979-.285.281-.346c1.604-.234 3.18-.477 4.719-.726zm19.599-3.964l.297.096c3.972 2.068 7.644 4.106 10.88 6.075-3.014.02-6.301.023-9.781.003.468-.119.928-.233 1.379-.342 0 0-.586.118-1.656.341a703.605 703.605 0 0 1-15.701-.268 574.586 574.586 0 0 0 6.229-4.016 230.042 230.042 0 0 0 8.353-1.889zm5.729-20.633c-5.578 1.123-11.483 2.543-17.463 4.136l-1.938-1.172c7.205-1.683 13.871-2.785 19.401-2.964zm-9.035-18.442l.861.168c-.382.016-.771.037-1.166.059l-.287-.053c.2-.058.395-.115.592-.174zm20.972-7.337c-.626-.166-1.276-.338-1.962-.522.77.159 1.531.32 2.29.484l-.328.038zm-36.103 4.175c2.66.591 5.25 1.147 7.738 1.666l-.975.257-6.891-1.252zm-3.389-10.529c2.274.267 4.569.547 6.877.844 9.568 2.632 19.069 4.888 27.458 6.248-5.775.936-12.076 2.297-18.562 3.913a415.657 415.657 0 0 1-10.521-3.705l13.521-3.268-20.255-3.583zm17.6-33.597c5.768.945 11.43 1.997 16.803 3.169-6.07 2.008-12.702 4.582-19.896 7.848l-8.687-1.949c.108-.111.213-.221.321-.33l14.089-3.377-7.324-2.555c1.293-.843 2.55-1.67 3.774-2.48l.92-.326zm-6.143-10.299c.944.083 1.854.151 2.733.205a431.2 431.2 0 0 1-2.014 2.2 682.867 682.867 0 0 1-4.974-1.589 587.97 587.97 0 0 1 4.255-.816zm20.038-.666l.912.168c-2.843 1.709-6.005 3.468-9.398 5.252l-3.396-.421a264.495 264.495 0 0 0 3.354-4.002c4.191-.168 7.003-.653 8.528-.997zm-6.691-1.271c1.99.389 3.871.746 5.604 1.069-1.933.062-4.039-.015-6.294-.218.229-.282.465-.569.69-.851zm4.692-6.075a210.31 210.31 0 0 0 3.992-5.532c6.793 1.456 13.149 3.098 18.705 4.949-6.711-.187-14.28-.055-22.697.583zm-26.73 1.365c1.748.408 3.48.806 5.185 1.188-1.097.174-2.205.358-3.323.549l-3.447-.687-1.045-.283zm16.577-9.582c2.651.446 5.274.915 7.854 1.409a350.112 350.112 0 0 1-6.434 7.625c-1.576.175-3.181.37-4.808.581a473.774 473.774 0 0 1-5.95-2.147l2.248-.656 3.701-3.582zm26.896-25.48c-1.08.182-2.439.416-4.037.698.635-.458.984-.712.984-.712-.36.242-.731.487-1.108.733a649.823 649.823 0 0 0-11.042 2.056c3.916-3.144 7.258-6.095 10.102-8.811 2.649.506 5.215.939 7.668 1.284a104.327 104.327 0 0 1-2.567 4.752zm-19.934.198c-.65-.413-1.33-.842-2.039-1.287a180.688 180.688 0 0 1 6.912-1.941 269.465 269.465 0 0 1-4.873 3.228zm14.588 1.284c-2 1.269-4.2 2.569-6.559 3.894a499.82 499.82 0 0 0-2.055-1.345 216.965 216.965 0 0 1 8.614-2.549zm-25.3 17.282a651.215 651.215 0 0 0 19.367-12.95c.127.076.258.154.381.23l-.363-.242a560.686 560.686 0 0 0 6.268-4.415c1.701-.458 3.34-.869 4.904-1.227-4.146 7.223-9.5 14.819-15.493 22.42a211.96 211.96 0 0 0-15.064-3.816zm-4.954-1.548c6.404-4.046 11.951-7.927 16.742-11.583 1.58-.53 3.137-1.041 4.664-1.526.772.436 1.521.868 2.239 1.298-6.859 3.846-15.063 7.877-23.645 11.811zm-7.028-11.28c6.685-2.476 13.231-4.747 19.259-6.601.921.447 1.823.892 2.705 1.335a353.42 353.42 0 0 1-7.675 4.806c-6.527 1.415-13.568 3.057-20.601 4.896l7.569-3.155zm8.739-11.433a312.971 312.971 0 0 1 8.677 3.949c-1.46.28-2.983.578-4.575.896L25.981 948.1c.953-.363 1.905-.727 2.856-1.085zm3.661-2.274a381.46 381.46 0 0 1 7.056-2.424 299.582 299.582 0 0 0 13.67 3.271 224.678 224.678 0 0 1-4.798 3.372c-2.387.416-5.441.965-8.99 1.637a647.985 647.985 0 0 0-6.986-4.308l4.479-.9zm-18.567-3.939l.654.262c-.532.123-1.067.249-1.603.375zm16.813-.901c1.539.439 3.08.87 4.619 1.292a640.573 640.573 0 0 0-8.412 1.79l-1.863-1.103a373.985 373.985 0 0 1 5.656-1.979zm-15.441-4.664a586.504 586.504 0 0 0 10.725 3.292c-1.592.336-3.218.687-4.877 1.051a531.047 531.047 0 0 0-4.284-2.454zm1.404-11.817c-1.182.61-2.371 1.231-3.574 1.869l.842-1.409zm16.305-20.378a670.882 670.882 0 0 0 5.75-3.849c9.331 1.164 18.247 2.539 25.944 4.158-10.069 3.103-21.41 7.378-34.057 13.229a175.319 175.319 0 0 1-10.461-2.383l-1.188-1.064 1.002-1.724a535.495 535.495 0 0 0 3.664-2.31l17.946-3.13zm-5.121-5.097c2.726.289 5.442.594 8.131.914a356.086 356.086 0 0 1-6.526 3.229l-8.439-1.593a551.91 551.91 0 0 1 6.834-2.55zm-11.078-1.082l.183.018-.523.126zm20.757-2.322a270.486 270.486 0 0 1 9.758-3.099c.735.003 1.455.007 2.164.012a173.49 173.49 0 0 1-7.543 4.305l-.398-.073a742.23 742.23 0 0 1-3.981-1.145zm4.711-3.1a665.386 665.386 0 0 0-9.062 1.821 698.82 698.82 0 0 1-5.459-1.646c5.098-.113 9.997-.164 14.521-.175zm-13.1-15.117c1.688.129 3.266.211 4.732.252-2.168.431-4.447.893-6.826 1.391l-2.207-.636zm5.774-16.476c1.744.29 3.478.59 5.196.9-1.508.354-3.019.704-4.532 1.042-1.13-.332-2.274-.67-3.438-1.019zm8.653-7.904c-1.61.89-3.289 1.787-5.024 2.69-1.604-.376-3.26-.788-4.959-1.231 3.319-.529 6.653-1.02 9.983-1.459zm32.636-2.256c-7.883 3.193-16.621 5.995-25.701 8.441a187.556 187.556 0 0 0-7.854-2.289c3.369.441 5.332.669 5.332.669-2.304-.354-4.815-.839-7.483-1.43a753.863 753.863 0 0 0 4.894-3.367c10.619-1.338 21.14-2.134 30.812-2.024zM61.04 798.045a120.775 120.775 0 0 1-3.478-.681 683.464 683.464 0 0 1 7.254-2.224 151.483 151.483 0 0 1-3.776 2.905zm-13.124 21.316a215.038 215.038 0 0 1-6.127-1.55 210.345 210.345 0 0 0 8.792-6.439c2.894.568 5.69 1.053 8.36 1.438-3.136 2.096-6.873 4.297-11.025 6.551zm-12.13 2.479a240.627 240.627 0 0 0 4.388-2.921c2.449.37 4.707.697 6.736.982a300.821 300.821 0 0 1-10.207 5.203c-.752-.159-1.514-.316-2.286-.473l3.873-2.184zm-10.865-5.413c2.042.359 4.038.7 5.974 1.021a502.724 502.724 0 0 1-3.939 2.25l-3.434-.833zm12.413-8.049c2.094.526 4.168 1.024 6.213 1.492a416.082 416.082 0 0 1-9.514 5.752 425.346 425.346 0 0 1-8.412-2.59l.01-.494a425.805 425.805 0 0 1 11.703-4.16zm5.668-1.859c3.631-1.149 7.094-2.158 10.311-2.989a286.391 286.391 0 0 1-6.293 4.146 653.186 653.186 0 0 1-4.018-1.157zm1.173-4.847a808.79 808.79 0 0 1 12.611-4.065c1.653.223 3.041.4 4.12.536a211.943 211.943 0 0 1-6.833 4.864c-2.935.512-6.88 1.225-11.509 2.119l1.422-.585zm3.721-5.32c1.256.187 2.451.359 3.588.521-3.92.868-8.041 1.921-12.271 3.108l-6.458-1.264a397.685 397.685 0 0 1 15.141-2.365zm17.762-1.889l-.109.088c-3.642.327-7.715.984-12.072 1.894-.72-.172-1.451-.351-2.189-.535 4.835-.607 9.65-1.1 14.37-1.447zm-16.299-29.52a606.903 606.903 0 0 0 6.227-4.353c1.778.012 3.458.029 5.023.05a268.703 268.703 0 0 0-11.25 4.303zm1.032-4.372c1.645.001 3.229.007 4.746.017-3.297 2.004-7.046 4.082-11.101 6.189a235.187 235.187 0 0 0-5.567-1.298 227.663 227.663 0 0 0 11.922-4.908zm2.232-6.471a320.859 320.859 0 0 1-8.801 3.255 362.925 362.925 0 0 0-11.897-.287l11.565-2.63c3.787.084 6.822-.088 9.133-.338zm-17.912-21.48c.975.252 1.945.498 2.914.74a403.671 403.671 0 0 0-12.137 3.835l-5.527-.735 14.198-3.584zm14.268.525c.407-.135.806-.265 1.205-.396.862.482 1.707.962 2.526 1.438-1.2-.332-2.444-.68-3.731-1.042zm2.763-.907c10.225 4.06 19.431 7.016 27.646 9.146-6.848 4.196-15.289 8.158-24.535 11.836-3.476.022-7.474-.372-11.828-1.091l-.428-1.334-3.279-3.088c7.601-2.516 14.619-4.523 20.384-5.651 0 0-9.406 1.481-22.526 4.131l-4.031-2.56 13.771-3.583-13.079-1.739a715.332 715.332 0 0 1 10.021-3.455c5.059 1.15 9.934 2.107 14.449 2.78.332.216.662.434.98.649 0 0-.307-.225-.877-.636 4.129.613 7.958.989 11.351 1.062 0 0-6.253-1.541-15.674-4.137a586.6 586.6 0 0 0-3.019-2.11c.229-.074.452-.146.674-.22zm-9.553-3.748a254.75 254.75 0 0 1 4.461 2.329c-.987.26-1.98.527-2.983.804a784.503 784.503 0 0 1-4.179-1.226l2.379-1.104zm16.627-8.522a609.229 609.229 0 0 0-10.307 1.863c-.357-.17-.717-.337-1.074-.507 3.807-.521 7.612-.979 11.381-1.356zm-23.822-13.462c1.404-.476 2.779-.926 4.113-1.343 2.355.469 4.576.896 6.623 1.281a322.893 322.893 0 0 0-14.76 6.705 704.772 704.772 0 0 1-4.707-2.451l13.887-2.91zm1.158-1.937l1.759.354c-1.472.329-3.095.697-4.851 1.103l-.879-.22c1.333-.421 2.656-.835 3.971-1.237zm6.459-.246c2.396.211 4.727.38 6.994.514-.754.307-1.51.619-2.275.938a264.37 264.37 0 0 1-4.719-1.452zm15.798-20.84c.116-.082.216-.155.31-.223l.223.146c-.178.028-.353.051-.533.077zm-7.827 1.362a211.27 211.27 0 0 0-8.792-6.438 214.19 214.19 0 0 1 6.127-1.55c4.044 2.194 7.69 4.34 10.776 6.387-.129.085-.256.17-.387.255a168.49 168.49 0 0 0-7.724 1.346zm2.73 7.844a176.435 176.435 0 0 1-5.754-1.598c.568-.389 1.114-.765 1.648-1.133 1.394.909 2.765 1.818 4.106 2.731zm7.593 5.385c-1.078.136-2.466.313-4.119.534a803.27 803.27 0 0 1-13.754-4.443 788.447 788.447 0 0 0 3.438-2.33c2.961.554 5.533 1.016 7.604 1.376a212.267 212.267 0 0 1 6.831 4.863zm.971 2.113a865.581 865.581 0 0 1-4.312-1.332 123.53 123.53 0 0 1 3.475-.682c.707.527 1.4 1.054 2.083 1.579-.413.142-.829.288-1.246.435zm-10.59.122c.739-.185 1.47-.363 2.19-.536 2.174.454 4.275.845 6.289 1.162-.232.084-.464.164-.697.25-2.582-.256-5.177-.55-7.782-.876zm-6.604-2.599c2.321.598 4.594 1.145 6.801 1.634-1.135.162-2.33.334-3.588.521a353.58 353.58 0 0 1-4.184-.591zm-14.511-4.151c.988.307 1.974.607 2.956.903l-3.469-.744c.172-.054.342-.108.513-.159zm9.802-2.975c1.57.312 3.074.603 4.504.874a289.267 289.267 0 0 1-3.764 1.929 719.829 719.829 0 0 1-4.734-1.608c1.351-.408 2.685-.806 3.994-1.195zm7.045-2.043c.444.285.885.57 1.323.854-.755.412-1.521.825-2.303 1.241-.999-.302-2.011-.614-3.037-.938 1.372-.399 2.712-.785 4.017-1.157zm-12.986-7.944a418.267 418.267 0 0 1 9.514 5.752c-2.046.469-4.12.967-6.214 1.492a395.44 395.44 0 0 1-6.527-2.275l6.52-2.871-5.241-1.516c.652-.197 1.302-.391 1.948-.582zm-10.264-5.865a509.713 509.713 0 0 1 7.125 4.036c-1.47.244-2.973.498-4.508.766l-1.466-.425-4.351-3.584zm12.934-3.62a302.6 302.6 0 0 1 10.206 5.203c-2.029.285-4.286.612-6.735.982a253.568 253.568 0 0 0-7.34-4.816l2.176-.539-1.028-.27c.921-.184 1.83-.37 2.721-.56zm-8.095-18.925c8.086 3.988 15.674 7.348 22.779 10.182-3.712.736-7.527 1.42-11.392 2.056l-12.351-2.139a490.23 490.23 0 0 0-3.281-2.052l8.318-2.627-12.945-3.069a240.594 240.594 0 0 1 8.872-2.351zm15.625-9.469c1.733.903 3.412 1.8 5.021 2.689-3.33-.438-6.663-.931-9.979-1.459 1.699-.441 3.355-.854 4.958-1.23zm-10.089-5.026l1.318.635c-2.137.328-4.279.642-6.424.941a764.09 764.09 0 0 1 5.106-1.576zm-15.448-7.08a594.692 594.692 0 0 1 6.986 3.13l-7.664-1.218zm14.633-11.102c2.165.452 4.248.873 6.232 1.267-3.916.112-8.615.5-14.131 1.346l-1.259-.35zm-.503-3.065c8.821 1.116 16.885 1.696 24.163 1.887 10.967 3.805 20.292 5.937 28.01 7.04-10.477 5.386-27.545 9.39-45.607 12.334l-1.589-1.051 2.773-.547-.753-.12c16.857-4.983 29.938-8.207 29.938-8.207-7.958.17-18.312 2.008-29.343 4.66-2.301.355-4.738.743-7.283 1.168a550.295 550.295 0 0 0-8.937-5.659l12.86-2.594-3.795-1.057c4.879-1.05 9.459-1.797 13.543-2.129 7.851 1.465 12.896 2.259 12.896 2.259-3.003-.588-6.35-1.416-9.939-2.429 1.889-.059 3.649-.013 5.247.16 0 0-2.959-1.021-9.237-1.332a272.001 272.001 0 0 1-7.74-2.481l.652-.161-2.885-.596a367.422 367.422 0 0 1-3.162-1.102c.062-.013.125-.028.188-.043zm5.993-4.751c.492.011.97.016 1.429.017.25.111.499.219.748.328-.725-.112-1.451-.228-2.177-.345zm5.508-6.491c1.24.247 2.443.483 3.604.708-.72-.002-1.449-.004-2.188-.008-.472-.231-.944-.466-1.416-.7zm3.27-3.609a172.803 172.803 0 0 1 7.541 4.304c-.707.006-1.427.01-2.164.013a271.059 271.059 0 0 1-9.756-3.099c1.357-.395 2.682-.775 3.971-1.144l.408-.074zm-21.192-10.43c5.305 2.427 10.466 4.891 15.264 7.329-2.689.32-5.404.625-8.13.913-.578-.211-1.157-.425-1.737-.638l-1.757-.94 3.146-1.15-9.323-3.585zm.395-33.391c1.66.363 3.286.713 4.878 1.05a575.6 575.6 0 0 0-7.704 2.343l-1.588-.32-.172-.447c1.553-.88 3.084-1.757 4.586-2.626zm8.565-2.802c1.934.417 3.821.813 5.646 1.188-1.54.422-3.079.854-4.62 1.293a386.504 386.504 0 0 1-5.197-1.815zm14.536-7.322c1.555.281 2.949.528 4.174.742a224.585 224.585 0 0 1 4.797 3.371c-4.419.94-9.016 2.051-13.669 3.271-1.084-.359-2.183-.73-3.287-1.109l1.539-.246 3.127-3.584-1.617-.566a465.338 465.338 0 0 1 4.936-1.879zm1.989-.735c.477.319.954.638 1.424.957-.764-.197-1.543-.406-2.334-.623.302-.112.605-.224.91-.334zm9.435-3.311c1.031.187 1.999.36 2.89.519.376.245.747.49 1.106.733 0 0-.346-.255-.982-.713 1.598.282 2.956.516 4.036.698a105.848 105.848 0 0 1 2.565 4.751c-2.453.346-5.019.778-7.668 1.284a148.152 148.152 0 0 0-6.398-5.75c1.488-.52 2.973-1.029 4.451-1.522zm1.373-.455l.33.211c-.174-.047-.352-.098-.528-.146l.198-.065zm.173-.058a290.78 290.78 0 0 1 3.761-1.208c.571.939 1.12 1.871 1.652 2.799-1.564-.358-3.203-.77-4.903-1.227l-.51-.364zm-38.958-7.475a528.265 528.265 0 0 0 16.12 3.749 384.94 384.94 0 0 1 4.833 2.992c-.357.116-.713.23-1.073.35l-12.663-1.842a507.48 507.48 0 0 1-9.029-3.325l1.387-1.776zm8.859-7.992c8.324 3.815 16.289 7.721 23.021 11.463-1.176.321-2.375.659-3.588 1.012-.888-.29-1.785-.587-2.688-.891-4.793-3.656-10.339-7.538-16.745-11.584zm20.019-5.363c3.933 4.989 7.596 9.978 10.819 14.859a208.893 208.893 0 0 0-6.813 1.7 651.502 651.502 0 0 0-19.069-12.741 212.272 212.272 0 0 0 15.063-3.818zm2.832-5.584a207.026 207.026 0 0 0-3.992-5.532c8.417.639 15.986.771 22.697.582-5.556 1.851-11.912 3.494-18.705 4.95zm-12.382-5.953a357.016 357.016 0 0 1 6.089 7.229 375.872 375.872 0 0 1-9.134 1.622l-1.914-1.731-12.338-3.585zm-5.15-.977c1.626.21 3.23.406 4.807.581l.25.289-5.082-.861a.694.694 0 0 0 .025-.009zM52.543 504c-1.734.323-3.615.68-5.605 1.069-.225-.282-.461-.569-.689-.853 2.255-.201 4.362-.277 6.294-.216zm-18.232-3.272c.672.729 1.342 1.463 2.012 2.198-.877.056-1.788.122-2.731.204l-.536-.1-3.228-.874c1.502-.485 2.998-.964 4.483-1.428zm9.727-2.928c3.813 1.982 7.353 3.936 10.503 5.83l-.912.168c-1.523-.344-4.336-.829-8.527-.997a260.824 260.824 0 0 0-3.604-4.292l1.516-.456c.345-.083.681-.168 1.024-.253zm-17.774-5.204l.512.118.388.402-1.104-.365zm12.845-9.674c6.252 2.749 12.059 4.963 17.43 6.739-5.374 1.173-11.037 2.225-16.805 3.17l-.918-.322a622.113 622.113 0 0 0-6.596-4.306 320.038 320.038 0 0 0-3.783-3.94zm20.545-29.517c.688-.185 1.341-.358 1.97-.524l.329.038c-.762.165-1.526.326-2.299.486zm-21.681-5.157c6.463 1.608 12.74 2.963 18.494 3.896-7.002 1.137-14.777 2.896-22.721 4.978l-.188-.197 2.765-3.583-3.392-3.396c1.424-.502 2.836-.991 4.232-1.464zm.943-23.567a264.89 264.89 0 0 0 10.771 2.421c-4.09-.132-8.799-.767-13.889-1.771zm-13.365-15.322c.604.079 1.206.163 1.809.245-1.866.274-3.767.574-5.698.897l-.165-.156zm23.396-4.42a617.29 617.29 0 0 0 6.639-4.637c4.896.033 9.045.106 12.105.175-5.552.985-11.8 2.422-18.744 4.462zm6.192-4.641c-3.238 1.971-6.91 4.008-10.883 6.076l-.295.096a227.553 227.553 0 0 0-4.9-1.146l4.238-2.146-13.49-2.626a698.444 698.444 0 0 1 15.274-.256c1.067.224 1.653.34 1.653.34a83.554 83.554 0 0 1-1.377-.342c3.48-.02 6.765-.015 9.78 0zm-28.834-4.255c1.024.248 2.028.49 2.998.72-1.388 0-2.775 0-4.162.01.388-.244.777-.485 1.164-.727zm34.168-12.182c-1.551-.349-3.174-.75-4.861-1.198 1.421-.339 2.791-.643 4.093-.897 0 0-1.679.266-4.589.767-1.856-.5-3.791-1.058-5.782-1.66a582.529 582.529 0 0 0 7.867-5.521c4.905 1.012 9.442 1.699 13.401 1.947 0 0-7.639-2.221-18.716-5.822 17.058 2.249 33.03 6.082 44.421 12.394-10.53 1.431-22.937 1.202-35.834-.01zm-6.793-.721l.797-.2c1.652.298 3.097.551 4.312.759-1.697-.171-3.4-.357-5.109-.559zm-6.451-.825c.279-.189.553-.377.823-.562 2.026.385 3.9.73 5.585 1.036-.378.065-.771.136-1.18.208-1.74-.212-3.484-.44-5.228-.682zm-12.788-3.297c4.314.915 8.354 1.726 11.969 2.42-.376.201-.756.402-1.139.604a409.95 409.95 0 0 1-14.018-2.267zm9.226-6.971c4.64 1.281 9.138 2.396 13.367 3.272-2.647 1.679-5.644 3.418-8.898 5.188-3.01-.928-6.146-1.96-9.366-3.067l1.807-2.938-2.458-.825c1.897-.565 3.749-1.11 5.548-1.63zm-19.032-2.935c3.776.184 7.588.418 11.399.718.53.161 1.062.321 1.591.479-1.788.447-3.587.911-5.395 1.394l-2.326-.781zm19.187-22.799a322.563 322.563 0 0 1 8.796 3.255c-2.985-.323-7.17-.517-12.636-.195l.906-2.951c.983-.032 1.962-.068 2.934-.109zm-17.551-5.758c2.518.77 5.033 1.562 7.535 2.372a611.447 611.447 0 0 1-4.906-.125l-2.17-.542-2.82-1.312c.799-.129 1.581-.259 2.361-.393zm17.767-3.663c4.055 2.107 7.805 4.186 11.103 6.19-1.518.01-3.102.016-4.746.017a231.069 231.069 0 0 0-11.924-4.91c1.922-.422 3.775-.856 5.567-1.297zm10.709-7.756a129.306 129.306 0 0 1-5.396-1.121 149.816 149.816 0 0 1 6.681-1.748c1.483.561 2.94 1.092 4.38 1.605-1.85.437-3.74.858-5.665 1.264zm-19.499 3.36c.07.036.143.069.214.104-.305.048-.608.095-.913.141l.699-.245zm3.256-1.103a267.069 267.069 0 0 1 9.559-3.007c2.554.355 4.677.633 6.277.837a341.178 341.178 0 0 1-14.949 2.757l-.887-.587zm-.01-4.407c2.466.379 4.761.718 6.85 1.017a654.023 654.023 0 0 0-9.238 1.814c-.082-.055-.164-.107-.244-.16l1.39-1.725-.681-.29 1.923-.656zm2.863-.968c2.687-.9 5.246-1.745 7.643-2.521 2.275.93 4.506 1.813 6.684 2.64-2.059.353-4.834.841-8.146 1.455a219.886 219.886 0 0 1-6.181-1.574zm-5.061-8.064a314.492 314.492 0 0 0 8.715 3.876 279.38 279.38 0 0 0-9.372 2.585 414.607 414.607 0 0 1-10.246-3.134 471.215 471.215 0 0 1 6.851-2.484c1.374-.306 2.727-.586 4.052-.843zm7.336-6.094c2.296.193 4.528.347 6.702.468-1.277.231-2.665.487-4.146.765-.852-.409-1.706-.819-2.556-1.233zm4.261-7.185c3.676.545 6.862.985 9.383 1.32a628.93 628.93 0 0 0-9.379 1.321 392.425 392.425 0 0 1-3.381-.476l1.775-.398-5.48-.738c2.355-.366 4.718-.709 7.082-1.029zm5.421-19.62a162.52 162.52 0 0 1-3.963-1.079 163 163 0 0 1 1.771-.393c.737.49 1.469.981 2.192 1.472zm3.918 6.06c-4.314-1.35-9.775-3.1-15.871-5.145a219.311 219.311 0 0 1 6.175-1.571c2.516.466 4.721.859 6.538 1.177a210.513 210.513 0 0 1 7.007 4.991c-1.251.16-2.535.342-3.849.548zm7.584 2.326c-1.053-.314-2.426-.73-4.068-1.235.645-.172 1.264-.336 1.85-.49.754.576 1.496 1.152 2.218 1.725zm-12.45 6.115a204.18 204.18 0 0 1-8.812-2.568c.034-.01.067-.02.1-.028 7.734-.158 11.356-1.405 11.356-1.405-2.021.219-4.299.238-6.776.092a818.613 818.613 0 0 1 9.619-2.664c2.724.479 5.303.836 7.696 1.051 2.306 1.854 4.429 3.688 6.335 5.49-5.799-.273-12.309-.306-19.518.032zm-23.8 1.954l1.041.188c-.992.138-1.993.282-3.006.434.658-.21 1.311-.416 1.965-.622zm12.086-3.675c3.641.715 6.91 1.325 9.678 1.825-3.814.213-7.816.532-12.005.972a421.54 421.54 0 0 1-2.714-.826l2.757-.527-1.601-.286c1.315-.396 2.612-.782 3.885-1.158zm-18.425-2.768c3.822.673 7.293 1.135 10.416 1.434-1.295.344-2.596.697-3.896 1.056l-.505-.091a597.155 597.155 0 0 1-6.812-2.27zm13.412-7.491c5.85 1.716 11.551 3.213 16.854 4.354-4.045.755-8.295 1.688-12.646 2.741a135.79 135.79 0 0 1-6.959-1.337l7.508-1.221-7.823-3.581-.066-.03a357.11 357.11 0 0 1 3.132-.926zm-5.375-1.624c.262.082.522.16.784.242-.521.086-1.048.174-1.577.264l.793-.506zm5.843-3.777c3.33.678 6.44 1.285 9.236 1.813-2.087.299-4.381.638-6.846 1.017a945.391 945.391 0 0 1-4.41-1.515c.683-.442 1.354-.882 2.02-1.315zm3.284-2.164c2.885.47 5.741.968 8.553 1.494.904.582 1.798 1.166 2.682 1.75-.797.107-1.654.225-2.562.351a265.05 265.05 0 0 1-9.559-3.007l.886-.588zm-4.847-.763l.918.141-.215.104c-.233-.08-.47-.162-.703-.245zm15.847-10.356c1.646 0 3.23.01 4.748.018-2.691 1.637-5.686 3.322-8.902 5.034-.932-.682-1.891-1.37-2.873-2.066a223.437 223.437 0 0 0 7.027-2.986zm2.234-6.47a317.684 317.684 0 0 1-8.807 3.257 352.135 352.135 0 0 0-10.104-.269c-.523-.334-1.05-.669-1.586-1.005a247.535 247.535 0 0 0 8.368-1.76c5.218.281 9.236.088 12.129-.223zm-10.704-5.954c-2.44.414-4.903.809-7.376 1.182l.316-.108zm2.806-21.498a134.757 134.757 0 0 1 7.062-1.449 136.315 136.315 0 0 1 5.246 3.151c-4.225.876-8.721 1.99-13.357 3.271h-.023a752.044 752.044 0 0 1-7.066-2.088zm-3.961-1.099a291.336 291.336 0 0 1 7.373-2.39 189.25 189.25 0 0 1 3.531 1.971c-1.689.21-4.381.556-7.834 1.035zm4.505-3.92c.381.202.763.401 1.139.602a654.687 654.687 0 0 0-11.068 2.23l-3.419-.688a404.888 404.888 0 0 1 13.348-2.144zm7.187-.958l1.181.208c-1.686.305-3.56.65-5.587 1.037-.271-.187-.544-.373-.823-.564a343.41 343.41 0 0 1 5.229-.681zm6.336-.701c-1.215.209-2.662.461-4.313.758-.267-.065-.529-.131-.799-.199 1.709-.202 3.414-.389 5.112-.559zm37.513-.172c-11.391 6.311-27.363 10.144-44.423 12.393 11.078-3.601 18.718-5.823 18.718-5.823-3.959.248-8.496.937-13.401 1.947a549.514 549.514 0 0 0-4.604-3.254c.36-.06.721-.12 1.073-.174 0 0-.399.046-1.129.135a760.31 760.31 0 0 0-3.206-2.226 191.585 191.585 0 0 1 5.783-1.661c2.91.502 4.587.766 4.587.766a101.5 101.5 0 0 1-4.091-.896 128.39 128.39 0 0 1 4.861-1.198c12.896-1.212 25.304-1.438 35.832-.01zm-65.071-3.255c1.566.332 3.097.649 4.584.953-2.291.263-4.633.562-7.03.902zm24.352-13.175a608.475 608.475 0 0 0-6.641-4.638c6.945 2.039 13.197 3.479 18.752 4.463-3.06.068-7.213.14-12.111.175zm-31.231-2.205c-1.019.461-2.041.921-3.065 1.378l-1.719-.642a306.59 306.59 0 0 0 4.784-.736zm21.118-3.229c3.504 1.849 6.76 3.671 9.664 5.437-3.016.021-6.304.024-9.785 0 .467-.12.93-.235 1.381-.344 0 0-.588.117-1.658.342a697.367 697.367 0 0 1-15.699-.269 617.024 617.024 0 0 0 6.061-3.905zm-1.512-.736l.293.096.354.186-1.084-.172.437-.11zm-18.447-3.414c.616.095 1.233.189 1.842.279-.767.106-1.532.208-2.299.311l-1.016-.161zm-1.657-12.641c9.644-2.574 18.685-4.347 25.83-4.577-6.973 1.404-14.457 3.273-21.957 5.361zm16.798-23.019c.288.058.573.112.858.168-.564.025-1.149.057-1.744.093.295-.088.59-.174.886-.261zm20.971-7.336l-1.966-.523c.771.159 1.535.32 2.295.484l-.329.039zm-37.224-6.085c1.529.184 3.063.375 4.604.572 9.569 2.634 19.071 4.891 27.46 6.249-4.425.717-9.16 1.685-14.052 2.824l-9.66-3.112-11.61-3.582zm-2.147-18.861c.775.137 1.54.267 2.286.386-1.304.309-2.618.624-3.938.947.449-.432.898-.863 1.34-1.293zm17.477-15.007c5.767.945 11.429 1.997 16.802 3.169-4.636 1.534-9.599 3.399-14.888 5.646l-1.285-.646 1.769-3.582-6.901-1.905a547.746 547.746 0 0 0 3.586-2.357c.307-.108.615-.215.917-.325zm-6.145-10.296c.944.082 1.854.148 2.735.204-.67.736-1.342 1.47-2.014 2.199a651.79 651.79 0 0 1-4.976-1.59c1.408-.275 2.827-.547 4.255-.813zm20.04-.667l.912.168c-3.15 1.893-6.691 3.848-10.504 5.828-.34-.084-.676-.168-1.021-.252-.505-.149-1.009-.303-1.518-.455a265.904 265.904 0 0 0 3.604-4.293c4.191-.167 7.002-.653 8.527-.996zm-6.69-1.271c1.99.388 3.869.746 5.604 1.069-1.933.061-4.04-.016-6.297-.218.231-.283.467-.57.693-.851zm4.691-6.075a207.653 207.653 0 0 0 3.992-5.532c6.792 1.456 13.149 3.099 18.704 4.949-6.711-.188-14.279-.055-22.696.583zm-30.903.365c3.172.772 6.308 1.501 9.359 2.185-.807.127-1.619.262-2.436.398l-6.117-1.021c-.877-.242-1.758-.492-2.641-.746zm23.857-8.046c1.596.281 3.18.572 4.746.872a352.51 352.51 0 0 1-6.434 7.625c-1.576.175-3.181.37-4.808.581a498.264 498.264 0 0 1-10.474-3.838l14.837-3.324zm23.789-26.015c-1.08.182-2.439.416-4.038.697.636-.458.985-.713.985-.713-.36.243-.732.488-1.109.735a640.59 640.59 0 0 0-11.042 2.055c3.917-3.144 7.259-6.095 10.103-8.811 2.649.506 5.215.938 7.668 1.283a106.547 106.547 0 0 1-2.567 4.754zm-19.934.195c-.65-.413-1.33-.842-2.039-1.287a180.613 180.613 0 0 1 6.912-1.94 262.604 262.604 0 0 1-4.873 3.227zm14.588 1.286c-2 1.269-4.201 2.57-6.56 3.894-.506-.334-1.196-.786-2.054-1.346 3-.951 5.885-1.808 8.614-2.548zm-25.3 17.28a649.908 649.908 0 0 0 19.366-12.949c.126.076.259.154.382.23 0 0-.133-.09-.363-.242a558.649 558.649 0 0 0 6.267-4.415c1.701-.457 3.34-.869 4.905-1.228-4.146 7.225-9.5 14.82-15.493 22.422a211.904 211.904 0 0 0-15.064-3.818zm-4.954-1.547c6.404-4.046 11.951-7.928 16.742-11.583 1.58-.53 3.137-1.041 4.664-1.527.771.438 1.521.869 2.238 1.298-6.86 3.847-15.062 7.879-23.644 11.812zm5.646-15.762a280.87 280.87 0 0 1 6.584-2.119c.921.447 1.824.894 2.706 1.337a354.778 354.778 0 0 1-7.674 4.805 519.98 519.98 0 0 0-17.84 4.183l-1.551-1.804a530.552 530.552 0 0 1 8.613-3.206l9.969-1.804zm-5.134-7.473a326.011 326.011 0 0 1 9.874 4.471c-1.836.354-3.782.736-5.82 1.147l-.196-.337-9.942-3.006a566.13 566.13 0 0 1 6.084-2.275zm3.221-1.167a374.42 374.42 0 0 1 8.695-3.009c4.654 1.22 9.251 2.331 13.671 3.271a224.682 224.682 0 0 1-4.798 3.371c-2.387.416-5.442.965-8.991 1.637a657.549 657.549 0 0 0-8.577-5.27zm.433-5.27c1.356.386 2.715.766 4.071 1.137a612.782 612.782 0 0 0-8.413 1.79c-.205-.123-.416-.247-.623-.37l2.323-1.588zm13.68-5.234a658.6 658.6 0 0 0-9.531 1.793l-1.078-.3c3.529-.55 7.075-1.05 10.609-1.493zm23.421-1.926c-3.125 3.208-7.017 6.542-11.445 9.925a800.396 800.396 0 0 1-10.239-2.773c4.902-1.476 9.437-2.661 13.381-3.433 0 0-6.26.985-15.692 2.787a763.656 763.656 0 0 1-6.367-1.818l.388-.142-.09-.025c3.926-1.225 7.646-2.285 11.055-3.118 6.471-.718 12.865-1.213 19.009-1.403zm2.412-.058c-.82 4.148-2.464 8.64-4.737 13.354a749.792 749.792 0 0 1-6.38-1.732l.038-.037a70.43 70.43 0 0 0 4.388.24s-1.341-.331-3.696-.938c4.4-4.473 7.346-8.172 9.24-10.861.383-.01.765-.019 1.147-.026zm-47.1-14.153c11.934 1.471 19.457.686 23.08.022a319.66 319.66 0 0 1 6.951 3.17c-8.955.14-19.154.86-30.561 2.476l.979-1.239 2.072-3.581zm13.237-4.175a459.96 459.96 0 0 1 8.874 3.772c-6.083.032-13.764-1.214-22.125-3.214 4.618-.137 9.038-.324 13.251-.558zm14.325-13.576c10.486 1.63 19.852 3.583 26.736 5.914-13.047 1.471-27.527 2.362-41.881 2.87a519.03 519.03 0 0 0-7.15-4.027c1.152-.75 2.279-1.489 3.38-2.214l8.791-1.806c3.496-.18 6.89-.423 10.124-.737zm-23.376-2.988c1.728.182 3.45.371 5.165.567a695.663 695.663 0 0 1-6.375-.124l1.21-.443zm9.997-3.51a272.416 272.416 0 0 1 8.509-2.716c.834.039 1.663.075 2.478.105a175.306 175.306 0 0 1-6.926 3.936l-.398-.074a661.38 661.38 0 0 1-3.979-1.146c.019-.01.035-.012.054-.018l.32-.058zm3.815-2.995l.42.029c-2.178.423-4.51.886-6.949 1.387l-2.299-1.336c3.055-.045 6.011-.07 8.828-.08z" fill="#d3d3d3"/></svg>