<svg xmlns="http://www.w3.org/2000/svg" preserveAspectRatio="none" viewBox="0 0 1500 150"><path fill="#d3d3d3" d="M1500 0H0v33.048l.28.313c.743 3.763 1.53 7.29 2.342 10.6l-.095.295L0 48.97v1.555l1.1-1.575L0 52.82v16.72a209.89 209.89 0 0 1 3.072-10.053c-.15 10.172.443 18.737 1.31 25.66-7.046 31.22-1.657 46.297-1.657 46.297-1.552-9.312.073-21.198 3.693-34.31 1.388 6.297 2.677 9.505 2.677 9.505-1.003-3.376-1.738-7.085-2.245-11.052 1.85-6.47 4.166-13.22 6.82-20.098C18.1 84.36 21.5 87.86 21.5 87.86c-2.46-3.973-4.652-9.293-6.604-15.502 2.223-5.6 4.65-11.242 7.208-16.88l3.754 14.28c-.107-5.038-.884-11.038-2.112-17.56l.082-.48 3.844-8.1c-3.47 41.396 5.226 63.002 5.226 63.002-5.4-18.156-3.098-45.912 1.34-71.895l1.175 7.205c-.86 13.082 1.2 19.1 1.2 19.1-.6-5.556.28-13.017 2.057-21.37.646 3.343 1.13 6.513 1.412 9.447L38.26 59.7c.504-2.576 1.187-5.407 2.01-8.425.166 2.6.152 4.98-.076 7.084 0 0 1.29-3.745 1.41-11.748l.94-3.06 5.015 18.07c-.354 2.91-.572 5.643-.625 8.136l1.362-5.332.123.474c-2.74 11.992-6.098 22.37-10.2 28.994 0 0 13.19-13.523 21.3-54.9l1.356 7.39 2.718-3.95c3.574 23.648 4.964 47.83.103 64.203 0 0 10.055-24.97 4.23-72.66l4.148 7.995c-.007 8.894 1.42 13.04 1.42 13.04-.306-2.833-.222-6.168.164-9.857 2.46 5 4.77 9.996 6.854 14.916.503 1.994.937 3.894 1.285 5.668l-.723-4.336 2.2 5.513c-2.33 8.55-5.04 15.858-8.192 20.948 0 0 4.473-4.588 9.8-16.584l.408 1.156a67.357 67.357 0 0 0-.16 3.36l.558-2.214c4.4 12.942 6.563 24.73 4.9 33.725 0 0 5.562-14.003-2.45-43.047l1.233-4.52a177.246 177.246 0 0 0 3.002-9.734c1.814 5.81 3.262 11.167 4.156 15.734 0 0-1.198-7.608-3.365-18.678l.282-1.084 6.237 8.995-1.773 10.263c.565-2.883 1.35-6.082 2.307-9.5l2.554 3.562a102.947 102.947 0 0 1-2.47-3.855l1.685-5.673c1.61 10.908 2.736 21.892 2.988 32.144-.977 2.22-2.003 4.22-3.08 5.96 0 0 1.2-1.244 3.12-4.116.155 10.873-.722 20.85-3.12 28.924 0 0 4.557-11.315 5.76-33.26 2.638-4.698 5.875-11.572 9.04-21.154 11.628 7.678 21.318 12.184 28.75 14.818-.363 2.955-.586 5.726-.64 8.252l2.005-7.78c10.238 3.447 15.82 3.243 15.82 3.243-4.686-.64-9.86-2.434-15.334-5.073l1.732-6.38.038.04a71.97 71.97 0 0 0-.24 4.387l.938-3.695c9.707 9.55 15.773 12.24 15.773 12.24-4.66-3.437-9.71-8.952-14.87-15.706l2.772-10.238c1.476 4.9 2.66 9.435 3.432 13.377 0 0-.985-6.258-2.787-15.688l1.854-6.49c1.875 5.967 3.37 11.47 4.285 16.146 0 0-1.224-7.776-3.437-19.05l3.058-10.112 1.492 3.18 1.96-4.347c5.035 27.46 8.054 57.85 2.29 77.262 0 0 8.697-21.604 5.226-63l3.844 8.1c.36 2.217.73 3.286.73 3.286a32.152 32.152 0 0 1-.144-2.017c4.468 9.693 8.58 19.474 11.963 28.915-.7 2.216-1.415 4.215-2.176 5.952 0 0 1.005-1.46 2.556-4.872 6.583 18.638 10.265 35.886 8.17 48.452 0 0 6.694-18.732-4.6-57.67 1.164-3.465 2.407-7.654 3.65-12.656 5.938 11.957 11.843 20.54 16.635 26.43-.368 7.046-1.293 13.523-2.946 19.09 0 0 2.398-5.963 4.173-17.608 5.6 6.634 9.41 9.334 9.41 9.334-3.214-3.02-6.258-6.825-9.138-11.206 1.488-10.705 2.378-25.753.653-44.968l1.533-2.162.025.026 1.812 5.722c.312 6.28 1.332 9.237 1.332 9.237-.173-1.598-.22-3.356-.16-5.245 1.013 3.588 1.842 6.935 2.43 9.938 0 0-.794-5.046-2.26-12.895.082-1.007.19-2.043.32-3.106l.1.095 3.587-17.9L225.9 36.1l1.532-6.594 2.32 3.618-1.17 7.293c-2.65 11.026-4.488 21.378-4.657 29.334 0 0 3.32-13.467 8.427-30.68l.724 4.657.085-.262c-3.174 18.264-7.478 35.05-13.258 44.385 0 0 9.845-10.096 17.754-39.526l-.67 5.333c.353-2.305.84-4.816 1.43-7.484l3.367 4.894c2.62 20.776 3.172 41.18-1.097 55.56 0 0 6.686-16.617 5.993-48.62l.92 1.272-.923-1.397c-.1-4.455-.34-9.207-.764-14.255 3.373 6.942 6.62 13.998 9.602 21.013-2.46 9.524-5.368 17.682-8.794 23.216 0 0 4.98-5.112 10.7-18.642 9.727 23.76 16.04 46.604 13.437 62.22 0 0 8.415-23.52-9.517-72.654 1.783-5.34 3.545-11.532 5.17-18.678 7.537 11.33 13.27 19.178 13.27 19.178-3.916-5.8-8.212-13.744-12.525-22.584l.926-4.574c6.514 10.378 12.61 18.528 18.032 24.895l-.077.648.1-.62a142.285 142.285 0 0 0 7.655 8.323 80.945 80.945 0 0 0-.24 4.388l.938-3.695c9.707 9.55 15.773 12.238 15.773 12.238-3.96-2.92-8.202-7.348-12.553-12.754-.215-2.393-.572-4.973-1.05-7.697l4.005-14.297c1.874 5.967 3.37 11.47 4.285 16.146 0 0-1.224-7.775-3.437-19.048l3.218-10.628 3.567 7.814.627-3.377a390.35 390.35 0 0 1 2.07 13.43l-2.1 15.623c.555-3.627 1.436-7.764 2.553-12.23 2.596 20.703 3.13 41.018-1.124 55.35 0 0 8.697-21.605 5.227-63.002l3.844 8.1c.36 2.217.73 3.287.73 3.287a32.24 32.24 0 0 1-.144-2.018c2.978 6.46 5.795 12.955 8.345 19.365-1.953 6.21-4.145 11.53-6.604 15.503 0 0 3.412-3.5 7.83-12.376 8.278 21.47 13.315 41.717 10.943 55.955 0 0 7.552-21.108-6.896-65.103 2.177-5.512 4.416-12.24 6.497-20.364l6.672 9.61-.332 17.814c1.1-4.2 1.92-9.227 2.513-14.762l.47.646-.464-.7.285-2.9c14.35 29.79 27.458 36.87 27.458 36.87-8.257-6.744-15.88-20.898-22.562-37.7-.038-6.103 1.214-13.817 3.225-22.217 3.58 10.145 6.488 19.644 7.94 27.064 0 0-.837-5.314-2.375-13.516l2.765-3.052.243-.745c.985 6.373 2.204 12.164 3.58 17.418-.494 3.598-.797 6.945-.86 9.95l1.734-6.753c5.064 17.733 11.85 28.882 16.88 35.282-.473 2.955-1.083 5.75-1.854 8.346 0 0 1.057-2.626 2.287-7.797 3.786 4.71 6.473 6.65 6.473 6.65-2.25-2.326-4.274-5.12-6.1-8.28 2.234-10.103 4.736-28.233 2.535-53.978l.175.418.9-4.873 6.78-10.475 1.197 3.292.887 6.02c.17 7.366.556 14.517 1.246 20.97l-.463.7.47-.647c.47 4.383 1.082 8.442 1.863 12.028-3.287 21.063.022 31.272.022 31.272-1.652-10.926 1.49-26.133 6.915-42.453-.462 31.043 6.023 47.147 6.023 47.147-3.7-12.464-3.777-29.454-2.027-47.288 7.094 20.987 14.43 28.516 14.43 28.516-5.294-8.55-9.35-23.353-12.433-39.813l7.906 11.238c-2.6-3.85-5.364-8.646-8.19-14.017l.32-2.188 2.157-5.296.677 1.964 2.774-9.623c6.62 21.26 11.148 39.632 11.148 39.632-.107-5.038-.885-11.038-2.112-17.56.61-3.466 1.28-10.216.188-20.632l2.338 9.853 3.583-19.08.585-.588c-9.316 55.635 2.457 84.88 2.457 84.88-5.902-19.882-2.59-51.274 2.66-79.247l1.015 4.14c-3.11 20.343.05 29.517.05 29.517-.6-5.556.28-13.017 2.058-21.37.646 3.34 1.13 6.51 1.412 9.446L445.896 59.7c.504-2.576 1.187-5.408 2.01-8.427.166 2.6.15 4.98-.076 7.086 0 0 1.29-3.745 1.41-11.75l.94-3.058 5.016 18.07c-.354 2.91-.572 5.642-.625 8.135l1.36-5.33.123.473c-2.74 11.992-6.098 22.37-10.2 28.994 0 0 13.712-14.064 21.77-57.38l2.116 5.852 1.52.29c3.55 23.576 4.914 47.658.068 63.98 0 0 10.055-24.97 4.23-72.66l4.147 7.996c-.007 8.893 1.42 13.04 1.42 13.04-.306-2.833-.222-6.167.164-9.857 2.46 5 4.77 9.998 6.854 14.918a107.4 107.4 0 0 1 1.285 5.666l-.723-4.334 2.21 5.51c-2.33 8.55-5.04 15.858-8.19 20.948 0 0 4.473-4.588 9.8-16.584l.408 1.156a67.357 67.357 0 0 0-.16 3.36l.558-2.214c4.4 12.942 6.563 24.73 4.9 33.725 0 0 5.562-14.004-2.448-43.047l1.233-4.52c1.01-2.967 2.02-6.202 3-9.734 1.813 5.81 3.262 11.167 4.156 15.734 0 0-1.197-7.608-3.364-18.678l.282-1.084 6.235 8.995-1.772 10.263c.564-2.883 1.35-6.082 2.307-9.5l2.554 3.562a102.947 102.947 0 0 1-2.47-3.855l1.685-5.673c1.6 10.908 2.735 21.892 2.987 32.144-.977 2.22-2.003 4.22-3.08 5.96 0 0 1.2-1.244 3.12-4.116.155 10.873-.722 20.85-3.12 28.924 0 0 4.558-11.315 5.76-33.262 2.64-4.697 5.875-11.57 9.04-21.153 11.63 7.678 21.318 12.184 28.75 14.818-.362 2.955-.586 5.726-.64 8.252l2.005-7.78c10.238 3.447 15.82 3.243 15.82 3.243-4.687-.64-9.86-2.434-15.334-5.073l1.73-6.38.04.04a71.15 71.15 0 0 0-.239 4.387l.938-3.695c9.707 9.55 15.773 12.24 15.773 12.24-4.66-3.437-9.71-8.952-14.87-15.706l2.77-10.238c1.477 4.9 2.66 9.435 3.433 13.377 0 0-.985-6.258-2.787-15.688l1.854-6.49c1.875 5.967 3.37 11.47 4.285 16.146 0 0-1.224-7.776-3.437-19.047l4.715-15.367 1.603 3.056c5.148 27.73 8.317 58.636 2.482 78.29 0 0 8.697-21.604 5.226-63l3.845 8.1c.36 2.217.73 3.286.73 3.286a32.152 32.152 0 0 1-.144-2.017c4.468 9.695 8.58 19.474 11.963 28.914-.69 2.217-1.416 4.216-2.178 5.953 0 0 1.006-1.46 2.557-4.873 6.583 18.64 10.265 35.887 8.17 48.453 0 0 6.693-18.732-4.6-57.67 2-5.955 4.233-14.05 6.295-24.736l4.577 6.552-.33 17.813c.992-3.79 1.757-8.246 2.333-13.146a105.52 105.52 0 0 1 1.111 4.979l-1.003-5.955.07-.64.47.647-.463-.7c.62-5.8.995-12.163 1.188-18.74l.01.062.523-1.92c.815 4.625 1.185 8.78.955 12.228 0 0 1.097-3.67.935-11.397l.417 2.65c-.507 11.56 1.334 16.895 1.334 16.895-.243-2.256-.24-4.832-.033-7.65 2.657 20.9 3.242 41.458-1.052 55.922 0 0 9.197-22.837 4.905-66.545l.82-2.84 2.744 8.523c.312 6.278 1.332 9.236 1.332 9.236-.173-1.598-.22-3.357-.16-5.246 1.013 3.588 1.842 6.936 2.43 9.938 0 0-.795-5.045-2.26-12.896.125-1.527.307-3.125.542-4.78l.892 3.808 1.973-12.144c1.413 6.183 2.95 11.9 4.57 17.182-1.375 7.035-2.252 13.51-2.366 18.887l3.79-14.4 1.92 5.522c-2.65 11.14-5.86 20.735-9.73 26.99 0 0 5.662-5.81 11.848-21.447 3.854 9.62 7.906 17.307 11.743 23.387-.438 6.174-1.332 11.866-2.807 16.834 0 0 2.08-5.167 3.8-15.285 9.358 14.305 17.174 19.026 17.174 19.026-6.29-5.485-11.7-14.235-16.314-24.817.938-7.322 1.573-16.52 1.334-27.545l.92 1.272-.922-1.396a232.735 232.735 0 0 0-.715-13.643l2.44-3.64 3.584-6.994 3.585-10.15 3.586 20.963 1.395-4.35c-3.224 19.562-7.696 37.87-13.833 47.784 0 0 11.653-11.952 19.79-47.752l5.72 8.453-1.178 9.107c.394-2.576.954-5.4 1.643-8.432l6.854 9.727c-.564 3.916-.912 7.557-.98 10.794 0 0 1.65-6.687 4.408-16.655 5.8 7.235 10.947 12.513 15.17 16.312.8 14.07.18 27.128-2.817 37.22 0 0 4.743-11.787 5.826-34.623 5.798 4.78 9.208 6.293 9.208 6.293-2.908-2.145-5.968-5.098-9.1-8.656.272-7.812.11-16.834-.786-27.04 2.015 6.332 3.62 12.17 4.584 17.094 0 0-.975-6.19-2.757-15.53l1.463.684c.252 6.908 1.37 10.153 1.37 10.153-.295-2.73-.227-5.926.123-9.456l.467.22 3.584-3.334 3.585 3.317 1.013-5.67 4.856 10.078c-3.03 15.607-6.964 29.514-12.03 37.697 0 0 7.87-8.073 15.188-30.814 12.557 27.954 21.715 56.122 18.67 74.395 0 0 7.725-21.61-7.42-66.666a140.04 140.04 0 0 0 .789-6.137l.47.648-.464-.7.285-2.9c5.844 12.133 11.48 20.502 16.11 26.153-8.207 33.462-2.436 49.6-2.436 49.6-1.95-11.705 1.114-27.475 6.862-44.643 4.25 4.318 6.92 5.758 6.92 5.758-2.22-1.813-4.394-4.168-6.517-6.96 2.467-7.238 5.398-14.71 8.625-22.22l2.18 7.225c-.18-2.887-.596-6.08-1.2-9.498l4.997-11.02c1.114 3.72 2.05 7.22 2.768 10.407 1.635 17.415 1.483 33.948-2.138 46.146 0 0 8.697-21.605 5.227-63.002 4.145 8.53 8.095 17.233 11.6 25.816l.008.196c-3.143 3.56-6.203 6.513-9.1 8.658 0 0 3.41-1.512 9.21-6.293 1.083 22.834 5.825 34.623 5.825 34.623-2.478-8.342-3.325-18.715-3.097-30.008 8.02 21.044 12.84 40.828 10.51 54.812 0 0 7.56-21.12-6.91-65.145 3.445-3.37 7.356-7.61 11.628-12.914l.494.704 4.138 15.674c-.068-3.237-.418-6.878-.98-10.794l.16-.223.396.543-.376-.567 6.674-9.48c.7 3.022 1.25 5.856 1.644 8.432l-1.178-9.106 5.72-8.453c1.623 7.144 3.386 13.337 5.17 18.676-17.932 49.133-9.517 72.654-9.517 72.654-2.603-15.616 3.7-38.46 13.436-62.217 5.72 13.53 10.698 18.642 10.698 18.642-3.426-5.535-6.332-13.693-8.793-23.218 2.982-7.014 6.23-14.07 9.603-21.012a232.6 232.6 0 0 0-.764 14.256l-.923 1.397.92-1.272c-.694 32.004 5.99 48.62 5.99 48.62-4.27-14.38-3.715-34.785-1.097-55.56l3.366-4.893c.592 2.668 1.077 5.18 1.43 7.484l-.67-5.332c5.897 21.946 12.87 33.143 16.035 37.414-2.526 18.57.922 27.6.922 27.6-1.833-10.287 1.062-24.16 6.48-39.26 1.26 21.478 5.717 32.556 5.717 32.556-3.244-10.93-3.7-25.34-2.586-40.746a295.558 295.558 0 0 1 6.25-14.302c.17 2.404.373 4.744.613 6.998l-.464.7.47-.648.07.643-1.003 5.954c.307-1.57.682-3.237 1.112-4.98.576 4.9 1.34 9.358 2.333 13.146 0 0-.258-7.147-.33-17.815l4.576-6.55c5.57 28.887 12.424 38.827 12.424 38.827-4.02-9.18-7.03-25.555-9.264-43.456l9.104-13.835 3.127 13.576 3.583-.887 1.265-8.502c1.62 7.898 2.398 14.946 1.825 20.252 0 0 3.327-9.658-.206-31.13l.7-4.7 3.583 13.865 3.15-10.57c-9.095 55.166 2.573 84.162 2.573 84.162-5.877-19.795-2.62-51 2.593-78.877l2.433 12.363 1.454-7.195 2.32 7.73c-2.225 11.225-3.449 19-3.449 19 .915-4.675 2.4-10.178 4.284-16.146l1.854 6.5-2.786 15.7c.77-3.943 1.956-8.476 3.433-13.378l2.77 10.236c-5.16 6.756-10.21 12.27-14.87 15.71 0 0 6.065-2.69 15.773-12.24l.938 3.695a71.18 71.18 0 0 0-.239-4.388l.038-.04 1.73 6.38c-5.474 2.64-10.647 4.43-15.334 5.073 0 0 5.582.204 15.82-3.243l2.005 7.78c-.054-2.526-.277-5.297-.64-8.252a106.06 106.06 0 0 0 8.36-3.393c5.192 17.35 7.933 33.373 5.744 44.812 0 0 5.637-15.07-1.068-47.052 4.742-2.395 9.996-5.41 15.715-9.187 3.164 9.58 6.4 16.455 9.038 21.153 1.202 21.947 5.76 33.262 5.76 33.262-2.396-8.074-3.274-18.05-3.12-28.925 1.91 2.873 3.12 4.117 3.12 4.117-1.077-1.74-2.102-3.74-3.08-5.96.252-10.252 1.377-21.236 2.987-32.143l1.685 5.672a101.62 101.62 0 0 1-2.47 3.854l2.553-3.562c.958 3.426 1.743 6.625 2.308 9.508l-1.773-10.262 6.237-8.996.28 1.086-3.364 18.676c.893-4.567 2.342-9.926 4.156-15.734a175.5 175.5 0 0 0 3 9.732l1.234 4.523c-8.01 29.042-2.448 43.045-2.448 43.045-1.664-8.994.498-20.78 4.897-33.724l.558 2.213a67.17 67.17 0 0 0-.159-3.356l.407-1.16c5.338 11.998 9.8 16.586 9.8 16.586-3.15-5.1-5.86-12.4-8.19-20.948l2.2-5.513-.723 4.336a108.13 108.13 0 0 1 1.284-5.666c2.085-4.922 4.394-9.918 6.854-14.92.388 3.7.47 7.025.164 9.858 0 0 1.43-4.146 1.42-13.04l.415-.826.673 2.866.914-5.96 2.146-4.077c-5.826 47.69 4.23 72.66 4.23 72.66-5.702-19.212-2.802-49.176 2.14-76.413l.337-.826c7.8 48.9 23 64.5 23 64.5-4.1-6.625-7.46-17.002-10.198-28.994l.123-.475 1.362 5.333c-.053-2.493-.272-5.225-.626-8.137l4.893-17.647.34 1.178.223-.19.502 1.65c.122 8.002 1.41 11.748 1.41 11.748-.228-2.105-.242-4.485-.076-7.083.82 3.017 1.505 5.847 2.01 8.423l-1.83-10.58a92.32 92.32 0 0 1 .902-6.653l.442-.38.395-.827c1.552 7.71 2.29 14.582 1.73 19.782 0 0 2.676-7.77.68-24.858l.78-1.643.712-1.03c4.575 26.334 7.03 54.682 1.554 73.123 0 0 10.114-25.123 4.177-73.096l.723 1.06 3.583-12.884 1.068 5.132c-1.875 13.13-1.097 21.39-.397 25.354-1.228 6.522-2.006 12.522-2.112 17.56 0 0 3.037-12.316 7.77-28.445l.84.73 3.583-4.34.964-3.343 3.604 8.722.32 2.187c-2.827 5.37-5.593 10.166-8.19 14.016 0 0 3.177-4.35 7.906-11.238-3.084 16.46-7.14 31.262-12.435 39.812 0 0 7.336-7.528 14.432-28.516 1.75 17.834 1.674 34.825-2.026 47.29 0 0 6.484-16.104 6.022-47.146 5.426 16.32 8.566 31.526 6.915 42.45 0 0 3.31-10.21.02-31.272.78-3.586 1.393-7.646 1.863-12.028l.47.647-.464-.7c.804-7.525 1.195-15.998 1.312-24.654l2.018-5.627.85 1.34 1.51 8.21 3.586.588 1.962 4.322c-2.273 25.99.246 44.282 2.493 54.443-1.828 3.16-3.852 5.953-6.103 8.28 0 0 2.687-1.94 6.474-6.652 1.23 5.172 2.287 7.798 2.287 7.798-.77-2.596-1.38-5.392-1.854-8.346 5.03-6.4 11.816-17.55 16.88-35.282l1.732 6.753c-.062-3.006-.366-6.354-.86-9.95 2.16-8.248 3.936-17.828 5.02-28.897l.636 2.888 2.01 6.79c-2.22 11.31-3.45 19.115-3.45 19.115.92-4.695 2.422-10.225 4.308-16.22l.717 2.42 1.814-10.104 1.102-3.162c2.012 8.4 3.264 16.112 3.226 22.215-6.683 16.804-14.305 30.96-22.562 37.703 0 0 13.106-7.078 27.457-36.867l.284 2.9-.463.698.47-.646c.594 5.536 1.41 10.562 2.513 14.762 0 0-.257-7.146-.33-17.813l6.673-9.6c2.08 8.123 4.32 14.85 6.496 20.363-14.45 43.994-6.896 65.102-6.896 65.102-2.373-14.238 2.664-34.484 10.942-55.954 4.418 8.875 7.83 12.375 7.83 12.375-2.46-3.974-4.652-9.294-6.604-15.503l2.736-6.676a69.808 69.808 0 0 0-.216 4.076l2.324-8.986.01-.02 1.956 6.495c-.165-2.622-.524-5.5-1.04-8.568l2.575-5.688c-.03.696-.075 1.374-.145 2.02 0 0 .37-1.07.73-3.29l1.935-4.12 1.337 4.768c-1.676 35.693 5.798 54.268 5.798 54.268-4.254-14.332-3.72-34.647-1.123-55.35.617 2.472 1.162 4.84 1.62 7.076l-.646 5.154a101.22 101.22 0 0 1 .79-4.449c.308 1.553.572 3.04.788 4.45l-.646-5.154a168.05 168.05 0 0 1 1.62-7.078c.998 7.962 1.69 15.865 1.925 23.393-1.455 1.377-2.884 2.6-4.278 3.627 0 0 1.543-.685 4.308-2.58.295 11.644-.534 22.348-3.077 30.912 0 0 4.497-11.175 5.734-32.84 2.412-1.843 5.384-4.36 8.8-7.732l.938 3.697a71.27 71.27 0 0 0-.24-4.39c2.01-2.01 4.165-4.307 6.45-6.926-2.757 12.17-6.146 22.713-10.294 29.414 0 0 9.52-9.762 17.356-38.072l1.896-2.52 5.79 8.32-.33 17.812c1.1-4.2 1.92-9.225 2.513-14.76l.47.646-.463-.698.285-2.902c14.35 29.79 27.46 36.87 27.46 36.87-8.257-6.744-15.878-20.897-22.562-37.7-.015-2.373.164-4.986.51-7.79 7.964 30.406 18.09 40.795 18.09 40.795-5.818-9.398-10.14-26.344-13.32-44.747l.76-2.197c2.27 6.985 4.08 13.43 5.13 18.786 0 0-1.44-9.152-4.022-21.99l1.703-4.937 1.48-2.156c1.08 11.195 2.87 20.867 5.05 29.19-.494 3.598-.798 6.945-.86 9.95l1.734-6.753c5.063 17.733 11.85 28.882 16.88 35.282-.474 2.954-1.083 5.75-1.854 8.346 0 0 1.06-2.626 2.287-7.798 3.786 4.712 6.475 6.652 6.475 6.652-2.25-2.327-4.274-5.12-6.103-8.28 1.92-8.682 4.037-23.298 3.197-43.58l4.262 16.13c-.17-8.01-2.032-18.45-4.713-29.562l.065-.2 5.957-9.128 1.977 5.81 1.41-3.5.263.756c.117 8.656.507 17.13 1.312 24.655l-.463.698.47-.646c.47 4.385 1.082 8.445 1.863 12.03-3.287 21.06.022 31.27.022 31.27-1.653-10.926 1.488-26.13 6.915-42.452-.463 31.043 6.023 47.147 6.023 47.147-3.7-12.465-3.777-29.455-2.027-47.29 7.094 20.987 14.43 28.516 14.43 28.516-5.295-8.55-9.35-23.354-12.434-39.814l7.907 11.24c-2.6-3.85-5.365-8.646-8.192-14.017l.32-2.187 1.302-3.22 2.37 6.82 3.56-11.27c5.727 18.93 9.525 34.347 9.525 34.347-.107-5.037-.884-11.037-2.11-17.56.823-4.668 1.756-15.3-1.663-32.812l1.435 1.164 3.582-2.986 1.978 13.214c-6.684 49.77 3.82 75.854 3.82 75.854-5.564-18.74-2.943-47.704 1.773-74.392l1.318 3.54c-2.086 17.37.634 25.262.634 25.262-.6-5.555.28-13.016 2.057-21.37.646 3.34 1.13 6.5 1.412 9.444l-1.832 10.583c.504-2.576 1.188-5.408 2-8.426.166 2.6.15 4.98-.076 7.086 0 0 1.29-3.746 1.41-11.752l.94-3.057 5.017 18.072c-.354 2.9-.572 5.64-.625 8.133l1.36-5.33.123.475c-2.738 12-6.097 22.367-10.198 28.992 0 0 12.572-12.896 20.717-52.02l.39 2.056 3.582-3.168.213-1.363c3.915 24.596 5.643 50.16.573 67.234 0 0 10.057-24.97 4.232-72.66l4.147 7.996c-.007 8.893 1.42 13.04 1.42 13.04-.306-2.833-.223-6.167.163-9.857 2.46 4.998 4.768 9.994 6.853 14.912.504 1.994.938 3.896 1.286 5.672l-.724-4.34 2.21 5.517c-2.33 8.55-5.04 15.858-8.19 20.948 0 0 4.473-4.588 9.8-16.586l.408 1.158a67.35 67.35 0 0 0-.161 3.359l.56-2.215c4.4 12.943 6.562 24.732 4.898 33.726 0 0 5.563-14.004-2.448-43.048l1.233-4.52a178.06 178.06 0 0 0 3.001-9.732c1.813 5.81 3.26 11.167 4.155 15.734 0 0-1.197-7.607-3.364-18.678l.28-1.084 6.237 8.996-1.773 10.262c.565-2.883 1.35-6.082 2.307-9.508l2.554 3.562a101.6 101.6 0 0 1-2.471-3.854l1.687-5.675c1.61 10.908 2.735 21.892 2.987 32.144-.978 2.22-2.003 4.222-3.08 5.96 0 0 1.21-1.243 3.12-4.116.154 10.874-.723 20.85-3.12 28.925 0 0 4.558-11.316 5.76-33.262 2.637-4.697 5.875-11.57 9.04-21.153 11.628 7.677 21.317 12.183 28.75 14.818-.363 2.954-.586 5.726-.64 8.252l2.005-7.78c6.694 2.254 11.393 2.947 13.846 3.156.178 11.005-.69 21.105-3.11 29.265 0 0 3.977-9.876 5.48-29.065 1.63 1.012 2.515 1.404 2.515 1.404a41.47 41.47 0 0 1-2.472-1.984c.632-8.416.78-18.6-.072-30.475l.216.942 1.585-8.77c1.535 9.434 2.758 19.035 3.4 28.27-1.512 2.927-3 5.604-4.442 7.943l4.512-6.938c.986 14.874.46 28.742-2.686 39.337 0 0 6.138-15.24 6.045-44.65l7.768-12.733c3.975 56.618 16.187 74.16 16.187 74.16-4.13-8.49-6.935-22.422-8.82-38.68 1.622-3.287 4.192-9.36 6.878-19.147.452 2.83.982 5.455 1.603 7.82l-.283-12.906a234.323 234.323 0 0 0 2.493-11.46l4.19 6.008c-.22 6.29-.157 12.017.093 17.178l-.038 1.18.08-.32c1.177 22.138 5.774 33.557 5.774 33.557-3.323-11.192-3.724-26.036-2.505-41.862l.096.46-.09-.547c.443-5.707 1.094-11.54 1.896-17.375.02 1.014.005 1.985-.056 2.904 0 0 .868-2.9.944-9.006l.184-1.17.098.646V0zM4.81 20.08l2.082.202-.468 2.797-1.182.415-.432-3.414zm2.16-9.465l-3.16.884-.162-1.48 3.322.595zm.1 48.733a148.66 148.66 0 0 0 2.554 6.991c-1.42 4.324-2.63 8.43-3.653 12.312.054-6.194.45-12.69 1.1-19.303zm11.51-16.362a279.148 279.148 0 0 0-6.918 17.425c-1.085-4.6-2.076-9.456-2.98-14.448l.42-2.88c1.76-4.41 3.62-8.827 5.536-13.2l3.942 13.093zm3-6.7l-.903 1.98-1.57-6.1 2.244 2.965.23 1.156zm27.455 25.33l.522-1.964-.484 2.292-.038-.328zm-7.6-21.857l.26.89-.168.86-.093-1.75zm2.68-10.86l-.923 4.352-1.53-5.646.426-1.52.84 1.965 1.19.85zm8.19 8.61c-1.657 6.62-3.055 13.06-4.01 18.946-.936-5.772-2.298-12.073-3.913-18.56l2.478-7.13 3.244 1.38 2.2 5.366zm36.68 2.214c-.945 5.768-1.997 11.43-3.17 16.803-1.976-5.975-4.503-12.494-7.694-19.557l.708-.13 3.59 5.976 3.08-8.83 3.16 4.822.323.918zm10.3-6.143l-.205 2.732-2.2-2.013 1.112-3.498.633-.68.66 3.46zm.667 20.038l-.167.91c-1.894-3.15-3.85-6.7-5.83-10.503L94.208 43l.456-1.514 4.292 3.604c.167 4.19.652 7.002.996 8.527zm1.27-6.7l-1.07 5.604c-.062-1.933.015-4.04.218-6.297l.85.693zm39.773 21.434l-.698-4.037.712.984-.734-1.108-2.055-11.042a158.897 158.897 0 0 0 8.8 10.102c-.506 2.65-.94 5.215-1.284 7.668a105.92 105.92 0 0 1-4.751-2.567zm-.198-19.934l1.287-2.04a179.306 179.306 0 0 1 1.94 6.912l-3.228-4.873zm-1.285 14.588c-1.268-2-2.57-4.2-3.893-6.56l1.345-2.055c.952 3 1.808 5.886 2.548 8.614zM107.295 51.63a207.026 207.026 0 0 0 5.532 3.992c-1.457 6.793-3.1 13.15-4.95 18.705.188-6.71.056-14.28-.582-22.697zm7.284-4.838l-.476 2.54a352.12 352.12 0 0 1-7.625-6.435l-.58-4.807 2.082-5.77 3.156 11.9 3.444 2.575zm2.72-16.884c-.66 4.66-1.386 9.318-2.183 13.88l1.833-14.45.35.568zm5.602 8.862a652.17 652.17 0 0 0 12.278 18.323l-.23.382.242-.365 4.414 6.27c.457 1.7.87 3.34 1.227 4.904-7.224-4.146-14.82-9.5-22.42-15.493 1-3.393 1.978-7.08 2.915-11.066l.573 4.387 1.002-7.34zm.876-5.995c4.045 6.404 7.927 11.95 11.582 16.742l1.527 4.662-1.298 2.24c-3.847-6.86-7.878-15.063-11.81-23.643zm1.443-10.53l-.048-.087.003-.025.045.112zm11.545 8.188c1.81 5.045 3.474 9.96 4.89 14.57l-1.335 2.705-4.805-7.675a508.77 508.77 0 0 0-4.657-19.69l1.77-1.03.152.396 3.47 12.307.516-1.582zm10.246 2.854a326.052 326.052 0 0 1-4.47 9.874 632.1 632.1 0 0 0-3.86-18.59l1.155-3.536 3.6 10.333 1.764-2.97 1.822 4.888zm1.168 3.22l3.008 8.694c-1.22 4.654-2.33 9.25-3.27 13.67l-3.372-4.798-1.637-8.99 5.272-8.577zm5.425-.116l-1.293 4.62-1.65-7.77 1.585-.757 1.357 3.905zm2.096-7.144l-.725 2.428-.21-.998.936-1.43zm15.536-4.658l-3.1-5.958.392-.875 2.71 6.833zm22.19 18.51l.883 1.308-.127 1.002-.756-2.3zm-8.16-4.63c2.38 6.672 4.86 12.678 7.36 18.072-.754 4.887-1.578 9.537-2.477 13.81-2.83-9.187-6.64-19.435-11.73-30.764l.867-2.546 3.583 9.48 2.397-8.054zm10.29-4.932l-.914 8.13a371.16 371.16 0 0 1-4.438-9.06l-1.843-6.495L190 18.943l5.56 14.596zm1.912 15.497l4.577 6.552-.14 10.4a241.237 241.237 0 0 1-5.184-13.23l.746-3.724zm1.492-5.818a269.746 269.746 0 0 1 3.098 9.757l-.01 2.162a171.26 171.26 0 0 1-4.305-7.54l.074-.402 1.144-3.976zm3.1 4.7l-1.82-9.062 1.645-5.46.176 14.52zm9.505 37.045c-3.1-5.013-6.002-10.688-8.703-16.787.46-2.473.854-5.125 1.184-7.93.43 1.743.805 3.4 1.112 4.98l-1.003-5.954.07-.642.47.647-.464-.7c.75-7.02 1.14-14.858 1.286-22.903 1.113 5.55 1.658 10.52 1.392 14.532 0 0 1.096-3.67.934-11.4l.417 2.652c-.507 11.56 1.333 16.895 1.333 16.895-.243-2.256-.24-4.832-.033-7.65 1.51 11.884 2.35 23.653 2.004 34.26zm18.906-58.024l-1.614-3.55.636-2.737.978 6.286zm11.086 22.305l-2.7-5.023 1.23-4.957 1.46 9.98zm18.032-3.543l-1.072 5.678c-2.834-7.106-6.193-14.695-10.18-22.78l1.36-5.3 1.318 3.373 3.55-5.27.065.106 3.562 23.832 1.397.362zm35.9 16.887l.5-1.85 1.237 4.07-1.727-2.22zm-8.134-11.476l.393-1.77 1.078 3.96-1.47-2.2zm-4.52-17.12c1.713 4.912 3.257 9.653 4.544 14.062l-.35 2.56c-5.68-8.59-11.312-18.126-16.532-27.528l2.03-4.328 3.586 6.98 3.588 12.55 3.133-4.296zm5.665 6.313l-.74 5.03-1.064-5.502.18.344 1.622.13zm1.245 1.043l5.144 15.873-.547 3.85a208.216 208.216 0 0 1-4.993-7.01l-1.177-6.535 1.573-6.18zm9.176-3.453c-1.252 5.025-2.35 9.94-3.218 14.586-.84-3.91-1.875-8.033-3.048-12.274l1.396-.16 3.037-7.47 1.833 5.32zm36.832 1.485c-1.19 7.293-2.552 14.42-4.108 21.02-2.656-7.437-5.917-15.47-9.917-24.115.456-2.354.99-4.79 1.593-7.288l3 12.283 3.585.384 3.585 4.42 1.502-7.838.75 1.132zm1.932-13.045l-1.312 9.114-.596-1.24 1.308-6.82.53-1.27.07.216zm9.186 24.047l-.016 4.746c-2.005-3.298-4.083-7.047-6.2-11.102l1.297-5.568a228.427 228.427 0 0 0 4.91 11.924zm6.548-13.998c-.67 7.256-.47 12.62-.078 16.227a310.664 310.664 0 0 1-3.082-8.312l1.167-1.05 1.993-6.866zm22.854-7.118l-2.192 8.35-.48-1.595a396.815 396.815 0 0 1-.947-16.804l.29-1.137 3.327 11.186zm2.806 3.457c1.93 5.336 3.7 10.537 5.2 15.404-1.77 3.254-3.51 6.25-5.19 8.898-.876-4.23-2-8.73-3.272-13.37l3.26-10.932zm6.735 12.537l-.603 1.14a627.398 627.398 0 0 0-4.17-19.952l.464-1.452 1.374 2.596a421.475 421.475 0 0 1 2.936 17.67zm.957 7.187l-.208 1.18-1.037-5.587.564-.82.68 5.227zm.7 6.336l-.758-4.313.2-.8.558 5.112zm.172 37.515c-6.312-11.392-10.143-27.365-12.393-44.423l5.822 18.716c-.248-3.96-.935-8.496-1.946-13.4l5.52-7.867 1.66 5.783-.766 4.587a99.87 99.87 0 0 1 .897-4.091c.448 1.688.85 3.312 1.198 4.863 1.21 12.895 1.44 25.303.008 35.832zm16.43-40.722l4.637-6.64c-2.038 6.942-3.476 13.2-4.462 18.743l-.175-12.104zm2.204-31.226l-1.357-3.02.285-1.98.346.28.726 4.72zm3.964 19.6l-.096.297c-2.068 3.972-4.106 7.644-6.075 10.88l-.003-9.78.342 1.38-.34-1.656.268-15.7 4.016 6.23a230.04 230.04 0 0 0 1.889 8.353zm20.633 5.73c-1.123-5.578-2.543-11.483-4.136-17.463l1.172-1.938c1.683 7.205 2.785 13.87 2.964 19.4zm18.442-9.035l-.168.86-.06-1.166.053-.287.174.592zm7.337 20.972l.522-1.962-.484 2.3-.038-.328zm-4.175-36.103l-1.666 7.738-.257-.975 1.252-6.89.67.128zm10.53-3.39l-.844 6.877c-2.632 9.568-4.888 19.07-6.248 27.458-.936-5.775-2.297-12.076-3.913-18.562 1.15-3.42 2.395-6.946 3.705-10.52l3.268 13.52 3.583-20.255.45 1.482zm33.597 17.6c-.945 5.768-1.997 11.43-3.17 16.803-2.008-6.07-4.582-12.702-7.848-19.896l1.95-8.687.33.32 3.377 14.09 2.555-7.324 2.48 3.774.326.92zm10.3-6.143l-.205 2.733-2.2-2.014 1.59-4.974.816 4.255zm.666 20.038l-.168.912c-1.71-2.843-3.468-6.005-5.252-9.398l.42-3.396 4.002 3.354c.168 4.19.653 7.003.997 8.528zm1.27-6.69l-1.07 5.604c-.062-1.933.015-4.04.218-6.294l.85.7zm6.075 4.692a210.31 210.31 0 0 0 5.532 3.992c-1.456 6.793-3.098 13.15-4.95 18.705.187-6.71.055-14.28-.583-22.697zm-1.365-26.73l-1.188 5.185-.55-3.323.687-3.447.283-1.045.767 2.63zm9.582 16.577l-1.41 7.854a350.11 350.11 0 0 1-7.625-6.434l-.58-4.808 2.147-5.95.656 2.248 3.582 3.7 3.23 3.39zm25.48 26.896l-.698-4.037.712.984-.733-1.108-2.056-11.042c3.144 3.916 6.095 7.258 8.81 10.102-.506 2.65-.94 5.215-1.284 7.668a103.798 103.798 0 0 1-4.752-2.567zm-.198-19.934l1.287-2.04c.723 2.4 1.374 4.715 1.94 6.912l-3.228-4.873zm-1.284 14.588c-1.27-2-2.57-4.2-3.894-6.56l1.345-2.055c.95 3 1.808 5.886 2.55 8.614zm-17.282-25.3a651.215 651.215 0 0 0 12.95 19.367l-.23.38.242-.363 4.415 6.268c.458 1.7.87 3.34 1.227 4.904-7.223-4.146-14.82-9.5-22.42-15.493a211.96 211.96 0 0 0 3.816-15.064zm1.548-4.954c4.046 6.404 7.927 11.95 11.583 16.742l1.526 4.664-1.298 2.24c-3.846-6.86-7.877-15.063-11.81-23.645zm11.28-7.028c2.476 6.685 4.747 13.23 6.6 19.26l-1.335 2.705-4.806-7.675c-1.415-6.527-3.057-13.568-4.896-20.6l3.155 7.57 1.28-1.257zm11.433 8.74l-3.95 8.677-.896-4.575 2.625-12.605 1.085 2.856 1.135 5.647zm2.274 3.66l2.424 7.056a299.229 299.229 0 0 0-3.27 13.67l-3.372-4.798-1.637-9 4.308-6.986.9 4.48.648-4.43zm3.94-18.567l-.262.654-.375-1.603.637.95zm.9 16.813L559.945 41l-1.8-8.412 1.103-1.863 1.98 5.656zm4.664-15.44l-3.292 10.725-1.05-4.877L564 22.504l1.89-1.564zm11.817 1.404l-1.87-3.574 1.41.842.46 2.732zm20.378 16.305l3.85 5.75c-1.164 9.33-2.54 18.247-4.158 25.944-3.103-10.07-7.378-21.4-13.23-34.057a175.115 175.115 0 0 1 2.383-10.46l1.064-1.188 1.724 1.002 2.3 3.664 3.13 17.946 2.927-8.6zm5.097-5.12l-.914 8.13-3.23-6.526 1.593-8.44 2.55 6.834zm1.082-11.078l-.018.183-.126-.523.144.34zm2.322 20.757a272.576 272.576 0 0 1 3.1 9.758l-.012 2.164a173.49 173.49 0 0 1-4.305-7.543l.073-.398 1.145-3.98zm3.1 4.71l-1.82-9.062 1.646-5.46.175 14.52zm15.117-13.1a98.286 98.286 0 0 0-.252 4.732l-1.39-6.826.636-2.207 1.007 4.3zm16.476 5.774l-.9 5.196-1.042-4.532 1.02-3.438.923 2.774zm7.904 8.653l-2.7-5.024 1.23-4.96 1.46 9.983zm2.256 32.636c-3.193-7.883-5.995-16.62-8.44-25.7.774-2.45 1.54-5.066 2.29-7.854l-.67 5.332c.354-2.304.84-4.815 1.43-7.483l3.367 4.894c1.338 10.62 2.134 21.14 2.024 30.812zm50.508-20.85c.202-1.122.43-2.28.68-3.478l2.224 7.254a151.483 151.483 0 0 1-2.905-3.776zm-21.316-13.124a215.04 215.04 0 0 1 1.55-6.127 209.43 209.43 0 0 0 6.44 8.792 170.43 170.43 0 0 0-1.438 8.36c-2.096-3.136-4.297-6.873-6.55-11.025zm-2.48-12.13l2.92 4.388-.982 6.736c-1.716-3.2-3.458-6.63-5.203-10.207l.473-2.286 2.184 3.873.607-2.504zm5.413-10.865l-1.02 5.974-2.25-3.94.833-3.434 2.438 1.4zm8.05 12.413l-1.492 6.213-5.752-9.514 2.6-8.412.494.01 4.16 11.703zm1.86 5.668c1.15 3.63 2.158 7.094 2.99 10.31l-4.146-6.293 1.157-4.018zm4.847 1.173l4.065 12.61-.536 4.12a213.06 213.06 0 0 1-4.864-6.833l-2.12-11.51.585 1.422 2.87.19zm5.32 3.72l-.52 3.588c-.868-3.92-1.92-8.04-3.108-12.27l1.264-6.458a397.633 397.633 0 0 1 2.365 15.14zm1.89 17.762l-.088-.11c-.327-3.642-.984-7.715-1.894-12.072l.535-2.19c.607 4.835 1.1 9.65 1.447 14.37zm29.52-16.3l4.353 6.227-.05 5.023a268.703 268.703 0 0 0-4.303-11.25zm4.372 1.032l-.017 4.746c-2.004-3.297-4.082-7.046-6.19-11.1l1.298-5.567a226.802 226.802 0 0 0 4.908 11.922zm6.47 2.232l-3.255-8.8c.16-3.89.253-7.88.287-11.897l2.63 11.565c-.084 3.787.088 6.822.338 9.133zm21.48-17.912l-.74 2.914a403.671 403.671 0 0 0-3.835-12.137l.735-5.527 3.584 14.198.256.552zm-.525 14.268l.396 1.205-1.438 2.526 1.042-3.73zm.907 2.763c-4.06 10.225-7.016 19.43-9.146 27.646-4.196-6.848-8.158-15.29-11.836-24.535-.022-3.476.372-7.474 1.09-11.828l1.334-.428 3.088-3.28c2.516 7.6 4.523 14.62 5.65 20.384 0 0-1.48-9.406-4.13-22.526l2.56-4.03 3.583 13.77 1.74-13.08 3.455 10.02c-1.15 5.06-2.107 9.934-2.78 14.45l-.65.98.636-.877c-.613 4.13-.99 7.958-1.062 11.35 0 0 1.54-6.253 4.137-15.674l2.1-3.02.22.674zm3.748-9.553l-2.33 4.46-.804-2.983 1.226-4.18 1.104 2.38.803.322zm8.522 16.627l-1.863-10.307.507-1.074a316.2 316.2 0 0 1 1.356 11.381zm13.462-23.822l1.343 4.113-1.28 6.623a322.402 322.402 0 0 0-6.705-14.76l2.45-4.707 2.9 13.887 1.282-5.156zm1.937 1.158l-.354 1.76-1.103-4.85.22-.88 1.237 3.97zm.246 6.46a243.41 243.41 0 0 0-.514 6.994l-.938-2.275 1.452-4.72zm20.84 15.798l.223.3-.146.223-.077-.533zm-1.362-7.827a211.27 211.27 0 0 0 6.438-8.792l1.55 6.127c-2.194 4.044-4.34 7.7-6.387 10.776l-.255-.387a168.49 168.49 0 0 0-1.346-7.724zm-7.844 2.73c.475-1.84 1.012-3.766 1.598-5.754l1.133 1.648-2.73 4.106zm-5.385 7.593l-.534-4.12 4.443-13.754 2.33 3.438-1.376 7.604a211.094 211.094 0 0 1-4.863 6.83zm-2.113.97l1.332-4.312.682 3.475-1.58 2.083-.435-1.246zm-.122-10.6l.536 2.2a129.01 129.01 0 0 0-1.162 6.289l-.25-.697.876-7.782zm2.6-6.604a205.438 205.438 0 0 0-1.634 6.8l-.52-3.588.59-4.184 1.564.97zm4.15-14.51l-.903 2.956.744-3.47.16.513zm2.975 9.802l-.874 4.504-1.93-3.764 1.608-4.734 1.195 3.994zm2.043 7.045l-.854 1.323-1.24-2.303.938-3.037 1.157 4.017zm7.944-12.986l-5.752 9.514-1.492-6.214 2.275-6.527 2.87 6.52 1.516-5.24.582 1.948zm5.865-10.264l-4.036 7.125-.766-4.508.425-1.466 3.584-4.35.793 3.2zm3.62 12.934a302.6 302.6 0 0 1-5.203 10.206l-.982-6.735a253.57 253.57 0 0 0 4.816-7.34l.54 2.176.27-1.028.56 2.72zm18.925-8.095c-3.988 8.086-7.348 15.674-10.182 22.78a355.68 355.68 0 0 1-2.056-11.392l2.14-12.35 2.052-3.28 2.627 8.318 3.07-12.945c.857 3.01 1.646 5.98 2.35 8.872zm9.47 15.625l-2.69 5.02 1.46-9.98 1.23 4.958zm5.026-10.09l-.635 1.318-.94-6.424 1.576 5.106zm7.08-15.448l-3.13 6.986 1.218-7.664 1.912.678zm11.102 14.633l-1.267 6.232c-.112-3.916-.5-8.615-1.346-14.13l.35-1.26 2.263 9.158zm3.065-.503c-1.116 8.82-1.696 16.885-1.887 24.163-3.805 10.967-5.937 20.292-7.04 28-5.386-10.477-9.4-27.545-12.334-45.607l1.05-1.59.547 2.773.12-.753c4.983 16.857 8.207 29.938 8.207 29.938-.17-7.958-2.008-18.312-4.66-29.343l-1.168-7.283 5.66-8.937 2.594 12.86 1.057-3.795c1.05 4.88 1.797 9.46 2.13 13.543l-2.26 12.896c.588-3.003 1.416-6.35 2.43-9.94.06 1.89.013 3.65-.16 5.247 0 0 1.02-2.96 1.332-9.237a272 272 0 0 1 2.481-7.74l.16.652.596-2.885 1.102-3.162a7.18 7.18 0 0 0 .043.188zm4.75 5.993l-.017 1.43-.328.748.345-2.177zm6.49 5.508l-.708 3.604.008-2.188.7-1.416zm3.61 3.27c-1.46 2.703-2.9 5.23-4.304 7.54l-.013-2.164a271.06 271.06 0 0 1 3.099-9.756l1.144 3.97.074.408zm10.43-21.192c-2.427 5.305-4.89 10.466-7.33 15.264l-.913-8.13.638-1.737.94-1.757 1.15 3.146 3.585-9.323 1.93 2.537zm33.39.395l-1.05 4.878-2.343-7.704.32-1.588.447-.172 2.626 4.586zm2.802 8.565L943.844 41l-1.293-4.62 1.815-5.197.666 4.17zm7.322 14.536l-.742 4.174-3.37 4.797c-.94-4.42-2.05-9.016-3.27-13.67l1.11-3.287.246 1.54 3.584 3.127.566-1.617 1.88 4.936zm.735 1.99l-.957 1.424.623-2.334.334.9zm3.31 9.435l-.52 2.9-.733 1.106.713-.982-.698 4.036a105.85 105.85 0 0 1-4.751 2.565c-.346-2.453-.778-5.02-1.284-7.668a148.75 148.75 0 0 0 5.75-6.398l1.522 4.45zm.455 1.373l-.21.33.146-.528.065.198zm.058.173l1.208 3.76-2.8 1.652a135.05 135.05 0 0 1 1.227-4.903l.364-.5zm7.475-38.958a530.654 530.654 0 0 0-3.75 16.12l-2.992 4.833-.35-1.073 1.842-12.663 3.325-9.03 1.776 1.387.148.425zm7.992 8.86c-3.815 8.324-7.72 16.29-11.463 23.02l-1.012-3.588.89-2.688c3.656-4.793 7.538-10.34 11.584-16.745zm5.363 20.02c-4.99 3.933-9.978 7.596-14.86 10.82a208.253 208.253 0 0 0-1.7-6.813 646.577 646.577 0 0 0 12.74-19.07 212.272 212.272 0 0 0 3.818 15.063zm5.584 2.832a207.026 207.026 0 0 0 5.532-3.992c-.64 8.417-.77 15.986-.582 22.697-1.85-5.556-3.494-11.912-4.95-18.705zm5.953-12.382l-7.23 6.09-1.622-9.134 1.73-1.914 3.585-12.338 3.535 17.297zm.977-5.15l-.58 4.807-.29.25.86-5.082.01.025zm5.746 14.453l-1.07-5.605.853-.69c.2 2.255.277 4.362.216 6.294zm3.272-18.232l-2.198 2.012-.204-2.73.1-.536.874-3.228 1.428 4.483zm2.928 9.727c-1.982 3.813-3.936 7.353-5.83 10.503l-.168-.912c.344-1.523.83-4.336.997-8.527l4.292-3.604.456 1.516.253 1.024zm5.204-17.774l-.118.512-.402.388.365-1.104.155.204zm9.674 12.845c-2.75 6.252-4.963 12.06-6.74 17.43-1.173-5.374-2.225-11.037-3.17-16.805l.322-.918 4.306-6.596 3.94-3.783 1.34 10.672zm29.517 20.545l.524 1.97-.038.33-.486-2.3zm5.157-21.68c-1.608 6.463-2.963 12.74-3.896 18.494-1.137-7.002-2.896-14.777-4.978-22.72l.197-.188 3.583 2.765 3.396-3.392 1.464 4.232.234.8zm23.567.943a264.89 264.89 0 0 0-2.421 10.771c.132-4.1.767-8.8 1.77-13.89l.65 3.118zm15.322-13.365l-.245 1.81-.897-5.698.156-.165.986 4.054zm4.42 23.396l4.637 6.64-.175 12.105c-.985-5.552-2.422-11.8-4.462-18.744zm4.64 6.192c-1.97-3.238-4.008-6.9-6.076-10.883l-.096-.295 1.146-4.9 2.146 4.238 2.626-13.5.256 15.274-.34 1.653.342-1.377-.004 9.78zm4.255-28.834l-.72 2.998-.007-4.162.727 1.164zm12.182 34.168c.35-1.55.75-3.174 1.198-4.86.34 1.42.643 2.79.897 4.093l-.767-4.59c.5-1.856 1.058-3.79 1.66-5.782l5.52 7.867c-1.012 4.905-1.7 9.442-1.947 13.4 0 0 2.22-7.64 5.822-18.716-2.25 17.058-6.082 33.03-12.394 44.42-1.43-10.53-1.202-22.937.01-35.834zm.72-6.793l.2.797-.76 4.312.56-5.11zm.825-6.45l.562.823-1.036 5.585-.208-1.18.682-5.228zm3.297-12.788l-2.42 11.97-.604-1.14a409.95 409.95 0 0 1 2.267-14.018l.757 3.188zm6.97 9.226c-1.28 4.64-2.396 9.138-3.272 13.367-1.68-2.647-3.418-5.644-5.188-8.898.928-3 1.96-6.146 3.067-9.366l2.938 1.807.825-2.458 1.63 5.548zm2.935-19.032l-.718 11.4-.48 1.59-1.394-5.395.78-2.326 1.8-5.27zm22.8 19.187l-3.255 8.796c.323-2.985.517-7.17.195-12.636l2.95.906.11 2.934zm5.758-17.55l-2.372 7.535.125-4.906.542-2.17 1.312-2.82.393 2.36zm3.663 17.767c-2.107 4.055-4.186 7.805-6.2 11.103l-.017-4.746a223.07 223.07 0 0 0 4.9-11.924l1.297 5.567zm7.756 10.71c.315-1.713.692-3.52 1.12-5.396a150.145 150.145 0 0 1 1.748 6.68l-1.605 4.38-1.264-5.665zm-3.36-19.5c-.036.07-.07.143-.104.214l-.14-.913.245.7zm1.103 3.256a265.828 265.828 0 0 1 3.007 9.56l-.837 6.277c-1.01-4.818-1.925-9.846-2.757-14.95l.587-.887zm4.407-.01l-1.017 6.85-1.814-9.238.16-.244 1.725 1.4.3-.68.656 1.923zm.968 2.863l2.52 7.643-2.64 6.684-1.455-8.146c.475-2 1-4.056 1.574-6.18zm8.064-5.06l-3.876 8.715a279.38 279.38 0 0 0-2.585-9.372l3.134-10.246 2.484 6.85.843 4.052zm6.094 7.336l-.468 6.702-.765-4.146 1.233-2.556zm7.185 4.26l-1.32 9.383-1.32-9.38.476-3.38.398 1.775.738-5.48 1.03 7.082zm19.62 5.42l1.08-3.963.393 1.77-1.472 2.192zm-6.06 3.918l5.145-15.87 1.57 6.175-1.177 6.538a211.99 211.99 0 0 1-4.99 7.007l-.548-3.85zm-2.326 7.584l1.235-4.068.5 1.85-1.725 2.218zm-6.115-12.45c.736-2.78 1.602-5.733 2.568-8.812.01.034.02.067.028.1.158 7.734 1.405 11.356 1.405 11.356-.22-2.02-.238-4.3-.092-6.776l2.664 9.62c-.48 2.724-.836 5.303-1.05 7.696-1.854 2.306-3.688 4.43-5.5 6.335.273-5.8.306-12.31-.032-19.518zm-1.954-23.8l-.188 1.04-.434-3.006.622 1.965zm3.675 12.086l-1.825 9.678a246.603 246.603 0 0 0-.972-12.005l.826-2.714.527 2.757.286-1.6 1.158 3.885zm2.768-18.425a133.591 133.591 0 0 0-1.434 10.416l-1.056-3.896.09-.505 2.27-6.812.13.797zm7.49 13.412c-1.716 5.85-3.213 11.55-4.354 16.854-.755-4.045-1.688-8.295-2.74-12.646a135.79 135.79 0 0 1 1.337-6.959l1.22 7.508 3.61-7.89.926 3.132zm1.624-5.375l-.242.784-.264-1.577.506.793zm3.777 5.843l-1.813 9.236-1.017-6.846 1.515-4.4 1.315 2.02zm2.164 3.284l-1.494 8.553-1.75 2.682-.35-2.562a265.05 265.05 0 0 1 3.007-9.559l.588.886zm.763-4.847l-.14.918-.104-.215.245-.703zm10.356 15.847l-.018 4.748c-1.637-2.69-3.322-5.686-5.034-8.902l2.066-2.873a223.437 223.437 0 0 0 2.986 7.027zm6.47 2.234l-3.257-8.807c.138-3.31.225-6.692.27-10.104l1.005-1.586a247.535 247.535 0 0 0 1.76 8.368c-.28 5.218-.088 9.236.223 12.13zm5.954-10.704l-1.182-7.376.108.316 1.074 7.06zm21.498 2.806a135.847 135.847 0 0 1 1.45 7.062 136.34 136.34 0 0 1-3.15 5.246c-.876-4.225-2-8.72-3.27-13.357v-.023l2.088-7.066 2.885 8.138zm1.1-3.96l2.4 7.373-1.97 3.53-1.035-7.834.616-3.07zm3.92 4.505l-.602 1.14-2.23-11.068.688-3.42a404.89 404.89 0 0 1 2.144 13.348zm.958 7.187l-.208 1.18-1.037-5.587.564-.823.68 5.23zm.7 6.336l-.758-4.313.2-.8.56 5.112zm.172 37.513c-6.31-11.39-10.144-27.363-12.393-44.423l5.823 18.718c-.248-3.96-.937-8.496-1.947-13.4l3.254-4.604.174 1.073-.135-1.13 2.226-3.206 1.66 5.783-.766 4.587a101.5 101.5 0 0 1 .896-4.091 128.39 128.39 0 0 1 1.198 4.861c1.212 12.896 1.438 25.304.01 35.832zm3.255-65.07l-.953 4.584-.902-7.03 1.855 2.446zm13.175 24.352l4.638-6.64c-2.04 6.945-3.48 13.197-4.463 18.752l-.175-12.11zm2.205-31.23l-1.378-3.065.642-1.72.736 4.784zm3.23 21.118c-1.85 3.504-3.67 6.76-5.437 9.664l-.004-9.785.344 1.38-.342-1.658.27-15.7 3.905 6.06 1.265 10.036zm.736-1.512l-.096.293-.186.354.172-1.084.1.437zm3.414-18.447l-.28 1.842-.31-2.3.16-1.016.43 1.473zm12.64-1.657c2.574 9.644 4.347 18.685 4.577 25.83-1.404-6.973-3.273-14.457-5.36-21.957l.784-3.873zm23.02 16.798l-.168.858-.093-1.744.26.886zm7.336 20.97l.523-1.966-.484 2.295-.04-.33zm6.085-37.224l-.572 4.604c-2.634 9.57-4.89 19.07-6.25 27.46-.717-4.425-1.685-9.16-2.824-14.052l3.112-9.66 3.582-11.6 2.95 3.258zm18.86-2.147l-.386 2.286-.947-3.938 1.293 1.34.04.312zm15.007 17.477c-.945 5.767-1.997 11.43-3.17 16.802-1.534-4.636-3.4-9.6-5.646-14.888l.646-1.285 3.582 1.77 1.905-6.9 2.357 3.586.325.917zm10.296-6.145l-.204 2.735-2.2-2.014 1.6-4.976.813 4.255zm.667 20.04l-.168.912c-1.893-3.15-3.848-6.69-5.828-10.504l.252-1.02.455-1.518 4.293 3.604c.167 4.19.653 7.002.996 8.527zm1.27-6.7l-1.07 5.604c-.06-1.933.016-4.04.218-6.297l.85.693zm6.075 4.69a209.292 209.292 0 0 0 5.532 3.992c-1.456 6.792-3.1 13.15-4.95 18.704.188-6.71.055-14.28-.583-22.696zm-.365-30.903l-2.185 9.36-.398-2.436 1.02-6.117.746-2.64.816 1.835zm8.046 23.857l-.872 4.746a352.51 352.51 0 0 1-7.625-6.434l-.58-4.808 3.838-10.474 3.324 14.837 1.916 2.133zm26.015 23.79l-.697-4.038.713.985-.735-1.11-2.055-11.042c3.144 3.917 6.095 7.26 8.81 10.103-.506 2.65-.938 5.215-1.283 7.668a106.547 106.547 0 0 1-4.754-2.567zm-.195-19.934l1.287-2.04c.722 2.4 1.374 4.715 1.94 6.912l-3.227-4.873zm-1.286 14.588c-1.27-2-2.57-4.2-3.894-6.56l1.346-2.054c.95 3 1.808 5.885 2.548 8.614zm-17.28-25.3a647.725 647.725 0 0 0 12.95 19.366l-.23.382.242-.363 4.415 6.267c.457 1.7.87 3.34 1.228 4.905-7.225-4.146-14.82-9.5-22.422-15.493a211.904 211.904 0 0 0 3.818-15.064zm1.547-4.954c4.046 6.404 7.928 11.95 11.583 16.742l1.527 4.664-1.298 2.238c-3.847-6.86-7.88-15.062-11.812-23.644zm15.762 5.646l2.12 6.584-1.337 2.706-4.805-7.674a519.98 519.98 0 0 0-4.183-17.84l1.804-1.55 3.206 8.613 1.804 9.97 1.392-.807zm7.473-5.134a326.01 326.01 0 0 1-4.471 9.874l-1.147-5.82.337-.196 3.006-9.942 2.275 6.084zm1.167 3.22l3.01 8.695c-1.22 4.654-2.33 9.25-3.27 13.67l-3.37-4.798-1.637-8.99 5.27-8.577zm5.27.433l-1.137 4.07-1.8-8.413.37-.623 1.588 2.323.97 2.642zm5.234 13.68l-1.793-9.53.3-1.078c.55 3.53 1.05 7.075 1.493 10.61zm1.926 23.42c-3.208-3.125-6.542-7.017-9.925-11.445l2.773-10.24c1.476 4.902 2.66 9.437 3.433 13.38 0 0-.985-6.26-2.787-15.692l1.818-6.367.142.388.025-.1c1.225 3.926 2.285 7.646 3.118 11.055.718 6.47 1.213 12.865 1.403 19.01zm.058 2.412c-4.148-.82-8.64-2.464-13.354-4.737l1.732-6.38.037.038a70.43 70.43 0 0 0-.24 4.388l.938-3.696c4.473 4.4 8.172 7.346 10.86 9.24l.026 1.147zm14.153-47.1c-1.47 11.934-.686 19.457-.022 23.08l-3.17 6.95c-.14-8.955-.86-19.154-2.476-30.56l1.24.98 3.58 2.072.848-2.52zm4.175 13.237l-3.772 8.874c-.032-6.083 1.214-13.764 3.214-22.125l.558 13.25zm13.576 14.325c-1.63 10.486-3.583 19.852-5.914 26.736-1.47-13.047-2.362-27.527-2.87-41.88l4.027-7.15 2.214 3.38 1.806 8.79c.18 3.496.423 6.9.737 10.124zm2.988-23.376l-.567 5.165.124-6.375.443 1.2zm3.5 9.997l2.716 8.51-.105 2.478a176.028 176.028 0 0 1-3.936-6.926l.074-.398 1.146-3.98.018.054.058.32.03-.058zm2.995 3.815l-.03.42-1.387-6.95 1.336-2.3.08 8.828z"/></svg>