<svg xmlns="http://www.w3.org/2000/svg" height="1501" width="101" viewBox="0 0 100.397 1500.184" preserveAspectRatio="none"><path d="M10.446.188H0v1499.996h88.667c.23-.753.502-1.604.468-2.478.036.912.262 1.727.54 2.478h6.466c.1-1.966.27-3.74 1.223-2.282-.225-.63-.734-1.206-.62-2.587l.985-.2c-.254-1.992-.445-4.215.11-4.79.234 1.078.67 1.44 1.104 1.797.172-8.422-3.23-1.78-3.317-9.24l.64.086-.672-1.874c.352-.59.776-1.02 1.33-.897-.277-1.005-.586-.54-.91-.166l.384-.94c-2.187-2.688.197-10.47-.96-14.974-.18-1.77 1.115-4.102.973-7.467l-.986.22c1.004-2.716 1.637-12.825 3.922-15.36-.765-2.553-.207.27-.988.212-.377-1.83-.406-3.032-.264-3.953 1.085-.29 1.766 1.93 2.25-1.072.252-2.008-.415-2.858-1.02-3.618-.065-.243-.117-.288-.164-.208-.44-.565-.8-1.133-.654-2.157-.082.044-.13.112-.186.176-.287-1.19-.77-2.125-.65-4.625.226.06.444.015.655-.075.046.3.105.596.21.765-.062-.25-.115-.512-.165-.786.438-.2.827-.5 1.1-.13-.19-1.025-.438-1.972-1.095-2.4a6.1 6.1 0 0 1-.244.764c-.2-2.115-.21-4.66-.187-7.293.418.506.862 3.434 1.438.778-.57-1.22-1.01-1.447-1.435-1.385l.016-6.364c.48-.345 1.375 1.2 1.922-1.165-.24-1.077-1.34-.392-1.062-2.128-.274.206-.5.364-.715.5.58-6.838.88-16.058 1.694-23.493l-.358-.15c.922-3.375.062-7.035.474-10.982l-.524 1.93c-.623-2.577-.23-4.024-.494-6.462l1.033-1.36c-.34-2.64-.875-1.166-1.412-3.083.656-2.4.05-7.486.098-8.63.48-.793.66.987.95 1.372-.348-3.095-1.336-2.876-1.348-6.723l.28-.063c-1.472-9.188-1.085-20.836-2.017-31.056-.054.693-.27.52-.478.786-.375-10.788-.43-23.237-2.88-31.767.27 5.83-1.363 15.707.467 21.65-.735 2.2.33 5.588-.713 6.5a53.85 53.85 0 0 0-.062 1.72c-.625 1.03-1.103 3.03-2.123 1.116-1.267-1.176-1.1-4.147-1.355-6.238-1.434 1.795-2.047-.2-2.53-2.354-.035 2.81-1.672.72-.727 4.018l-1.152.065c.02-1.406.52-3.07.543-4.474.312.292.572-.033.762.427l-.52-4.185.762.426c.13-2.58 1.004-5.75.577-7.286.1 1.242-1.022 2.318-1.358 1.015-.5-.753-1.06-2.125-.948-3.3 1.32-.62 1.284-5.063 2.625-2.253-.688-3.624-.93-2.286-1.746-5.75l.35 2.32c-1.058.292-2.826-1.635-3.494.587-.672-2.612-2.552-.946-2.79-4.444.64-1.42 2.14.424 2.4 2.387.084-.99.663-1.888-.066-2.9.87-.748 1.543 1.862 1.895 1.764.057-1.798-.574.034-.87-1.663-1.21-2.973 1.784-1.894 1.023-4.737.055.622-.28 1.728-.783.98.02-3.82-1.06-2.125-1.6-4.9 1.527-1.568 3.184-.88 3.535-3.39l-.02 1.4c.78-.98 1.117-2.088 1.097-3.102-1.336-5.225-3.68-9.537-4.886-14.924l.392 1.927c-.523.652-.652-1.607-1.23-1.574l.69-1.205c-1.115-.33-1.062 2.708-2.14 1.99.134-.163.168-.557.074-.785l-.333 1.113c.354-2.517-1.637-4.51.148-6.403.224 4.902 3.254.75 3.828 5.552-.445-2.543 1.19-.452 1.676-.713.242-1.34-.855-.657-.485-2.16.803.035 1.528 3.27 2.12 1.832-1.245-.164-1.002-1.5-1.856-2.153.336-1.11.8.028 1.2-.46-.056-.618-.6-.98-.43-1.534l.767.42c1.1-3.1-1.172-.944-.84-4.47-1.02-.1-.78.98-.576 2.448-2.248.746-2.437-4.54-4.87-4.25-.376-3.333.945.882 1.562-1.958 1.523-1.565 1.638 2.1 2.716 2.812l.965-2.944c1.973.983 1.338 2.812 3.125 3.334.094-2.188-.392-1.927-1.1-4.15-1.487 3.594-1.227-1.564-3.14.5.5-1.664.9-1.14.9-3.558.43 1.534 1.602.062 1.637 2.09-.147-3.265-.578-2.383-.723-5.647-1.396-1.017-1.805 3.298-2.81-.627-.017-.85.512-.683.508-.185.543-2.804-1.73.576-2.44-1.186-.172-1.225.375-1.666.707-1.16-.773-1.837-1.7-.82-2.012-2.043l-.168.556c-.406-.522-2.38.91-2.473-1.733 0-1.93.78-1.326 1.246-1.37-.48-1.5-.076-2.652.41-3.68-.272.104-.547-.01-.555-.466-.45-2.548 1.172-1.465 1.375-2.414.688-3.63-2.565.453-2.642-3.596l-.444 4.703c-.673-.196-1.695-.297-1.677.717 1.022.095 1.898 1.764 1.746 3.334-1.188.453-1.32-4.217-2.603-1.57.203-.947-.128-2.258-.02-3.43 1.265 1.176.242-3.757 1.654-1.73-.314-5.13.56-5.88-.37-10.584.764.424 2.774 3.428 2.196 5.878l-.707.2c.854 3.067.802-2.4 2.01-1.833-1.935-3.787.913-8.4.207-13.026-.648.815-1.025-.104-1.69-.3.166 1.862.43 1.537-.39 2.906-.896-.26-.56-1.372-1.19-1.96-.985-.49-.016 1.403-.54 2.062-.52-1.77-.652-1.602-1.47-2.65.78-.978 1.227-.846 2.102-1.598.182-4.247-1.47-3.92-1.262-7.12-.03 1.168.753-.516.76.344l.057-.606c1.434 3.04 1.396 8.265 3.738 7.744-.223-2.483-1.543-4.282-1.598-7.315l.445.128c.094-2.19-.574.033-.986-.487-.8-2.452 2.252-3.17.58-4.865l-.356 2.51c-.965-1.894-.168.557-1.73.1-1.172-3.365-.387-9.18-1.54-13.95-.82 1.37-.854 1.76-.914 3.56-2.102-.813-1.805-1.537-3.608-.658l-.094 2.2-1.95.032a4.43 4.43 0 0 1 .259-1.723c-1.224-.3.37-3.32-.797-3.47l.164 1.862c-1.004.914-.9-1.278-1.242-2.584-1.266 1.242.07 4.05.163 6.695.708-.19 2.178 2.45 2.31-.128.797.033 1.227 1.57 1.242 2.584-.36-.468-1.757 1.446-2.474.236.5 1.414-.174.663.224 2.93-.54-.358.034 4.443-1.656 4.148.722.8 2.496-.042 2.578 2.91 1.168-.717 1.336-4.01 2.594-1.8l-.78-1.436c.54-2.057 1.21.56 1.69-2.124-.074.788.578 2.388-.262 2.744 2.477-.688 1.23 3.985 3.05 4.115-.742.59-.817 1.373-.613 2.85-.672-.202-1.32.614-1.785-.53.202-.946-.074-1.632.484-2.678-2.46.58-.773 3.816-1.29 6.265.197-.343.434-.44.787.237-.37 1.497-.8 4.798-1.974 3.852l.316 7.543c-.578.034-.243-1.076-.433-1.537l-.053 4.212c-.333.42-.523.22-.69-.18.14-4.08.014-8.204.783-15.944-2.51-4.062-5.408-3.073-7.11-9.867 1.095-2 3.312-1.125 1.6-10.354-1.12-.452-1.233 2.854-1.634 5.447-2.733-17.88-6.355-40.392-6.24-59.25 2.433 9.798 2.586-4.155 4.392-3.15l-2.677-18.713c1.58 5.153 3.228 17.718 6.068 27.362 2.725-5.04 7.655 6.377 7.688-6.73-1.988-5.064-2.18 4.038-4.056-4.35.938-3.57.347-7.458-.12-12.245 1.528.296 2.688 5.627 4.058 4.35-.617-6.354-2.862-9.665-3.98-10.11.54-1.022 1.813 1.006 2.037-3.173-.506-9.625-3.5-5.34-4.613-5.776 1.077-4.48 5.638-10.853 1.043-18.277l4.77 6.567c-.348-7.18-3.39-7.834-2.907-16.908.49 7.95 2.097 14.716 3.937 10.895-3.752-10.163 2.205-22.36-3.363-27.954l5.188 1.714c.23-14.468-3.644-5.377-5.086-15.4.77 3.812 1.926.277 2.523 4.92 1.434-1.197 1.523-10.797 1.16-17.88-.898-17.536-.183-32.97-.32-48.786 1.73 1.58 2.65-4.716 2.597-11.916 1.108 9.02-1.882 9.882-1.732 17.067l4.306-6.882c-4.07 7.727.92 13.768 2.303 18.163-1.08.512-4.362-3.556-4.202 6.082.512 4.153 1.642 2.042 2.252 3.024-1.084.52-3.097 3.978-3.272 10.36 1.452 1.18 2.24-4.22 3.747-4.62-.137 4.81-.457 8.728.725 12.225-1.293 8.498-2.11-.57-3.744 4.62.938 13.07 5.068 1.342 8.135 6.182a88.91 88.91 0 0 0 .637-3.18c.115 5.122.012 10.316-.74 13.86 1.746 6.623 3.23 1.484 4.478 10.588l-2.96 4.802c1.078 8.4.106 13.466 2.455 22.255l.892-4.872 1.16-45.94c-1.026-.707-1.934-7.156-3.135-6.373l1.38-18.854c-.56 2.4-1.024 6.354-1.57 10.87-1.173-8.457-3.702-8.793-3.55-21.21l.847-.21C79.05 958.2 82 917.153 80.426 880.876c-.244 2.447-.874 1.808-1.525 2.732.088-19.104.346-39.718-.502-59.35-.834-19.63-2.787-38.27-6.744-53.297.594 10.313-.3 24.225-.828 38.154-.506 13.937-.61 27.902 1.883 38.48-1.706 5.53-.736 13.28-1.233 18.4-.274-17.738-3.834-40.983-2.887-57.05-2.597 1.957-.044 16.44-.795 22.573L65.102 817.8l.91 22.854c-.648-.425-1.248-.314-1.8-.314 1.322.478 2.607 6.23 3.9 10.022.86 6.786 1.195 13.873 1.82 20.307-2.285 29.784 2.672 42.18 1.77 70.894-.36 2.104-.92 2.586-1.58 2.712.018.004.034-.004.054.002l.242 2.188-2.06.842c.44-1.572.912-2.754 1.455-2.994-.552.038-1.158-.03-1.774.438l-.144-4.895c.916-3.202 3.336-.838 3.867-8.007-.508 3.855-1.9.41-2.18 5.083-1.045-.757-1.728-5.567-2.093-10.808l-.123-4.236-.075.6-.103-3.313c-.507-28.325-4.836-50.897-3.346-78.85.018-.007.036-.001.053-.006-.668-.08-1.26-.52-1.765-2.596-2.886-28.633 1.224-41.332-3.15-70.997-3.44-2.9-1.435-15.138-4.344-22.677 1.758-10.725.688-24.65-.78-38.52-1.48-13.86-3.342-27.676-3.46-38.006-.32 1.674-.606 3.396-.873 5.15-.37-5.37-.994-10.456-2.188-14.6.268 5.83-1.363 15.707.467 21.65-.736 2.198.33 5.588-.713 6.5-.198 3.71.043 6.455.38 9.054-.142 3.386-.227 6.842-.262 10.354l-.37-4.852-.412 3.938c-.46-1.704-.127-5.855-1.057-6.33 1.113 5.645.243 14.672 1.555 19.598.234-2.316-.04-5.208.04-7.948.08-.288.152-.614.226-.942l.16 12.073.638 15.925-.16-.05c.064.06.113.123.167.187l.286 5.2c-.04.665-.028 1.34.117 1.997l.048.766c-.6.655-.962-1.2-1.008-3.312-.3 2.565.697 2.797.672 4.845l-1.46-1.94c1.395 2.178-.27 3.907-.74 5.143.357.146 1.468-1.003 1.384 1.73-.186 1.174-.554.573-.76.85.36.15 1.018 1.136 1.056 2.94-.487.33-.733-1.2-1.233-1.317.03 1.36.124 2.472-.28 3.458.406 2.408.704-.155 1.234 1.316-.35 3.698-1.693.37-2.73 1.73-.697-2.784-.916-6.368-1.305-7.86l.4 5.345c-.574-.323-.985 3.614-1.54.793-.525 5.324.11 11.76.573 16.866.198-.724.317-1.654.68-1.503.34 2.642-.375 2.348-.79 2.89.396 1.955 1.385 1.737 2.117 2.938-.832 4.033-.325 4.6-1.527 8.036l.988-.214c-.797 2.436.697 2.8.116 5.412-.212.146-.465-.858-.694-1.666.324 2.323-.834 2.142-.45 4.406l-1.103-1.797c.04 1.805.38 4.452-.562 3.52 1.13 3.153.684 8.686 1.334 12.623l-.856-.26c1.038 2.036-.052 7.485 1.192 9.253l-.35.3 1.15 4.055c-.102 1.835-1.39 1.212-1.033 1.36.227 4.027.297 7.188-.146 9.776 1.15.65 1.453 4.9 1.596 8.26-.156 3.555-.213 7.17-.213 10.805l-10.48-110.685c1.2-2.46.157-4.22-.622-6.565l-.508-5.352c.034-.22.056-.432.104-.662.676-1.396 1.672 4.635 1.595-1.3l-.72.34c.18-8.203 2.315-13.064 2.688-19.8-2.652-1.003-3.412 5.8-4.486 12.772l-.805-8.494a56.63 56.63 0 0 0 .016-3.31 9.69 9.69 0 0 0-.377-.512l-.44-4.664-.05-1.045c.058.507.246.7.722.3 1.014-1.59.47-4.6 1.9-5.308 1.32 3.706.9 2.824.633 7.87 1.07-.53 1.672-3.023 2.7-.812 1.137-12.588-3.527-25.032-.56-35.338-1.907 1.53-2.026-13.268-3.282-4.932l1.14.527c1.022 6.64-2.122 14.817-3.336 15.975 1.364-12.758-.064-14.775.214-28.688-2.166 5.537-.764-7.862-2.733-4.637-.233-3.17.227-6.734-.152-9.294 2.2 7.13 2.152-5.532 4.075-4.348.338 4.257-.975 8.812-2.606 9.1.022 2.75 1.653 2.445 2.72 1.892l.937 12.743c-.065-10.984 5.336.006 4.062-9.832-.374-2.568-2.913.42-2.33-6.5-.01-1.236.42-1.557.865-1.285-.837-2.773-1.55-5.888-.872-9.976-.747-.105-1.958 1.562-2.08-3.675-.02-7.182 3.23-3.368 3.848-4.802l.304 1.504c.42-3.334 1.97-.605 3.085-5.63-.498 1.39-1.402.212-1.213-3.124 1.02-4.82 4.894 4.275 3.824-3.325.04 1.354-.79 1.827-.826-.48 1.32-10.72 2.292 1 4.45-1.827-.012-8.887.744-6.505.723-15.397.106 5.522-1.887 1.57-2.454 5.765-.177-6.107-.722-5.304-1.55-8.77.053-.104.105-.216.158-.323 2.062 2.863 2.255-3.105 3.215-2.87l-.142-1.092c-.368.907-.876 1.768-1.67 2.48l-.825-3.66.07.005c-.05-.06-.077-.14-.116-.208l-.253-1.12c-.017-1.075.357-2.37.628-3.034l-1.082-.894.596-2.18c.2.4.505.588.975.494-.076-.864-.113-1.602-.12-2.236.113-.125.234-.238.373-.332l-.374.08c.003-5.48 2.373-2.845 1.457-7.887l-.19-.546.06-.014c-.254-1.992-.446-4.215.11-4.79.235 1.078.67 1.44 1.103 1.797.173-8.422-3.228-1.78-3.317-9.238l.64.086-.68-1.894.81-1.983c-2.186-2.688.198-10.47-.96-14.975-.18-1.77 1.116-4.102.973-7.467l-.986.22c1.004-2.716 1.637-12.824 3.922-15.358-.765-2.554-.207.27-.988.212-1.028-4.98.522-5.327 1.105-7.94-.493-3.067-.375 2.347-1.12.697.748-4.7-1.217-3.816-.562-9.62.555-.576.387 1.498.754 2.098-1.008-4.084-.395-11.695-.594-17.77.7-6.948.975-17.21 1.863-25.334l-.358-.15c.92-3.375.062-7.034.473-10.98l-.524 1.93c-.624-2.577-.23-4.024-.495-6.462l1.034-1.36c-.34-2.64-.875-1.166-1.412-3.083.656-2.4.05-7.485.098-8.63.478-.793.66.987.95 1.372-.348-3.095-1.336-2.876-1.348-6.723l.28-.063c-1.472-9.188-1.085-20.836-2.016-31.056-.054.692-.27.52-.478.786-.375-10.788-.43-23.237-2.88-31.768.268 5.83-1.363 15.707.467 21.65-.736 2.2.33 5.588-.713 6.5-.453 8.48 1.393 11.926 1.426 20.08-.188 1.17-.695.602-1.184.938l-.494-6.462-.412 3.938c-.46-1.704-.127-5.856-1.057-6.33 1.113 5.644.243 14.67 1.555 19.597.234-2.315-.04-5.208.04-7.948.33-1.205.572-3.07 1.072-2.95 1.445 7.84.734 14.34 1.19 22.394.115 2.02.032 4.757-.455 5.1-.172-1.325-.577-.325-.814-1.412.42 2.854 1.78.286 1.585 4.414l-1.713-.528c1.8 1.642-.315 5.05.74 7.988-.686 1.058-1.082-.892-1.13-3.15-.3 2.564.697 2.796.672 4.844l-1.46-1.94c1.395 2.18-.27 3.907-.74 5.144.357.146 1.468-1.003 1.384 1.73-.186 1.174-.554.573-.76.85.36.15 1.018 1.135 1.056 2.94-.487.33-.733-1.2-1.233-1.316.03 1.36.124 2.47-.28 3.458.406 2.407.704-.156 1.234 1.315-.35 3.698-1.693.37-2.73 1.73l-.012-.054a18.19 18.19 0 0 0-.665-3.703c-.234-1.69-.404-3.246-.627-4.104l.206 2.74c-.955-2.84-2.024-5.262-1.16-10.203l-2.875 1.035c2.406-12.426.695-14.273 1.784-28.696-2.605-4.002-5.48-2.942-7.342-9.696 1.047-2.024 3.283-1.203 1.353-10.39-1.133-.426-1.166 2.883-1.506 5.483-3.156-17.812-7.313-40.23-7.645-59.085 1.006 3.678 1.606 3.974 2.063 2.973a29.11 29.11 0 0 1 .45 1.884c.126-1.557.08-2.48-.01-3.332.502-2.147.917-5.248 1.812-4.775l-.54-3.226c.235-.464.464-.96.66-1.55l-.77.89-.4-2.385c.115-.622.292-.945-.264-2.495l.603.043c1.18 5.446 2.56 11.84 4.307 17.285.644-1.26 1.446-1.52 2.285-1.393-.198-2.817 1.157-5.592.186-9.32.446-.37.833-1.2 1.19-2.23.33-3.1-.215-6.46-.702-10.458 1 .17 1.896 2.472 2.768 3.697.35-.772.73-1.2 1.163-.98-.926-5.326-2.958-8.096-3.99-8.48.518-1.033 1.838.964 1.962-3.22-.734-9.61-3.626-5.256-4.75-5.663.97-4.507 5.38-10.983.6-18.3l4.925 6.452c-.517-7.17-3.575-7.75-3.3-16.833.68 7.934 2.446 14.66 4.194 10.797-3.993-10.07 1.674-22.406-4.026-27.865l5.226 1.59-.018-1.157c-.294-.146-.578-.295-.848-.518l-.16-6.123c-.155-.66-.714-1.088-1.344-1.666-.923-.563-4.398.21-5.89-2.437l.4-.91c.35-.044.693-.193.854-.11-.103-.37-.24-.8-.4-1.27.002-.01.005-.018.007-.026-.15-.937-.243-1.078-.322-.876l-1.015-2.724c-.324-1.118-.682-2.333-.345-5.324.555-.576.387 1.498.754 2.098-1.008-4.084-.395-11.695-.594-17.77.7-6.948.975-17.21 1.863-25.334l-.357-.15c.92-3.375.06-7.035.473-10.982l-.525 1.93c-.623-2.577-.23-4.024-.494-6.462l1.033-1.36c-.34-2.64-.875-1.166-1.412-3.083.656-2.41.05-7.485.098-8.63.48-.793.66.987.95 1.372-.348-3.095-1.336-2.876-1.348-6.723l.28-.063c-1.473-9.188-1.086-20.836-2.016-31.056-.055.693-.27.52-.48.786-.375-10.788-.43-23.237-2.88-31.768.268 5.83-1.363 15.707.467 21.65-.736 2.2.33 5.588-.713 6.5-.453 8.48 1.393 11.926 1.426 20.08-.188 1.17-.695.602-1.184.938l-.494-6.462-.412 3.938c-.46-1.704-.127-5.856-1.057-6.33 1.113 5.644.244 14.67 1.555 19.597.234-2.315-.04-5.208.04-7.948.33-1.204.572-3.07 1.072-2.95 1.445 7.84.734 14.34 1.19 22.394.115 2.02.033 4.757-.455 5.1-.172-1.324-.576-.324-.814-1.41.42 2.854 1.78.285 1.586 4.413l-1.713-.528c1.81 1.642-.316 5.05.74 7.988-.686 1.058-1.082-.892-1.13-3.15-.3 2.564.697 2.796.672 4.844l-1.46-1.94c1.395 2.18-.27 3.907-.74 5.144.357.146 1.47-1.003 1.385 1.73-.186 1.175-.555.573-.762.85.36.15 1.018 1.135 1.057 2.94-.488.33-.734-1.198-1.234-1.316.03 1.36.125 2.47-.28 3.458.406 2.407.705-.156 1.234 1.315-.274 2.922-1.172 1.465-2.047 1.393-.174-.45-.368-.803-.592-.984-1.48-9.334.707-21.943-.624-26.854.796-1.562 1.322-3.37 1.713-5.312-.396-5.154-.948-10.412-1.75-15.86-.02-.007-.034.002-.052 0 .658-.144 1.205-.64 1.515-2.75.218-28.774-5.052-41.04-3.448-70.983 3.157-3.206.024-15.204 2.222-22.98-.702-2.684-1.236-5.596-1.643-8.672-.86-.08-1.715-1.393-2.572-5.168 1.266-4.095-.465-2.197-.975-5.48.567-3.856 1.404-4.462 2.41-6.2-.075-3.705-.072-7.49-.033-11.282-1.285.215-1.67 11.148-3.116 1.317l2.573-3.38c-3.027-2.572-3.894-9.65-3.512-17.097-.842 1.486-1.733 1.896-2.723.154 2.195.297.28-9.6 2.73-7.645.26 1.638-1.107 3.598.09 5.89-.567-4.364.38-3.676.96-6.82-.464-1.256-.812-1.902-1.09-2.19-.293-.303-.503-.218-.685-.01zm77.142 1384.82c.897-.5.677-3.712 1.485-2.488l.39 5.183c-.574-.323-.984 3.614-1.54.793-.043.434-.066.885-.095 1.333-.266-1.607-.48-3.32-.238-4.82zm5.405-62.48c.398 4.344 1.283 7.73 1.307 13.355-.188 1.17-.695.602-1.184.938l-.494-6.462-.412 3.938c-.46-1.704-.127-5.856-1.057-6.33 1.113 5.644.242 14.67 1.555 19.597.234-2.316-.04-5.208.04-7.948.33-1.205.572-3.072 1.072-2.95 1.445 7.84.734 14.34 1.188 22.394.115 2.02.032 4.757-.454 5.1-.173-1.325-.578-.325-.814-1.412.42 2.854 1.78.286 1.585 4.414l-1.714-.53c1.81 1.642-.314 5.05.742 7.99-.687 1.057-1.082-.892-1.13-3.15-.3 2.565.696 2.796.672 4.844l-1.46-1.94c1.395 2.178-.27 3.907-.74 5.143.356.146 1.468-1.003 1.384 1.73-.187 1.174-.554.573-.76.85.358.15 1.018 1.135 1.056 2.94-.487.33-.733-1.2-1.233-1.317.03 1.36.125 2.47-.28 3.458.406 2.408.705-.156 1.234 1.316-.35 3.698-1.693.37-2.73 1.73-.67-2.674-.9-6.064-1.26-7.653.025.042.057.104.086.156-.27-.675-.5-2.93-1.29-2.255.316.295.06.62.113 1.24l-1.207-.552c.5-1.667-1.043-3.533-.315-5.132.965-.522.63 3.003 1.766 1.928-1.805-1.537-2.582-7.805-1.82-9.8.242-1.34 1.752-1.498 1.916-2.057l-.13-2.25c.483-.264 1.062-.298 1.676-.717.336-1.11-.168-1.863-.445-2.55.965-2.937 2.195-1.368 3.2.137l-.504 1.658c.687 1.21.406 2.944 1.765 1.927-.147-.84-.722-.812-1.038-1.11l.78-.975c-.598-.98-.914-3.692-1.973-3.402.762-1.988-.168-4.273.7-6.038-.688 1.2-1.117-.326-1.953.032l-.315 2.12c-.3-1.698-1.1-4.148-.37-5.75.668.196.89.26 1.543-.55-.914 1.14-1.207-2.972-2.364-.494.372.913.52 1.764.41 2.944-1.454.775-1.617-1.085-2.438-2.127-.332-1.307-.78-3.857-1.302-5.62.336-1.1 1.972-1.436 1.004-3.333-1.375 2.416-2.305-2.284-3.733-2.9.63-1.83-1.21-2.97-.04-4.438.504.75.465 3.56 1.543 4.277 1.022.102 2.7-.62 3.238 2.157.514-3.337-.88-1.96-1.298-3.497l.142 1.143c-.407-.52-1.188.46-1.207-.553.375-3.917 1.468-4.605 2.754-7.25-.743.6-1.434-.62-1.49-1.243.77-2.104 1.754-.713 2.935-1.046l-.222.17.575 3.725c.663-1.477.123-2.264.257-4.24.054-.045.104-.084.16-.14-.95-.886-.67-2.62-1.414-2.032-.02-1.008.39-.485.688-1.206-.854-.65-1.354-1.407-1.336-2.806.445.127 1.113.323.87 1.664.375-1.503 1.918-2.054 2.773-1.402l-.578 2.447c1.043 1.113.45-2.283 1.47-2.19.242 1.08-.4 1.894-.13 2.582.252-.16.383-.4.443-.685zm-.517-3.364c.05-.545.174-.878.334-1.083a45.38 45.38 0 0 0 .072 2.933c-.15-.657-.36-1.33-.406-1.85zm-22.54-25.947a2.7 2.7 0 0 0-.537-.299l-.086-.77c.25.264.47.6.623 1.07zm1.157-12.148c-.188 1.962-.094 4.605-.594 6.27-.526-1.03-1.196-1.264-1.835-.983l-.77-6.198.67-1.44c-.316 2.124 1.672 1.697 2.53 2.352zm-.18-33.278c-.127 2.258.055 5.046 1.47 6.464l-2.007-.6.224 2.484c-1.212 1.857-1.285-2.19-1.396-3.43-.21 3.366-.078 5.62-.02 8.655.424-.885.836-.358 1.45-.78.82 1.042.223 2.48.465 3.56-.484.262-.93.13-1.078-.718l.258 2.086c-1.246-.166-1.228.852-2.062-1.2l.4 1.927c-.314 2.126-1.02-.095-1.434-.618l-.202 3.363c.688 1.206 1.1-.686 1.447 1.632-.765 2.162-.79 4.74-.85 7.295-.734-4.852-1.662-9.3-3.02-12.807 3.06 3.073 1.354-6.178.768-12.528l3.766 6.09c-1.733-7.897 1.777-7.512.203-15.623.54 1.678 1.12 3.6 1.63 4.75zm2.48-4.12c-1.35-.833-1.115.412-1.484 1.2a18.44 18.44 0 0 0-.633-3.813c.42.08.78-.22.98-1.142-.017 1.406.595 3.398 1.138 3.754zm-2.662-7.02c.04 1.152-.154 1.354-.418 1.226a18.06 18.06 0 0 1-.471-2.012c.324.21.63.454.89.786zm-3.52-5.993l-.075.025.078-.365c.003.116-.002.227-.003.34zm1.6-.537l-1.04.347c-.053-.577-.062-1.232-.232-1.766l.34-1.8c.533.863 1.024 1.692.934 3.23zM49.83 853.288l.64.087-.678-1.894.81-1.984c-2.186-2.688.197-10.47-.96-14.974-.18-1.77 1.115-4.102.973-7.467l-.985.22c.6-1.65 1.086-6.038 1.878-9.793 1.822 24.436 3.846 48.836 2.762 69.764l.858.15c1.095 13.408-1.933 12.883-2.18 23.702.777-1.397.857-7.623 2.494-4.98.47 3.978-.15 21.714 2.2 29.957-1.283 6.73-3.12 1.704-3.734 10.872l3.285 4.585c-.494 8.457.824 13.44-.912 22.37l-1.226-4.8-7.282-76.92c.425-1.988 1.43-2.956 2.082-4.913l-.967 1.118c-.785-3.453.516-2.38-.466-5.107l1.563.112c-.8-.96-.146-3.37.26-4.363l-1.082-.893c.592-2.174.842-3.6 1.82-4.253l-.99.213c.623-.82-.107-8.36 1.577-5.78-.225-.63-.735-1.206-.62-2.587l.985-.2c-.254-1.992-.446-4.215.108-4.79.236 1.078.67 1.44 1.104 1.797.17-8.423-3.227-1.782-3.317-9.24zm-7.633-261.6l-.053.062-.05-.23c.035.06.07.11.104.167zm-3.373-.328c-.254-.113-.542-.413-.877-.958-1.226-7.685-2.985 3.83-2.665-5.243 1.307.225 2.16-1.227 2.85-3.186l.69 9.387zm-1.52-29.153c-1.586.857-3.404.174-3.344 8.073-3.03-5.045-.036-10.564-.848-17.38l.643 3.002c.127-.624.03-1.69-.196-2.126 1.656-2.017 1.863 6.24 3.617 5.282l-1.222-3.235c.75.048.885-3.958 1.385-4.573-.086 3.625-.092 7.286-.035 10.957zm-.317-34.395c-.055.226-.134.4-.225.51-.104-.227-.213-.444-.326-.65zm-.494-50.007c.34 2.642-.375 2.348-.79 2.89.396 1.955 1.385 1.737 2.117 2.938-.832 4.033-.325 4.6-1.527 8.035l.988-.213c-.797 2.436.697 2.8.116 5.412-.212.146-.465-.858-.694-1.666.324 2.323-.834 2.142-.45 4.406l-1.103-1.797c.036 1.63.313 3.938-.326 3.688-.987-6.543-2.17-12.628-4.042-17.146 1.998 1.914 1.936-1.146 1.438-5.26-.313-.087-.613-.476-.867-1.283-.008-1.53.07-2.697.206-3.614l-.308-2.387.625.958c.834-2.658 2.444-2.126 3.172-5.787.005 4.188.43 8.6.766 12.33.2-.726.318-1.656.68-1.505zm-1.28-14.984c-.01.12-.017.243-.026.364l-.195-1.003.22.64zM18.487 232.297c-.265 1.283-.394 2.214-.485 3-.294-1.226-.337-2.517-.278-3.837.262.213.526.45.763.838z" fill="#d3d3d3"/></svg>