<svg xmlns="http://www.w3.org/2000/svg" preserveAspectRatio="none" viewBox="0 0 1500 150" fill="#d3d3d3"><path d="M1500 38.415v-2c-2.305.526-4.86.98-7.744 1.03 2.775-.05 5.468.576 7.744.97zM801.276 71.143c.097-.23.294-.506.627-.85-.287.278-.996.585-1.95.88l1.322-.028zm-107.26 2.324l4.363-.094.442-.1c-1.13-.446-3.465.105-4.805.203zm438.482-9.502l2.726-.06c-.001-.012-.005-.022-.005-.035-1.08-.014-1.97.024-2.72.096zm23.506-.5l4.902-.105c-1.636-.127-3.308-.118-4.902.105zM0 0v56l102.646 2.594c.962-.5 1.653-1.06 2-1.652 9.222.666 20.336-.35 34.48-2.06.445-1.107-1.472 2.9 5.018 2.744l14.032-4.482 1.132.967c5.955-4.174 25.393-2.313 32.337-5.942l-.73 2.627c13.732-2.957 33.318-3.05 44.177-7.25-3.073 3.06 6.178 1.354 12.528.768l-6.1 3.765c7.897-1.733 7.512 1.778 15.623.204-2.8.897-6.272 1.914-5.713 2.512 9.364 1.055 10.287-3.508 19.04-1.76l-.967-2.9c12.367 2.7 14.252 1.034 28.646 2.465 4.062-2.5 3.073-5.408 9.867-7.1 2 1.095 1.125 3.312 10.354 1.6.452-1.12-2.854-1.233-5.447-1.634 17.88-2.733 40.392-6.356 59.25-6.24-9.798 2.433 4.155 2.586 3.15 4.392l18.713-2.677c-5.153 1.58-17.718 3.228-27.362 6.068 5.04 2.725-6.377 7.655 6.73 7.688 5.064-1.988-4.038-2.178 4.35-4.055 3.57.938 7.458.346 12.245-.12-.296 1.528-5.627 2.7-4.35 4.057 6.354-.617 9.665-2.862 10.1-3.98 1.022.54-1.006 1.813 3.173 2.037 9.625-.506 5.34-3.5 5.776-4.613 4.48 1.077 10.853 5.638 18.278 1.043l-6.568 4.77c7.18-.348 7.834-3.4 16.908-2.908-7.95.5-14.715 2.097-10.894 3.936 10.163-3.752 22.36 2.205 27.954-3.363l-1.714 5.188c14.468.23 5.377-3.644 15.4-5.086-3.812.772-.278 1.925-4.92 2.524 1.197 1.433 10.797 1.523 17.88 1.16 28.292-1.45 51.1 1.3 78.892-2.108.006-.02-.002-.036.002-.054.126.662.606 1.222 2.712 1.582 28.763.9 41.148-4.076 71.045-1.762 3.13 3.23 15.2.385 22.922 2.766 10.578-2.494 24.545-2.4 38.48-1.883 13.93.52 27.84 1.422 38.154.828-15.026 3.957-33.667 5.9-53.296 6.744s-40.246.6-59.35.502c.926.652.285 1.282 2.732 1.526C583.058 61 542 58.043 509.8 61.956l-.2-.846c-13.45-.166-12.72 2.817-23.495 3.812 1.34-.872 7.546-1.382 4.794-2.832-4-.194-21.65 1.65-30.037-.127-6.623 1.746-1.484 3.23-10.588 4.478l-4.8-2.96c-8.402 1.077-13.466.106-22.255 2.455l4.872.9 226.758 5.73c2.37-1.368 4.198-.448 6.594.167l5.373.137c.217-.05.427-.086.652-.15 1.348-.77-4.738-1.35 1.187-1.68l-.3.74c8.172-.746 12.875-3.213 19.567-4.05 1.184 2.577-5.56 3.805-12.433 5.357l8.53.216c.975-.103 2.06-.187 3.3-.244a8.5 8.5 0 0 1 .537.341l4.683.118 1.046-.022c-.5-.022-.715-.197-.35-.7 1.516-1.12 4.557-.786 5.164-2.262-3.8-1.062-2.88-.703-7.896-.088.456-1.104 2.9-1.877.623-2.76 12.48-2.003 25.216 1.8 35.292-1.883-1.396 2 13.376 1.105 5.146 2.934l-.606-1.102c-6.693-.56-14.635 3.14-15.705 4.432 12.633-2.242 14.745-.957 28.604-2.195-5.374 2.543 7.896.22 4.814 2.406 3.18.014 6.703-.7 9.282-.5-7.266-1.703 5.37-2.53 4.056-4.365-4.27-.044-8.723 1.58-8.897 3.23-2.744.168-2.554-1.48-2.075-2.582L738.223 68c10.964-.693-.374-5.322 9.528-4.73 2.588.195-.218 2.935 6.655 1.873 1.233-.074 1.523-.527 1.222-.95l-3.168-.707c1.6-.3 2.807.188 3.168.707 2.826.643 5.98 1.14 10.013.18-.04-.187-.148-.35-.554-.425l1.52.2c-.33.096-.644.146-.97.226.157.737-1.423 2.062 3.8 1.82 7.164-.477 3.137-3.454 4.523-4.17l-1.52-.2c3.297-.648.47-2.008 5.403-3.467a4.84 4.84 0 0 1 1.103-.312c-.455.103-.747.208-1.103.312-1.35.593-.114 1.414 3.2.994 4.737-1.35-4.604-4.586 3.054-4.045.266-.012.54.004.87.062l-.87-.062c-1.353.053-1.77.914.537.8 10.602-2.057-1.155-2.217 1.515-4.565 8.867-.603 6.438-1.2 15.312-1.784-5.517.275-1.438 2-5.58 2.846 6.57-.264 5.178.45 9.73 1.073-4.233-2.1 2.396-2.726 2.077-3.72l1.098.065c-.88.43-1.7.996-2.357 1.836l8.063 1.24c-1.897 1.796-11.824 2.36-7.478 4.635 7.75.692-3.614 3.243 5.414 2.297-.94-3.867 13.416-4.695 11.26-8.217-3.98.473-6.9.963-6.7-.68 8.796.165 4.52-2.686 10.258-2.05l1.686.455-.938 1.076c1.077.153 1.875-.256 2.85-.56l1.536.414c-.3.443-.883.896 1.08 1.178.297-.246.65-.438 1.035-.604l.765.206c-.538.266-.902.53-.912.8 3.22.354 2.748-.605 4.148-.912.486.193 1.02.363 1.6.514-.72 1-3.14 2.58 1.13 2.16l1.013-.12c-.376.053-.708.1-1.013.12-11.4 1.483-.928 5.728-13.862 6.524 5.243 2.675 10.543-.694 17.397-.355l-3.04-.434c.613-.17 1.686-.148 2.135.05 1.896-1.8-6.354-1.428-5.52-3.243l3.312.995c-.122-.924 6-1.332 4.2-2.1l-5.215.8c5.148-.854 9.926-1.922 14.578-3.055 5.754.193 11.323.47 14.48 1.94l-.85-2.592c13.853 2.332 33.423 1.535 44.46 5.24-2.048-1.86 1-2 5.146-1.8.108.308.517.58 1.34.776 1.526-.098 2.686-.256 3.6-.455l2.402.143-1-.557c2.896-1.135 1.74-2.96 6.98-3.88a12.07 12.07 0 0 1-.89-.17c1.13-.084 2.478-.05 4.25.2-2.827-.77-6.353-1.63-5.82-2.25 9.307-1.48 10.437 3.037 19.1.894l-.835 2.94c12.23-3.258 14.2-1.68 28.505-3.762 4.173 2.322 3.315 5.264 10.18 6.655 1.948-1.185.974-3.358 10.27-2.067.503 1.1-2.796 1.362-5.366 1.88 17.986 1.918 40.64 4.517 59.472 3.545-9.898-1.984 4.034-2.77 2.946-4.528l18.814 1.824c-5.22-1.345-17.845-2.42-27.608-4.82 1.214-.73 1.415-1.548 1.23-2.376 2.824.003 5.5-1.54 9.284-.83.34-.47 1.142-.914 2.144-1.34 3.068-.544 6.46-.23 10.48-.022-.238-.986-2.597-1.72-3.88-2.506.746-.402 1.137-.8.896-1.228 5.378.556 8.28 2.392 8.735 3.396.996-.588-1.088-1.767 3.076-2.18 9.64.068 5.494 3.254 5.98 4.348 4.43-1.28 10.586-6.125 18.213-1.873l-6.777-4.468c7.188.02 7.98 3.03 17.02 2.14-7.962-.13-14.795-1.428-11.06-3.438 10.322 3.288 22.236-3.217 28.076 2.092l-1.945-5.104 1.156-.062c.164.283.334.556.573.8l6.12-.264c.67.108 1.135.637 1.755 1.226.735 1.034 1.302 2.213 6 2.674-1.4-.22-1.832-.535-2.035-.866 5.532 1.135 22.4-.252 26.546-3.154 2.94 1.793-6.654 1.334-5.223 2.867 4.36 1.13 9.417-1.38 13.958-.6l1.5-1.943c-1.686.1-2.57-.307-3.37.205-.778-.525-.135-.902 1.002-1.197l3.816-.18c.15.698 6.424.606 7.54 1.798 9.413.83 21.843-2.22 26.834-1.232 1.502-.902 3.27-1.552 5.182-2.076 5.17.04 10.453.227 15.943.65.008.02 0 .034.005.052.097-.666.554-1.246 2.638-1.7 28.7-2.205 41.292 2.205 71.053-1.463 2.98-3.37 15.166-1.074 22.773-3.804 2.726.515 5.667.847 8.764 1.04.14.854 1.508 1.614 5.334 2.2 3.997-1.546 2.224.312 5.535.594 3.8-.832 4.354-1.7 6.02-2.834 3.7-.18 7.477-.445 11.257-.746-.125 1.297-11.006 2.436-1.1 3.2l3.194-2.8c2.775 2.842 9.896 3.218 17.298 2.322-1.425.942-1.77 1.86.033 2.728-.447-2.17 9.56-.94 7.438-3.253-1.65-.146-3.512 1.353-5.88.315 4.394.265 3.64-.633 6.74-1.428 6.924 2.028-3.934 1.906 5.733 4.053 6.548.22 13.02.08 17.764-.57l-4.13-1.543 6.096-1.946c1.078-.023-4.545 4.096 3.114 1.93 4.078-1.18-.62-2.894 2.888-4.233-4.458-.63-8.046.353-12.358.44l.878 1.617-3.963-.824c1.564-2.938 14.674.233 14.983-3.405-.167 1.06 1.464 1.48 3.365 1.68.65.413 2.227.666 5.173.538.077-.02.127-.038.194-.057.205.146-.06.378-1.07.766 7.488-.52.55-2.56 6.293-3.582l3.465 1.02c5.758-1.028-3.708-2.103 1.542-2.934-.695 1.823 4.938 2.805 7.8 3.652l-3.446.797-1.502-.314c.743-.524 1.438-1.138-1.656-1.078-2.315-.68-12.505 2.438-8.216 4.713 3.884.464 5.588-1.75 9.32-2.006-.236 3.996 8.126.015 6.88 4.4 7.988-.704 5.796-3.384 7.57-5.233.73.892-1.554 2.935 3.188 2.297l-.033-2.234a1.133 1.133 0 0 1-.008-.486l.008.486c.462 2.027 6.7 2.658 10.57 3.66l2.36 1.983c5.12-1.053 11.126-2.23 6.607-3.312l-3.796-.17c3.172-.88 8.767-2.94 14.15-3.916-1.846.427-8 4-1.935 5.46 2.984-.685 5.06-1.4 7.492-2.065V0H0zm1342.122 23.04l.608.284-1.13.548-.598.013c.376-.32.788-.613 1.12-.845l-.732-.34c1.796-.43 1.498-.198.732.34zm-67.16-2.306c7.744.967-1.947 1.74-2.302 2.452 1.897.422 3.338.955 4.783 1.473l-5.28.206c-.162-1.432-3.416-2.403 2.8-4.13zM1250.686 20c9.243 1.222-3.462 3.676 8.634 3.576-2.804 1.406-2.248 1.258-3.3 2.038l-3.122.16c.834-.177 1.542-.52 2.062-1.143-7.64-.027-7.293-.747-10.062-2.907 4.728.424 2.855-1.326 5.787-1.723zm-.32 5.902l-4.776.242c-.015-.055-.032-.106-.046-.164-4.627.497-1.692.096-5.967-.126 3.343-1.2 7.498-.138 10.8.048zM555.432 47.027c.47.617.4 1.224.438 1.774-.567-1.286-6.395-2.172-10.27-3.198-9.668-.554-19.9.002-28.05-.87 17.485-3.615 49.308.1 69.344-2.467-1.772 2.725-16.398 1.18-22.464 2.353l13.86 1.74-22.86.67zm281.6 3.498l.104-.098c.02.014.044.023.063.036l-.167.062zm82.515 2.202c1.45.25 2.615.336 3.606.32a19.68 19.68 0 0 0-1.964.595l-1.642-.916zm8.693-.33a9 9 0 0 1-1.584.112l.17-.048a16.8 16.8 0 0 1 1.415-.064zm117.368-3.755c-.8-1.635-2.04-3.168 1.202-3.978 1.664.216 3.594.383 5.976.483.02 0 .033-.002.053-.004.294.86-2.38 1.437.208 2.252-2.08.64-5.18.918-7.44 1.247zM1293.776 25.9c.896-.695.227-1.295 2.66-1.65l-6.424.062c3.194-.612 6.513-1.115.6-2 1.2-1.055 3.767-1.453 6.56-1.767.636-.27 1.9-.473 4.45-.577l.13.056c1.853-.266 3.403-.664 4.413-1.323-.223-.333-.17-.598.795-.65-.17.263-.5.454-.795.65.522.834 2.833 2.188-2.308 2.304l-2.105-.98c-1.475.203-3.05.35-4.582.52-1.726.735 1.812 1.974.375 3.24 4.72-.06 10.68-.18 13.63 1.245l-17.413.88zm20.328-1.02c.02-.614-1.078-1.274.353-2.025-2.134-.1-3.833-.02-4.537-.794 6.838.554 6.217-3.7 16.288-2.965 9.407.888-.026 2.202 3.8 4.433 1.415 1.55 3.113-.746 5.685-.416l.68.88-22.277.886zm133.284 4.073l1.13.352-1.233.285c-.863.017-.4-.28.104-.637zm32.605 2.934l-2.62-.117c1.186-1.986 1.723-4.34 5.8-4.146-.464-.56-2.446-.382-3.73-.126a6.29 6.29 0 0 1-1.082.396c-.22-.064.3-.243 1.082-.396 2.205-1.062 3.152-3.062 7.748-1.403-3.787 2.206-3.17 3.116-7.2 5.792zM932.157 53.74c7.64-.048 7.124-.658 4.608-1.45.36.702-2.326 1-4.608 1.45zm4.506-1.7c-.578-.116-1.008-.153-1.52-.226l1.623.474c-.043-.083.047-.15-.102-.248zm286.77-10.644c-9.634 1-19.87.9-27.98 2.144 17.633 2.817 49.25-2.35 69.385-.683-1.895-2.643-16.436-.437-22.548-1.332l13.77-2.365-22.87.367c.438-.637.345-1.24.357-1.793-.513 1.3-6.292 2.46-10.114 3.662zm10.135-3.968a2.24 2.24 0 0 0-.023.307.485.485 0 0 0 .023-.307zm35.83 10.9l2.068-2.692c-7.275 1.1-10.17-.413-15.323 2.054l13.255.638zm-5.54-8.8l11.12-.717-6.96-.62zM1101.66 50.94l26.887 1.6-25.175-1.993-1.712.383zM931.3 56.686l11.63 1.604c-2.955-.992-7.1-.547-9.92-1.958l-1.7.354zm-114.44 2.612c-5.896 3.915-1.643-.34 2.6 3.942-1.174-1.5 4.032-3.035-2.6-3.942z"/><path d="M819.684 63.47l-.226-.23a1.47 1.47 0 0 0 .226.23zm-17.67-5.9c-2.187-.737-4.4-1.477-8.43-1.444 2.945.98 3.064 3.326 8.43 1.444z"/></svg>