<svg xmlns="http://www.w3.org/2000/svg" preserveAspectRatio="none" viewBox="0 0 1500 150"><path fill="#d3d3d3" d="M1499.996 10.446V0H0v88.667c.753.23 1.604.502 2.478.468-.912.036-1.727.262-2.478.54v6.466c1.966.1 3.74.27 2.282 1.223.63-.225 1.206-.734 2.587-.62l.2.985c1.992-.254 4.215-.445 4.79.11-1.078.234-1.44.67-1.797 1.104 8.422.172 1.78-3.23 9.24-3.317l-.086.64 1.874-.672c.59.352 1.02.776.897 1.33 1.005-.277.54-.586.166-.91l.94.384c2.688-2.187 10.47.197 14.974-.96 1.77-.18 4.102 1.115 7.467.973l-.22-.986c2.716 1.004 12.825 1.637 15.36 3.922 2.553-.765-.27-.207-.212-.988 1.83-.377 3.032-.406 3.953-.264.29 1.085-1.93 1.766 1.072 2.25 2.008.252 2.858-.415 3.618-1.02.243-.065.288-.117.208-.164.565-.44 1.133-.8 2.157-.654-.044-.082-.112-.13-.176-.186 1.19-.287 2.125-.77 4.625-.65-.06.226-.015.444.075.655-.3.046-.596.105-.765.21.25-.062.512-.115.786-.165.2.438.5.827.13 1.1 1.025-.19 1.972-.438 2.4-1.095a6.1 6.1 0 0 1-.764-.244c2.115-.2 4.66-.21 7.293-.187-.506.418-3.434.862-.778 1.438 1.22-.57 1.447-1.01 1.385-1.435l6.364.016c.345.48-1.2 1.375 1.165 1.922 1.077-.24.392-1.34 2.128-1.062-.206-.274-.364-.5-.5-.715 6.838.58 16.058.88 23.493 1.694l.15-.358c3.375.922 7.035.062 10.982.474l-1.93-.524c2.577-.623 4.024-.23 6.462-.494l1.36 1.033c2.64-.34 1.166-.875 3.083-1.412 2.4.656 7.486.05 8.63.098.793.48-.987.66-1.372.95 3.095-.348 2.876-1.336 6.723-1.348l.063.28c9.188-1.472 20.836-1.085 31.056-2.017-.693-.054-.52-.27-.786-.478 10.788-.375 23.237-.43 31.767-2.88-5.83.27-15.707-1.363-21.65.467-2.2-.735-5.588.33-6.5-.713a53.85 53.85 0 0 0-1.72-.062c-1.03-.625-3.03-1.103-1.116-2.123 1.176-1.267 4.147-1.1 6.238-1.355-1.795-1.434.2-2.047 2.354-2.53-2.81-.035-.72-1.672-4.018-.727l-.065-1.152c1.406.02 3.07.52 4.474.543-.292.312.033.572-.427.762l4.185-.52-.426.762c2.58.13 5.75 1.004 7.286.577-1.242.1-2.318-1.022-1.015-1.358.753-.5 2.125-1.06 3.3-.948.62 1.32 5.063 1.284 2.253 2.625 3.624-.688 2.286-.93 5.75-1.746l-2.32.35c-.292-1.058 1.635-2.826-.587-3.494 2.612-.672.946-2.552 4.444-2.79 1.42.64-.424 2.14-2.387 2.4.99.084 1.888.663 2.9-.066.748.87-1.862 1.543-1.764 1.895 1.798.057-.034-.574 1.663-.87 2.973-1.21 1.894 1.784 4.737 1.023-.622.055-1.728-.28-.98-.783 3.82.02 2.125-1.06 4.9-1.6 1.568 1.527.88 3.184 3.39 3.535l-1.4-.02c.98.78 2.088 1.117 3.102 1.097 5.225-1.336 9.537-3.68 14.924-4.886l-1.927.392c-.652-.523 1.607-.652 1.574-1.23l1.205.69c.33-1.115-2.708-1.062-1.99-2.14.163.134.557.168.785.074l-1.113-.333c2.517.354 4.51-1.637 6.403.148-4.902.224-.75 3.254-5.552 3.828 2.543-.445.452 1.19.713 1.676 1.34.242.657-.855 2.16-.485-.035.803-3.27 1.528-1.832 2.12.164-1.245 1.5-1.002 2.153-1.856 1.11.336-.028.8.46 1.2.618-.056.98-.6 1.534-.43l-.42.767c3.1 1.1.944-1.172 4.47-.84.1-1.02-.98-.78-2.448-.576-.746-2.248 4.54-2.437 4.25-4.87 3.333-.376-.882.945 1.958 1.562 1.565 1.523-2.1 1.638-2.812 2.716l2.944.965c-.983 1.973-2.812 1.338-3.334 3.125 2.188.094 1.927-.392 4.15-1.1-3.594-1.487 1.564-1.227-.5-3.14 1.664.5 1.14.9 3.558.9-1.534.43-.062 1.602-2.09 1.637 3.265-.147 2.383-.578 5.647-.723 1.017-1.396-3.298-1.805.627-2.81.85-.017.683.512.185.508 2.804.543-.576-1.73 1.186-2.44 1.225-.172 1.666.375 1.16.707 1.837-.773.82-1.7 2.043-2.012l-.556-.168c.522-.406-.91-2.38 1.733-2.473 1.93 0 1.326.78 1.37 1.246 1.5-.48 2.652-.076 3.68.41-.104-.272.01-.547.466-.555 2.548-.45 1.465 1.172 2.414 1.375 3.63.688-.453-2.565 3.596-2.642l-4.703-.444c.196-.673.297-1.695-.717-1.677-.095 1.022-1.764 1.898-3.334 1.746-.453-1.188 4.217-1.32 1.57-2.603.947.203 2.258-.128 3.43-.02-1.176 1.265 3.757.242 1.73 1.654 5.13-.314 5.88.56 10.584-.37-.424.764-3.428 2.774-5.878 2.196l-.2-.707c-3.067.854 2.4.802 1.833 2.01 3.787-1.935 8.4.913 13.026.207-.815-.648.104-1.025.3-1.69-1.862.166-1.537.43-2.906-.39.26-.896 1.372-.56 1.96-1.19.49-.985-1.403-.016-2.062-.54 1.77-.52 1.602-.652 2.65-1.47.978.78.846 1.227 1.598 2.102 4.247.182 3.92-1.47 7.12-1.262-1.168-.03.516.753-.344.76l.606.057c-3.04 1.434-8.265 1.396-7.744 3.738 2.483-.223 4.282-1.543 7.315-1.598l-.128.445c2.19.094-.033-.574.487-.986 2.452-.8 3.17 2.252 4.865.58l-2.51-.356c1.894-.965-.557-.168-.1-1.73 3.365-1.172 9.18-.387 13.95-1.54-1.37-.82-1.76-.854-3.56-.914.813-2.102 1.537-1.805.658-3.608l-2.2-.094-.032-1.95a4.43 4.43 0 0 1 1.723.259c.3-1.224 3.32.37 3.47-.797l-1.862.164c-.914-1.004 1.278-.9 2.584-1.242-1.242-1.266-4.05.07-6.695.163.19.708-2.45 2.178.128 2.31-.033.797-1.57 1.227-2.584 1.242.468-.36-1.446-1.757-.236-2.474-1.414.5-.663-.174-2.93.224.358-.54-4.443.034-4.148-1.656-.8.722.042 2.496-2.91 2.578.717 1.168 4.01 1.336 1.8 2.594l1.436-.78c2.057.54-.56 1.21 2.124 1.69-.788-.074-2.388.578-2.744-.262.688 2.477-3.985 1.23-4.115 3.05-.59-.742-1.373-.817-2.85-.613.202-.672-.614-1.32.53-1.785.946.202 1.632-.074 2.678.484-.58-2.46-3.816-.773-6.265-1.29.343.197.44.434-.237.787-1.497-.37-4.798-.8-3.852-1.974l-7.543.316c-.034-.578 1.076-.243 1.537-.433l-4.212-.053c-.42-.333-.22-.523.18-.69 4.08.14 8.204.014 15.944.783 4.062-2.51 3.073-5.408 9.867-7.11 2 1.095 1.125 3.312 10.354 1.6.452-1.12-2.854-1.233-5.447-1.634 17.88-2.733 40.392-6.355 59.25-6.24-9.798 2.433 4.155 2.586 3.15 4.392l18.713-2.677c-5.153 1.58-17.718 3.228-27.362 6.068 5.04 2.725-6.377 7.655 6.73 7.688 5.064-1.988-4.038-2.18 4.35-4.056 3.57.938 7.458.347 12.245-.12-.296 1.528-5.627 2.688-4.35 4.058 6.354-.617 9.665-2.862 10.11-3.98 1.022.54-1.006 1.813 3.173 2.037 9.625-.506 5.34-3.5 5.776-4.613 4.48 1.077 10.853 5.638 18.277 1.043l-6.567 4.77c7.18-.348 7.834-3.39 16.908-2.907-7.95.49-14.716 2.097-10.895 3.937 10.163-3.752 22.36 2.205 27.954-3.363l-1.714 5.188c14.468.23 5.377-3.644 15.4-5.086-3.812.77-.277 1.926-4.92 2.523 1.197 1.434 10.797 1.523 17.88 1.16 17.536-.898 32.97-.183 48.786-.32-1.58 1.73 4.716 2.65 11.916 2.597-9.02 1.108-9.882-1.882-17.067-1.732l6.882 4.306c-7.727-4.07-13.768.92-18.163 2.303-.512-1.08 3.556-4.362-6.082-4.202-4.153.512-2.042 1.642-3.024 2.252-.52-1.084-3.978-3.097-10.36-3.272-1.18 1.452 4.22 2.24 4.62 3.747-4.81-.137-8.728-.457-12.225.725-8.498-1.293.57-2.11-4.62-3.744-13.07.938-1.342 5.068-6.182 8.135a88.91 88.91 0 0 0 3.18.637c-5.122.115-10.316.012-13.86-.74-6.623 1.746-1.484 3.23-10.588 4.478l-4.802-2.96c-8.4 1.078-13.466.106-22.255 2.455l4.872.892 45.94 1.16c.707-1.026 7.156-1.934 6.373-3.135l18.854 1.38c-2.4-.56-6.354-1.024-10.87-1.57 8.457-1.173 8.793-3.702 21.21-3.55l.21.847c32.222-3.913 73.27-.965 109.547-2.538-2.447-.244-1.808-.874-2.732-1.525 19.104.088 39.718.346 59.35-.502 19.63-.834 38.27-2.787 53.297-6.744-10.313.594-24.225-.3-38.154-.828-13.937-.506-27.902-.61-38.48 1.883-5.53-1.706-13.28-.736-18.4-1.233 17.738-.274 40.983-3.834 57.05-2.887-1.957-2.597-16.44-.044-22.573-.795l13.708-2.693-22.854.91c.425-.648.314-1.248.314-1.8-.478 1.322-6.23 2.607-10.022 3.9-6.786.86-13.873 1.195-20.307 1.82-29.784-2.285-42.18 2.672-70.894 1.77-2.104-.36-2.586-.92-2.712-1.58-.004.018.004.034-.002.054l-2.188.242-.842-2.06c1.572.44 2.754.912 2.994 1.455-.038-.552.03-1.158-.438-1.774l4.895-.144c3.202.916.838 3.336 8.007 3.867-3.855-.508-.41-1.9-5.083-2.18.757-1.045 5.567-1.728 10.808-2.093l4.236-.123-.6-.075 3.313-.103c28.325-.507 50.897-4.836 78.85-3.346.007.018.001.036.006.053.08-.668.52-1.26 2.596-1.765 28.633-2.886 41.332 1.224 70.997-3.15 2.9-3.44 15.138-1.435 22.677-4.344 10.725 1.758 24.65.688 38.52-.78 13.86-1.48 27.676-3.342 38.006-3.46-1.674-.32-3.396-.606-5.15-.873 5.37-.37 10.456-.994 14.6-2.188-5.83.268-15.707-1.363-21.65.467-2.198-.736-5.588.33-6.5-.713-3.71-.198-6.455.043-9.054.38-3.386-.142-6.842-.227-10.354-.262l4.852-.37-3.938-.412c1.704-.46 5.855-.127 6.33-1.057-5.645 1.113-14.672.243-19.598 1.555 2.316.234 5.208-.04 7.948.04.288.08.614.152.942.226a439.01 439.01 0 0 0-12.073.16l-15.925.638.05-.16c-.06.064-.123.113-.187.167l-5.2.286c-.665-.04-1.34-.028-1.997.117l-.766.048c-.655-.6 1.2-.962 3.312-1.008-2.565-.3-2.797.697-4.845.672l1.94-1.46c-2.178 1.395-3.907-.27-5.143-.74-.146.357 1.003 1.468-1.73 1.384-1.174-.186-.573-.554-.85-.76-.15.36-1.136 1.018-2.94 1.056-.33-.487 1.2-.733 1.317-1.233-1.36.03-2.472.124-3.458-.28-2.408.406.155.704-1.316 1.234-3.698-.35-.37-1.693-1.73-2.73 2.784-.697 6.368-.916 7.86-1.305l-5.345.4c.323-.574-3.614-.985-.793-1.54-5.324-.525-11.76.11-16.866.573.724.198 1.654.317 1.503.68-2.642.34-2.348-.375-2.89-.79-1.955.396-1.737 1.385-2.938 2.117-4.033-.832-4.6-.325-8.036-1.527l.214.988c-2.436-.797-2.8.697-5.412.116-.146-.212.858-.465 1.666-.694-2.323.324-2.142-.834-4.406-.45l1.797-1.103c-1.805.04-4.452.38-3.52-.562-3.153 1.13-8.686.684-12.623 1.334l.26-.856c-2.036 1.038-7.485-.052-9.253 1.192l-.3-.35-4.055 1.15c-1.835-.102-1.212-1.39-1.36-1.033-4.027.227-7.188.297-9.776-.146-.65 1.15-4.9 1.453-8.26 1.596-3.555-.156-7.17-.213-10.805-.213L756.9 33.682c2.46 1.2 4.22.157 6.565-.622l5.352-.508c.22.034.432.056.662.104 1.396.676-4.635 1.672 1.3 1.595l-.34-.72c8.203.18 13.064 2.315 19.8 2.688 1.003-2.652-5.8-3.412-12.772-4.486l8.494-.805a56.63 56.63 0 0 0 3.31.016 9.69 9.69 0 0 0 .512-.377l4.664-.44 1.045-.05c-.507.058-.7.246-.3.722 1.59 1.014 4.6.47 5.308 1.9-3.706 1.32-2.824.9-7.87.633.53 1.07 3.023 1.672.812 2.7 12.588 1.137 25.032-3.527 35.338-.56-1.53-1.907 13.268-2.026 4.932-3.282l-.527 1.14c-6.64 1.022-14.817-2.122-15.975-3.336 12.758 1.364 14.775-.064 28.688.214-5.537-2.166 7.862-.764 4.637-2.733 3.17-.233 6.734.227 9.294-.152-7.13 2.2 5.532 2.152 4.348 4.075-4.257.338-8.812-.975-9.1-2.606-2.75.022-2.445 1.653-1.892 2.72l-12.743.937c10.984-.065-.006 5.336 9.832 4.062 2.568-.374-.42-2.913 6.5-2.33 1.236-.01 1.557.42 1.285.865 2.773-.837 5.888-1.55 9.976-.872.105-.747-1.562-1.958 3.675-2.08 7.182-.02 3.368 3.23 4.802 3.848l-1.504.304c3.334.42.605 1.97 5.63 3.085-1.39-.498-.212-1.402 3.124-1.213 4.82 1.02-4.275 4.894 3.325 3.824-1.354.04-1.827-.79.48-.826 10.72 1.32-1 2.292 1.827 4.45 8.887-.012 6.505.744 15.397.723-5.522.106-1.57-1.887-5.765-2.454 6.107-.177 5.304-.722 8.77-1.55.104.053.216.105.323.158-2.863 2.062 3.105 2.255 2.87 3.215l1.092-.142c-.907-.368-1.768-.876-2.48-1.67l3.66-.825-.005.07c.06-.05.14-.077.208-.116l1.12-.253c1.075-.017 2.37.357 3.034.628l.894-1.082 2.18.596c-.4.2-.588.505-.494.975.864-.076 1.602-.113 2.236-.12.125.113.238.234.332.373l-.08-.374c5.48.003 2.845 2.373 7.887 1.457l.546-.19.014.06c1.992-.254 4.215-.446 4.79.11-1.078.235-1.44.67-1.797 1.103 8.422.173 1.78-3.228 9.238-3.317l-.086.64 1.894-.68 1.983.81c2.688-2.186 10.47.198 14.975-.96 1.77-.18 4.102 1.116 7.467.973l-.22-.986c2.716 1.004 12.824 1.637 15.358 3.922 2.554-.765-.27-.207-.212-.988 4.98-1.028 5.327.522 7.94 1.105 3.067-.493-2.347-.375-.697-1.12 4.7.748 3.816-1.217 9.62-.562.576.555-1.498.387-2.098.754 4.084-1.008 11.695-.395 17.77-.594 6.948.7 17.21.975 25.334 1.863l.15-.358c3.375.92 7.034.062 10.98.473l-1.93-.524c2.577-.624 4.024-.23 6.462-.495l1.36 1.034c2.64-.34 1.166-.875 3.083-1.412 2.4.656 7.485.05 8.63.098.793.478-.987.66-1.372.95 3.095-.348 2.876-1.336 6.723-1.348l.063.28c9.188-1.472 20.836-1.085 31.056-2.016-.692-.054-.52-.27-.786-.478 10.788-.375 23.237-.43 31.768-2.88-5.83.268-15.707-1.363-21.65.467-2.2-.736-5.588.33-6.5-.713-8.48-.453-11.926 1.393-20.08 1.426-1.17-.188-.602-.695-.938-1.184l6.462-.494-3.938-.412c1.704-.46 5.856-.127 6.33-1.057-5.644 1.113-14.67.243-19.597 1.555 2.315.234 5.208-.04 7.948.04 1.205.33 3.07.572 2.95 1.072-7.84 1.445-14.34.734-22.394 1.19-2.02.115-4.757.032-5.1-.455 1.325-.172.325-.577 1.412-.814-2.854.42-.286 1.78-4.414 1.585l.528-1.713c-1.642 1.8-5.05-.315-7.988.74-1.058-.686.892-1.082 3.15-1.13-2.564-.3-2.796.697-4.844.672l1.94-1.46c-2.18 1.395-3.907-.27-5.144-.74-.146.357 1.003 1.468-1.73 1.384-1.174-.186-.573-.554-.85-.76-.15.36-1.135 1.018-2.94 1.056-.33-.487 1.2-.733 1.316-1.233-1.36.03-2.47.124-3.458-.28-2.407.406.156.704-1.315 1.234-3.698-.35-.37-1.693-1.73-2.73l.054-.012a18.19 18.19 0 0 0 3.703-.665c1.69-.234 3.246-.404 4.104-.627l-2.74.206c2.84-.955 5.262-2.024 10.203-1.16l-1.035-2.875c12.426 2.406 14.273.695 28.696 1.784 4.002-2.605 2.942-5.48 9.696-7.342 2.024 1.047 1.203 3.283 10.39 1.353.426-1.133-2.883-1.166-5.483-1.506 17.812-3.156 40.23-7.313 59.085-7.645-3.678 1.006-3.974 1.606-2.973 2.063a29.11 29.11 0 0 1-1.884.45c1.557.126 2.48.08 3.332-.01 2.147.502 5.248.917 4.775 1.812l3.226-.54c.464.235.96.464 1.55.66l-.89-.77 2.385-.4c.622.115.945.292 2.495-.264l-.043.603c-5.446 1.18-11.84 2.56-17.285 4.307 1.26.644 1.52 1.446 1.393 2.285 2.817-.198 5.592 1.157 9.32.186.37.446 1.2.833 2.23 1.19 3.1.33 6.46-.215 10.458-.702-.17 1-2.472 1.896-3.697 2.768.772.35 1.2.73.98 1.163 5.326-.926 8.096-2.958 8.48-3.99 1.033.518-.964 1.838 3.22 1.962 9.61-.734 5.256-3.626 5.663-4.75 4.507.97 10.983 5.38 18.3.6l-6.452 4.925c7.17-.517 7.75-3.575 16.833-3.3-7.934.68-14.66 2.446-10.797 4.194 10.07-3.993 22.406 1.674 27.865-4.026l-1.59 5.226 1.157-.018c.146-.294.295-.578.518-.848l6.123-.16c.66-.155 1.088-.714 1.666-1.344.563-.923-.21-4.398 2.437-5.89l.91.4c.044.35.193.693.11.854.37-.103.8-.24 1.27-.4.01.002.018.005.026.007.937-.15 1.078-.243.876-.322l2.724-1.015c1.118-.324 2.333-.682 5.324-.345.576.555-1.498.387-2.098.754 4.084-1.008 11.695-.395 17.77-.594 6.948.7 17.21.975 25.334 1.863l.15-.357c3.375.92 7.035.06 10.982.473l-1.93-.525c2.577-.623 4.024-.23 6.462-.494l1.36 1.033c2.64-.34 1.166-.875 3.083-1.412 2.41.656 7.485.05 8.63.098.793.48-.987.66-1.372.95 3.095-.348 2.876-1.336 6.723-1.348l.063.28c9.188-1.473 20.836-1.086 31.056-2.016-.693-.055-.52-.27-.786-.48 10.788-.375 23.237-.43 31.768-2.88-5.83.268-15.707-1.363-21.65.467-2.2-.736-5.588.33-6.5-.713-8.48-.453-11.926 1.393-20.08 1.426-1.17-.188-.602-.695-.938-1.184l6.462-.494-3.938-.412c1.704-.46 5.856-.127 6.33-1.057-5.644 1.113-14.67.244-19.597 1.555 2.315.234 5.208-.04 7.948.04 1.204.33 3.07.572 2.95 1.072-7.84 1.445-14.34.734-22.394 1.19-2.02.115-4.757.033-5.1-.455 1.324-.172.324-.576 1.41-.814-2.854.42-.285 1.78-4.413 1.586l.528-1.713c-1.642 1.81-5.05-.316-7.988.74-1.058-.686.892-1.082 3.15-1.13-2.564-.3-2.796.697-4.844.672l1.94-1.46c-2.18 1.395-3.907-.27-5.144-.74-.146.357 1.003 1.47-1.73 1.385-1.175-.186-.573-.555-.85-.762-.15.36-1.135 1.018-2.94 1.057-.33-.488 1.198-.734 1.316-1.234-1.36.03-2.47.125-3.458-.28-2.407.406.156.705-1.315 1.234-2.922-.274-1.465-1.172-1.393-2.047.45-.174.803-.368.984-.592 9.334-1.48 21.943.707 26.854-.624 1.562.796 3.37 1.322 5.312 1.713 5.154-.396 10.412-.948 15.86-1.75.007-.02-.002-.034 0-.052.144.658.64 1.205 2.75 1.515 28.774.218 41.04-5.052 70.983-3.448 3.206 3.157 15.204.024 22.98 2.222 2.684-.702 5.596-1.236 8.672-1.643.08-.86 1.393-1.715 5.168-2.572 4.095 1.266 2.197-.465 5.48-.975 3.856.567 4.462 1.404 6.2 2.41 3.705-.075 7.49-.072 11.282-.033-.215-1.285-11.148-1.67-1.317-3.116l3.38 2.573c2.572-3.027 9.65-3.894 17.097-3.512-1.486-.842-1.896-1.733-.154-2.723-.297 2.195 9.6.28 7.645 2.73-1.638.26-3.598-1.107-5.89.09 4.364-.567 3.676.38 6.82.96 1.256-.464 1.902-.812 2.19-1.09.303-.293.218-.503.01-.685zM115.176 87.588c.5.897 3.712.677 2.488 1.485l-5.183.39c.323-.574-3.614-.984-.793-1.54-.434-.043-.885-.066-1.333-.095 1.607-.266 3.32-.48 4.82-.238zm62.48 5.405c-4.344.398-7.73 1.283-13.355 1.307-1.17-.188-.602-.695-.938-1.184l6.462-.494-3.938-.412c1.704-.46 5.856-.127 6.33-1.057-5.644 1.113-14.67.242-19.597 1.555 2.316.234 5.208-.04 7.948.04 1.205.33 3.072.572 2.95 1.072-7.84 1.445-14.34.734-22.394 1.188-2.02.115-4.757.032-5.1-.454 1.325-.173.325-.578 1.412-.814-2.854.42-.286 1.78-4.414 1.585l.53-1.714c-1.642 1.81-5.05-.314-7.99.742-1.057-.687.892-1.082 3.15-1.13-2.565-.3-2.796.696-4.844.672l1.94-1.46c-2.178 1.395-3.907-.27-5.143-.74-.146.356 1.003 1.468-1.73 1.384-1.174-.187-.573-.554-.85-.76-.15.358-1.135 1.018-2.94 1.056-.33-.487 1.2-.733 1.317-1.233-1.36.03-2.47.125-3.458-.28-2.408.406.156.705-1.316 1.234-3.698-.35-.37-1.693-1.73-2.73 2.674-.67 6.064-.9 7.653-1.26-.042.025-.104.057-.156.086.675-.27 2.93-.5 2.255-1.29-.295.316-.62.06-1.24.113l.552-1.207c1.667.5 3.533-1.043 5.132-.315.522.965-3.003.63-1.928 1.766 1.537-1.805 7.805-2.582 9.8-1.82 1.34.242 1.498 1.752 2.057 1.916l2.25-.13c.264.483.298 1.062.717 1.676 1.11.336 1.863-.168 2.55-.445 2.937.965 1.368 2.195-.137 3.2l-1.658-.504c-1.21.687-2.944.406-1.927 1.765.84-.147.812-.722 1.11-1.038l.975.78c.98-.598 3.692-.914 3.402-1.973 1.988.762 4.273-.168 6.038.7-1.2-.688.326-1.117-.032-1.953l-2.12-.315c1.698-.3 4.148-1.1 5.75-.37-.196.668-.26.89.55 1.543-1.14-.914 2.972-1.207.494-2.364-.913.372-1.764.52-2.944.41-.775-1.454 1.085-1.617 2.127-2.438 1.307-.332 3.857-.78 5.62-1.302 1.1.336 1.436 1.972 3.333 1.004-2.416-1.375 2.284-2.305 2.9-3.733 1.83.63 2.97-1.21 4.438-.04-.75.504-3.56.465-4.277 1.543-.102 1.022.62 2.7-2.157 3.238 3.337.514 1.96-.88 3.497-1.298l-1.143.142c.52-.407-.46-1.188.553-1.207 3.917.375 4.605 1.468 7.25 2.754-.6-.743.62-1.434 1.243-1.49 2.104.77.713 1.754 1.046 2.935l-.17-.222-3.725.575c1.477.663 2.264.123 4.24.257.045.054.084.104.14.16.886-.95 2.62-.67 2.032-1.414 1.008-.02.485.39 1.206.688.65-.854 1.407-1.354 2.806-1.336-.127.445-.323 1.113-1.664.87 1.503.375 2.054 1.918 1.402 2.773l-2.447-.578c-1.113 1.043 2.283.45 2.19 1.47-1.08.242-1.894-.4-2.582-.13.16.252.4.383.685.443zm3.364-.517c.545.05.878.174 1.083.334a45.38 45.38 0 0 0-2.933.072c.657-.15 1.33-.36 1.85-.406zm25.947-22.54a2.7 2.7 0 0 0 .299-.537l.77-.086c-.264.25-.6.47-1.07.623zm12.148 1.157c-1.962-.188-4.605-.094-6.27-.594 1.03-.526 1.264-1.196.983-1.835l6.198-.77 1.44.67c-2.124-.316-1.697 1.672-2.352 2.53zm33.278-.18c-2.258-.127-5.046.055-6.464 1.47l.6-2.007-2.484.224c-1.857-1.212 2.19-1.285 3.43-1.396-3.366-.21-5.62-.078-8.655-.02.885.424.358.836.78 1.45-1.042.82-2.48.223-3.56.465-.262-.484-.13-.93.718-1.078l-2.086.258c.166-1.246-.852-1.228 1.2-2.062l-1.927.4c-2.126-.314.095-1.02.618-1.434l-3.363-.202c-1.206.688.686 1.1-1.632 1.447-2.162-.765-4.74-.79-7.295-.85 4.852-.734 9.3-1.662 12.807-3.02-3.073 3.06 6.178 1.354 12.528.768l-6.09 3.766c7.897-1.733 7.512 1.777 15.623.203-1.678.54-3.6 1.12-4.75 1.63zm4.12 2.48c.833-1.35-.412-1.115-1.2-1.484a18.44 18.44 0 0 0 3.813-.633c-.08.42.22.78 1.142.98-1.406-.017-3.398.595-3.754 1.138zm7.02-2.662c-1.152.04-1.354-.154-1.226-.418a18.06 18.06 0 0 1 2.012-.471c-.21.324-.454.63-.786.89zm5.993-3.52l-.025-.075.365.078c-.116.003-.227-.002-.34-.003zm.537 1.6l-.347-1.04c.577-.053 1.232-.062 1.766-.232l1.8.34c-.863.533-1.692 1.024-3.23.934zM646.896 49.83l-.087.64 1.894-.678 1.984.81c2.688-2.186 10.47.197 14.974-.96 1.77-.18 4.102 1.115 7.467.973l-.22-.985c1.65.6 6.038 1.086 9.793 1.878-24.436 1.822-48.836 3.846-69.764 2.762l-.15.858c-13.408 1.095-12.883-1.933-23.702-2.18 1.397.777 7.623.857 4.98 2.494-3.978.47-21.714-.15-29.957 2.2-6.73-1.283-1.704-3.12-10.872-3.734l-4.585 3.285c-8.457-.494-13.44.824-22.37-.912l4.8-1.226L608 47.77c1.988.425 2.956 1.43 4.913 2.082l-1.118-.967c3.453-.785 2.38.516 5.107-.466l-.112 1.563c.96-.8 3.37-.146 4.363.26l.893-1.082c2.174.592 3.6.842 4.253 1.82l-.213-.99c.82.623 8.36-.107 5.78 1.577.63-.225 1.206-.735 2.587-.62l.2.985c1.992-.254 4.215-.446 4.79.108-1.078.236-1.44.67-1.797 1.104 8.423.17 1.782-3.227 9.24-3.317zm261.6-7.633l-.062-.053.23-.05c-.06.035-.11.07-.167.104zm.328-3.373c.113-.254.413-.542.958-.877 7.685-1.226-3.83-2.985 5.243-2.665-.225 1.307 1.227 2.16 3.186 2.85l-9.387.69zm29.153-1.52c-.857-1.586-.174-3.404-8.073-3.344 5.045-3.03 10.564-.036 17.38-.848l-3.002.643c.624.127 1.69.03 2.126-.196 2.017 1.656-6.24 1.863-5.282 3.617l3.235-1.222c-.048.75 3.958.885 4.573 1.385-3.625-.086-7.286-.092-10.957-.035zm34.395-.317c-.226-.055-.4-.134-.51-.225.227-.104.444-.213.65-.326l-.138.55zm50.007-.494c-2.642.34-2.348-.375-2.89-.79-1.955.396-1.737 1.385-2.938 2.117-4.033-.832-4.6-.325-8.035-1.527l.213.988c-2.436-.797-2.8.697-5.412.116-.146-.212.858-.465 1.666-.694-2.323.324-2.142-.834-4.406-.45l1.797-1.103c-1.63.036-3.938.313-3.688-.326 6.543-.987 12.628-2.17 17.146-4.042-1.914 1.998 1.146 1.936 5.26 1.438.087-.313.476-.613 1.283-.867 1.53-.008 2.697.07 3.614.206l2.387-.308-.958.625c2.658.834 2.126 2.444 5.787 3.172-4.188.005-8.6.43-12.33.766.726.2 1.656.318 1.505.68zm14.984-1.28c-.12-.01-.243-.017-.364-.026l1.003-.195-.64.22zm230.524-16.727c-1.283-.265-2.214-.394-3-.485 1.226-.294 2.517-.337 3.837-.278-.213.262-.45.526-.838.763z"/></svg>