<svg xmlns="http://www.w3.org/2000/svg" height="1501" width="74" viewBox="0 0 73.506 1500.001" preserveAspectRatio="none" fill="#d3d3d3"><path d="M38.415.002h-2c.526 2.305.98 4.86 1.03 7.744-.05-2.775.576-5.468.97-7.744zm32.728 698.724c-.23-.097-.506-.294-.85-.627.278.287.585.996.88 1.95zm2.324 107.26l-.094-4.363-.1-.442c-.446 1.13.105 3.465.203 4.805zm-9.502-438.482l-.06-2.726h-.035l.096 2.72zm-.5-23.506l-.105-4.902c-.127 1.636-.118 3.308.105 4.902zM0 1500.002h56l2.594-102.646c-.5-.962-1.06-1.653-1.652-2 .666-9.222-.35-20.336-2.06-34.48-1.107-.445 2.9 1.472 2.744-5.018l-4.482-14.032.967-1.132c-4.174-5.955-2.313-25.393-5.942-32.337l2.627.73c-2.957-13.732-3.05-33.318-7.25-44.177 3.06 3.073 1.354-6.178.768-12.528l3.765 6.1c-1.733-7.897 1.778-7.512.204-15.623.897 2.8 1.914 6.272 2.512 5.713 1.055-9.364-3.508-10.287-1.76-19.04l-2.9.967c2.7-12.367 1.034-14.252 2.465-28.646-2.5-4.062-5.408-3.073-7.1-9.867 1.095-2 3.312-1.125 1.6-10.354-1.12-.452-1.233 2.854-1.634 5.447-2.733-17.88-6.356-40.392-6.24-59.25 2.433 9.798 2.586-4.155 4.392-3.15l-2.677-18.713c1.58 5.153 3.228 17.718 6.068 27.362 2.725-5.04 7.655 6.377 7.688-6.73-1.988-5.064-2.178 4.038-4.055-4.35.938-3.57.346-7.458-.12-12.245 1.528.296 2.7 5.627 4.057 4.35-.617-6.354-2.862-9.665-3.98-10.1.54-1.022 1.813 1.006 2.037-3.173-.506-9.625-3.5-5.34-4.613-5.776 1.077-4.48 5.638-10.853 1.043-18.278l4.77 6.568c-.348-7.18-3.4-7.834-2.908-16.908.5 7.95 2.097 14.715 3.936 10.894-3.752-10.163 2.205-22.36-3.363-27.954l5.188 1.714c.23-14.468-3.644-5.377-5.086-15.4.772 3.812 1.925.278 2.524 4.92 1.433-1.197 1.523-10.797 1.16-17.88-1.45-28.292 1.3-51.1-2.108-78.892-.02-.006-.036.002-.054-.002.662-.126 1.222-.606 1.582-2.712.9-28.763-4.076-41.148-1.762-71.045 3.23-3.13.385-15.2 2.766-22.922-2.494-10.578-2.4-24.545-1.883-38.48s1.422-27.84.828-38.154c3.957 15.026 5.9 33.667 6.744 53.296s.6 40.246.502 59.35c.652-.926 1.282-.285 1.526-2.732 1.573 36.277-1.375 77.325 2.538 109.546l-.846.2c-.166 13.45 2.817 12.72 3.812 23.495-.872-1.34-1.382-7.546-2.832-4.794-.194 4 1.65 21.65-.127 30.037 1.746 6.623 3.23 1.484 4.478 10.588l-2.96 4.8c1.077 8.402.106 13.466 2.455 22.255l.9-4.872 5.73-226.758c-1.368-2.37-.448-4.198.167-6.594l.137-5.373c-.05-.217-.086-.427-.15-.652-.77-1.348-1.35 4.738-1.68-1.187l.74.3c-.746-8.172-3.213-12.875-4.05-19.567 2.577-1.184 3.805 5.56 5.357 12.433l.216-8.53a55.612 55.612 0 0 1-.244-3.3 8.5 8.5 0 0 1 .341-.537l.118-4.683-.022-1.046c-.022.5-.197.715-.7.35-1.12-1.516-.786-4.557-2.262-5.164-1.062 3.8-.703 2.88-.088 7.896-1.104-.456-1.877-2.9-2.76-.623-2.003-12.48 1.8-25.216-1.883-35.292 2 1.396 1.105-13.376 2.934-5.146l-1.102.606c-.56 6.693 3.14 14.635 4.432 15.705-2.242-12.633-.957-14.745-2.195-28.604 2.543 5.374.22-7.896 2.406-4.814.014-3.18-.7-6.703-.5-9.282-1.703 7.266-2.53-5.37-4.365-4.056-.044 4.27 1.58 8.723 3.23 8.897.168 2.744-1.48 2.554-2.582 2.075L68 761.78c-.693-10.964-5.322.374-4.73-9.528.195-2.588 2.935.218 1.873-6.655-.074-1.233-.527-1.523-.95-1.222l-.707 3.168c-.3-1.6.188-2.807.707-3.168.643-2.826 1.14-5.98.18-10.013-.187.04-.35.148-.425.554l.2-1.52c.096.33.146.644.226.97.737-.157 2.062 1.423 1.82-3.8-.477-7.164-3.454-3.137-4.17-4.523l-.2 1.52c-.648-3.297-2.008-.47-3.467-5.403a4.84 4.84 0 0 1-.312-1.103c.103.455.208.747.312 1.103.593 1.35 1.414.114.994-3.2-1.35-4.737-4.586 4.604-4.045-3.054-.012-.266.004-.54.062-.87l-.062.87c.053 1.353.914 1.77.8-.537-2.057-10.602-2.217 1.155-4.565-1.515-.603-8.867-1.2-6.438-1.784-15.312.275 5.517 2 1.438 2.846 5.58-.264-6.57.45-5.178 1.073-9.73-2.1 4.233-2.726-2.396-3.72-2.077l.065-1.098c.43.88.996 1.7 1.836 2.357l1.24-8.063c1.796 1.897 2.36 11.824 4.635 7.478.692-7.75 3.243 3.614 2.297-5.414-3.867.94-4.695-13.416-8.217-11.26.473 3.98.963 6.9-.68 6.7.165-8.796-2.686-4.52-2.05-10.258l.455-1.686 1.076.938c.153-1.077-.256-1.875-.56-2.85l.414-1.536c.443.3.896.883 1.178-1.08a4.239 4.239 0 0 1-.604-1.035l.206-.765c.266.538.53.902.8.912.354-3.22-.605-2.748-.912-4.148.193-.486.363-1.02.514-1.6 1 .72 2.58 3.14 2.16-1.13l-.12-1.013c.053.376.1.708.12 1.013 1.483 11.4 5.728.928 6.524 13.862 2.675-5.243-.694-10.543-.355-17.397l-.434 3.04c-.17-.613-.148-1.686.05-2.135-1.8-1.896-1.428 6.354-3.243 5.52l.995-3.312c-.924.122-1.332-6-2.1-4.2l.8 5.215c-.854-5.148-1.922-9.926-3.055-14.578.193-5.754.47-11.323 1.94-14.48l-2.592.85c2.332-13.853 1.535-33.423 5.24-44.46-1.86 2.048-2-1-1.8-5.146.308-.108.58-.517.776-1.34-.098-1.526-.256-2.686-.455-3.6l.143-2.402-.557 1c-1.135-2.896-2.96-1.74-3.88-6.98a12.07 12.07 0 0 1-.17.89c-.084-1.13-.05-2.478.2-4.25-.77 2.827-1.63 6.353-2.25 5.82-1.48-9.307 3.037-10.437.894-19.1l2.94.835c-3.258-12.23-1.68-14.2-3.762-28.505 2.322-4.173 5.264-3.315 6.655-10.18-1.185-1.948-3.358-.974-2.067-10.27 1.1-.503 1.362 2.796 1.88 5.366 1.918-17.986 4.517-40.64 3.545-59.472-1.984 9.898-2.77-4.034-4.528-2.946l1.824-18.814c-1.345 5.22-2.42 17.845-4.82 27.608-.73-1.214-1.548-1.415-2.376-1.23.003-2.824-1.54-5.5-.83-9.284-.47-.34-.914-1.142-1.34-2.144-.544-3.068-.23-6.46-.022-10.48-.986.238-1.72 2.597-2.506 3.88-.402-.746-.8-1.137-1.228-.896.556-5.378 2.392-8.28 3.396-8.735-.588-.996-1.767 1.088-2.18-3.076.068-9.64 3.254-5.494 4.348-5.98-1.28-4.43-6.125-10.586-1.873-18.213l-4.468 6.777c.02-7.188 3.03-7.98 2.14-17.02-.13 7.962-1.428 14.795-3.438 11.06 3.288-10.322-3.217-22.236 2.092-28.076l-5.104 1.945-.062-1.156c.283-.164.556-.334.8-.573l-.264-6.12c.108-.67.637-1.135 1.226-1.755 1.034-.735 2.213-1.302 2.674-6-.22 1.4-.535 1.832-.866 2.035 1.135-5.532-.252-22.4-3.154-26.546 1.793-2.94 1.334 6.654 2.867 5.223 1.13-4.36-1.38-9.417-.6-13.958l-1.943-1.5c.1 1.686-.307 2.57.205 3.37-.525.778-.902.135-1.197-1.002l-.18-3.816c.698-.15.606-6.424 1.798-7.54.83-9.413-2.22-21.843-1.232-26.834-.902-1.502-1.552-3.27-2.076-5.182.04-5.17.227-10.453.65-15.943.02-.01.034 0 .052-.01-.666-.097-1.246-.554-1.7-2.638-2.205-28.7 2.205-41.292-1.463-71.053-3.37-2.98-1.074-15.166-3.804-22.773.515-2.726.847-5.667 1.04-8.764.854-.14 1.614-1.508 2.2-5.334-1.546-3.997.312-2.224.594-5.535-.832-3.8-1.7-4.354-2.834-6.02-.18-3.7-.445-7.477-.746-11.257 1.297.125 2.436 11.006 3.2 1.1l-2.8-3.194c2.842-2.775 3.218-9.896 2.322-17.298.942 1.425 1.86 1.77 2.728-.033-2.17.447-.94-9.56-3.253-7.438-.146 1.65 1.353 3.512.315 5.88.265-4.394-.633-3.64-1.428-6.74 2.028-6.924 1.906 3.934 4.053-5.733.22-6.548.08-13.02-.57-17.764l-1.543 4.13-1.946-6.096c-.023-1.078 4.096 4.545 1.93-3.114-1.18-4.078-2.894.62-4.233-2.888-.63 4.458.353 8.046.44 12.358l1.617-.878-.824 3.963c-2.938-1.564.233-14.674-3.405-14.983 1.06.167 1.48-1.464 1.68-3.365.413-.65.666-2.227.538-5.173-.02-.077-.038-.127-.057-.194.146-.205.378.06.766 1.07-.52-7.488-2.56-.55-3.582-6.293l1.02-3.465c-1.028-5.758-2.103 3.708-2.934-1.542 1.823.695 2.805-4.938 3.652-7.8L29.2 51l-.314 1.502c-.524-.743-1.138-1.438-1.078 1.656-.68 2.315 2.438 12.505 4.713 8.216.464-3.884-1.75-5.588-2.006-9.32 3.996.236.015-8.126 4.4-6.88-.704-7.988-3.384-5.796-5.233-7.57.892-.73 2.935 1.554 2.297-3.188l-2.234.033a1.164 1.164 0 0 1-.486.01l.486-.01c2.027-.462 2.658-6.7 3.66-10.57l1.983-2.36c-1.053-5.12-2.23-11.126-3.312-6.607l-.17 3.796c-.88-3.172-2.94-8.767-3.916-14.15.427 1.846 4 8 5.46 1.935-.685-2.984-1.4-5.06-2.065-7.492H0zM23.04 157.88l.284-.608.548 1.13.013.598c-.32-.376-.613-.788-.845-1.12l-.34.732c-.43-1.796-.198-1.498.34-.732zm-2.306 67.16c.967-7.744 1.74 1.947 2.452 2.302.422-1.897.955-3.338 1.473-4.783l.206 5.28c-1.432.162-2.403 3.416-4.13-2.8zM20 249.316c1.222-9.243 3.676 3.462 3.576-8.634 1.406 2.804 1.258 2.248 2.038 3.3l.16 3.122c-.177-.834-.52-1.542-1.143-2.062-.027 7.64-.747 7.293-2.907 10.062.424-4.728-1.326-2.855-1.723-5.787zm5.902.32l.242 4.776c-.055.015-.106.032-.164.046.497 4.627.096 1.692-.126 5.967-1.2-3.343-.138-7.498.048-10.8zM47.027 944.57c.617-.47 1.224-.4 1.774-.438-1.286.567-2.172 6.395-3.198 10.27-.554 9.668.002 19.9-.87 28.05-3.615-17.485.1-49.308-2.467-69.344 2.725 1.772 1.18 16.398 2.353 22.464l1.74-13.86zm3.498-281.6l-.098-.104c.014-.02.023-.044.036-.063l.062.167zm2.202-82.515c.25-1.45.336-2.615.32-3.606a19.68 19.68 0 0 0 .595 1.964zm-.33-8.693a9 9 0 0 1 .112 1.584l-.048-.17a16.8 16.8 0 0 1-.064-1.415zM48.64 454.394c-1.635.8-3.168 2.04-3.978-1.202.216-1.664.383-3.594.483-5.976 0-.02-.002-.033-.004-.053.86-.294 1.437 2.38 2.252-.208.64 2.08.918 5.18 1.247 7.44zM25.9 206.226c-.695-.896-1.295-.227-1.65-2.66l.062 6.424c-.612-3.194-1.115-6.513-2-.6-1.055-1.2-1.453-3.767-1.767-6.56-.27-.636-.473-1.9-.577-4.45l.056-.13c-.266-1.853-.664-3.403-1.323-4.413-.333.223-.598.17-.65-.795.263.17.454.5.65.795.834-.522 2.188-2.833 2.304 2.308l-.98 2.105c.203 1.475.35 3.05.52 4.582.735 1.726 1.974-1.812 3.24-.375-.06-4.72-.18-10.68 1.245-13.63l.88 17.413zm-1.02-20.328c-.614-.02-1.274 1.078-2.025-.353-.1 2.134-.02 3.833-.794 4.537.554-6.838-3.7-6.217-2.965-16.288.888-9.407 2.202.026 4.433-3.8 1.55-1.415-.746-3.113-.416-5.685l.88-.68.886 22.277zm4.07-133.284l.352-1.13.285 1.233c.017.863-.28.4-.637-.104zm2.934-32.605l-.117 2.62c-1.986-1.186-4.34-1.723-4.146-5.8-.56.464-.382 2.446-.126 3.73a6.29 6.29 0 0 1 .396 1.082c-.064.22-.243-.3-.396-1.082-1.062-2.205-3.062-3.152-1.403-7.748 2.206 3.787 3.116 3.17 5.792 7.2zM53.74 567.845c-.048-7.64-.658-7.124-1.45-4.608.702-.36 1 2.326 1.45 4.608zm-1.7-4.505c-.116.578-.153 1.008-.226 1.52l.474-1.623c-.083.043-.15-.047-.248.102z"/><path d="M41.396 276.57c1 9.634.9 19.87 2.144 27.98 2.817-17.633-2.35-49.25-.683-69.385-2.643 1.895-.437 16.436-1.332 22.548l-2.365-13.77.367 22.87c-.637-.438-1.24-.345-1.793-.357 1.3.513 2.46 6.292 3.662 10.114zm-3.968-10.135a2.24 2.24 0 0 0 .307.023.485.485 0 0 0-.307-.023zm10.9-35.83l-2.692-2.068c1.1 7.275-.413 10.17 2.054 15.323zm-8.8 5.54l-.717-11.12-.62 6.96zM50.94 398.343l1.6-26.887-1.993 25.175zm5.746 170.36l1.604-11.63c-.992 2.955-.547 7.1-1.958 9.92zm2.612 114.44c3.915 5.896-.34 1.643 3.942-2.6-1.5 1.174-3.035-4.032-3.942 2.6zM63.47 680.318l-.23.226a1.47 1.47 0 0 0 .23-.226zm-5.9 17.67c-.737 2.187-1.477 4.4-1.444 8.43.98-2.945 3.326-3.064 1.444-8.43z"/></svg>