<svg xmlns="http://www.w3.org/2000/svg" xmlns:xlink="http://www.w3.org/1999/xlink" preserveAspectRatio="none" viewBox="0 0 1500 150"><g fill="#d3d3d3"><path d="M46.788 34.86c19.475 0 35.38-15.534 36.004-34.86h-7.098c-.618 15.413-13.344 27.763-28.906 27.763S18.5 15.413 17.88 0h-7.097c.622 19.327 16.528 34.86 36.004 34.86zm0-12.192c12.773 0 23.2-10.046 23.8-22.668h-47.62c.6 12.622 11.037 22.668 23.8 22.668zm93.587 12.192c19.476 0 35.382-15.534 36.004-34.86h-7.098c-.618 15.413-13.345 27.763-28.906 27.763S112.086 15.413 111.468 0h-7.097c.622 19.327 16.528 34.86 36.004 34.86zm0-12.192c12.772 0 23.2-10.046 23.8-22.668h-47.62c.6 12.622 11.038 22.668 23.8 22.668zm93.943 12.192c19.475 0 35.38-15.534 36.004-34.86h-7.098c-.618 15.413-13.343 27.763-28.906 27.763S206.03 15.413 205.412 0h-7.098c.623 19.327 16.53 34.86 36.004 34.86z"/><use xlink:href="#B"/><path d="M327.904 34.86c19.477 0 35.383-15.534 36.005-34.86h-7.097c-.618 15.413-13.346 27.763-28.908 27.763S299.616 15.413 298.998 0H291.9c.623 19.327 16.53 34.86 36.004 34.86zm0-12.192c12.774 0 23.2-10.046 23.812-22.668h-47.62c.612 12.622 11.037 22.668 23.8 22.668zM421.85 34.86c19.475 0 35.38-15.534 36.004-34.86h-7.098c-.618 15.413-13.344 27.763-28.906 27.763S393.56 15.413 392.942 0h-7.098c.623 19.327 16.53 34.86 36.005 34.86zm0-12.192c12.773 0 23.2-10.046 23.8-22.668h-47.623c.612 12.622 11.04 22.668 23.813 22.668zm93.586 12.192c19.477 0 35.38-15.534 36.004-34.86h-7.097c-.618 15.413-13.345 27.763-28.907 27.763S487.148 15.413 486.53 0h-7.098c.622 19.327 16.527 34.86 36.004 34.86zm0-12.192c12.773 0 23.2-10.046 23.8-22.668h-47.622c.6 12.622 11.037 22.668 23.8 22.668zM609.38 34.86c19.475 0 35.38-15.534 36.004-34.86h-7.098c-.618 15.413-13.345 27.763-28.906 27.763S581.1 15.413 580.472 0h-7.097c.623 19.327 16.528 34.86 36.004 34.86z"/><use xlink:href="#B" x="375.062"/><path d="M702.966 34.86c19.476 0 35.38-15.534 36.003-34.86h-7.096c-.618 15.413-13.345 27.763-28.907 27.763S674.677 15.413 674.06 0h-7.097c.622 19.327 16.528 34.86 36.004 34.86z"/><use xlink:href="#B" x="468.648"/><path d="M796.9 34.86c19.478 0 35.38-15.534 36.002-34.86h-7.096c-.62 15.413-13.347 27.763-28.906 27.763S768.62 15.413 768.003 0h-7.1c.623 19.327 16.53 34.86 36.006 34.86zm0-12.192c12.77 0 23.2-10.046 23.812-22.668h-47.624c.612 12.622 11.04 22.668 23.812 22.668zm93.597 12.192c19.477 0 35.38-15.534 36.003-34.86h-7.096c-.62 15.413-13.347 27.763-28.907 27.763S862.2 15.413 861.592 0h-7.1c.623 19.327 16.53 34.86 36.005 34.86zm0-12.192c12.773 0 23.198-10.046 23.8-22.668h-47.622c.612 12.622 11.038 22.668 23.8 22.668zM984.44 34.86c19.476 0 35.38-15.534 36.003-34.86h-7.097c-.62 15.413-13.346 27.763-28.906 27.763S956.15 15.413 955.532 0h-7.095c.623 19.327 16.53 34.86 36.003 34.86zm0-12.192c12.77 0 23.198-10.046 23.8-22.668h-47.62c.6 12.622 11.036 22.668 23.8 22.668zm93.587 12.192c19.477 0 35.38-15.534 36.004-34.86h-7.096c-.62 15.413-13.346 27.763-28.908 27.763S1049.738 15.413 1049.12 0h-7.096c.623 19.327 16.53 34.86 36.004 34.86zm0-12.192c12.773 0 23.2-10.046 23.812-22.668h-47.622c.612 12.622 11.037 22.668 23.8 22.668zm93.943 12.192c19.476 0 35.382-15.534 36.004-34.86h-7.098c-.62 15.413-13.346 27.763-28.906 27.763S1143.684 15.413 1143.065 0h-7.1c.623 19.327 16.53 34.86 36.006 34.86zm0-12.192c12.773 0 23.2-10.046 23.8-22.668h-47.62c.6 12.622 11.035 22.668 23.8 22.668zm93.587 12.192c19.478 0 35.383-15.534 36.006-34.86h-7.098c-.62 15.413-13.346 27.763-28.908 27.763S1237.27 15.413 1236.65 0h-7.098c.623 19.327 16.528 34.86 36.004 34.86zm0-12.192c12.774 0 23.2-10.046 23.812-22.668h-47.624c.612 12.622 11.04 22.668 23.812 22.668zM1359.5 34.86c19.477 0 35.384-15.534 36.006-34.86h-7.098c-.62 15.413-13.344 27.763-28.908 27.763S1331.213 15.413 1330.594 0h-7.098c.623 19.327 16.53 34.86 36.004 34.86zm0-12.192c12.773 0 23.2-10.046 23.812-22.668h-47.624c.613 12.622 11.04 22.668 23.812 22.668zm129.143 6.532A20.71 20.71 0 0 0 1500 32.808V0h-6.904c-.624 21.535-18.324 38.864-40.008 38.864S1413.705 21.534 1413.08 0h-13.57c-.625 21.535-18.324 38.864-40 38.864S1320.1 21.534 1319.494 0h-13.928c-.625 21.535-18.324 38.864-40 38.864S1226.173 21.534 1225.548 0h-13.57c-.625 21.535-18.325 38.864-40.008 38.864S1132.586 21.534 1131.962 0h-13.927c-.625 21.535-18.326 38.864-40 38.864s-39.4-17.33-40.015-38.864h-13.57c-.625 21.535-18.325 38.864-40.008 38.864s-39.385-17.33-40-38.864h-13.925c-.625 21.535-18.326 38.864-40 38.864S851.113 21.535 850.488 0h-13.57c-.625 21.535-18.324 38.864-40.007 38.864S757.526 21.534 756.9 0h-13.927c-.624 21.535-18.325 38.864-40.008 38.864S663.582 21.535 662.958 0h-13.57c-.624 21.535-18.325 38.864-40.008 38.864s-39.385-17.33-40-38.864h-13.928c-.624 21.535-18.324 38.864-40.008 38.864S476.05 21.534 475.427 0h-13.572c-.624 21.535-18.324 38.864-40.007 38.864S382.463 21.534 381.84 0H367.9c-.624 21.535-18.324 38.864-40.008 38.864S288.52 21.534 287.897 0h-13.572C273.7 21.535 256 38.864 234.317 38.864S194.933 21.534 194.3 0h-13.93c-.624 21.535-18.325 38.864-40.007 38.864S101 21.534 100.366 0h-13.57c-.626 21.535-18.326 38.864-40 38.864S7.404 21.535 6.78 0H0v32.8a20.716 20.716 0 0 0 11.292-3.542c.774.9 1.575 1.784 2.423 2.633 1.1 1.1 2.267 2.156 3.464 3.14A28.725 28.725 0 0 1 0 40.944v7.098a35.88 35.88 0 0 0 23.247-8.788c7.07 4.133 15.134 6.346 23.54 6.346 8.303 0 16.27-2.162 23.278-6.197a35.88 35.88 0 0 0 23.4 8.647c8.968 0 17.18-3.292 23.492-8.732 7.043 4.1 15.065 6.282 23.428 6.282 8.444 0 16.544-2.23 23.637-6.4 6.33 5.507 14.6 8.85 23.618 8.85 8.923 0 17.098-3.26 23.4-8.653 7 4.04 14.98 6.203 23.3 6.203s16.27-2.162 23.277-6.196a35.88 35.88 0 0 0 23.4 8.646c8.967 0 17.18-3.292 23.492-8.73 7.043 4.1 15.065 6.28 23.426 6.28 8.445 0 16.545-2.23 23.64-6.4 6.33 5.507 14.588 8.85 23.62 8.85 8.923 0 17.098-3.26 23.398-8.653 7 4.04 14.982 6.203 23.3 6.203s16.27-2.162 23.277-6.196c6.3 5.388 14.472 8.646 23.4 8.646 8.967 0 17.18-3.292 23.492-8.732 7.043 4.1 15.065 6.282 23.427 6.282 8.445 0 16.544-2.23 23.638-6.4 6.33 5.507 14.6 8.85 23.618 8.85a35.87 35.87 0 0 0 23.4-8.653c7 4.04 14.98 6.203 23.3 6.203s16.27-2.162 23.277-6.197a35.88 35.88 0 0 0 46.892-.083c7.043 4.1 15.065 6.28 23.427 6.28 8.445 0 16.544-2.23 23.638-6.4a35.87 35.87 0 0 0 47.018.197c7 4.04 14.98 6.203 23.3 6.203 8.303 0 16.27-2.162 23.277-6.196a35.88 35.88 0 0 0 23.4 8.646c8.967 0 17.18-3.292 23.492-8.73 7.043 4.1 15.064 6.28 23.427 6.28 8.444 0 16.544-2.23 23.638-6.4 6.33 5.507 14.6 8.852 23.617 8.852 8.925 0 17.1-3.26 23.4-8.653 7 4.04 14.98 6.203 23.288 6.203s16.27-2.162 23.278-6.197a35.87 35.87 0 0 0 46.881-.085c7.044 4.1 15.065 6.282 23.428 6.282 8.444 0 16.544-2.23 23.638-6.4 6.33 5.507 14.6 8.85 23.62 8.85 8.923 0 17.1-3.26 23.397-8.653 7 4.04 14.98 6.203 23.3 6.203 8.302 0 16.27-2.162 23.277-6.197a35.88 35.88 0 0 0 23.4 8.647c8.967 0 17.18-3.292 23.492-8.732 7.043 4.1 15.064 6.282 23.426 6.282 8.445 0 16.546-2.23 23.64-6.4 6.33 5.507 14.588 8.85 23.617 8.85a35.86 35.86 0 0 0 23.397-8.654c7 4.04 14.98 6.204 23.3 6.204s16.27-2.162 23.278-6.197a35.817 35.817 0 0 0 23.392 8.647c8.968 0 17.18-3.292 23.492-8.732 7.043 4.1 15.064 6.282 23.426 6.282 8.445 0 16.545-2.23 23.638-6.4 6.25 5.435 14.38 8.757 23.274 8.842v-7.097a28.85 28.85 0 0 1-17.23-5.964 47.71 47.71 0 0 0 3.393-3.08 49.224 49.224 0 0 0 2.48-2.703zM93.455 40.952c-6.47 0-12.45-2.142-17.273-5.745A47.48 47.48 0 0 0 79.86 31.9a46.55 46.55 0 0 0 2.262-2.446 20.693 20.693 0 0 0 11.333 3.37c4.253 0 8.198-1.288 11.493-3.478.754.873 1.53 1.73 2.355 2.553a47.28 47.28 0 0 0 3.555 3.21 28.78 28.78 0 0 1-17.403 5.842zm94.175 0a28.77 28.77 0 0 1-17.576-5.973 47.47 47.47 0 0 0 3.393-3.08 47.73 47.73 0 0 0 2.482-2.7 20.68 20.68 0 0 0 11.702 3.625 20.67 20.67 0 0 0 11.348-3.377c.728.837 1.476 1.66 2.268 2.452a47.483 47.483 0 0 0 3.67 3.3 28.77 28.77 0 0 1-17.286 5.753zm93.356 0a28.77 28.77 0 0 1-17.273-5.745 47.687 47.687 0 0 0 3.678-3.307 47.75 47.75 0 0 0 2.263-2.446 20.69 20.69 0 0 0 11.333 3.371 20.68 20.68 0 0 0 11.492-3.478c.754.873 1.53 1.73 2.355 2.553a45.47 45.47 0 0 0 3.555 3.2 28.778 28.778 0 0 1-17.403 5.842zm94.176 0a28.78 28.78 0 0 1-17.577-5.972 47.725 47.725 0 0 0 3.394-3.08 47.37 47.37 0 0 0 2.481-2.7 20.685 20.685 0 0 0 11.703 3.625 20.69 20.69 0 0 0 11.347-3.376c.727.837 1.476 1.66 2.267 2.452a47.483 47.483 0 0 0 3.67 3.3 28.777 28.777 0 0 1-17.284 5.752zm93.355 0a28.775 28.775 0 0 1-17.274-5.745 47.687 47.687 0 0 0 3.678-3.307 47.75 47.75 0 0 0 2.263-2.446 20.694 20.694 0 0 0 11.334 3.37 20.68 20.68 0 0 0 11.492-3.478c.754.873 1.53 1.73 2.355 2.553a45.47 45.47 0 0 0 3.555 3.2 28.78 28.78 0 0 1-17.403 5.842zm94.174 0c-6.607 0-12.7-2.23-17.576-5.972a47.71 47.71 0 0 0 3.393-3.08 47.37 47.37 0 0 0 2.481-2.7 20.686 20.686 0 0 0 11.702 3.625 20.67 20.67 0 0 0 11.348-3.377c.728.837 1.476 1.66 2.268 2.452a47.483 47.483 0 0 0 3.67 3.3 28.77 28.77 0 0 1-17.285 5.753zm93.356 0a28.78 28.78 0 0 1-17.274-5.745 47.48 47.48 0 0 0 3.678-3.307 47.75 47.75 0 0 0 2.263-2.446 20.69 20.69 0 0 0 11.333 3.371c4.253 0 8.198-1.3 11.492-3.48a47.94 47.94 0 0 0 2.355 2.554 47.28 47.28 0 0 0 3.555 3.21 28.772 28.772 0 0 1-17.402 5.842zm94.175 0a28.77 28.77 0 0 1-17.576-5.973 47.71 47.71 0 0 0 3.393-3.08 47.73 47.73 0 0 0 2.482-2.7 20.684 20.684 0 0 0 11.702 3.625 20.68 20.68 0 0 0 11.35-3.377c.728.837 1.476 1.66 2.268 2.452a47.27 47.27 0 0 0 3.669 3.299c-4.83 3.6-10.8 5.753-17.287 5.753zm93.356 0a28.772 28.772 0 0 1-17.274-5.745 47.666 47.666 0 0 0 3.678-3.307 43.65 43.65 0 0 0 2.263-2.446 20.697 20.697 0 0 0 11.334 3.37c4.253 0 8.197-1.288 11.492-3.478.754.873 1.53 1.73 2.355 2.553a47.47 47.47 0 0 0 3.554 3.209 28.77 28.77 0 0 1-17.402 5.843zm94.174 0c-6.607 0-12.7-2.23-17.576-5.972a47.71 47.71 0 0 0 3.393-3.08 47.73 47.73 0 0 0 2.482-2.7 20.68 20.68 0 0 0 11.701 3.625 20.7 20.7 0 0 0 11.349-3.377 48 48 0 0 0 2.27 2.453 47.44 47.44 0 0 0 3.668 3.299 28.777 28.777 0 0 1-17.286 5.752zm93.355 0a28.773 28.773 0 0 1-17.272-5.745 48.09 48.09 0 0 0 3.68-3.307 47.73 47.73 0 0 0 2.262-2.446 20.685 20.685 0 0 0 11.332 3.37c4.254 0 8.198-1.3 11.493-3.48a47.92 47.92 0 0 0 2.354 2.554 45.47 45.47 0 0 0 3.555 3.2 28.773 28.773 0 0 1-17.403 5.842zm94.177 0a28.78 28.78 0 0 1-17.578-5.973 47.71 47.71 0 0 0 3.393-3.08 47.73 47.73 0 0 0 2.482-2.7 20.685 20.685 0 0 0 11.703 3.625c4.188 0 8.08-1.247 11.346-3.377.728.837 1.476 1.66 2.268 2.452a47.47 47.47 0 0 0 3.67 3.299 28.77 28.77 0 0 1-17.284 5.753zm93.355 0a28.76 28.76 0 0 1-17.273-5.746 47.64 47.64 0 0 0 3.677-3.306 47.75 47.75 0 0 0 2.263-2.446 20.694 20.694 0 0 0 11.334 3.37 20.69 20.69 0 0 0 11.493-3.479c.754.873 1.53 1.73 2.355 2.554a47.9 47.9 0 0 0 3.554 3.21 28.78 28.78 0 0 1-17.403 5.842zm94.174 0c-6.606 0-12.7-2.23-17.576-5.972a47.51 47.51 0 0 0 3.394-3.08c.87-.87 1.7-1.776 2.48-2.7a20.68 20.68 0 0 0 23.051.248c.727.837 1.476 1.66 2.268 2.453a47.44 47.44 0 0 0 3.668 3.299 28.776 28.776 0 0 1-17.285 5.752zm93.357 0a28.77 28.77 0 0 1-17.275-5.746 47.263 47.263 0 0 0 3.678-3.306 47.77 47.77 0 0 0 2.263-2.447 20.7 20.7 0 0 0 11.335 3.372c4.253 0 8.198-1.3 11.492-3.48.754.873 1.53 1.73 2.355 2.554a47.47 47.47 0 0 0 3.554 3.209 28.77 28.77 0 0 1-17.402 5.843zm46.918-6.092c19.476 0 35.383-15.534 36.006-34.86h-7.098c-.62 15.413-13.346 27.763-28.908 27.763S1424.8 15.413 1424.182 0h-7.098c.622 19.327 16.528 34.86 36.004 34.86zm0-12.192c12.775 0 23.2-10.046 23.812-22.668h-47.622c.6 12.622 11.035 22.668 23.8 22.668z"/><circle cx="25.562" cy="48.938" r="3.5"/><circle cx="39.188" cy="52.625" r="3.5"/><circle cx="54.375" cy="52.625" r="3.5"/><circle cx="67.875" cy="48.812" r="3.5"/><circle cx="119.331" cy="48.938" r="3.5"/><circle cx="132.956" cy="52.625" r="3.5"/><circle cx="148.143" cy="52.625" r="3.5"/><circle cx="161.643" cy="48.812" r="3.5"/><circle cx="213.098" cy="48.938" r="3.5"/><circle cx="226.723" cy="52.625" r="3.5"/><circle cx="241.911" cy="52.625" r="3.5"/><circle cx="255.411" cy="48.812" r="3.5"/><circle cx="306.866" cy="48.938" r="3.5"/><circle cx="320.491" cy="52.625" r="3.5"/><circle cx="335.679" cy="52.625" r="3.5"/><circle cx="349.179" cy="48.812" r="3.5"/><circle cx="400.634" cy="48.938" r="3.5"/><circle cx="414.259" cy="52.625" r="3.5"/><circle cx="429.446" cy="52.625" r="3.5"/><circle cx="442.946" cy="48.812" r="3.5"/><circle cx="494.402" cy="48.938" r="3.5"/><circle cx="508.027" cy="52.625" r="3.5"/><circle cx="523.214" cy="52.625" r="3.5"/><circle cx="536.714" cy="48.812" r="3.5"/><circle cx="588.17" cy="48.938" r="3.5"/><circle cx="601.795" cy="52.625" r="3.5"/><circle cx="616.982" cy="52.625" r="3.5"/><circle cx="630.482" cy="48.812" r="3.5"/><circle cx="681.938" cy="48.938" r="3.5"/><circle cx="695.562" cy="52.625" r="3.5"/><circle cx="710.75" cy="52.625" r="3.5"/><circle cx="724.25" cy="48.812" r="3.5"/><circle cx="775.705" cy="48.938" r="3.5"/><circle cx="789.33" cy="52.625" r="3.5"/><circle cx="804.518" cy="52.625" r="3.5"/><circle cx="818.018" cy="48.812" r="3.5"/><circle cx="869.473" cy="48.938" r="3.5"/><circle cx="883.098" cy="52.625" r="3.5"/><circle cx="898.285" cy="52.625" r="3.5"/><circle cx="911.785" cy="48.812" r="3.5"/><circle cx="963.24" cy="48.938" r="3.5"/><circle cx="976.865" cy="52.625" r="3.5"/><circle cx="992.053" cy="52.625" r="3.5"/><circle cx="1005.553" cy="48.812" r="3.5"/><circle cx="1057.008" cy="48.938" r="3.5"/><circle cx="1070.633" cy="52.625" r="3.5"/><circle cx="1085.82" cy="52.625" r="3.5"/><circle cx="1099.32" cy="48.812" r="3.5"/><circle cx="1150.775" cy="48.938" r="3.5"/><circle cx="1164.4" cy="52.625" r="3.5"/><circle cx="1179.588" cy="52.625" r="3.5"/><circle cx="1193.088" cy="48.812" r="3.5"/><circle cx="1244.542" cy="48.938" r="3.5"/><circle cx="1258.167" cy="52.625" r="3.5"/><circle cx="1273.354" cy="52.625" r="3.5"/><circle cx="1286.854" cy="48.812" r="3.5"/><circle cx="1338.31" cy="48.938" r="3.5"/><circle cx="1351.935" cy="52.625" r="3.5"/><circle cx="1367.122" cy="52.625" r="3.5"/><circle cx="1380.622" cy="48.812" r="3.5"/><circle cx="1432.077" cy="48.938" r="3.5"/><circle cx="1445.702" cy="52.625" r="3.5"/><circle cx="1460.89" cy="52.625" r="3.5"/><circle cx="1474.39" cy="48.812" r="3.5"/></g><defs><path id="B" d="M234.318 22.668c12.773 0 23.2-10.046 23.81-22.668h-47.622c.612 12.622 11.038 22.668 23.81 22.668z"/></defs></svg>