<svg xmlns="http://www.w3.org/2000/svg" height="1500.001" width="56.125" preserveAspectRatio="none"><g transform="rotate(-90 750 750)" fill="#d3d3d3"><path d="M46.788 34.861c19.475 0 35.381-15.534 36.004-34.861h-7.098c-.618 15.413-13.344 27.763-28.906 27.763-15.563 0-28.289-12.35-28.907-27.763h-7.097c.622 19.327 16.528 34.861 36.004 34.861z"/><path d="M46.788 22.668c12.773 0 23.2-10.046 23.811-22.668H22.977c.611 12.622 11.037 22.668 23.811 22.668zm93.587 12.193c19.476 0 35.382-15.534 36.004-34.861h-7.098c-.618 15.413-13.345 27.763-28.906 27.763-15.561 0-28.289-12.35-28.907-27.763h-7.097c.622 19.327 16.528 34.861 36.004 34.861z"/><path d="M140.375 22.668c12.772 0 23.199-10.046 23.81-22.668h-47.621c.611 12.622 11.038 22.668 23.811 22.668zm93.943 12.193c19.475 0 35.381-15.534 36.004-34.861h-7.098c-.618 15.413-13.343 27.763-28.906 27.763-15.563 0-28.288-12.35-28.906-27.763h-7.098c.623 19.327 16.529 34.861 36.004 34.861z"/><path d="M234.318 22.668c12.773 0 23.199-10.046 23.811-22.668h-47.622c.612 12.622 11.038 22.668 23.811 22.668zm93.586 12.193c19.477 0 35.383-15.534 36.005-34.861h-7.097c-.618 15.413-13.346 27.763-28.908 27.763-15.561 0-28.288-12.35-28.906-27.763H291.9c.623 19.327 16.53 34.861 36.004 34.861z"/><path d="M327.904 22.668c12.774 0 23.201-10.046 23.812-22.668h-47.621c.612 12.622 11.037 22.668 23.809 22.668zm93.945 12.193c19.475 0 35.381-15.534 36.004-34.861h-7.098c-.618 15.413-13.344 27.763-28.906 27.763-15.563 0-28.289-12.35-28.907-27.763h-7.098c.623 19.327 16.529 34.861 36.005 34.861z"/><path d="M421.849 22.668c12.773 0 23.199-10.046 23.81-22.668h-47.623c.612 12.622 11.039 22.668 23.813 22.668zm93.587 12.193c19.477 0 35.381-15.534 36.004-34.861h-7.097c-.618 15.413-13.345 27.763-28.907 27.763S487.148 15.413 486.53 0h-7.098c.622 19.327 16.527 34.861 36.004 34.861z"/><path d="M515.436 22.668c12.773 0 23.2-10.046 23.811-22.668h-47.622c.611 12.622 11.037 22.668 23.811 22.668zm93.943 12.193c19.475 0 35.381-15.534 36.004-34.861h-7.098c-.618 15.413-13.345 27.763-28.906 27.763-15.563 0-28.289-12.35-28.907-27.763h-7.097c.623 19.327 16.528 34.861 36.004 34.861z"/><path d="M609.379 22.668c12.773 0 23.199-10.046 23.811-22.668h-47.622c.612 12.622 11.038 22.668 23.811 22.668zm93.587 12.193c19.476 0 35.38-15.534 36.003-34.861h-7.096c-.618 15.413-13.345 27.763-28.907 27.763-15.561 0-28.289-12.35-28.907-27.763h-7.097c.622 19.327 16.528 34.861 36.004 34.861z"/><path d="M702.966 22.668c12.773 0 23.2-10.046 23.811-22.668h-47.622c.612 12.622 11.038 22.668 23.811 22.668zm93.944 12.193c19.478 0 35.38-15.534 36.002-34.861h-7.096c-.619 15.413-13.347 27.763-28.906 27.763-15.563 0-28.289-12.35-28.907-27.763h-7.099c.623 19.327 16.529 34.861 36.006 34.861z"/><path d="M796.91 22.668c12.771 0 23.199-10.046 23.812-22.668h-47.624c.612 12.622 11.039 22.668 23.812 22.668zm93.587 12.193c19.477 0 35.381-15.534 36.003-34.861h-7.096c-.619 15.413-13.347 27.763-28.907 27.763-15.562 0-28.286-12.35-28.905-27.763h-7.1c.623 19.327 16.53 34.861 36.005 34.861z"/><path d="M890.497 22.668c12.773 0 23.198-10.046 23.811-22.668h-47.622c.612 12.622 11.038 22.668 23.811 22.668zm93.943 12.193c19.476 0 35.38-15.534 36.003-34.861h-7.097c-.619 15.413-13.346 27.763-28.906 27.763-15.563 0-28.289-12.35-28.908-27.763h-7.095c.623 19.327 16.529 34.861 36.003 34.861z"/><path d="M984.44 22.668c12.771 0 23.198-10.046 23.811-22.668h-47.622c.611 12.622 11.036 22.668 23.811 22.668zm93.587 12.193c19.477 0 35.381-15.534 36.004-34.861h-7.096c-.619 15.413-13.346 27.763-28.908 27.763-15.562 0-28.289-12.35-28.908-27.763h-7.096c.623 19.327 16.529 34.861 36.004 34.861z"/><path d="M1078.027 22.668c12.773 0 23.199-10.046 23.812-22.668h-47.622c.612 12.622 11.037 22.668 23.81 22.668zm93.944 12.193c19.476 0 35.382-15.534 36.004-34.861h-7.098c-.619 15.413-13.346 27.763-28.906 27.763-15.562 0-28.287-12.35-28.906-27.763h-7.1c.623 19.327 16.531 34.861 36.006 34.861z"/><path d="M1171.971 22.668c12.773 0 23.199-10.046 23.811-22.668h-47.621c.61 12.622 11.035 22.668 23.81 22.668zm93.586 12.193c19.478 0 35.383-15.534 36.006-34.861h-7.098c-.619 15.413-13.346 27.763-28.908 27.763-15.562 0-28.287-12.35-28.906-27.763h-7.098c.623 19.327 16.528 34.861 36.004 34.861z"/><path d="M1265.557 22.668c12.774 0 23.2-10.046 23.812-22.668h-47.624c.612 12.622 11.039 22.668 23.812 22.668zm93.943 12.193c19.477 0 35.384-15.534 36.006-34.861h-7.098c-.619 15.413-13.344 27.763-28.908 27.763-15.562 0-28.287-12.35-28.906-27.763h-7.098c.623 19.327 16.531 34.861 36.004 34.861z"/><path d="M1359.5 22.668c12.773 0 23.2-10.046 23.812-22.668h-47.624c.613 12.622 11.041 22.668 23.812 22.668z"/><path d="M1488.643 29.2A20.71 20.71 0 0 0 1500 32.808V0h-6.904c-.624 21.535-18.324 38.864-40.008 38.864-21.683 0-39.383-17.33-40.008-38.864h-13.57c-.625 21.535-18.324 38.864-40.01 38.864-21.683 0-39.381-17.33-40.006-38.864h-13.928c-.625 21.535-18.324 38.864-40.01 38.864-21.684 0-39.383-17.33-40.008-38.864h-13.57c-.625 21.535-18.325 38.864-40.008 38.864-21.684 0-39.384-17.33-40.008-38.864h-13.927c-.625 21.535-18.326 38.864-40.009 38.864S1038.645 21.535 1038.02 0h-13.571c-.625 21.535-18.325 38.864-40.008 38.864-21.685 0-39.385-17.33-40.01-38.864h-13.925c-.625 21.535-18.326 38.864-40.009 38.864S851.113 21.535 850.488 0h-13.571c-.625 21.535-18.324 38.864-40.007 38.864-21.684 0-39.384-17.33-40.009-38.864h-13.927c-.624 21.535-18.325 38.864-40.008 38.864-21.683 0-39.384-17.329-40.008-38.864h-13.571c-.624 21.535-18.325 38.864-40.008 38.864-21.684 0-39.384-17.33-40.008-38.864h-13.928c-.624 21.535-18.324 38.864-40.008 38.864-21.683 0-39.384-17.33-40.008-38.864h-13.572c-.624 21.535-18.324 38.864-40.007 38.864-21.684 0-39.385-17.33-40.009-38.864h-13.928c-.624 21.535-18.324 38.864-40.008 38.864-21.683 0-39.382-17.33-40.006-38.864h-13.572c-.624 21.535-18.324 38.864-40.008 38.864S194.933 21.534 194.309 0h-13.928c-.624 21.535-18.325 38.864-40.007 38.864-21.684 0-39.384-17.33-40.008-38.864H86.795c-.624 21.535-18.325 38.864-40.008 38.864C25.104 38.864 7.404 21.535 6.78 0H0v32.81a20.716 20.716 0 0 0 11.292-3.542c.774.9 1.575 1.784 2.423 2.633a47.784 47.784 0 0 0 3.464 3.139A28.779 28.779 0 0 1 0 40.944v7.098c8.878-.077 16.999-3.377 23.247-8.788 7.07 4.133 15.134 6.346 23.541 6.346 8.303 0 16.271-2.162 23.278-6.197 6.299 5.388 14.471 8.647 23.39 8.647 8.968 0 17.18-3.292 23.492-8.732 7.043 4.091 15.065 6.282 23.428 6.282 8.444 0 16.544-2.231 23.637-6.401 6.33 5.507 14.589 8.851 23.618 8.851 8.923 0 17.098-3.261 23.399-8.653 7.01 4.039 14.981 6.203 23.289 6.203 8.303 0 16.27-2.162 23.277-6.196 6.3 5.388 14.471 8.646 23.391 8.646 8.967 0 17.18-3.292 23.492-8.731 7.043 4.09 15.065 6.281 23.426 6.281 8.445 0 16.545-2.231 23.639-6.401 6.329 5.507 14.588 8.851 23.619 8.851 8.923 0 17.098-3.261 23.398-8.653 7.011 4.04 14.982 6.203 23.29 6.203 8.303 0 16.27-2.162 23.277-6.196 6.299 5.388 14.472 8.646 23.391 8.646 8.967 0 17.179-3.292 23.492-8.732 7.043 4.091 15.065 6.282 23.427 6.282 8.445 0 16.544-2.231 23.638-6.4 6.33 5.507 14.589 8.851 23.618 8.851 8.924 0 17.099-3.261 23.399-8.653 7.01 4.039 14.981 6.203 23.289 6.203 8.303 0 16.27-2.162 23.277-6.197 6.299 5.388 14.471 8.647 23.39 8.647 8.968 0 17.18-3.292 23.492-8.731 7.043 4.09 15.065 6.281 23.427 6.281 8.445 0 16.544-2.231 23.638-6.401 6.33 5.507 14.588 8.851 23.618 8.851 8.924 0 17.099-3.261 23.399-8.653 7.01 4.039 14.98 6.203 23.289 6.203 8.303 0 16.27-2.162 23.277-6.196 6.299 5.388 14.471 8.646 23.391 8.646 8.967 0 17.18-3.292 23.492-8.731 7.043 4.09 15.064 6.281 23.427 6.281 8.444 0 16.544-2.231 23.638-6.401 6.329 5.507 14.59 8.852 23.617 8.852 8.925 0 17.1-3.261 23.4-8.653 7.009 4.039 14.979 6.203 23.288 6.203 8.304 0 16.271-2.162 23.278-6.197 6.298 5.388 14.471 8.647 23.389 8.647 8.969 0 17.18-3.292 23.492-8.732 7.044 4.091 15.065 6.282 23.428 6.282 8.444 0 16.544-2.231 23.638-6.401 6.33 5.507 14.589 8.851 23.619 8.851 8.923 0 17.099-3.261 23.397-8.653 7.011 4.039 14.981 6.203 23.289 6.203 8.302 0 16.27-2.162 23.277-6.197 6.299 5.388 14.471 8.647 23.391 8.647 8.967 0 17.18-3.292 23.492-8.732 7.043 4.091 15.064 6.282 23.426 6.282 8.445 0 16.546-2.231 23.64-6.401 6.33 5.507 14.588 8.851 23.617 8.851 8.925 0 17.099-3.262 23.397-8.654 7.011 4.04 14.981 6.204 23.289 6.204 8.303 0 16.271-2.162 23.278-6.197 6.3 5.389 14.472 8.647 23.392 8.647 8.968 0 17.18-3.292 23.492-8.732 7.043 4.091 15.064 6.282 23.426 6.282 8.445 0 16.545-2.231 23.638-6.4 6.25 5.435 14.381 8.757 23.274 8.842v-7.097a28.8 28.8 0 0 1-17.231-5.964 47.711 47.711 0 0 0 3.393-3.08 49.224 49.224 0 0 0 2.48-2.703zM93.455 40.952a28.774 28.774 0 0 1-17.273-5.745A47.48 47.48 0 0 0 79.86 31.9c.79-.79 1.537-1.611 2.262-2.446a20.694 20.694 0 0 0 11.333 3.371c4.253 0 8.198-1.288 11.493-3.478a47.506 47.506 0 0 0 2.355 2.553 47.279 47.279 0 0 0 3.555 3.21 28.78 28.78 0 0 1-17.403 5.842zm94.175 0c-6.607 0-12.7-2.231-17.576-5.973a47.696 47.696 0 0 0 3.393-3.079 47.73 47.73 0 0 0 2.482-2.7 20.682 20.682 0 0 0 11.702 3.625c4.189 0 8.083-1.247 11.348-3.377.728.837 1.476 1.66 2.268 2.452a47.455 47.455 0 0 0 3.669 3.299 28.775 28.775 0 0 1-17.286 5.753zm93.356 0a28.772 28.772 0 0 1-17.273-5.745 47.687 47.687 0 0 0 3.678-3.307 47.75 47.75 0 0 0 2.263-2.446 20.689 20.689 0 0 0 11.333 3.371c4.253 0 8.198-1.288 11.492-3.478a47.506 47.506 0 0 0 2.355 2.553 47.716 47.716 0 0 0 3.555 3.21 28.778 28.778 0 0 1-17.403 5.842zm94.176 0a28.785 28.785 0 0 1-17.577-5.972 47.725 47.725 0 0 0 3.394-3.08 47.37 47.37 0 0 0 2.481-2.7 20.685 20.685 0 0 0 11.703 3.625c4.189 0 8.082-1.246 11.347-3.376.727.837 1.476 1.66 2.267 2.452a47.455 47.455 0 0 0 3.669 3.299 28.777 28.777 0 0 1-17.284 5.752zm93.355 0a28.775 28.775 0 0 1-17.274-5.745 47.687 47.687 0 0 0 3.678-3.307 47.75 47.75 0 0 0 2.263-2.446 20.695 20.695 0 0 0 11.334 3.371c4.253 0 8.198-1.288 11.492-3.478a47.506 47.506 0 0 0 2.355 2.553 47.716 47.716 0 0 0 3.555 3.21 28.78 28.78 0 0 1-17.403 5.842zm94.174 0a28.784 28.784 0 0 1-17.576-5.972 47.711 47.711 0 0 0 3.393-3.08 47.37 47.37 0 0 0 2.481-2.7 20.686 20.686 0 0 0 11.702 3.625c4.189 0 8.083-1.247 11.348-3.377.728.837 1.476 1.66 2.268 2.452a47.455 47.455 0 0 0 3.669 3.299 28.77 28.77 0 0 1-17.285 5.753zm93.356 0a28.78 28.78 0 0 1-17.274-5.745 47.48 47.48 0 0 0 3.678-3.307 47.75 47.75 0 0 0 2.263-2.446 20.689 20.689 0 0 0 11.333 3.371c4.253 0 8.198-1.289 11.492-3.479a47.94 47.94 0 0 0 2.355 2.554 47.279 47.279 0 0 0 3.555 3.21 28.772 28.772 0 0 1-17.402 5.842zm94.175 0c-6.606 0-12.7-2.231-17.576-5.973a47.938 47.938 0 0 0 3.393-3.079 47.73 47.73 0 0 0 2.482-2.7 20.684 20.684 0 0 0 11.702 3.625c4.191 0 8.084-1.247 11.349-3.377.728.837 1.476 1.66 2.268 2.452a47.27 47.27 0 0 0 3.669 3.299 28.783 28.783 0 0 1-17.287 5.753zm93.356 0a28.772 28.772 0 0 1-17.274-5.745 47.666 47.666 0 0 0 3.678-3.307c.79-.79 1.536-1.611 2.263-2.446a20.697 20.697 0 0 0 11.334 3.371c4.253 0 8.197-1.288 11.492-3.478a47.506 47.506 0 0 0 2.355 2.553 47.468 47.468 0 0 0 3.554 3.209 28.77 28.77 0 0 1-17.402 5.843zm94.174 0a28.784 28.784 0 0 1-17.576-5.972 47.711 47.711 0 0 0 3.393-3.08c.87-.87 1.689-1.776 2.482-2.7a20.68 20.68 0 0 0 11.701 3.625c4.189 0 8.084-1.247 11.349-3.377a48.014 48.014 0 0 0 2.269 2.453 47.442 47.442 0 0 0 3.668 3.299 28.777 28.777 0 0 1-17.286 5.752zm93.355 0a28.773 28.773 0 0 1-17.272-5.745 47.887 47.887 0 0 0 3.679-3.307 47.73 47.73 0 0 0 2.262-2.446 20.686 20.686 0 0 0 11.332 3.371c4.254 0 8.198-1.289 11.493-3.479a47.92 47.92 0 0 0 2.354 2.554 47.716 47.716 0 0 0 3.555 3.21 28.773 28.773 0 0 1-17.403 5.842zm94.177 0a28.78 28.78 0 0 1-17.578-5.973 47.938 47.938 0 0 0 3.393-3.079 47.73 47.73 0 0 0 2.482-2.7 20.685 20.685 0 0 0 11.703 3.625c4.188 0 8.081-1.247 11.346-3.377.728.837 1.476 1.66 2.268 2.452a47.469 47.469 0 0 0 3.67 3.299 28.772 28.772 0 0 1-17.284 5.753zm93.355 0a28.764 28.764 0 0 1-17.273-5.746 47.639 47.639 0 0 0 3.677-3.306 47.75 47.75 0 0 0 2.263-2.446 20.695 20.695 0 0 0 11.334 3.371 20.69 20.69 0 0 0 11.493-3.479c.754.873 1.531 1.73 2.355 2.554a47.902 47.902 0 0 0 3.554 3.21 28.78 28.78 0 0 1-17.403 5.842zm94.174 0a28.786 28.786 0 0 1-17.576-5.972 47.508 47.508 0 0 0 3.394-3.08 48.087 48.087 0 0 0 2.481-2.7 20.68 20.68 0 0 0 11.701 3.625c4.189 0 8.083-1.247 11.349-3.377a47.543 47.543 0 0 0 2.268 2.453 47.442 47.442 0 0 0 3.668 3.299 28.776 28.776 0 0 1-17.285 5.752zm93.357 0a28.772 28.772 0 0 1-17.275-5.746 47.467 47.467 0 0 0 3.678-3.306 47.77 47.77 0 0 0 2.263-2.447 20.699 20.699 0 0 0 11.335 3.372c4.253 0 8.198-1.289 11.492-3.479.754.873 1.531 1.73 2.355 2.554a47.468 47.468 0 0 0 3.554 3.209 28.77 28.77 0 0 1-17.402 5.843z"/><path d="M1453.088 34.861c19.476 0 35.383-15.534 36.006-34.861h-7.098c-.619 15.413-13.346 27.763-28.908 27.763-15.562 0-28.288-12.35-28.906-27.763h-7.098c.622 19.327 16.528 34.861 36.004 34.861z"/><path d="M1453.088 22.668c12.775 0 23.199-10.046 23.812-22.668h-47.622c.611 12.622 11.035 22.668 23.81 22.668z"/><circle r="3.5" cy="48.938" cx="25.562"/><circle r="3.5" cy="52.625" cx="39.188"/><circle r="3.5" cy="52.625" cx="54.375"/><circle r="3.5" cy="48.812" cx="67.875"/><circle r="3.5" cy="48.938" cx="119.331"/><circle r="3.5" cy="52.625" cx="132.956"/><circle r="3.5" cy="52.625" cx="148.143"/><circle r="3.5" cy="48.812" cx="161.643"/><circle r="3.5" cy="48.938" cx="213.098"/><circle r="3.5" cy="52.625" cx="226.723"/><circle r="3.5" cy="52.625" cx="241.911"/><circle r="3.5" cy="48.812" cx="255.411"/><circle r="3.5" cy="48.938" cx="306.866"/><circle r="3.5" cy="52.625" cx="320.491"/><circle r="3.5" cy="52.625" cx="335.679"/><circle r="3.5" cy="48.812" cx="349.179"/><circle r="3.5" cy="48.938" cx="400.634"/><circle r="3.5" cy="52.625" cx="414.259"/><circle r="3.5" cy="52.625" cx="429.446"/><circle r="3.5" cy="48.812" cx="442.946"/><circle r="3.5" cy="48.938" cx="494.402"/><circle r="3.5" cy="52.625" cx="508.027"/><circle r="3.5" cy="52.625" cx="523.214"/><circle r="3.5" cy="48.812" cx="536.714"/><circle r="3.5" cy="48.938" cx="588.17"/><circle r="3.5" cy="52.625" cx="601.795"/><circle r="3.5" cy="52.625" cx="616.982"/><circle r="3.5" cy="48.812" cx="630.482"/><circle r="3.5" cy="48.938" cx="681.938"/><circle r="3.5" cy="52.625" cx="695.562"/><circle r="3.5" cy="52.625" cx="710.75"/><circle r="3.5" cy="48.812" cx="724.25"/><circle r="3.5" cy="48.938" cx="775.705"/><circle r="3.5" cy="52.625" cx="789.33"/><circle r="3.5" cy="52.625" cx="804.518"/><circle r="3.5" cy="48.812" cx="818.018"/><circle r="3.5" cy="48.938" cx="869.473"/><circle r="3.5" cy="52.625" cx="883.098"/><circle r="3.5" cy="52.625" cx="898.285"/><circle r="3.5" cy="48.812" cx="911.785"/><circle r="3.5" cy="48.938" cx="963.24"/><circle r="3.5" cy="52.625" cx="976.865"/><circle r="3.5" cy="52.625" cx="992.053"/><circle r="3.5" cy="48.812" cx="1005.553"/><circle r="3.5" cy="48.938" cx="1057.008"/><circle r="3.5" cy="52.625" cx="1070.633"/><circle r="3.5" cy="52.625" cx="1085.82"/><circle r="3.5" cy="48.812" cx="1099.32"/><circle r="3.5" cy="48.938" cx="1150.775"/><circle r="3.5" cy="52.625" cx="1164.4"/><circle r="3.5" cy="52.625" cx="1179.588"/><circle r="3.5" cy="48.812" cx="1193.088"/><circle r="3.5" cy="48.938" cx="1244.542"/><circle r="3.5" cy="52.625" cx="1258.167"/><circle r="3.5" cy="52.625" cx="1273.354"/><circle r="3.5" cy="48.812" cx="1286.854"/><circle r="3.5" cy="48.938" cx="1338.31"/><circle r="3.5" cy="52.625" cx="1351.935"/><circle r="3.5" cy="52.625" cx="1367.122"/><circle r="3.5" cy="48.812" cx="1380.622"/><circle r="3.5" cy="48.938" cx="1432.077"/><circle r="3.5" cy="52.625" cx="1445.702"/><circle r="3.5" cy="52.625" cx="1460.89"/><circle r="3.5" cy="48.812" cx="1474.39"/></g></svg>