<svg xmlns="http://www.w3.org/2000/svg" preserveAspectRatio="none" viewBox="0 0 1500 150"><path fill="#d3d3d3" d="M0 0v78.5s11.5 8 10.5 29 9 26 18 26 7-19 6-30 21-18 20-3 0 22 9 23-2-19 3-39 28-61 35-50 3 43 0 55 6 18 6 18 14 19 14 27 13 20 15 8 12-19 17-37 10-47 22-43 5 28 16 34 21-2 21-16 11-29 13-21-2 40 16 37 7-22 16-22 13 17 12 29 5 17 8 10 0-20 1-33 12-2 9 30 12 32 19 32-2-63 3-85 6 7 6 23 0 33 3 33 9-9 7-25 9-17 15-21 6.11-44.997 12-46 3 33 3 44 6 17 14 23 23 15 24 26 22 9 20-5 9-23 14-23 20.308-28.867 27-29 6 22 3 32-1 37 13 37 6-47 6-68 7-56 7-24 2 51 0 68 1 42 14 37 3-41 2-65-2-45 1-36 1 42 10 46 14 22 23 20 17-33 24-35c5.946-1.7 8.015-26.018 15-23s3.042 30.96 8 26c6-6 13 0 21 7s29-9 39-16 19 16 20 24 17 2 17-12 15-35 18-22 5 29 1 42-3 27 9 26 15-11 12-25-8.283-51.46 3-53 9 25 14 31 5 40 8 52 19-1 18-6 2.257-20.862 1.997-33.666c-.67-33 16.003-37.334 16.003-37.334 3 16 20.33 17.668 21.33 34.668s.667 19.667-1.333 30.667S800.5 132.5 809.5 132.5s16-16 14-25-1-37 8-34 8 31 10 40 10 4 10-4-2-35-1-41 13-18 12 11-3 49 5 64 20-15 15-37-.796-57.54 4-58c21.513-2.065 15 37 15 53s-1 29 10 29 6-18 6-29 .262-53.89 10-55 8 21 15 23 15 33 24 35 14-16 23-20 5-14 8-23 4-11 3 13-11 60 2 65 16-20 14-37 0-36 0-68 7 3 7 24-3 68 11 68 11-27 8-37 3-32 3-32c0 18 22 29 27 29s16 9 14 23 19 16 20 5 9-20 17-26 21-12 21-23-3.593-42.954 3-44 6 42 12 46 17 5 15 21 4 25 7 25 3-17 3-33 1-45 6-23-4 85 3 85 22 0 19-32 8-43 9-30-2 26 1 33 9 2 8-10 3-29 12-29-2 19 16 22 17-9 19-17 10-13 10 1 11 32 22 26 3-40 15-44 22.665 8.333 24.665 43.667c1.056 18.65 11.335 15.333 13.335 27.333s16 9 16 1 14.072-17.2 20.665-27.667c6.558-10.4 10.334-41 17.334-52s12 9.667 17 29.667-6 40 3 39 10-8 9-23 21-8 20 3-3 30 6 30 19-5 18-26 10.5-29 10.5-29V0H0z"/></svg>