<svg xmlns="http://www.w3.org/2000/svg" height="1500" width="135" viewBox="0 0 134.5 1500" preserveAspectRatio="none"><g transform="rotate(270 750 750)"><path d="M89.708 30.535L159.5 58.5l124-14 168 50 194.58-33.8L455.5 18.5l-98 22-164-24zm1152.976 67.947L1109.5 56.5 941.88 83.8l167.62 50.7z" opacity=".36" fill="#d3d3d3"/><g fill="#d3d3d3"><path d="M831.5 101.777l284-65.277 178 78L1500 42.666V0H0v42.666L193.5 16.5l164 24 98-22z"/><path d="M336.5 46.5l143.923-8.588L681.698 68.6 455.5 18.5l-98 22-154.232-22.57z" opacity=".6"/><path d="M1115.5 36.5l-284 65.277 278-45.277 184 58z" opacity=".8"/></g></g></svg>