<svg xmlns="http://www.w3.org/2000/svg" height="1501" width="134" viewBox="0 0 133.345 1500.001" preserveAspectRatio="none" fill="#d3d3d3"><path d="M49.812 921.375l13.948-75.643-36.35 86.084c-10.122 23.97-10.264 63.254-.316 87.297l25.32 61.197-6.5-65.334c-2.575-25.892-.822-68.013 3.896-93.6zm50.93-250.105l-13.894-33.2c-10.042-24.004-13.813-64.463-8.38-89.9l25.795-120.842-47.433 107.34c-10.518 23.8-14.858 64.13-9.646 89.62L67.896 725.56c5.212 25.492 5.617 67.286.898 92.874L63.76 845.73l36.836-87.236c10.123-23.97 10.188-63.222.146-87.225zm23.394-378.755l-11.643-23.57 3.062 15.12c5.164 25.502 4.944 67.187-.488 92.633l-10.805 50.613 21.702-49.107c10.517-23.8 9.695-62.36-1.828-85.7zm-60.663 982.652l11.92-74.56c4.108-25.693-.67-66.387-10.62-90.43L52.416 1080.3l6.963 70.002c2.575 25.892-1.074 67.572-8.1 92.623l-17.386 61.9c-7.036 25.05-6.916 66.008.267 91.017l29.9 104.15H96.3l-29.85-131.977c-5.74-25.378-7.075-67.165-2.967-92.858z" opacity=".6"/><path d="M0 1500.002h64.062L34.15 1395.85c-7.182-25-7.302-65.966-.267-91.017l17.386-61.9c7.036-25.05 10.685-66.73 8.1-92.623l-6.963-70.002-25.32-61.197c-9.948-24.043-9.806-63.326.316-87.297l36.35-86.084 5.033-27.297c4.718-25.588 4.314-67.382-.898-92.874l-20.7-101.293c-5.212-25.492-.872-65.82 9.646-89.62l47.43-107.346 10.805-50.613c5.433-25.446 5.652-67.13.488-92.633l-3.062-15.12-10.9-22.088c-11.523-23.33-18.23-63.53-14.905-89.338l3.563-27.653c3.325-25.807-1.205-65.583-10.067-88.392L64.062.002H0z"/><path d="M90.242 129.864l-3.563 27.653c-3.325 25.807 3.382 66 14.905 89.338l10.9 22.088-3.673-18.14c-5.164-25.502-4.6-67.1 1.252-92.464l7.803-33.8c5.853-25.354 3.4-63.746-5.473-85.318L96.288.001H64.062l16.113 41.47c8.862 22.8 13.392 62.586 10.067 88.392z" opacity=".6"/></svg>