<svg xmlns="http://www.w3.org/2000/svg" height="1499.971" width="47.09" preserveAspectRatio="none"><path d="M39.09 1461.999c0-9.492 8-9.492 8-18.984s-8-9.492-8-18.984c0-9.494 8-9.494 8-18.987 0-9.493-8-9.493-8-18.985 0-9.492 8-9.492 8-18.984s-8-9.492-8-18.984c0-9.493 8-9.493 8-18.987 0-9.493-8-9.493-8-18.985 0-9.492 8-9.493 8-18.985 0-9.492-8-9.492-8-18.985 0-9.494 8-9.494 8-18.988 0-9.492-8-9.492-8-18.985 0-9.493 8-9.493 8-18.985 0-9.493-8-9.493-8-18.987 0-9.493 8-9.493 8-18.986s-8-9.493-8-18.985c0-9.493 8-9.493 8-18.986s-8-9.493-8-18.986 8-9.493 8-18.985c0-9.492-8-9.492-8-18.986 0-9.493 8-9.493 8-18.986s-8-9.493-8-18.986c0-9.494 8-9.494 8-18.987 0-9.493-8-9.493-8-18.986s8-9.493 8-18.986c0-9.494-8-9.494-8-18.986 0-9.493 8-9.493 8-18.986 0-9.494-8-9.494-8-18.988 0-9.493 8-9.493 8-18.985 0-9.494-8-9.494-8-18.988 0-9.493 8-9.493 8-18.986 0-9.494-8-9.494-8-18.988 0-9.492 8-9.492 8-18.985 0-9.494-8-9.494-8-18.988 0-9.493 8-9.493 8-18.987 0-9.49-8-9.49-8-18.98 0-9.492 8-9.492 8-18.984 0-9.493-8-9.493-8-18.984 0-9.491 8-9.491 8-18.982 0-9.492-8-9.492-8-18.984s8-9.492 8-18.985c0-9.491-8-9.491-8-18.982 0-9.494 8-9.494 8-18.987 0-9.491-8-9.491-8-18.983 0-9.493 8-9.493 8-18.985 0-9.494-8-9.494-8-18.986s8-9.492 8-18.984c0-9.495-8-9.495-8-18.989 0-9.492 8-9.492 8-18.985 0-9.494-8-9.494-8-18.988 0-9.493 8-9.493 8-18.986 0-9.494-8-9.494-8-18.988s8-9.494 8-18.986c0-9.493-8-9.493-8-18.987 0-9.494 8-9.494 8-18.988 0-9.495-8-9.495-8-18.989 0-9.494 8-9.494 8-18.988s-8-9.494-8-18.988 8-9.494 8-18.988-8-9.494-8-18.988 8-9.494 8-18.989c0-9.496-8-9.496-8-18.991s8-9.495 8-18.989c0-9.496-8-9.496-8-18.991 0-9.494 8-9.494 8-18.988s-8-9.494-8-18.987c0-9.494 8-9.494 8-18.988 0-9.496-8-9.496-8-18.991 0-9.494 8-9.494 8-18.988 0-9.495-8-9.495-8-18.99s8-9.495 8-18.991-8-9.496-8-18.993c0-9.494 8-9.494 8-18.987 0-9.497-8-9.497-8-18.994s8-9.497 8-18.995c0-9.5-8-9.5-8-18.999 0-9.499 7.999-9.499 8-18.997H0v1499.971h39.09c0-9.493 8-9.493 8-18.987 0-9.492-8-9.492-8-18.985z" fill="#d3d3d3"/></svg>