<svg xmlns="http://www.w3.org/2000/svg" preserveAspectRatio="none" viewBox="0 0 1500 150" fill="#d3d3d3"><path opacity=".5" d="M672.636 66.505l128.127 21.528-235.1-51.34C459.76 13.566 289.567 20.675 187.46 52.5L118.5 73.984 209.25 58.8c115.087-19.246 323.6-15.778 463.386 7.706z"/><path opacity=".6" d="M0 93.792V110.9l118.508-36.925L0 93.792z"/><path d="M0 0v93.792l118.508-19.818L187.46 52.5c102.108-31.815 272.3-38.924 378.203-15.797l235.1 51.34 85.602 14.383c139.774 23.484 335.023 31.15 433.886 17.038L1500 93.792V0H0z"/><path opacity=".5" d="M886.364 102.416l-85.602-14.383 147.186 32.142c105.903 23.127 273.44 30.5 372.302 16.387L1500 110.9V93.792l-179.75 25.662c-98.862 14.113-294.1 6.446-433.886-17.038z"/></svg>