<svg xmlns="http://www.w3.org/2000/svg" height="1500" width="144" viewBox="0 0 143.733 1500" preserveAspectRatio="none" fill="#d3d3d3"><path d="M66.505 827.364l21.528-128.127-51.34 235.1C13.566 1040.24 20.675 1210.433 52.5 1312.54l21.484 68.95-15.184-90.74c-19.246-115.087-15.778-323.6 7.706-463.386z" opacity=".5"/><path d="M93.792 1500H110.9l-36.925-118.508L93.792 1500z" opacity=".6"/><path d="M0 1500h93.792l-19.818-118.508-21.484-68.95c-31.815-102.108-38.924-272.3-15.797-378.203l51.34-235.1 14.383-85.602c23.484-139.774 31.15-335.023 17.038-433.886L93.792 0H0z"/><path d="M102.416 613.636l-14.383 85.602 32.142-147.186c23.127-105.903 30.5-273.44 16.387-372.302L110.9 0H93.792l25.662 179.75c14.113 98.862 6.446 294.1-17.038 433.886z" opacity=".5"/></svg>