<svg xmlns="http://www.w3.org/2000/svg" height="1500" width="113" viewBox="0 0 112.002 1500" preserveAspectRatio="none"><path d="M0 1500h74.97l24.75-47.812c13.6-26.297 11.95-73.1-3.688-104.03l-37.2-73.557c-15.64-30.92-18.58-82.798-6.532-115.286l26.274-70.852c12.047-32.488 11.312-85.366-1.634-117.507L53.924 913.84c-12.945-32.14-11.5-84.104 3.214-115.476l43.578-92.914c14.714-31.37 15.1-82.878.836-114.46l-24.664-54.646c-14.254-31.583-16.675-84.225-5.38-116.98l3.923-11.377c11.296-32.757 11.1-86.296-.408-118.975L43.42 199.354c-11.52-32.68-10.987-85.96 1.184-118.4L74.97 0H0z" fill="#d3d3d3"/></svg>