<svg xmlns="http://www.w3.org/2000/svg" preserveAspectRatio="none" viewBox="0 0 1500 150" fill="#d3d3d3"><path opacity=".6" d="M578.627 49.812L654.27 63.76 568.186 27.4c-23.97-10.122-63.254-10.264-87.297-.316l-61.197 25.32 65.334-6.5c25.892-2.575 68.013-.822 93.6 3.896zm250.103 50.93l33.2-13.894c24.004-10.042 64.463-13.813 89.9-8.38l120.842 25.795L965.354 56.83c-23.8-10.518-64.13-14.858-89.62-9.646L774.44 67.895c-25.492 5.212-67.286 5.617-92.874.898L654.27 63.76l87.236 36.836c23.97 10.123 63.222 10.188 87.225.146zm378.757 23.394l23.57-11.643-15.12 3.062c-25.502 5.164-67.187 4.944-92.633-.488l-50.613-10.805 49.107 21.702c23.8 10.517 62.36 9.695 85.7-1.828zM224.835 63.473l74.56 11.92c25.693 4.108 66.387-.67 90.43-10.62l29.866-12.357-70 6.964c-25.892 2.575-67.572-1.074-92.623-8.1l-61.9-17.386c-25.05-7.036-66.008-6.916-91.017.267L0 64.062V96.3l131.977-29.85c25.378-5.74 67.165-7.075 92.858-2.967z"/><path d="M0 0v64.062L104.15 34.15c25-7.182 65.966-7.302 91.017-.267l61.9 17.386c25.05 7.036 66.73 10.685 92.623 8.1l70.002-6.963 61.197-25.32c24.043-9.948 63.326-9.806 87.297.316l86.084 36.35 27.297 5.033c25.588 4.718 67.382 4.314 92.874-.898l101.293-20.7c25.492-5.212 65.82-.872 89.62 9.646l107.337 47.434 50.613 10.805c25.446 5.433 67.13 5.652 92.633.488l15.12-3.062 22.088-10.9c23.33-11.523 63.53-18.23 89.338-14.905l27.653 3.563c25.807 3.325 65.583-1.205 88.392-10.067L1500 64.062V0H0z"/><path opacity=".6" d="M1370.138 90.242l-27.653-3.563c-25.807-3.325-66 3.382-89.338 14.905l-22.088 10.9 18.14-3.673c25.502-5.164 67.1-4.6 92.464 1.252l33.8 7.803c25.354 5.853 63.746 3.4 85.318-5.473L1500 96.288V64.062l-41.47 16.113c-22.8 8.862-62.586 13.392-88.392 10.067z"/></svg>