<svg xmlns="http://www.w3.org/2000/svg" preserveAspectRatio="none" viewBox="0 0 1500 150"><path fill="#d3d3d3" d="M37.972 39.1c9.492 0 9.492 8 18.984 8s9.492-8 18.984-8 9.494 8 18.987 8 9.493-8 18.985-8 9.492 8 18.984 8 9.492-8 18.984-8 9.493 8 18.987 8 9.493-8 18.985-8 9.493 8 18.985 8 9.492-8 18.985-8 9.494 8 18.988 8 9.492-8 18.985-8 9.493 8 18.985 8 9.493-8 18.987-8 9.493 8 18.986 8 9.493-8 18.985-8 9.493 8 18.986 8 9.493-8 18.986-8 9.493 8 18.985 8 9.492-8 18.986-8 9.493 8 18.986 8 9.493-8 18.986-8 9.494 8 18.987 8 9.493-8 18.986-8 9.493 8 18.986 8 9.494-8 18.986-8 9.493 8 18.986 8 9.494-8 18.988-8 9.493 8 18.985 8 9.494-8 18.988-8 9.493 8 18.986 8 9.494-8 18.988-8 9.492 8 18.985 8 9.494-8 18.988-8 9.493 8 18.987 8 9.5-8 18.98-8 9.492 8 18.984 8 9.493-8 18.984-8 9.49 8 18.982 8 9.492-8 18.984-8 9.492 8 18.985 8 9.49-8 18.982-8 9.494 8 18.987 8 9.49-8 18.983-8 9.493 8 18.985 8 9.494-8 18.986-8 9.492 8 18.984 8 9.495-8 18.99-8 9.492 8 18.985 8 9.494-8 18.988-8 9.493 8 18.986 8 9.494-8 18.988-8 9.494 8 18.986 8 9.493-8 18.987-8 9.494 8 18.988 8 9.495-8 18.99-8 9.494 8 18.988 8 9.494-8 18.988-8 9.494 8 18.988 8 9.494-8 18.988-8 9.494 8 18.99 8 9.496-8 18.99-8 9.495 8 18.99 8 9.496-8 18.99-8 9.494 8 18.988 8 9.494-8 18.987-8 9.494 8 18.988 8 9.496-8 18.99-8 9.494 8 18.988 8 9.495-8 19-8 9.495 8 18.99 8 9.496-8 18.993-8 9.494 8 18.987 8 9.497-8 18.994-8 9.497 8 18.995 8 9.5-8 19-8 9.5 8 18.997 8V0H0v39.1c9.493 0 9.493 8 18.987 8s9.492-8 18.985-8z"/></svg>