<svg xmlns="http://www.w3.org/2000/svg" height="1500" width="46" viewBox="0 0 45.594 1500" preserveAspectRatio="none"><path d="M33.594 1461.545l12-19.228-12-19.23 12-19.23-12-19.228 12-19.228-12-19.23 12-19.23-12-19.228 12-19.228-12-19.23 12-19.23-12-19.228 12-19.23-12-19.23 12-19.23-12-19.23 12-19.23-12-19.23 12-19.23-12-19.23 12-19.23-12-19.23 12-19.23-12-19.23 12-19.23-12-19.23 12-19.23-12-19.23 12-19.23-12-19.23 12-19.23-12-19.23 12-19.232-12-19.23 12-19.23-12-19.228 12-19.228-12-19.226 12-19.227-12-19.23 12-19.226-12-19.23 12-19.228-12-19.228 12-19.23-12-19.23 12-19.232-12-19.23 12-19.232-12-19.23 12-19.23-12-19.232 12-19.23-12-19.233 12-19.233-12-19.23 12-19.233-12-19.23 12-19.232-12-19.233 12-19.235-12-19.233 12-19.233-12-19.234 12-19.23-12-19.232 12-19.235-12-19.232 12-19.234-12-19.233 12-19.238-12-19.236 12-19.236-12-19.238 12-19.24-12-19.24H0v1500h33.594l12-19.228z" fill="#d3d3d3"/></svg>