<svg xmlns="http://www.w3.org/2000/svg" preserveAspectRatio="none" viewBox="0 0 1500 150"><path fill="#d3d3d3" d="M0 0v33.594l19.228 12 19.227-12 19.228 12 19.23-12 19.23 12 19.228-12 19.228 12 19.23-12 19.23 12 19.228-12 19.228 12 19.23-12 19.23 12 19.228-12 19.23 12 19.23-12 19.23 12 19.23-12 19.23 12 19.23-12 19.23 12 19.23-12 19.23 12 19.23-12 19.23 12 19.23-12 19.23 12 19.23-12 19.23 12 19.23-12 19.23 12 19.23-12 19.23 12 19.23-12 19.232 12 19.23-12 19.23 12 19.228-12 19.228 12 19.226-12 19.227 12 19.23-12 19.226 12 19.23-12 19.228 12 19.228-12 19.23 12 19.23-12 19.232 12 19.23-12 19.232 12 19.23-12 19.23 12 19.232-12 19.23 12 19.233-12 19.233 12 19.23-12 19.233 12 19.23-12 19.232 12 19.233-12 19.235 12 19.233-12 19.233 12 19.234-12 19.23 12 19.232-12 19.235 12 19.232-12 19.234 12 19.233-12 19.238 12 19.236-12 19.236 12 19.238-12 19.24 12 19.24-12V0z"/></svg>